%TF.GenerationSoftware,KiCad,Pcbnew,5.1.7-a382d34a8~88~ubuntu20.04.1*%
%TF.CreationDate,2021-04-08T15:18:28+02:00*%
%TF.ProjectId,Shield_Nucleo,53686965-6c64-45f4-9e75-636c656f2e6b,rev?*%
%TF.SameCoordinates,Original*%
%TF.FileFunction,Legend,Bot*%
%TF.FilePolarity,Positive*%
%FSLAX46Y46*%
G04 Gerber Fmt 4.6, Leading zero omitted, Abs format (unit mm)*
G04 Created by KiCad (PCBNEW 5.1.7-a382d34a8~88~ubuntu20.04.1) date 2021-04-08 15:18:28*
%MOMM*%
%LPD*%
G01*
G04 APERTURE LIST*
%ADD10C,0.120000*%
%ADD11C,0.150000*%
%ADD12C,0.300000*%
G04 APERTURE END LIST*
D10*
%TO.C,U10*%
X97950000Y-79210000D02*
X97950000Y-77750000D01*
X94790000Y-79210000D02*
X94790000Y-77050000D01*
X94790000Y-79210000D02*
X95720000Y-79210000D01*
X97950000Y-79210000D02*
X97020000Y-79210000D01*
%TO.C,C10*%
X99735000Y-78138748D02*
X99735000Y-78661252D01*
X98265000Y-78138748D02*
X98265000Y-78661252D01*
%TO.C,C9*%
X94435000Y-78188748D02*
X94435000Y-78711252D01*
X92965000Y-78188748D02*
X92965000Y-78711252D01*
%TO.C,U9*%
X65240000Y-67000000D02*
X65240000Y-65600000D01*
X67560000Y-65600000D02*
X67560000Y-67500000D01*
%TO.C,U8*%
X113040000Y-69100000D02*
X113040000Y-67700000D01*
X115360000Y-67700000D02*
X115360000Y-69600000D01*
%TO.C,U7*%
X54500000Y-43960000D02*
X53100000Y-43960000D01*
X53100000Y-41640000D02*
X55000000Y-41640000D01*
%TO.C,U6*%
X91260000Y-73700000D02*
X91260000Y-75100000D01*
X88940000Y-75100000D02*
X88940000Y-73200000D01*
%TO.C,U5*%
X102160000Y-73100000D02*
X102160000Y-74500000D01*
X99840000Y-74500000D02*
X99840000Y-72600000D01*
%TO.C,U4*%
X61100000Y-56060000D02*
X59700000Y-56060000D01*
X59700000Y-53740000D02*
X61600000Y-53740000D01*
%TO.C,R37*%
X63365000Y-66539564D02*
X63365000Y-66085436D01*
X64835000Y-66539564D02*
X64835000Y-66085436D01*
%TO.C,R36*%
X110865000Y-68627064D02*
X110865000Y-68172936D01*
X112335000Y-68627064D02*
X112335000Y-68172936D01*
%TO.C,R35*%
X53939564Y-45635000D02*
X53485436Y-45635000D01*
X53939564Y-44165000D02*
X53485436Y-44165000D01*
%TO.C,R34*%
X68065000Y-70239564D02*
X68065000Y-69785436D01*
X69535000Y-70239564D02*
X69535000Y-69785436D01*
%TO.C,R33*%
X116165000Y-71727064D02*
X116165000Y-71272936D01*
X117635000Y-71727064D02*
X117635000Y-71272936D01*
%TO.C,R32*%
X57339564Y-41235000D02*
X56885436Y-41235000D01*
X57339564Y-39765000D02*
X56885436Y-39765000D01*
%TO.C,R31*%
X65935000Y-69760436D02*
X65935000Y-70214564D01*
X64465000Y-69760436D02*
X64465000Y-70214564D01*
%TO.C,R30*%
X67735000Y-69760436D02*
X67735000Y-70214564D01*
X66265000Y-69760436D02*
X66265000Y-70214564D01*
%TO.C,R29*%
X114035000Y-71372936D02*
X114035000Y-71827064D01*
X112565000Y-71372936D02*
X112565000Y-71827064D01*
%TO.C,R28*%
X115835000Y-71272936D02*
X115835000Y-71727064D01*
X114365000Y-71272936D02*
X114365000Y-71727064D01*
%TO.C,R27*%
X56860436Y-43165000D02*
X57314564Y-43165000D01*
X56860436Y-44635000D02*
X57314564Y-44635000D01*
%TO.C,R26*%
X56885436Y-41365000D02*
X57339564Y-41365000D01*
X56885436Y-42835000D02*
X57339564Y-42835000D01*
%TO.C,R25*%
X93235000Y-74160436D02*
X93235000Y-74614564D01*
X91765000Y-74160436D02*
X91765000Y-74614564D01*
%TO.C,R24*%
X103735000Y-73560436D02*
X103735000Y-74014564D01*
X102265000Y-73560436D02*
X102265000Y-74014564D01*
%TO.C,R23*%
X60639564Y-57835000D02*
X60185436Y-57835000D01*
X60639564Y-56365000D02*
X60185436Y-56365000D01*
%TO.C,R22*%
X88135000Y-70460436D02*
X88135000Y-70914564D01*
X86665000Y-70460436D02*
X86665000Y-70914564D01*
%TO.C,R21*%
X98835000Y-70260436D02*
X98835000Y-70714564D01*
X97365000Y-70260436D02*
X97365000Y-70714564D01*
%TO.C,R20*%
X64439564Y-53135000D02*
X63985436Y-53135000D01*
X64439564Y-51665000D02*
X63985436Y-51665000D01*
%TO.C,R19*%
X90265000Y-70927064D02*
X90265000Y-70472936D01*
X91735000Y-70927064D02*
X91735000Y-70472936D01*
%TO.C,R18*%
X88465000Y-70927064D02*
X88465000Y-70472936D01*
X89935000Y-70927064D02*
X89935000Y-70472936D01*
%TO.C,R17*%
X100965000Y-70627064D02*
X100965000Y-70172936D01*
X102435000Y-70627064D02*
X102435000Y-70172936D01*
%TO.C,R16*%
X99165000Y-70639564D02*
X99165000Y-70185436D01*
X100635000Y-70639564D02*
X100635000Y-70185436D01*
%TO.C,R15*%
X63960436Y-55265000D02*
X64414564Y-55265000D01*
X63960436Y-56735000D02*
X64414564Y-56735000D01*
%TO.C,R14*%
X63985436Y-53465000D02*
X64439564Y-53465000D01*
X63985436Y-54935000D02*
X64439564Y-54935000D01*
%TO.C,JP23*%
X112500000Y-63850000D02*
X112500000Y-66650000D01*
X112500000Y-66650000D02*
X114500000Y-66650000D01*
X114500000Y-66650000D02*
X114500000Y-63850000D01*
X114500000Y-63850000D02*
X112500000Y-63850000D01*
%TO.C,JP22*%
X64700000Y-61700000D02*
X64700000Y-64500000D01*
X64700000Y-64500000D02*
X66700000Y-64500000D01*
X66700000Y-64500000D02*
X66700000Y-61700000D01*
X66700000Y-61700000D02*
X64700000Y-61700000D01*
%TO.C,JP21*%
X49300000Y-44400000D02*
X52100000Y-44400000D01*
X52100000Y-44400000D02*
X52100000Y-42400000D01*
X52100000Y-42400000D02*
X49300000Y-42400000D01*
X49300000Y-42400000D02*
X49300000Y-44400000D01*
%TO.C,JP20*%
X68000000Y-74650000D02*
X68000000Y-71850000D01*
X68000000Y-71850000D02*
X66000000Y-71850000D01*
X66000000Y-71850000D02*
X66000000Y-74650000D01*
X66000000Y-74650000D02*
X68000000Y-74650000D01*
%TO.C,JP19*%
X117200000Y-73500000D02*
X114400000Y-73500000D01*
X114400000Y-73500000D02*
X114400000Y-75500000D01*
X114400000Y-75500000D02*
X117200000Y-75500000D01*
X117200000Y-75500000D02*
X117200000Y-73500000D01*
%TO.C,JP18*%
X59100000Y-40200000D02*
X59100000Y-43000000D01*
X59100000Y-43000000D02*
X61100000Y-43000000D01*
X61100000Y-43000000D02*
X61100000Y-40200000D01*
X61100000Y-40200000D02*
X59100000Y-40200000D01*
%TO.C,JP17*%
X91700000Y-79050000D02*
X91700000Y-76250000D01*
X91700000Y-76250000D02*
X89700000Y-76250000D01*
X89700000Y-76250000D02*
X89700000Y-79050000D01*
X89700000Y-79050000D02*
X91700000Y-79050000D01*
%TO.C,JP16*%
X102600000Y-78400000D02*
X102600000Y-75600000D01*
X102600000Y-75600000D02*
X100600000Y-75600000D01*
X100600000Y-75600000D02*
X100600000Y-78400000D01*
X100600000Y-78400000D02*
X102600000Y-78400000D01*
%TO.C,JP15*%
X55850000Y-56600000D02*
X58650000Y-56600000D01*
X58650000Y-56600000D02*
X58650000Y-54600000D01*
X58650000Y-54600000D02*
X55850000Y-54600000D01*
X55850000Y-54600000D02*
X55850000Y-56600000D01*
%TO.C,JP14*%
X92100000Y-68700000D02*
X92100000Y-65900000D01*
X92100000Y-65900000D02*
X90100000Y-65900000D01*
X90100000Y-65900000D02*
X90100000Y-68700000D01*
X90100000Y-68700000D02*
X92100000Y-68700000D01*
%TO.C,JP13*%
X88000000Y-65900000D02*
X88000000Y-68700000D01*
X88000000Y-68700000D02*
X90000000Y-68700000D01*
X90000000Y-68700000D02*
X90000000Y-65900000D01*
X90000000Y-65900000D02*
X88000000Y-65900000D01*
%TO.C,JP12*%
X103100000Y-68450000D02*
X103100000Y-65650000D01*
X103100000Y-65650000D02*
X101100000Y-65650000D01*
X101100000Y-65650000D02*
X101100000Y-68450000D01*
X101100000Y-68450000D02*
X103100000Y-68450000D01*
%TO.C,JP11*%
X99000000Y-65650000D02*
X99000000Y-68450000D01*
X99000000Y-68450000D02*
X101000000Y-68450000D01*
X101000000Y-68450000D02*
X101000000Y-65650000D01*
X101000000Y-65650000D02*
X99000000Y-65650000D01*
%TO.C,JP10*%
X66050000Y-57100000D02*
X68850000Y-57100000D01*
X68850000Y-57100000D02*
X68850000Y-55100000D01*
X68850000Y-55100000D02*
X66050000Y-55100000D01*
X66050000Y-55100000D02*
X66050000Y-57100000D01*
%TO.C,JP9*%
X68850000Y-53000000D02*
X66050000Y-53000000D01*
X66050000Y-53000000D02*
X66050000Y-55000000D01*
X66050000Y-55000000D02*
X68850000Y-55000000D01*
X68850000Y-55000000D02*
X68850000Y-53000000D01*
%TO.C,C8*%
X69835000Y-65938748D02*
X69835000Y-66461252D01*
X68365000Y-65938748D02*
X68365000Y-66461252D01*
%TO.C,C7*%
X117235000Y-67988748D02*
X117235000Y-68511252D01*
X115765000Y-67988748D02*
X115765000Y-68511252D01*
%TO.C,C6*%
X53588748Y-39665000D02*
X54111252Y-39665000D01*
X53588748Y-41135000D02*
X54111252Y-41135000D01*
%TO.C,C5*%
X87165000Y-74661252D02*
X87165000Y-74138748D01*
X88635000Y-74661252D02*
X88635000Y-74138748D01*
%TO.C,C4*%
X98065000Y-74011252D02*
X98065000Y-73488748D01*
X99535000Y-74011252D02*
X99535000Y-73488748D01*
%TO.C,C3*%
X60188748Y-51565000D02*
X60711252Y-51565000D01*
X60188748Y-53035000D02*
X60711252Y-53035000D01*
%TO.C,F2*%
X113460000Y-95366252D02*
X113460000Y-92593748D01*
X110040000Y-95366252D02*
X110040000Y-92593748D01*
%TO.C,F1*%
X105986000Y-92593748D02*
X105986000Y-95366252D01*
X109406000Y-92593748D02*
X109406000Y-95366252D01*
%TO.C,JP1*%
X110500000Y-105800000D02*
X112500000Y-105800000D01*
X110500000Y-103000000D02*
X110500000Y-105800000D01*
X112500000Y-103000000D02*
X110500000Y-103000000D01*
X112500000Y-105800000D02*
X112500000Y-103000000D01*
%TO.C,J3*%
X109495000Y-125454000D02*
X126225000Y-125454000D01*
X109495000Y-125454000D02*
X109495000Y-117844000D01*
X126225000Y-125454000D02*
X126225000Y-117844000D01*
X109495000Y-109484000D02*
X126225000Y-109484000D01*
X109495000Y-109484000D02*
X109495000Y-115044000D01*
X126225000Y-109484000D02*
X126225000Y-115044000D01*
X109300000Y-118044000D02*
X108800000Y-117544000D01*
X108800000Y-117544000D02*
X108800000Y-118544000D01*
X108800000Y-118544000D02*
X109300000Y-118044000D01*
%TO.C,J2*%
X89425000Y-125458000D02*
X106155000Y-125458000D01*
X89425000Y-125458000D02*
X89425000Y-117848000D01*
X106155000Y-125458000D02*
X106155000Y-117848000D01*
X89425000Y-109488000D02*
X106155000Y-109488000D01*
X89425000Y-109488000D02*
X89425000Y-115048000D01*
X106155000Y-109488000D02*
X106155000Y-115048000D01*
X89230000Y-118048000D02*
X88730000Y-117548000D01*
X88730000Y-117548000D02*
X88730000Y-118548000D01*
X88730000Y-118548000D02*
X89230000Y-118048000D01*
%TO.C,D2*%
X116126000Y-88638000D02*
X120026000Y-88638000D01*
X116126000Y-86638000D02*
X120026000Y-86638000D01*
X116126000Y-88638000D02*
X116126000Y-86638000D01*
%TO.C,D1*%
X116126000Y-90924000D02*
X120026000Y-90924000D01*
X116126000Y-88924000D02*
X120026000Y-88924000D01*
X116126000Y-90924000D02*
X116126000Y-88924000D01*
%TO.C,U3*%
X103250000Y-100440000D02*
X105200000Y-100440000D01*
X103250000Y-100440000D02*
X101300000Y-100440000D01*
X103250000Y-105560000D02*
X105200000Y-105560000D01*
X103250000Y-105560000D02*
X99800000Y-105560000D01*
%TO.C,U2*%
X48298000Y-46694000D02*
X48298000Y-48644000D01*
X48298000Y-46694000D02*
X48298000Y-44744000D01*
X43178000Y-46694000D02*
X43178000Y-48644000D01*
X43178000Y-46694000D02*
X43178000Y-43244000D01*
%TO.C,BT1*%
X122627787Y-45250000D02*
G75*
G03*
X122627787Y-45250000I-10250787J0D01*
G01*
%TO.C,R9*%
X83330564Y-79497000D02*
X82876436Y-79497000D01*
X83330564Y-78027000D02*
X82876436Y-78027000D01*
%TO.C,R8*%
X82876436Y-75777000D02*
X83330564Y-75777000D01*
X82876436Y-77247000D02*
X83330564Y-77247000D01*
%TO.C,R7*%
X93335000Y-36320436D02*
X93335000Y-36774564D01*
X91865000Y-36320436D02*
X91865000Y-36774564D01*
%TO.C,R6*%
X93865000Y-36774564D02*
X93865000Y-36320436D01*
X95335000Y-36774564D02*
X95335000Y-36320436D01*
%TO.C,R5*%
X120860436Y-78138000D02*
X121314564Y-78138000D01*
X120860436Y-79608000D02*
X121314564Y-79608000D01*
%TO.C,R4*%
X121314564Y-77608000D02*
X120860436Y-77608000D01*
X121314564Y-76138000D02*
X120860436Y-76138000D01*
%TO.C,R3*%
X72774436Y-78259000D02*
X73228564Y-78259000D01*
X72774436Y-79729000D02*
X73228564Y-79729000D01*
%TO.C,R2*%
X73167064Y-77313000D02*
X72712936Y-77313000D01*
X73167064Y-75843000D02*
X72712936Y-75843000D01*
%TO.C,R1*%
X110765000Y-101977064D02*
X110765000Y-101522936D01*
X112235000Y-101977064D02*
X112235000Y-101522936D01*
%TO.C,C2*%
X97735000Y-103038748D02*
X97735000Y-103561252D01*
X96265000Y-103038748D02*
X96265000Y-103561252D01*
%TO.C,C1*%
X44823748Y-51335000D02*
X45346252Y-51335000D01*
X44823748Y-52805000D02*
X45346252Y-52805000D01*
%TO.C,U10*%
D11*
X97838095Y-75452380D02*
X97838095Y-76261904D01*
X97790476Y-76357142D01*
X97742857Y-76404761D01*
X97647619Y-76452380D01*
X97457142Y-76452380D01*
X97361904Y-76404761D01*
X97314285Y-76357142D01*
X97266666Y-76261904D01*
X97266666Y-75452380D01*
X96266666Y-76452380D02*
X96838095Y-76452380D01*
X96552380Y-76452380D02*
X96552380Y-75452380D01*
X96647619Y-75595238D01*
X96742857Y-75690476D01*
X96838095Y-75738095D01*
X95647619Y-75452380D02*
X95552380Y-75452380D01*
X95457142Y-75500000D01*
X95409523Y-75547619D01*
X95361904Y-75642857D01*
X95314285Y-75833333D01*
X95314285Y-76071428D01*
X95361904Y-76261904D01*
X95409523Y-76357142D01*
X95457142Y-76404761D01*
X95552380Y-76452380D01*
X95647619Y-76452380D01*
X95742857Y-76404761D01*
X95790476Y-76357142D01*
X95838095Y-76261904D01*
X95885714Y-76071428D01*
X95885714Y-75833333D01*
X95838095Y-75642857D01*
X95790476Y-75547619D01*
X95742857Y-75500000D01*
X95647619Y-75452380D01*
%TO.C,C10*%
X99942857Y-82057142D02*
X99990476Y-82104761D01*
X100133333Y-82152380D01*
X100228571Y-82152380D01*
X100371428Y-82104761D01*
X100466666Y-82009523D01*
X100514285Y-81914285D01*
X100561904Y-81723809D01*
X100561904Y-81580952D01*
X100514285Y-81390476D01*
X100466666Y-81295238D01*
X100371428Y-81200000D01*
X100228571Y-81152380D01*
X100133333Y-81152380D01*
X99990476Y-81200000D01*
X99942857Y-81247619D01*
X98990476Y-82152380D02*
X99561904Y-82152380D01*
X99276190Y-82152380D02*
X99276190Y-81152380D01*
X99371428Y-81295238D01*
X99466666Y-81390476D01*
X99561904Y-81438095D01*
X98371428Y-81152380D02*
X98276190Y-81152380D01*
X98180952Y-81200000D01*
X98133333Y-81247619D01*
X98085714Y-81342857D01*
X98038095Y-81533333D01*
X98038095Y-81771428D01*
X98085714Y-81961904D01*
X98133333Y-82057142D01*
X98180952Y-82104761D01*
X98276190Y-82152380D01*
X98371428Y-82152380D01*
X98466666Y-82104761D01*
X98514285Y-82057142D01*
X98561904Y-81961904D01*
X98609523Y-81771428D01*
X98609523Y-81533333D01*
X98561904Y-81342857D01*
X98514285Y-81247619D01*
X98466666Y-81200000D01*
X98371428Y-81152380D01*
%TO.C,C9*%
X93866666Y-82057142D02*
X93914285Y-82104761D01*
X94057142Y-82152380D01*
X94152380Y-82152380D01*
X94295238Y-82104761D01*
X94390476Y-82009523D01*
X94438095Y-81914285D01*
X94485714Y-81723809D01*
X94485714Y-81580952D01*
X94438095Y-81390476D01*
X94390476Y-81295238D01*
X94295238Y-81200000D01*
X94152380Y-81152380D01*
X94057142Y-81152380D01*
X93914285Y-81200000D01*
X93866666Y-81247619D01*
X93390476Y-82152380D02*
X93200000Y-82152380D01*
X93104761Y-82104761D01*
X93057142Y-82057142D01*
X92961904Y-81914285D01*
X92914285Y-81723809D01*
X92914285Y-81342857D01*
X92961904Y-81247619D01*
X93009523Y-81200000D01*
X93104761Y-81152380D01*
X93295238Y-81152380D01*
X93390476Y-81200000D01*
X93438095Y-81247619D01*
X93485714Y-81342857D01*
X93485714Y-81580952D01*
X93438095Y-81676190D01*
X93390476Y-81723809D01*
X93295238Y-81771428D01*
X93104761Y-81771428D01*
X93009523Y-81723809D01*
X92961904Y-81676190D01*
X92914285Y-81580952D01*
%TO.C,U9*%
X68661904Y-63152380D02*
X68661904Y-63961904D01*
X68614285Y-64057142D01*
X68566666Y-64104761D01*
X68471428Y-64152380D01*
X68280952Y-64152380D01*
X68185714Y-64104761D01*
X68138095Y-64057142D01*
X68090476Y-63961904D01*
X68090476Y-63152380D01*
X67566666Y-64152380D02*
X67376190Y-64152380D01*
X67280952Y-64104761D01*
X67233333Y-64057142D01*
X67138095Y-63914285D01*
X67090476Y-63723809D01*
X67090476Y-63342857D01*
X67138095Y-63247619D01*
X67185714Y-63200000D01*
X67280952Y-63152380D01*
X67471428Y-63152380D01*
X67566666Y-63200000D01*
X67614285Y-63247619D01*
X67661904Y-63342857D01*
X67661904Y-63580952D01*
X67614285Y-63676190D01*
X67566666Y-63723809D01*
X67471428Y-63771428D01*
X67280952Y-63771428D01*
X67185714Y-63723809D01*
X67138095Y-63676190D01*
X67090476Y-63580952D01*
%TO.C,U8*%
X114961904Y-67952380D02*
X114961904Y-68761904D01*
X114914285Y-68857142D01*
X114866666Y-68904761D01*
X114771428Y-68952380D01*
X114580952Y-68952380D01*
X114485714Y-68904761D01*
X114438095Y-68857142D01*
X114390476Y-68761904D01*
X114390476Y-67952380D01*
X113771428Y-68380952D02*
X113866666Y-68333333D01*
X113914285Y-68285714D01*
X113961904Y-68190476D01*
X113961904Y-68142857D01*
X113914285Y-68047619D01*
X113866666Y-68000000D01*
X113771428Y-67952380D01*
X113580952Y-67952380D01*
X113485714Y-68000000D01*
X113438095Y-68047619D01*
X113390476Y-68142857D01*
X113390476Y-68190476D01*
X113438095Y-68285714D01*
X113485714Y-68333333D01*
X113580952Y-68380952D01*
X113771428Y-68380952D01*
X113866666Y-68428571D01*
X113914285Y-68476190D01*
X113961904Y-68571428D01*
X113961904Y-68761904D01*
X113914285Y-68857142D01*
X113866666Y-68904761D01*
X113771428Y-68952380D01*
X113580952Y-68952380D01*
X113485714Y-68904761D01*
X113438095Y-68857142D01*
X113390476Y-68761904D01*
X113390476Y-68571428D01*
X113438095Y-68476190D01*
X113485714Y-68428571D01*
X113580952Y-68380952D01*
%TO.C,U7*%
X51261904Y-40952380D02*
X51261904Y-41761904D01*
X51214285Y-41857142D01*
X51166666Y-41904761D01*
X51071428Y-41952380D01*
X50880952Y-41952380D01*
X50785714Y-41904761D01*
X50738095Y-41857142D01*
X50690476Y-41761904D01*
X50690476Y-40952380D01*
X50309523Y-40952380D02*
X49642857Y-40952380D01*
X50071428Y-41952380D01*
%TO.C,U6*%
X90861904Y-73852380D02*
X90861904Y-74661904D01*
X90814285Y-74757142D01*
X90766666Y-74804761D01*
X90671428Y-74852380D01*
X90480952Y-74852380D01*
X90385714Y-74804761D01*
X90338095Y-74757142D01*
X90290476Y-74661904D01*
X90290476Y-73852380D01*
X89385714Y-73852380D02*
X89576190Y-73852380D01*
X89671428Y-73900000D01*
X89719047Y-73947619D01*
X89814285Y-74090476D01*
X89861904Y-74280952D01*
X89861904Y-74661904D01*
X89814285Y-74757142D01*
X89766666Y-74804761D01*
X89671428Y-74852380D01*
X89480952Y-74852380D01*
X89385714Y-74804761D01*
X89338095Y-74757142D01*
X89290476Y-74661904D01*
X89290476Y-74423809D01*
X89338095Y-74328571D01*
X89385714Y-74280952D01*
X89480952Y-74233333D01*
X89671428Y-74233333D01*
X89766666Y-74280952D01*
X89814285Y-74328571D01*
X89861904Y-74423809D01*
%TO.C,U5*%
X101761904Y-73252380D02*
X101761904Y-74061904D01*
X101714285Y-74157142D01*
X101666666Y-74204761D01*
X101571428Y-74252380D01*
X101380952Y-74252380D01*
X101285714Y-74204761D01*
X101238095Y-74157142D01*
X101190476Y-74061904D01*
X101190476Y-73252380D01*
X100238095Y-73252380D02*
X100714285Y-73252380D01*
X100761904Y-73728571D01*
X100714285Y-73680952D01*
X100619047Y-73633333D01*
X100380952Y-73633333D01*
X100285714Y-73680952D01*
X100238095Y-73728571D01*
X100190476Y-73823809D01*
X100190476Y-74061904D01*
X100238095Y-74157142D01*
X100285714Y-74204761D01*
X100380952Y-74252380D01*
X100619047Y-74252380D01*
X100714285Y-74204761D01*
X100761904Y-74157142D01*
%TO.C,U4*%
X58361904Y-52952380D02*
X58361904Y-53761904D01*
X58314285Y-53857142D01*
X58266666Y-53904761D01*
X58171428Y-53952380D01*
X57980952Y-53952380D01*
X57885714Y-53904761D01*
X57838095Y-53857142D01*
X57790476Y-53761904D01*
X57790476Y-52952380D01*
X56885714Y-53285714D02*
X56885714Y-53952380D01*
X57123809Y-52904761D02*
X57361904Y-53619047D01*
X56742857Y-53619047D01*
%TO.C,R37*%
X62442857Y-66752380D02*
X62776190Y-66276190D01*
X63014285Y-66752380D02*
X63014285Y-65752380D01*
X62633333Y-65752380D01*
X62538095Y-65800000D01*
X62490476Y-65847619D01*
X62442857Y-65942857D01*
X62442857Y-66085714D01*
X62490476Y-66180952D01*
X62538095Y-66228571D01*
X62633333Y-66276190D01*
X63014285Y-66276190D01*
X62109523Y-65752380D02*
X61490476Y-65752380D01*
X61823809Y-66133333D01*
X61680952Y-66133333D01*
X61585714Y-66180952D01*
X61538095Y-66228571D01*
X61490476Y-66323809D01*
X61490476Y-66561904D01*
X61538095Y-66657142D01*
X61585714Y-66704761D01*
X61680952Y-66752380D01*
X61966666Y-66752380D01*
X62061904Y-66704761D01*
X62109523Y-66657142D01*
X61157142Y-65752380D02*
X60490476Y-65752380D01*
X60919047Y-66752380D01*
%TO.C,R36*%
X110352380Y-67757142D02*
X109876190Y-67423809D01*
X110352380Y-67185714D02*
X109352380Y-67185714D01*
X109352380Y-67566666D01*
X109400000Y-67661904D01*
X109447619Y-67709523D01*
X109542857Y-67757142D01*
X109685714Y-67757142D01*
X109780952Y-67709523D01*
X109828571Y-67661904D01*
X109876190Y-67566666D01*
X109876190Y-67185714D01*
X109352380Y-68090476D02*
X109352380Y-68709523D01*
X109733333Y-68376190D01*
X109733333Y-68519047D01*
X109780952Y-68614285D01*
X109828571Y-68661904D01*
X109923809Y-68709523D01*
X110161904Y-68709523D01*
X110257142Y-68661904D01*
X110304761Y-68614285D01*
X110352380Y-68519047D01*
X110352380Y-68233333D01*
X110304761Y-68138095D01*
X110257142Y-68090476D01*
X109352380Y-69566666D02*
X109352380Y-69376190D01*
X109400000Y-69280952D01*
X109447619Y-69233333D01*
X109590476Y-69138095D01*
X109780952Y-69090476D01*
X110161904Y-69090476D01*
X110257142Y-69138095D01*
X110304761Y-69185714D01*
X110352380Y-69280952D01*
X110352380Y-69471428D01*
X110304761Y-69566666D01*
X110257142Y-69614285D01*
X110161904Y-69661904D01*
X109923809Y-69661904D01*
X109828571Y-69614285D01*
X109780952Y-69566666D01*
X109733333Y-69471428D01*
X109733333Y-69280952D01*
X109780952Y-69185714D01*
X109828571Y-69138095D01*
X109923809Y-69090476D01*
%TO.C,R35*%
X54355357Y-47452380D02*
X54688690Y-46976190D01*
X54926785Y-47452380D02*
X54926785Y-46452380D01*
X54545833Y-46452380D01*
X54450595Y-46500000D01*
X54402976Y-46547619D01*
X54355357Y-46642857D01*
X54355357Y-46785714D01*
X54402976Y-46880952D01*
X54450595Y-46928571D01*
X54545833Y-46976190D01*
X54926785Y-46976190D01*
X54022023Y-46452380D02*
X53402976Y-46452380D01*
X53736309Y-46833333D01*
X53593452Y-46833333D01*
X53498214Y-46880952D01*
X53450595Y-46928571D01*
X53402976Y-47023809D01*
X53402976Y-47261904D01*
X53450595Y-47357142D01*
X53498214Y-47404761D01*
X53593452Y-47452380D01*
X53879166Y-47452380D01*
X53974404Y-47404761D01*
X54022023Y-47357142D01*
X52498214Y-46452380D02*
X52974404Y-46452380D01*
X53022023Y-46928571D01*
X52974404Y-46880952D01*
X52879166Y-46833333D01*
X52641071Y-46833333D01*
X52545833Y-46880952D01*
X52498214Y-46928571D01*
X52450595Y-47023809D01*
X52450595Y-47261904D01*
X52498214Y-47357142D01*
X52545833Y-47404761D01*
X52641071Y-47452380D01*
X52879166Y-47452380D01*
X52974404Y-47404761D01*
X53022023Y-47357142D01*
%TO.C,R34*%
X72042857Y-70464880D02*
X72376190Y-69988690D01*
X72614285Y-70464880D02*
X72614285Y-69464880D01*
X72233333Y-69464880D01*
X72138095Y-69512500D01*
X72090476Y-69560119D01*
X72042857Y-69655357D01*
X72042857Y-69798214D01*
X72090476Y-69893452D01*
X72138095Y-69941071D01*
X72233333Y-69988690D01*
X72614285Y-69988690D01*
X71709523Y-69464880D02*
X71090476Y-69464880D01*
X71423809Y-69845833D01*
X71280952Y-69845833D01*
X71185714Y-69893452D01*
X71138095Y-69941071D01*
X71090476Y-70036309D01*
X71090476Y-70274404D01*
X71138095Y-70369642D01*
X71185714Y-70417261D01*
X71280952Y-70464880D01*
X71566666Y-70464880D01*
X71661904Y-70417261D01*
X71709523Y-70369642D01*
X70233333Y-69798214D02*
X70233333Y-70464880D01*
X70471428Y-69417261D02*
X70709523Y-70131547D01*
X70090476Y-70131547D01*
%TO.C,R33*%
X119852380Y-70857142D02*
X119376190Y-70523809D01*
X119852380Y-70285714D02*
X118852380Y-70285714D01*
X118852380Y-70666666D01*
X118900000Y-70761904D01*
X118947619Y-70809523D01*
X119042857Y-70857142D01*
X119185714Y-70857142D01*
X119280952Y-70809523D01*
X119328571Y-70761904D01*
X119376190Y-70666666D01*
X119376190Y-70285714D01*
X118852380Y-71190476D02*
X118852380Y-71809523D01*
X119233333Y-71476190D01*
X119233333Y-71619047D01*
X119280952Y-71714285D01*
X119328571Y-71761904D01*
X119423809Y-71809523D01*
X119661904Y-71809523D01*
X119757142Y-71761904D01*
X119804761Y-71714285D01*
X119852380Y-71619047D01*
X119852380Y-71333333D01*
X119804761Y-71238095D01*
X119757142Y-71190476D01*
X118852380Y-72142857D02*
X118852380Y-72761904D01*
X119233333Y-72428571D01*
X119233333Y-72571428D01*
X119280952Y-72666666D01*
X119328571Y-72714285D01*
X119423809Y-72761904D01*
X119661904Y-72761904D01*
X119757142Y-72714285D01*
X119804761Y-72666666D01*
X119852380Y-72571428D01*
X119852380Y-72285714D01*
X119804761Y-72190476D01*
X119757142Y-72142857D01*
%TO.C,R32*%
X60142857Y-39452380D02*
X60476190Y-38976190D01*
X60714285Y-39452380D02*
X60714285Y-38452380D01*
X60333333Y-38452380D01*
X60238095Y-38500000D01*
X60190476Y-38547619D01*
X60142857Y-38642857D01*
X60142857Y-38785714D01*
X60190476Y-38880952D01*
X60238095Y-38928571D01*
X60333333Y-38976190D01*
X60714285Y-38976190D01*
X59809523Y-38452380D02*
X59190476Y-38452380D01*
X59523809Y-38833333D01*
X59380952Y-38833333D01*
X59285714Y-38880952D01*
X59238095Y-38928571D01*
X59190476Y-39023809D01*
X59190476Y-39261904D01*
X59238095Y-39357142D01*
X59285714Y-39404761D01*
X59380952Y-39452380D01*
X59666666Y-39452380D01*
X59761904Y-39404761D01*
X59809523Y-39357142D01*
X58809523Y-38547619D02*
X58761904Y-38500000D01*
X58666666Y-38452380D01*
X58428571Y-38452380D01*
X58333333Y-38500000D01*
X58285714Y-38547619D01*
X58238095Y-38642857D01*
X58238095Y-38738095D01*
X58285714Y-38880952D01*
X58857142Y-39452380D01*
X58238095Y-39452380D01*
%TO.C,R31*%
X63342857Y-69452380D02*
X63676190Y-68976190D01*
X63914285Y-69452380D02*
X63914285Y-68452380D01*
X63533333Y-68452380D01*
X63438095Y-68500000D01*
X63390476Y-68547619D01*
X63342857Y-68642857D01*
X63342857Y-68785714D01*
X63390476Y-68880952D01*
X63438095Y-68928571D01*
X63533333Y-68976190D01*
X63914285Y-68976190D01*
X63009523Y-68452380D02*
X62390476Y-68452380D01*
X62723809Y-68833333D01*
X62580952Y-68833333D01*
X62485714Y-68880952D01*
X62438095Y-68928571D01*
X62390476Y-69023809D01*
X62390476Y-69261904D01*
X62438095Y-69357142D01*
X62485714Y-69404761D01*
X62580952Y-69452380D01*
X62866666Y-69452380D01*
X62961904Y-69404761D01*
X63009523Y-69357142D01*
X61438095Y-69452380D02*
X62009523Y-69452380D01*
X61723809Y-69452380D02*
X61723809Y-68452380D01*
X61819047Y-68595238D01*
X61914285Y-68690476D01*
X62009523Y-68738095D01*
%TO.C,R30*%
X63342857Y-70952380D02*
X63676190Y-70476190D01*
X63914285Y-70952380D02*
X63914285Y-69952380D01*
X63533333Y-69952380D01*
X63438095Y-70000000D01*
X63390476Y-70047619D01*
X63342857Y-70142857D01*
X63342857Y-70285714D01*
X63390476Y-70380952D01*
X63438095Y-70428571D01*
X63533333Y-70476190D01*
X63914285Y-70476190D01*
X63009523Y-69952380D02*
X62390476Y-69952380D01*
X62723809Y-70333333D01*
X62580952Y-70333333D01*
X62485714Y-70380952D01*
X62438095Y-70428571D01*
X62390476Y-70523809D01*
X62390476Y-70761904D01*
X62438095Y-70857142D01*
X62485714Y-70904761D01*
X62580952Y-70952380D01*
X62866666Y-70952380D01*
X62961904Y-70904761D01*
X63009523Y-70857142D01*
X61771428Y-69952380D02*
X61676190Y-69952380D01*
X61580952Y-70000000D01*
X61533333Y-70047619D01*
X61485714Y-70142857D01*
X61438095Y-70333333D01*
X61438095Y-70571428D01*
X61485714Y-70761904D01*
X61533333Y-70857142D01*
X61580952Y-70904761D01*
X61676190Y-70952380D01*
X61771428Y-70952380D01*
X61866666Y-70904761D01*
X61914285Y-70857142D01*
X61961904Y-70761904D01*
X62009523Y-70571428D01*
X62009523Y-70333333D01*
X61961904Y-70142857D01*
X61914285Y-70047619D01*
X61866666Y-70000000D01*
X61771428Y-69952380D01*
%TO.C,R29*%
X110352380Y-70957142D02*
X109876190Y-70623809D01*
X110352380Y-70385714D02*
X109352380Y-70385714D01*
X109352380Y-70766666D01*
X109400000Y-70861904D01*
X109447619Y-70909523D01*
X109542857Y-70957142D01*
X109685714Y-70957142D01*
X109780952Y-70909523D01*
X109828571Y-70861904D01*
X109876190Y-70766666D01*
X109876190Y-70385714D01*
X109447619Y-71338095D02*
X109400000Y-71385714D01*
X109352380Y-71480952D01*
X109352380Y-71719047D01*
X109400000Y-71814285D01*
X109447619Y-71861904D01*
X109542857Y-71909523D01*
X109638095Y-71909523D01*
X109780952Y-71861904D01*
X110352380Y-71290476D01*
X110352380Y-71909523D01*
X110352380Y-72385714D02*
X110352380Y-72576190D01*
X110304761Y-72671428D01*
X110257142Y-72719047D01*
X110114285Y-72814285D01*
X109923809Y-72861904D01*
X109542857Y-72861904D01*
X109447619Y-72814285D01*
X109400000Y-72766666D01*
X109352380Y-72671428D01*
X109352380Y-72480952D01*
X109400000Y-72385714D01*
X109447619Y-72338095D01*
X109542857Y-72290476D01*
X109780952Y-72290476D01*
X109876190Y-72338095D01*
X109923809Y-72385714D01*
X109971428Y-72480952D01*
X109971428Y-72671428D01*
X109923809Y-72766666D01*
X109876190Y-72814285D01*
X109780952Y-72861904D01*
%TO.C,R28*%
X111852380Y-70857142D02*
X111376190Y-70523809D01*
X111852380Y-70285714D02*
X110852380Y-70285714D01*
X110852380Y-70666666D01*
X110900000Y-70761904D01*
X110947619Y-70809523D01*
X111042857Y-70857142D01*
X111185714Y-70857142D01*
X111280952Y-70809523D01*
X111328571Y-70761904D01*
X111376190Y-70666666D01*
X111376190Y-70285714D01*
X110947619Y-71238095D02*
X110900000Y-71285714D01*
X110852380Y-71380952D01*
X110852380Y-71619047D01*
X110900000Y-71714285D01*
X110947619Y-71761904D01*
X111042857Y-71809523D01*
X111138095Y-71809523D01*
X111280952Y-71761904D01*
X111852380Y-71190476D01*
X111852380Y-71809523D01*
X111280952Y-72380952D02*
X111233333Y-72285714D01*
X111185714Y-72238095D01*
X111090476Y-72190476D01*
X111042857Y-72190476D01*
X110947619Y-72238095D01*
X110900000Y-72285714D01*
X110852380Y-72380952D01*
X110852380Y-72571428D01*
X110900000Y-72666666D01*
X110947619Y-72714285D01*
X111042857Y-72761904D01*
X111090476Y-72761904D01*
X111185714Y-72714285D01*
X111233333Y-72666666D01*
X111280952Y-72571428D01*
X111280952Y-72380952D01*
X111328571Y-72285714D01*
X111376190Y-72238095D01*
X111471428Y-72190476D01*
X111661904Y-72190476D01*
X111757142Y-72238095D01*
X111804761Y-72285714D01*
X111852380Y-72380952D01*
X111852380Y-72571428D01*
X111804761Y-72666666D01*
X111757142Y-72714285D01*
X111661904Y-72761904D01*
X111471428Y-72761904D01*
X111376190Y-72714285D01*
X111328571Y-72666666D01*
X111280952Y-72571428D01*
%TO.C,R27*%
X57730357Y-47452380D02*
X58063690Y-46976190D01*
X58301785Y-47452380D02*
X58301785Y-46452380D01*
X57920833Y-46452380D01*
X57825595Y-46500000D01*
X57777976Y-46547619D01*
X57730357Y-46642857D01*
X57730357Y-46785714D01*
X57777976Y-46880952D01*
X57825595Y-46928571D01*
X57920833Y-46976190D01*
X58301785Y-46976190D01*
X57349404Y-46547619D02*
X57301785Y-46500000D01*
X57206547Y-46452380D01*
X56968452Y-46452380D01*
X56873214Y-46500000D01*
X56825595Y-46547619D01*
X56777976Y-46642857D01*
X56777976Y-46738095D01*
X56825595Y-46880952D01*
X57397023Y-47452380D01*
X56777976Y-47452380D01*
X56444642Y-46452380D02*
X55777976Y-46452380D01*
X56206547Y-47452380D01*
%TO.C,R26*%
X57742857Y-46152380D02*
X58076190Y-45676190D01*
X58314285Y-46152380D02*
X58314285Y-45152380D01*
X57933333Y-45152380D01*
X57838095Y-45200000D01*
X57790476Y-45247619D01*
X57742857Y-45342857D01*
X57742857Y-45485714D01*
X57790476Y-45580952D01*
X57838095Y-45628571D01*
X57933333Y-45676190D01*
X58314285Y-45676190D01*
X57361904Y-45247619D02*
X57314285Y-45200000D01*
X57219047Y-45152380D01*
X56980952Y-45152380D01*
X56885714Y-45200000D01*
X56838095Y-45247619D01*
X56790476Y-45342857D01*
X56790476Y-45438095D01*
X56838095Y-45580952D01*
X57409523Y-46152380D01*
X56790476Y-46152380D01*
X55933333Y-45152380D02*
X56123809Y-45152380D01*
X56219047Y-45200000D01*
X56266666Y-45247619D01*
X56361904Y-45390476D01*
X56409523Y-45580952D01*
X56409523Y-45961904D01*
X56361904Y-46057142D01*
X56314285Y-46104761D01*
X56219047Y-46152380D01*
X56028571Y-46152380D01*
X55933333Y-46104761D01*
X55885714Y-46057142D01*
X55838095Y-45961904D01*
X55838095Y-45723809D01*
X55885714Y-45628571D01*
X55933333Y-45580952D01*
X56028571Y-45533333D01*
X56219047Y-45533333D01*
X56314285Y-45580952D01*
X56361904Y-45628571D01*
X56409523Y-45723809D01*
%TO.C,R25*%
X94552380Y-73657142D02*
X94076190Y-73323809D01*
X94552380Y-73085714D02*
X93552380Y-73085714D01*
X93552380Y-73466666D01*
X93600000Y-73561904D01*
X93647619Y-73609523D01*
X93742857Y-73657142D01*
X93885714Y-73657142D01*
X93980952Y-73609523D01*
X94028571Y-73561904D01*
X94076190Y-73466666D01*
X94076190Y-73085714D01*
X93647619Y-74038095D02*
X93600000Y-74085714D01*
X93552380Y-74180952D01*
X93552380Y-74419047D01*
X93600000Y-74514285D01*
X93647619Y-74561904D01*
X93742857Y-74609523D01*
X93838095Y-74609523D01*
X93980952Y-74561904D01*
X94552380Y-73990476D01*
X94552380Y-74609523D01*
X93552380Y-75514285D02*
X93552380Y-75038095D01*
X94028571Y-74990476D01*
X93980952Y-75038095D01*
X93933333Y-75133333D01*
X93933333Y-75371428D01*
X93980952Y-75466666D01*
X94028571Y-75514285D01*
X94123809Y-75561904D01*
X94361904Y-75561904D01*
X94457142Y-75514285D01*
X94504761Y-75466666D01*
X94552380Y-75371428D01*
X94552380Y-75133333D01*
X94504761Y-75038095D01*
X94457142Y-74990476D01*
%TO.C,R24*%
X105452380Y-73157142D02*
X104976190Y-72823809D01*
X105452380Y-72585714D02*
X104452380Y-72585714D01*
X104452380Y-72966666D01*
X104500000Y-73061904D01*
X104547619Y-73109523D01*
X104642857Y-73157142D01*
X104785714Y-73157142D01*
X104880952Y-73109523D01*
X104928571Y-73061904D01*
X104976190Y-72966666D01*
X104976190Y-72585714D01*
X104547619Y-73538095D02*
X104500000Y-73585714D01*
X104452380Y-73680952D01*
X104452380Y-73919047D01*
X104500000Y-74014285D01*
X104547619Y-74061904D01*
X104642857Y-74109523D01*
X104738095Y-74109523D01*
X104880952Y-74061904D01*
X105452380Y-73490476D01*
X105452380Y-74109523D01*
X104785714Y-74966666D02*
X105452380Y-74966666D01*
X104404761Y-74728571D02*
X105119047Y-74490476D01*
X105119047Y-75109523D01*
%TO.C,R23*%
X61042857Y-59152380D02*
X61376190Y-58676190D01*
X61614285Y-59152380D02*
X61614285Y-58152380D01*
X61233333Y-58152380D01*
X61138095Y-58200000D01*
X61090476Y-58247619D01*
X61042857Y-58342857D01*
X61042857Y-58485714D01*
X61090476Y-58580952D01*
X61138095Y-58628571D01*
X61233333Y-58676190D01*
X61614285Y-58676190D01*
X60661904Y-58247619D02*
X60614285Y-58200000D01*
X60519047Y-58152380D01*
X60280952Y-58152380D01*
X60185714Y-58200000D01*
X60138095Y-58247619D01*
X60090476Y-58342857D01*
X60090476Y-58438095D01*
X60138095Y-58580952D01*
X60709523Y-59152380D01*
X60090476Y-59152380D01*
X59757142Y-58152380D02*
X59138095Y-58152380D01*
X59471428Y-58533333D01*
X59328571Y-58533333D01*
X59233333Y-58580952D01*
X59185714Y-58628571D01*
X59138095Y-58723809D01*
X59138095Y-58961904D01*
X59185714Y-59057142D01*
X59233333Y-59104761D01*
X59328571Y-59152380D01*
X59614285Y-59152380D01*
X59709523Y-59104761D01*
X59757142Y-59057142D01*
%TO.C,R22*%
X86202380Y-70044642D02*
X85726190Y-69711309D01*
X86202380Y-69473214D02*
X85202380Y-69473214D01*
X85202380Y-69854166D01*
X85250000Y-69949404D01*
X85297619Y-69997023D01*
X85392857Y-70044642D01*
X85535714Y-70044642D01*
X85630952Y-69997023D01*
X85678571Y-69949404D01*
X85726190Y-69854166D01*
X85726190Y-69473214D01*
X85297619Y-70425595D02*
X85250000Y-70473214D01*
X85202380Y-70568452D01*
X85202380Y-70806547D01*
X85250000Y-70901785D01*
X85297619Y-70949404D01*
X85392857Y-70997023D01*
X85488095Y-70997023D01*
X85630952Y-70949404D01*
X86202380Y-70377976D01*
X86202380Y-70997023D01*
X85297619Y-71377976D02*
X85250000Y-71425595D01*
X85202380Y-71520833D01*
X85202380Y-71758928D01*
X85250000Y-71854166D01*
X85297619Y-71901785D01*
X85392857Y-71949404D01*
X85488095Y-71949404D01*
X85630952Y-71901785D01*
X86202380Y-71330357D01*
X86202380Y-71949404D01*
%TO.C,R21*%
X96902380Y-69844642D02*
X96426190Y-69511309D01*
X96902380Y-69273214D02*
X95902380Y-69273214D01*
X95902380Y-69654166D01*
X95950000Y-69749404D01*
X95997619Y-69797023D01*
X96092857Y-69844642D01*
X96235714Y-69844642D01*
X96330952Y-69797023D01*
X96378571Y-69749404D01*
X96426190Y-69654166D01*
X96426190Y-69273214D01*
X95997619Y-70225595D02*
X95950000Y-70273214D01*
X95902380Y-70368452D01*
X95902380Y-70606547D01*
X95950000Y-70701785D01*
X95997619Y-70749404D01*
X96092857Y-70797023D01*
X96188095Y-70797023D01*
X96330952Y-70749404D01*
X96902380Y-70177976D01*
X96902380Y-70797023D01*
X96902380Y-71749404D02*
X96902380Y-71177976D01*
X96902380Y-71463690D02*
X95902380Y-71463690D01*
X96045238Y-71368452D01*
X96140476Y-71273214D01*
X96188095Y-71177976D01*
%TO.C,R20*%
X64855357Y-51202380D02*
X65188690Y-50726190D01*
X65426785Y-51202380D02*
X65426785Y-50202380D01*
X65045833Y-50202380D01*
X64950595Y-50250000D01*
X64902976Y-50297619D01*
X64855357Y-50392857D01*
X64855357Y-50535714D01*
X64902976Y-50630952D01*
X64950595Y-50678571D01*
X65045833Y-50726190D01*
X65426785Y-50726190D01*
X64474404Y-50297619D02*
X64426785Y-50250000D01*
X64331547Y-50202380D01*
X64093452Y-50202380D01*
X63998214Y-50250000D01*
X63950595Y-50297619D01*
X63902976Y-50392857D01*
X63902976Y-50488095D01*
X63950595Y-50630952D01*
X64522023Y-51202380D01*
X63902976Y-51202380D01*
X63283928Y-50202380D02*
X63188690Y-50202380D01*
X63093452Y-50250000D01*
X63045833Y-50297619D01*
X62998214Y-50392857D01*
X62950595Y-50583333D01*
X62950595Y-50821428D01*
X62998214Y-51011904D01*
X63045833Y-51107142D01*
X63093452Y-51154761D01*
X63188690Y-51202380D01*
X63283928Y-51202380D01*
X63379166Y-51154761D01*
X63426785Y-51107142D01*
X63474404Y-51011904D01*
X63522023Y-50821428D01*
X63522023Y-50583333D01*
X63474404Y-50392857D01*
X63426785Y-50297619D01*
X63379166Y-50250000D01*
X63283928Y-50202380D01*
%TO.C,R19*%
X94452380Y-70057142D02*
X93976190Y-69723809D01*
X94452380Y-69485714D02*
X93452380Y-69485714D01*
X93452380Y-69866666D01*
X93500000Y-69961904D01*
X93547619Y-70009523D01*
X93642857Y-70057142D01*
X93785714Y-70057142D01*
X93880952Y-70009523D01*
X93928571Y-69961904D01*
X93976190Y-69866666D01*
X93976190Y-69485714D01*
X94452380Y-71009523D02*
X94452380Y-70438095D01*
X94452380Y-70723809D02*
X93452380Y-70723809D01*
X93595238Y-70628571D01*
X93690476Y-70533333D01*
X93738095Y-70438095D01*
X94452380Y-71485714D02*
X94452380Y-71676190D01*
X94404761Y-71771428D01*
X94357142Y-71819047D01*
X94214285Y-71914285D01*
X94023809Y-71961904D01*
X93642857Y-71961904D01*
X93547619Y-71914285D01*
X93500000Y-71866666D01*
X93452380Y-71771428D01*
X93452380Y-71580952D01*
X93500000Y-71485714D01*
X93547619Y-71438095D01*
X93642857Y-71390476D01*
X93880952Y-71390476D01*
X93976190Y-71438095D01*
X94023809Y-71485714D01*
X94071428Y-71580952D01*
X94071428Y-71771428D01*
X94023809Y-71866666D01*
X93976190Y-71914285D01*
X93880952Y-71961904D01*
%TO.C,R18*%
X92952380Y-70057142D02*
X92476190Y-69723809D01*
X92952380Y-69485714D02*
X91952380Y-69485714D01*
X91952380Y-69866666D01*
X92000000Y-69961904D01*
X92047619Y-70009523D01*
X92142857Y-70057142D01*
X92285714Y-70057142D01*
X92380952Y-70009523D01*
X92428571Y-69961904D01*
X92476190Y-69866666D01*
X92476190Y-69485714D01*
X92952380Y-71009523D02*
X92952380Y-70438095D01*
X92952380Y-70723809D02*
X91952380Y-70723809D01*
X92095238Y-70628571D01*
X92190476Y-70533333D01*
X92238095Y-70438095D01*
X92380952Y-71580952D02*
X92333333Y-71485714D01*
X92285714Y-71438095D01*
X92190476Y-71390476D01*
X92142857Y-71390476D01*
X92047619Y-71438095D01*
X92000000Y-71485714D01*
X91952380Y-71580952D01*
X91952380Y-71771428D01*
X92000000Y-71866666D01*
X92047619Y-71914285D01*
X92142857Y-71961904D01*
X92190476Y-71961904D01*
X92285714Y-71914285D01*
X92333333Y-71866666D01*
X92380952Y-71771428D01*
X92380952Y-71580952D01*
X92428571Y-71485714D01*
X92476190Y-71438095D01*
X92571428Y-71390476D01*
X92761904Y-71390476D01*
X92857142Y-71438095D01*
X92904761Y-71485714D01*
X92952380Y-71580952D01*
X92952380Y-71771428D01*
X92904761Y-71866666D01*
X92857142Y-71914285D01*
X92761904Y-71961904D01*
X92571428Y-71961904D01*
X92476190Y-71914285D01*
X92428571Y-71866666D01*
X92380952Y-71771428D01*
%TO.C,R17*%
X105052380Y-69757142D02*
X104576190Y-69423809D01*
X105052380Y-69185714D02*
X104052380Y-69185714D01*
X104052380Y-69566666D01*
X104100000Y-69661904D01*
X104147619Y-69709523D01*
X104242857Y-69757142D01*
X104385714Y-69757142D01*
X104480952Y-69709523D01*
X104528571Y-69661904D01*
X104576190Y-69566666D01*
X104576190Y-69185714D01*
X105052380Y-70709523D02*
X105052380Y-70138095D01*
X105052380Y-70423809D02*
X104052380Y-70423809D01*
X104195238Y-70328571D01*
X104290476Y-70233333D01*
X104338095Y-70138095D01*
X104052380Y-71042857D02*
X104052380Y-71709523D01*
X105052380Y-71280952D01*
%TO.C,R16*%
X103752380Y-69769642D02*
X103276190Y-69436309D01*
X103752380Y-69198214D02*
X102752380Y-69198214D01*
X102752380Y-69579166D01*
X102800000Y-69674404D01*
X102847619Y-69722023D01*
X102942857Y-69769642D01*
X103085714Y-69769642D01*
X103180952Y-69722023D01*
X103228571Y-69674404D01*
X103276190Y-69579166D01*
X103276190Y-69198214D01*
X103752380Y-70722023D02*
X103752380Y-70150595D01*
X103752380Y-70436309D02*
X102752380Y-70436309D01*
X102895238Y-70341071D01*
X102990476Y-70245833D01*
X103038095Y-70150595D01*
X102752380Y-71579166D02*
X102752380Y-71388690D01*
X102800000Y-71293452D01*
X102847619Y-71245833D01*
X102990476Y-71150595D01*
X103180952Y-71102976D01*
X103561904Y-71102976D01*
X103657142Y-71150595D01*
X103704761Y-71198214D01*
X103752380Y-71293452D01*
X103752380Y-71483928D01*
X103704761Y-71579166D01*
X103657142Y-71626785D01*
X103561904Y-71674404D01*
X103323809Y-71674404D01*
X103228571Y-71626785D01*
X103180952Y-71579166D01*
X103133333Y-71483928D01*
X103133333Y-71293452D01*
X103180952Y-71198214D01*
X103228571Y-71150595D01*
X103323809Y-71102976D01*
%TO.C,R15*%
X64642857Y-59652380D02*
X64976190Y-59176190D01*
X65214285Y-59652380D02*
X65214285Y-58652380D01*
X64833333Y-58652380D01*
X64738095Y-58700000D01*
X64690476Y-58747619D01*
X64642857Y-58842857D01*
X64642857Y-58985714D01*
X64690476Y-59080952D01*
X64738095Y-59128571D01*
X64833333Y-59176190D01*
X65214285Y-59176190D01*
X63690476Y-59652380D02*
X64261904Y-59652380D01*
X63976190Y-59652380D02*
X63976190Y-58652380D01*
X64071428Y-58795238D01*
X64166666Y-58890476D01*
X64261904Y-58938095D01*
X62785714Y-58652380D02*
X63261904Y-58652380D01*
X63309523Y-59128571D01*
X63261904Y-59080952D01*
X63166666Y-59033333D01*
X62928571Y-59033333D01*
X62833333Y-59080952D01*
X62785714Y-59128571D01*
X62738095Y-59223809D01*
X62738095Y-59461904D01*
X62785714Y-59557142D01*
X62833333Y-59604761D01*
X62928571Y-59652380D01*
X63166666Y-59652380D01*
X63261904Y-59604761D01*
X63309523Y-59557142D01*
%TO.C,R14*%
X64642857Y-58152380D02*
X64976190Y-57676190D01*
X65214285Y-58152380D02*
X65214285Y-57152380D01*
X64833333Y-57152380D01*
X64738095Y-57200000D01*
X64690476Y-57247619D01*
X64642857Y-57342857D01*
X64642857Y-57485714D01*
X64690476Y-57580952D01*
X64738095Y-57628571D01*
X64833333Y-57676190D01*
X65214285Y-57676190D01*
X63690476Y-58152380D02*
X64261904Y-58152380D01*
X63976190Y-58152380D02*
X63976190Y-57152380D01*
X64071428Y-57295238D01*
X64166666Y-57390476D01*
X64261904Y-57438095D01*
X62833333Y-57485714D02*
X62833333Y-58152380D01*
X63071428Y-57104761D02*
X63309523Y-57819047D01*
X62690476Y-57819047D01*
%TO.C,JP23*%
X115009523Y-62352380D02*
X115009523Y-63066666D01*
X115057142Y-63209523D01*
X115152380Y-63304761D01*
X115295238Y-63352380D01*
X115390476Y-63352380D01*
X114533333Y-63352380D02*
X114533333Y-62352380D01*
X114152380Y-62352380D01*
X114057142Y-62400000D01*
X114009523Y-62447619D01*
X113961904Y-62542857D01*
X113961904Y-62685714D01*
X114009523Y-62780952D01*
X114057142Y-62828571D01*
X114152380Y-62876190D01*
X114533333Y-62876190D01*
X113580952Y-62447619D02*
X113533333Y-62400000D01*
X113438095Y-62352380D01*
X113200000Y-62352380D01*
X113104761Y-62400000D01*
X113057142Y-62447619D01*
X113009523Y-62542857D01*
X113009523Y-62638095D01*
X113057142Y-62780952D01*
X113628571Y-63352380D01*
X113009523Y-63352380D01*
X112676190Y-62352380D02*
X112057142Y-62352380D01*
X112390476Y-62733333D01*
X112247619Y-62733333D01*
X112152380Y-62780952D01*
X112104761Y-62828571D01*
X112057142Y-62923809D01*
X112057142Y-63161904D01*
X112104761Y-63257142D01*
X112152380Y-63304761D01*
X112247619Y-63352380D01*
X112533333Y-63352380D01*
X112628571Y-63304761D01*
X112676190Y-63257142D01*
%TO.C,JP22*%
X70409523Y-61452380D02*
X70409523Y-62166666D01*
X70457142Y-62309523D01*
X70552380Y-62404761D01*
X70695238Y-62452380D01*
X70790476Y-62452380D01*
X69933333Y-62452380D02*
X69933333Y-61452380D01*
X69552380Y-61452380D01*
X69457142Y-61500000D01*
X69409523Y-61547619D01*
X69361904Y-61642857D01*
X69361904Y-61785714D01*
X69409523Y-61880952D01*
X69457142Y-61928571D01*
X69552380Y-61976190D01*
X69933333Y-61976190D01*
X68980952Y-61547619D02*
X68933333Y-61500000D01*
X68838095Y-61452380D01*
X68600000Y-61452380D01*
X68504761Y-61500000D01*
X68457142Y-61547619D01*
X68409523Y-61642857D01*
X68409523Y-61738095D01*
X68457142Y-61880952D01*
X69028571Y-62452380D01*
X68409523Y-62452380D01*
X68028571Y-61547619D02*
X67980952Y-61500000D01*
X67885714Y-61452380D01*
X67647619Y-61452380D01*
X67552380Y-61500000D01*
X67504761Y-61547619D01*
X67457142Y-61642857D01*
X67457142Y-61738095D01*
X67504761Y-61880952D01*
X68076190Y-62452380D01*
X67457142Y-62452380D01*
%TO.C,JP21*%
X51609523Y-44852380D02*
X51609523Y-45566666D01*
X51657142Y-45709523D01*
X51752380Y-45804761D01*
X51895238Y-45852380D01*
X51990476Y-45852380D01*
X51133333Y-45852380D02*
X51133333Y-44852380D01*
X50752380Y-44852380D01*
X50657142Y-44900000D01*
X50609523Y-44947619D01*
X50561904Y-45042857D01*
X50561904Y-45185714D01*
X50609523Y-45280952D01*
X50657142Y-45328571D01*
X50752380Y-45376190D01*
X51133333Y-45376190D01*
X50180952Y-44947619D02*
X50133333Y-44900000D01*
X50038095Y-44852380D01*
X49800000Y-44852380D01*
X49704761Y-44900000D01*
X49657142Y-44947619D01*
X49609523Y-45042857D01*
X49609523Y-45138095D01*
X49657142Y-45280952D01*
X50228571Y-45852380D01*
X49609523Y-45852380D01*
X48657142Y-45852380D02*
X49228571Y-45852380D01*
X48942857Y-45852380D02*
X48942857Y-44852380D01*
X49038095Y-44995238D01*
X49133333Y-45090476D01*
X49228571Y-45138095D01*
%TO.C,JP20*%
X65409523Y-73352380D02*
X65409523Y-74066666D01*
X65457142Y-74209523D01*
X65552380Y-74304761D01*
X65695238Y-74352380D01*
X65790476Y-74352380D01*
X64933333Y-74352380D02*
X64933333Y-73352380D01*
X64552380Y-73352380D01*
X64457142Y-73400000D01*
X64409523Y-73447619D01*
X64361904Y-73542857D01*
X64361904Y-73685714D01*
X64409523Y-73780952D01*
X64457142Y-73828571D01*
X64552380Y-73876190D01*
X64933333Y-73876190D01*
X63980952Y-73447619D02*
X63933333Y-73400000D01*
X63838095Y-73352380D01*
X63600000Y-73352380D01*
X63504761Y-73400000D01*
X63457142Y-73447619D01*
X63409523Y-73542857D01*
X63409523Y-73638095D01*
X63457142Y-73780952D01*
X64028571Y-74352380D01*
X63409523Y-74352380D01*
X62790476Y-73352380D02*
X62695238Y-73352380D01*
X62600000Y-73400000D01*
X62552380Y-73447619D01*
X62504761Y-73542857D01*
X62457142Y-73733333D01*
X62457142Y-73971428D01*
X62504761Y-74161904D01*
X62552380Y-74257142D01*
X62600000Y-74304761D01*
X62695238Y-74352380D01*
X62790476Y-74352380D01*
X62885714Y-74304761D01*
X62933333Y-74257142D01*
X62980952Y-74161904D01*
X63028571Y-73971428D01*
X63028571Y-73733333D01*
X62980952Y-73542857D01*
X62933333Y-73447619D01*
X62885714Y-73400000D01*
X62790476Y-73352380D01*
%TO.C,JP19*%
X117309523Y-75952380D02*
X117309523Y-76666666D01*
X117357142Y-76809523D01*
X117452380Y-76904761D01*
X117595238Y-76952380D01*
X117690476Y-76952380D01*
X116833333Y-76952380D02*
X116833333Y-75952380D01*
X116452380Y-75952380D01*
X116357142Y-76000000D01*
X116309523Y-76047619D01*
X116261904Y-76142857D01*
X116261904Y-76285714D01*
X116309523Y-76380952D01*
X116357142Y-76428571D01*
X116452380Y-76476190D01*
X116833333Y-76476190D01*
X115309523Y-76952380D02*
X115880952Y-76952380D01*
X115595238Y-76952380D02*
X115595238Y-75952380D01*
X115690476Y-76095238D01*
X115785714Y-76190476D01*
X115880952Y-76238095D01*
X114833333Y-76952380D02*
X114642857Y-76952380D01*
X114547619Y-76904761D01*
X114500000Y-76857142D01*
X114404761Y-76714285D01*
X114357142Y-76523809D01*
X114357142Y-76142857D01*
X114404761Y-76047619D01*
X114452380Y-76000000D01*
X114547619Y-75952380D01*
X114738095Y-75952380D01*
X114833333Y-76000000D01*
X114880952Y-76047619D01*
X114928571Y-76142857D01*
X114928571Y-76380952D01*
X114880952Y-76476190D01*
X114833333Y-76523809D01*
X114738095Y-76571428D01*
X114547619Y-76571428D01*
X114452380Y-76523809D01*
X114404761Y-76476190D01*
X114357142Y-76380952D01*
%TO.C,JP18*%
X64509523Y-41552380D02*
X64509523Y-42266666D01*
X64557142Y-42409523D01*
X64652380Y-42504761D01*
X64795238Y-42552380D01*
X64890476Y-42552380D01*
X64033333Y-42552380D02*
X64033333Y-41552380D01*
X63652380Y-41552380D01*
X63557142Y-41600000D01*
X63509523Y-41647619D01*
X63461904Y-41742857D01*
X63461904Y-41885714D01*
X63509523Y-41980952D01*
X63557142Y-42028571D01*
X63652380Y-42076190D01*
X64033333Y-42076190D01*
X62509523Y-42552380D02*
X63080952Y-42552380D01*
X62795238Y-42552380D02*
X62795238Y-41552380D01*
X62890476Y-41695238D01*
X62985714Y-41790476D01*
X63080952Y-41838095D01*
X61938095Y-41980952D02*
X62033333Y-41933333D01*
X62080952Y-41885714D01*
X62128571Y-41790476D01*
X62128571Y-41742857D01*
X62080952Y-41647619D01*
X62033333Y-41600000D01*
X61938095Y-41552380D01*
X61747619Y-41552380D01*
X61652380Y-41600000D01*
X61604761Y-41647619D01*
X61557142Y-41742857D01*
X61557142Y-41790476D01*
X61604761Y-41885714D01*
X61652380Y-41933333D01*
X61747619Y-41980952D01*
X61938095Y-41980952D01*
X62033333Y-42028571D01*
X62080952Y-42076190D01*
X62128571Y-42171428D01*
X62128571Y-42361904D01*
X62080952Y-42457142D01*
X62033333Y-42504761D01*
X61938095Y-42552380D01*
X61747619Y-42552380D01*
X61652380Y-42504761D01*
X61604761Y-42457142D01*
X61557142Y-42361904D01*
X61557142Y-42171428D01*
X61604761Y-42076190D01*
X61652380Y-42028571D01*
X61747619Y-41980952D01*
%TO.C,JP17*%
X91609523Y-79352380D02*
X91609523Y-80066666D01*
X91657142Y-80209523D01*
X91752380Y-80304761D01*
X91895238Y-80352380D01*
X91990476Y-80352380D01*
X91133333Y-80352380D02*
X91133333Y-79352380D01*
X90752380Y-79352380D01*
X90657142Y-79400000D01*
X90609523Y-79447619D01*
X90561904Y-79542857D01*
X90561904Y-79685714D01*
X90609523Y-79780952D01*
X90657142Y-79828571D01*
X90752380Y-79876190D01*
X91133333Y-79876190D01*
X89609523Y-80352380D02*
X90180952Y-80352380D01*
X89895238Y-80352380D02*
X89895238Y-79352380D01*
X89990476Y-79495238D01*
X90085714Y-79590476D01*
X90180952Y-79638095D01*
X89276190Y-79352380D02*
X88609523Y-79352380D01*
X89038095Y-80352380D01*
%TO.C,JP16*%
X103052380Y-75890476D02*
X103766666Y-75890476D01*
X103909523Y-75842857D01*
X104004761Y-75747619D01*
X104052380Y-75604761D01*
X104052380Y-75509523D01*
X104052380Y-76366666D02*
X103052380Y-76366666D01*
X103052380Y-76747619D01*
X103100000Y-76842857D01*
X103147619Y-76890476D01*
X103242857Y-76938095D01*
X103385714Y-76938095D01*
X103480952Y-76890476D01*
X103528571Y-76842857D01*
X103576190Y-76747619D01*
X103576190Y-76366666D01*
X104052380Y-77890476D02*
X104052380Y-77319047D01*
X104052380Y-77604761D02*
X103052380Y-77604761D01*
X103195238Y-77509523D01*
X103290476Y-77414285D01*
X103338095Y-77319047D01*
X103052380Y-78747619D02*
X103052380Y-78557142D01*
X103100000Y-78461904D01*
X103147619Y-78414285D01*
X103290476Y-78319047D01*
X103480952Y-78271428D01*
X103861904Y-78271428D01*
X103957142Y-78319047D01*
X104004761Y-78366666D01*
X104052380Y-78461904D01*
X104052380Y-78652380D01*
X104004761Y-78747619D01*
X103957142Y-78795238D01*
X103861904Y-78842857D01*
X103623809Y-78842857D01*
X103528571Y-78795238D01*
X103480952Y-78747619D01*
X103433333Y-78652380D01*
X103433333Y-78461904D01*
X103480952Y-78366666D01*
X103528571Y-78319047D01*
X103623809Y-78271428D01*
%TO.C,JP15*%
X55309523Y-55052380D02*
X55309523Y-55766666D01*
X55357142Y-55909523D01*
X55452380Y-56004761D01*
X55595238Y-56052380D01*
X55690476Y-56052380D01*
X54833333Y-56052380D02*
X54833333Y-55052380D01*
X54452380Y-55052380D01*
X54357142Y-55100000D01*
X54309523Y-55147619D01*
X54261904Y-55242857D01*
X54261904Y-55385714D01*
X54309523Y-55480952D01*
X54357142Y-55528571D01*
X54452380Y-55576190D01*
X54833333Y-55576190D01*
X53309523Y-56052380D02*
X53880952Y-56052380D01*
X53595238Y-56052380D02*
X53595238Y-55052380D01*
X53690476Y-55195238D01*
X53785714Y-55290476D01*
X53880952Y-55338095D01*
X52404761Y-55052380D02*
X52880952Y-55052380D01*
X52928571Y-55528571D01*
X52880952Y-55480952D01*
X52785714Y-55433333D01*
X52547619Y-55433333D01*
X52452380Y-55480952D01*
X52404761Y-55528571D01*
X52357142Y-55623809D01*
X52357142Y-55861904D01*
X52404761Y-55957142D01*
X52452380Y-56004761D01*
X52547619Y-56052380D01*
X52785714Y-56052380D01*
X52880952Y-56004761D01*
X52928571Y-55957142D01*
%TO.C,JP14*%
X95509523Y-66902380D02*
X95509523Y-67616666D01*
X95557142Y-67759523D01*
X95652380Y-67854761D01*
X95795238Y-67902380D01*
X95890476Y-67902380D01*
X95033333Y-67902380D02*
X95033333Y-66902380D01*
X94652380Y-66902380D01*
X94557142Y-66950000D01*
X94509523Y-66997619D01*
X94461904Y-67092857D01*
X94461904Y-67235714D01*
X94509523Y-67330952D01*
X94557142Y-67378571D01*
X94652380Y-67426190D01*
X95033333Y-67426190D01*
X93509523Y-67902380D02*
X94080952Y-67902380D01*
X93795238Y-67902380D02*
X93795238Y-66902380D01*
X93890476Y-67045238D01*
X93985714Y-67140476D01*
X94080952Y-67188095D01*
X92652380Y-67235714D02*
X92652380Y-67902380D01*
X92890476Y-66854761D02*
X93128571Y-67569047D01*
X92509523Y-67569047D01*
%TO.C,JP13*%
X87209523Y-67052380D02*
X87209523Y-67766666D01*
X87257142Y-67909523D01*
X87352380Y-68004761D01*
X87495238Y-68052380D01*
X87590476Y-68052380D01*
X86733333Y-68052380D02*
X86733333Y-67052380D01*
X86352380Y-67052380D01*
X86257142Y-67100000D01*
X86209523Y-67147619D01*
X86161904Y-67242857D01*
X86161904Y-67385714D01*
X86209523Y-67480952D01*
X86257142Y-67528571D01*
X86352380Y-67576190D01*
X86733333Y-67576190D01*
X85209523Y-68052380D02*
X85780952Y-68052380D01*
X85495238Y-68052380D02*
X85495238Y-67052380D01*
X85590476Y-67195238D01*
X85685714Y-67290476D01*
X85780952Y-67338095D01*
X84876190Y-67052380D02*
X84257142Y-67052380D01*
X84590476Y-67433333D01*
X84447619Y-67433333D01*
X84352380Y-67480952D01*
X84304761Y-67528571D01*
X84257142Y-67623809D01*
X84257142Y-67861904D01*
X84304761Y-67957142D01*
X84352380Y-68004761D01*
X84447619Y-68052380D01*
X84733333Y-68052380D01*
X84828571Y-68004761D01*
X84876190Y-67957142D01*
%TO.C,JP12*%
X103352380Y-65740476D02*
X104066666Y-65740476D01*
X104209523Y-65692857D01*
X104304761Y-65597619D01*
X104352380Y-65454761D01*
X104352380Y-65359523D01*
X104352380Y-66216666D02*
X103352380Y-66216666D01*
X103352380Y-66597619D01*
X103400000Y-66692857D01*
X103447619Y-66740476D01*
X103542857Y-66788095D01*
X103685714Y-66788095D01*
X103780952Y-66740476D01*
X103828571Y-66692857D01*
X103876190Y-66597619D01*
X103876190Y-66216666D01*
X104352380Y-67740476D02*
X104352380Y-67169047D01*
X104352380Y-67454761D02*
X103352380Y-67454761D01*
X103495238Y-67359523D01*
X103590476Y-67264285D01*
X103638095Y-67169047D01*
X103447619Y-68121428D02*
X103400000Y-68169047D01*
X103352380Y-68264285D01*
X103352380Y-68502380D01*
X103400000Y-68597619D01*
X103447619Y-68645238D01*
X103542857Y-68692857D01*
X103638095Y-68692857D01*
X103780952Y-68645238D01*
X104352380Y-68073809D01*
X104352380Y-68692857D01*
%TO.C,JP11*%
X97652380Y-65740476D02*
X98366666Y-65740476D01*
X98509523Y-65692857D01*
X98604761Y-65597619D01*
X98652380Y-65454761D01*
X98652380Y-65359523D01*
X98652380Y-66216666D02*
X97652380Y-66216666D01*
X97652380Y-66597619D01*
X97700000Y-66692857D01*
X97747619Y-66740476D01*
X97842857Y-66788095D01*
X97985714Y-66788095D01*
X98080952Y-66740476D01*
X98128571Y-66692857D01*
X98176190Y-66597619D01*
X98176190Y-66216666D01*
X98652380Y-67740476D02*
X98652380Y-67169047D01*
X98652380Y-67454761D02*
X97652380Y-67454761D01*
X97795238Y-67359523D01*
X97890476Y-67264285D01*
X97938095Y-67169047D01*
X98652380Y-68692857D02*
X98652380Y-68121428D01*
X98652380Y-68407142D02*
X97652380Y-68407142D01*
X97795238Y-68311904D01*
X97890476Y-68216666D01*
X97938095Y-68121428D01*
%TO.C,JP10*%
X68759523Y-57352380D02*
X68759523Y-58066666D01*
X68807142Y-58209523D01*
X68902380Y-58304761D01*
X69045238Y-58352380D01*
X69140476Y-58352380D01*
X68283333Y-58352380D02*
X68283333Y-57352380D01*
X67902380Y-57352380D01*
X67807142Y-57400000D01*
X67759523Y-57447619D01*
X67711904Y-57542857D01*
X67711904Y-57685714D01*
X67759523Y-57780952D01*
X67807142Y-57828571D01*
X67902380Y-57876190D01*
X68283333Y-57876190D01*
X66759523Y-58352380D02*
X67330952Y-58352380D01*
X67045238Y-58352380D02*
X67045238Y-57352380D01*
X67140476Y-57495238D01*
X67235714Y-57590476D01*
X67330952Y-57638095D01*
X66140476Y-57352380D02*
X66045238Y-57352380D01*
X65950000Y-57400000D01*
X65902380Y-57447619D01*
X65854761Y-57542857D01*
X65807142Y-57733333D01*
X65807142Y-57971428D01*
X65854761Y-58161904D01*
X65902380Y-58257142D01*
X65950000Y-58304761D01*
X66045238Y-58352380D01*
X66140476Y-58352380D01*
X66235714Y-58304761D01*
X66283333Y-58257142D01*
X66330952Y-58161904D01*
X66378571Y-57971428D01*
X66378571Y-57733333D01*
X66330952Y-57542857D01*
X66283333Y-57447619D01*
X66235714Y-57400000D01*
X66140476Y-57352380D01*
%TO.C,JP9*%
X68283333Y-51652380D02*
X68283333Y-52366666D01*
X68330952Y-52509523D01*
X68426190Y-52604761D01*
X68569047Y-52652380D01*
X68664285Y-52652380D01*
X67807142Y-52652380D02*
X67807142Y-51652380D01*
X67426190Y-51652380D01*
X67330952Y-51700000D01*
X67283333Y-51747619D01*
X67235714Y-51842857D01*
X67235714Y-51985714D01*
X67283333Y-52080952D01*
X67330952Y-52128571D01*
X67426190Y-52176190D01*
X67807142Y-52176190D01*
X66759523Y-52652380D02*
X66569047Y-52652380D01*
X66473809Y-52604761D01*
X66426190Y-52557142D01*
X66330952Y-52414285D01*
X66283333Y-52223809D01*
X66283333Y-51842857D01*
X66330952Y-51747619D01*
X66378571Y-51700000D01*
X66473809Y-51652380D01*
X66664285Y-51652380D01*
X66759523Y-51700000D01*
X66807142Y-51747619D01*
X66854761Y-51842857D01*
X66854761Y-52080952D01*
X66807142Y-52176190D01*
X66759523Y-52223809D01*
X66664285Y-52271428D01*
X66473809Y-52271428D01*
X66378571Y-52223809D01*
X66330952Y-52176190D01*
X66283333Y-52080952D01*
%TO.C,C8*%
X71366666Y-66457142D02*
X71414285Y-66504761D01*
X71557142Y-66552380D01*
X71652380Y-66552380D01*
X71795238Y-66504761D01*
X71890476Y-66409523D01*
X71938095Y-66314285D01*
X71985714Y-66123809D01*
X71985714Y-65980952D01*
X71938095Y-65790476D01*
X71890476Y-65695238D01*
X71795238Y-65600000D01*
X71652380Y-65552380D01*
X71557142Y-65552380D01*
X71414285Y-65600000D01*
X71366666Y-65647619D01*
X70795238Y-65980952D02*
X70890476Y-65933333D01*
X70938095Y-65885714D01*
X70985714Y-65790476D01*
X70985714Y-65742857D01*
X70938095Y-65647619D01*
X70890476Y-65600000D01*
X70795238Y-65552380D01*
X70604761Y-65552380D01*
X70509523Y-65600000D01*
X70461904Y-65647619D01*
X70414285Y-65742857D01*
X70414285Y-65790476D01*
X70461904Y-65885714D01*
X70509523Y-65933333D01*
X70604761Y-65980952D01*
X70795238Y-65980952D01*
X70890476Y-66028571D01*
X70938095Y-66076190D01*
X70985714Y-66171428D01*
X70985714Y-66361904D01*
X70938095Y-66457142D01*
X70890476Y-66504761D01*
X70795238Y-66552380D01*
X70604761Y-66552380D01*
X70509523Y-66504761D01*
X70461904Y-66457142D01*
X70414285Y-66361904D01*
X70414285Y-66171428D01*
X70461904Y-66076190D01*
X70509523Y-66028571D01*
X70604761Y-65980952D01*
%TO.C,C7*%
X118457142Y-67833333D02*
X118504761Y-67785714D01*
X118552380Y-67642857D01*
X118552380Y-67547619D01*
X118504761Y-67404761D01*
X118409523Y-67309523D01*
X118314285Y-67261904D01*
X118123809Y-67214285D01*
X117980952Y-67214285D01*
X117790476Y-67261904D01*
X117695238Y-67309523D01*
X117600000Y-67404761D01*
X117552380Y-67547619D01*
X117552380Y-67642857D01*
X117600000Y-67785714D01*
X117647619Y-67833333D01*
X117552380Y-68166666D02*
X117552380Y-68833333D01*
X118552380Y-68404761D01*
%TO.C,C6*%
X50666666Y-40157142D02*
X50714285Y-40204761D01*
X50857142Y-40252380D01*
X50952380Y-40252380D01*
X51095238Y-40204761D01*
X51190476Y-40109523D01*
X51238095Y-40014285D01*
X51285714Y-39823809D01*
X51285714Y-39680952D01*
X51238095Y-39490476D01*
X51190476Y-39395238D01*
X51095238Y-39300000D01*
X50952380Y-39252380D01*
X50857142Y-39252380D01*
X50714285Y-39300000D01*
X50666666Y-39347619D01*
X49809523Y-39252380D02*
X50000000Y-39252380D01*
X50095238Y-39300000D01*
X50142857Y-39347619D01*
X50238095Y-39490476D01*
X50285714Y-39680952D01*
X50285714Y-40061904D01*
X50238095Y-40157142D01*
X50190476Y-40204761D01*
X50095238Y-40252380D01*
X49904761Y-40252380D01*
X49809523Y-40204761D01*
X49761904Y-40157142D01*
X49714285Y-40061904D01*
X49714285Y-39823809D01*
X49761904Y-39728571D01*
X49809523Y-39680952D01*
X49904761Y-39633333D01*
X50095238Y-39633333D01*
X50190476Y-39680952D01*
X50238095Y-39728571D01*
X50285714Y-39823809D01*
%TO.C,C5*%
X86057142Y-74133333D02*
X86104761Y-74085714D01*
X86152380Y-73942857D01*
X86152380Y-73847619D01*
X86104761Y-73704761D01*
X86009523Y-73609523D01*
X85914285Y-73561904D01*
X85723809Y-73514285D01*
X85580952Y-73514285D01*
X85390476Y-73561904D01*
X85295238Y-73609523D01*
X85200000Y-73704761D01*
X85152380Y-73847619D01*
X85152380Y-73942857D01*
X85200000Y-74085714D01*
X85247619Y-74133333D01*
X85152380Y-75038095D02*
X85152380Y-74561904D01*
X85628571Y-74514285D01*
X85580952Y-74561904D01*
X85533333Y-74657142D01*
X85533333Y-74895238D01*
X85580952Y-74990476D01*
X85628571Y-75038095D01*
X85723809Y-75085714D01*
X85961904Y-75085714D01*
X86057142Y-75038095D01*
X86104761Y-74990476D01*
X86152380Y-74895238D01*
X86152380Y-74657142D01*
X86104761Y-74561904D01*
X86057142Y-74514285D01*
%TO.C,C4*%
X96957142Y-73533333D02*
X97004761Y-73485714D01*
X97052380Y-73342857D01*
X97052380Y-73247619D01*
X97004761Y-73104761D01*
X96909523Y-73009523D01*
X96814285Y-72961904D01*
X96623809Y-72914285D01*
X96480952Y-72914285D01*
X96290476Y-72961904D01*
X96195238Y-73009523D01*
X96100000Y-73104761D01*
X96052380Y-73247619D01*
X96052380Y-73342857D01*
X96100000Y-73485714D01*
X96147619Y-73533333D01*
X96385714Y-74390476D02*
X97052380Y-74390476D01*
X96004761Y-74152380D02*
X96719047Y-73914285D01*
X96719047Y-74533333D01*
%TO.C,C3*%
X60466666Y-50957142D02*
X60514285Y-51004761D01*
X60657142Y-51052380D01*
X60752380Y-51052380D01*
X60895238Y-51004761D01*
X60990476Y-50909523D01*
X61038095Y-50814285D01*
X61085714Y-50623809D01*
X61085714Y-50480952D01*
X61038095Y-50290476D01*
X60990476Y-50195238D01*
X60895238Y-50100000D01*
X60752380Y-50052380D01*
X60657142Y-50052380D01*
X60514285Y-50100000D01*
X60466666Y-50147619D01*
X60133333Y-50052380D02*
X59514285Y-50052380D01*
X59847619Y-50433333D01*
X59704761Y-50433333D01*
X59609523Y-50480952D01*
X59561904Y-50528571D01*
X59514285Y-50623809D01*
X59514285Y-50861904D01*
X59561904Y-50957142D01*
X59609523Y-51004761D01*
X59704761Y-51052380D01*
X59990476Y-51052380D01*
X60085714Y-51004761D01*
X60133333Y-50957142D01*
%TO.C,F2*%
X112093333Y-93908571D02*
X112426666Y-93908571D01*
X112426666Y-94432380D02*
X112426666Y-93432380D01*
X111950476Y-93432380D01*
X111617142Y-93527619D02*
X111569523Y-93480000D01*
X111474285Y-93432380D01*
X111236190Y-93432380D01*
X111140952Y-93480000D01*
X111093333Y-93527619D01*
X111045714Y-93622857D01*
X111045714Y-93718095D01*
X111093333Y-93860952D01*
X111664761Y-94432380D01*
X111045714Y-94432380D01*
%TO.C,F1*%
X108029333Y-93908571D02*
X108362666Y-93908571D01*
X108362666Y-94432380D02*
X108362666Y-93432380D01*
X107886476Y-93432380D01*
X106981714Y-94432380D02*
X107553142Y-94432380D01*
X107267428Y-94432380D02*
X107267428Y-93432380D01*
X107362666Y-93575238D01*
X107457904Y-93670476D01*
X107553142Y-93718095D01*
%TO.C,JP1*%
X112085333Y-106132380D02*
X112085333Y-106846666D01*
X112132952Y-106989523D01*
X112228190Y-107084761D01*
X112371047Y-107132380D01*
X112466285Y-107132380D01*
X111609142Y-107132380D02*
X111609142Y-106132380D01*
X111228190Y-106132380D01*
X111132952Y-106180000D01*
X111085333Y-106227619D01*
X111037714Y-106322857D01*
X111037714Y-106465714D01*
X111085333Y-106560952D01*
X111132952Y-106608571D01*
X111228190Y-106656190D01*
X111609142Y-106656190D01*
X110085333Y-107132380D02*
X110656761Y-107132380D01*
X110371047Y-107132380D02*
X110371047Y-106132380D01*
X110466285Y-106275238D01*
X110561523Y-106370476D01*
X110656761Y-106418095D01*
%TO.C,J3*%
X119205333Y-123781380D02*
X119205333Y-124495666D01*
X119252952Y-124638523D01*
X119348190Y-124733761D01*
X119491047Y-124781380D01*
X119586285Y-124781380D01*
X118824380Y-123781380D02*
X118205333Y-123781380D01*
X118538666Y-124162333D01*
X118395809Y-124162333D01*
X118300571Y-124209952D01*
X118252952Y-124257571D01*
X118205333Y-124352809D01*
X118205333Y-124590904D01*
X118252952Y-124686142D01*
X118300571Y-124733761D01*
X118395809Y-124781380D01*
X118681523Y-124781380D01*
X118776761Y-124733761D01*
X118824380Y-124686142D01*
%TO.C,J2*%
X96853333Y-123912380D02*
X96853333Y-124626666D01*
X96900952Y-124769523D01*
X96996190Y-124864761D01*
X97139047Y-124912380D01*
X97234285Y-124912380D01*
X96424761Y-124007619D02*
X96377142Y-123960000D01*
X96281904Y-123912380D01*
X96043809Y-123912380D01*
X95948571Y-123960000D01*
X95900952Y-124007619D01*
X95853333Y-124102857D01*
X95853333Y-124198095D01*
X95900952Y-124340952D01*
X96472380Y-124912380D01*
X95853333Y-124912380D01*
%TO.C,D2*%
X114988095Y-87952380D02*
X114988095Y-86952380D01*
X114750000Y-86952380D01*
X114607142Y-87000000D01*
X114511904Y-87095238D01*
X114464285Y-87190476D01*
X114416666Y-87380952D01*
X114416666Y-87523809D01*
X114464285Y-87714285D01*
X114511904Y-87809523D01*
X114607142Y-87904761D01*
X114750000Y-87952380D01*
X114988095Y-87952380D01*
X114035714Y-87047619D02*
X113988095Y-87000000D01*
X113892857Y-86952380D01*
X113654761Y-86952380D01*
X113559523Y-87000000D01*
X113511904Y-87047619D01*
X113464285Y-87142857D01*
X113464285Y-87238095D01*
X113511904Y-87380952D01*
X114083333Y-87952380D01*
X113464285Y-87952380D01*
%TO.C,D1*%
X114988095Y-90452380D02*
X114988095Y-89452380D01*
X114750000Y-89452380D01*
X114607142Y-89500000D01*
X114511904Y-89595238D01*
X114464285Y-89690476D01*
X114416666Y-89880952D01*
X114416666Y-90023809D01*
X114464285Y-90214285D01*
X114511904Y-90309523D01*
X114607142Y-90404761D01*
X114750000Y-90452380D01*
X114988095Y-90452380D01*
X113464285Y-90452380D02*
X114035714Y-90452380D01*
X113750000Y-90452380D02*
X113750000Y-89452380D01*
X113845238Y-89595238D01*
X113940476Y-89690476D01*
X114035714Y-89738095D01*
%TO.C,U3*%
X104011904Y-101560380D02*
X104011904Y-102369904D01*
X103964285Y-102465142D01*
X103916666Y-102512761D01*
X103821428Y-102560380D01*
X103630952Y-102560380D01*
X103535714Y-102512761D01*
X103488095Y-102465142D01*
X103440476Y-102369904D01*
X103440476Y-101560380D01*
X103059523Y-101560380D02*
X102440476Y-101560380D01*
X102773809Y-101941333D01*
X102630952Y-101941333D01*
X102535714Y-101988952D01*
X102488095Y-102036571D01*
X102440476Y-102131809D01*
X102440476Y-102369904D01*
X102488095Y-102465142D01*
X102535714Y-102512761D01*
X102630952Y-102560380D01*
X102916666Y-102560380D01*
X103011904Y-102512761D01*
X103059523Y-102465142D01*
%TO.C,U2*%
X46481904Y-45952380D02*
X46481904Y-46761904D01*
X46434285Y-46857142D01*
X46386666Y-46904761D01*
X46291428Y-46952380D01*
X46100952Y-46952380D01*
X46005714Y-46904761D01*
X45958095Y-46857142D01*
X45910476Y-46761904D01*
X45910476Y-45952380D01*
X45481904Y-46047619D02*
X45434285Y-46000000D01*
X45339047Y-45952380D01*
X45100952Y-45952380D01*
X45005714Y-46000000D01*
X44958095Y-46047619D01*
X44910476Y-46142857D01*
X44910476Y-46238095D01*
X44958095Y-46380952D01*
X45529523Y-46952380D01*
X44910476Y-46952380D01*
%TO.C,BT1*%
X113535714Y-45178571D02*
X113392857Y-45226190D01*
X113345238Y-45273809D01*
X113297619Y-45369047D01*
X113297619Y-45511904D01*
X113345238Y-45607142D01*
X113392857Y-45654761D01*
X113488095Y-45702380D01*
X113869047Y-45702380D01*
X113869047Y-44702380D01*
X113535714Y-44702380D01*
X113440476Y-44750000D01*
X113392857Y-44797619D01*
X113345238Y-44892857D01*
X113345238Y-44988095D01*
X113392857Y-45083333D01*
X113440476Y-45130952D01*
X113535714Y-45178571D01*
X113869047Y-45178571D01*
X113011904Y-44702380D02*
X112440476Y-44702380D01*
X112726190Y-45702380D02*
X112726190Y-44702380D01*
X111583333Y-45702380D02*
X112154761Y-45702380D01*
X111869047Y-45702380D02*
X111869047Y-44702380D01*
X111964285Y-44845238D01*
X112059523Y-44940476D01*
X112154761Y-44988095D01*
D12*
X108678571Y-51297619D02*
X108678571Y-53202380D01*
X109630952Y-52250000D02*
X107726190Y-52250000D01*
%TO.C,J1*%
D11*
X124071428Y-72785714D02*
X124071428Y-73547619D01*
X124452380Y-73166666D02*
X123690476Y-73166666D01*
X123452380Y-74500000D02*
X123452380Y-74023809D01*
X123928571Y-73976190D01*
X123880952Y-74023809D01*
X123833333Y-74119047D01*
X123833333Y-74357142D01*
X123880952Y-74452380D01*
X123928571Y-74500000D01*
X124023809Y-74547619D01*
X124261904Y-74547619D01*
X124357142Y-74500000D01*
X124404761Y-74452380D01*
X124452380Y-74357142D01*
X124452380Y-74119047D01*
X124404761Y-74023809D01*
X124357142Y-73976190D01*
X123452380Y-74833333D02*
X124452380Y-75166666D01*
X123452380Y-75500000D01*
X124452380Y-75833333D02*
X123452380Y-75833333D01*
X123452380Y-76071428D01*
X123500000Y-76214285D01*
X123595238Y-76309523D01*
X123690476Y-76357142D01*
X123880952Y-76404761D01*
X124023809Y-76404761D01*
X124214285Y-76357142D01*
X124309523Y-76309523D01*
X124404761Y-76214285D01*
X124452380Y-76071428D01*
X124452380Y-75833333D01*
X124452380Y-77595238D02*
X123452380Y-77595238D01*
X123547619Y-78023809D02*
X123500000Y-78071428D01*
X123452380Y-78166666D01*
X123452380Y-78404761D01*
X123500000Y-78500000D01*
X123547619Y-78547619D01*
X123642857Y-78595238D01*
X123738095Y-78595238D01*
X123880952Y-78547619D01*
X124452380Y-77976190D01*
X124452380Y-78595238D01*
X124166666Y-79738095D02*
X124166666Y-80214285D01*
X124452380Y-79642857D02*
X123452380Y-79976190D01*
X124452380Y-80309523D01*
X123500000Y-81166666D02*
X123452380Y-81071428D01*
X123452380Y-80928571D01*
X123500000Y-80785714D01*
X123595238Y-80690476D01*
X123690476Y-80642857D01*
X123880952Y-80595238D01*
X124023809Y-80595238D01*
X124214285Y-80642857D01*
X124309523Y-80690476D01*
X124404761Y-80785714D01*
X124452380Y-80928571D01*
X124452380Y-81023809D01*
X124404761Y-81166666D01*
X124357142Y-81214285D01*
X124023809Y-81214285D01*
X124023809Y-81023809D01*
X124452380Y-81642857D02*
X123452380Y-81642857D01*
X124452380Y-82214285D01*
X123452380Y-82214285D01*
X124452380Y-82690476D02*
X123452380Y-82690476D01*
X123452380Y-82928571D01*
X123500000Y-83071428D01*
X123595238Y-83166666D01*
X123690476Y-83214285D01*
X123880952Y-83261904D01*
X124023809Y-83261904D01*
X124214285Y-83214285D01*
X124309523Y-83166666D01*
X124404761Y-83071428D01*
X124452380Y-82928571D01*
X124452380Y-82690476D01*
X100666666Y-43071428D02*
X99904761Y-43071428D01*
X100285714Y-43452380D02*
X100285714Y-42690476D01*
X98952380Y-42452380D02*
X99428571Y-42452380D01*
X99476190Y-42928571D01*
X99428571Y-42880952D01*
X99333333Y-42833333D01*
X99095238Y-42833333D01*
X99000000Y-42880952D01*
X98952380Y-42928571D01*
X98904761Y-43023809D01*
X98904761Y-43261904D01*
X98952380Y-43357142D01*
X99000000Y-43404761D01*
X99095238Y-43452380D01*
X99333333Y-43452380D01*
X99428571Y-43404761D01*
X99476190Y-43357142D01*
X98619047Y-42452380D02*
X98285714Y-43452380D01*
X97952380Y-42452380D01*
X97619047Y-43452380D02*
X97619047Y-42452380D01*
X97380952Y-42452380D01*
X97238095Y-42500000D01*
X97142857Y-42595238D01*
X97095238Y-42690476D01*
X97047619Y-42880952D01*
X97047619Y-43023809D01*
X97095238Y-43214285D01*
X97142857Y-43309523D01*
X97238095Y-43404761D01*
X97380952Y-43452380D01*
X97619047Y-43452380D01*
X95857142Y-43452380D02*
X95857142Y-42452380D01*
X95380952Y-43452380D02*
X95380952Y-42452380D01*
X95380952Y-42928571D02*
X94809523Y-42928571D01*
X94809523Y-43452380D02*
X94809523Y-42452380D01*
X93904761Y-42785714D02*
X93904761Y-43595238D01*
X93952380Y-43690476D01*
X94000000Y-43738095D01*
X94095238Y-43785714D01*
X94238095Y-43785714D01*
X94333333Y-43738095D01*
X93904761Y-43404761D02*
X94000000Y-43452380D01*
X94190476Y-43452380D01*
X94285714Y-43404761D01*
X94333333Y-43357142D01*
X94380952Y-43261904D01*
X94380952Y-42976190D01*
X94333333Y-42880952D01*
X94285714Y-42833333D01*
X94190476Y-42785714D01*
X94000000Y-42785714D01*
X93904761Y-42833333D01*
X93428571Y-43452380D02*
X93428571Y-42452380D01*
X93000000Y-43452380D02*
X93000000Y-42928571D01*
X93047619Y-42833333D01*
X93142857Y-42785714D01*
X93285714Y-42785714D01*
X93380952Y-42833333D01*
X93428571Y-42880952D01*
X91809523Y-43166666D02*
X91333333Y-43166666D01*
X91904761Y-43452380D02*
X91571428Y-42452380D01*
X91238095Y-43452380D01*
X90380952Y-42500000D02*
X90476190Y-42452380D01*
X90619047Y-42452380D01*
X90761904Y-42500000D01*
X90857142Y-42595238D01*
X90904761Y-42690476D01*
X90952380Y-42880952D01*
X90952380Y-43023809D01*
X90904761Y-43214285D01*
X90857142Y-43309523D01*
X90761904Y-43404761D01*
X90619047Y-43452380D01*
X90523809Y-43452380D01*
X90380952Y-43404761D01*
X90333333Y-43357142D01*
X90333333Y-43023809D01*
X90523809Y-43023809D01*
X89904761Y-43452380D02*
X89904761Y-42452380D01*
X89333333Y-43452380D01*
X89333333Y-42452380D01*
X88857142Y-43452380D02*
X88857142Y-42452380D01*
X88619047Y-42452380D01*
X88476190Y-42500000D01*
X88380952Y-42595238D01*
X88333333Y-42690476D01*
X88285714Y-42880952D01*
X88285714Y-43023809D01*
X88333333Y-43214285D01*
X88380952Y-43309523D01*
X88476190Y-43404761D01*
X88619047Y-43452380D01*
X88857142Y-43452380D01*
X79833333Y-81476190D02*
X79833333Y-81000000D01*
X79547619Y-81571428D02*
X80547619Y-81238095D01*
X79547619Y-80904761D01*
X80500000Y-80047619D02*
X80547619Y-80142857D01*
X80547619Y-80285714D01*
X80500000Y-80428571D01*
X80404761Y-80523809D01*
X80309523Y-80571428D01*
X80119047Y-80619047D01*
X79976190Y-80619047D01*
X79785714Y-80571428D01*
X79690476Y-80523809D01*
X79595238Y-80428571D01*
X79547619Y-80285714D01*
X79547619Y-80190476D01*
X79595238Y-80047619D01*
X79642857Y-80000000D01*
X79976190Y-80000000D01*
X79976190Y-80190476D01*
X79547619Y-79571428D02*
X80547619Y-79571428D01*
X79547619Y-79000000D01*
X80547619Y-79000000D01*
X79547619Y-78523809D02*
X80547619Y-78523809D01*
X80547619Y-78285714D01*
X80500000Y-78142857D01*
X80404761Y-78047619D01*
X80309523Y-78000000D01*
X80119047Y-77952380D01*
X79976190Y-77952380D01*
X79785714Y-78000000D01*
X79690476Y-78047619D01*
X79595238Y-78142857D01*
X79547619Y-78285714D01*
X79547619Y-78523809D01*
X80547619Y-76904761D02*
X80547619Y-76333333D01*
X79547619Y-76619047D02*
X80547619Y-76619047D01*
X80214285Y-76000000D02*
X79214285Y-76000000D01*
X80166666Y-76000000D02*
X80214285Y-75904761D01*
X80214285Y-75714285D01*
X80166666Y-75619047D01*
X80119047Y-75571428D01*
X80023809Y-75523809D01*
X79738095Y-75523809D01*
X79642857Y-75571428D01*
X79595238Y-75619047D01*
X79547619Y-75714285D01*
X79547619Y-75904761D01*
X79595238Y-76000000D01*
X79547619Y-74333333D02*
X80547619Y-74333333D01*
X79547619Y-73333333D02*
X79547619Y-73904761D01*
X79547619Y-73619047D02*
X80547619Y-73619047D01*
X80404761Y-73714285D01*
X80309523Y-73809523D01*
X80261904Y-73904761D01*
X79928571Y-72142857D02*
X79928571Y-71380952D01*
X79547619Y-71761904D02*
X80309523Y-71761904D01*
X80547619Y-70428571D02*
X80547619Y-70904761D01*
X80071428Y-70952380D01*
X80119047Y-70904761D01*
X80166666Y-70809523D01*
X80166666Y-70571428D01*
X80119047Y-70476190D01*
X80071428Y-70428571D01*
X79976190Y-70380952D01*
X79738095Y-70380952D01*
X79642857Y-70428571D01*
X79595238Y-70476190D01*
X79547619Y-70571428D01*
X79547619Y-70809523D01*
X79595238Y-70904761D01*
X79642857Y-70952380D01*
X80547619Y-70095238D02*
X79547619Y-69761904D01*
X80547619Y-69428571D01*
X79547619Y-69095238D02*
X80547619Y-69095238D01*
X80547619Y-68857142D01*
X80500000Y-68714285D01*
X80404761Y-68619047D01*
X80309523Y-68571428D01*
X80119047Y-68523809D01*
X79976190Y-68523809D01*
X79785714Y-68571428D01*
X79690476Y-68619047D01*
X79595238Y-68714285D01*
X79547619Y-68857142D01*
X79547619Y-69095238D01*
X101642857Y-49452380D02*
X101642857Y-48452380D01*
X101071428Y-49452380D01*
X101071428Y-48452380D01*
X100833333Y-49547619D02*
X100071428Y-49547619D01*
X99309523Y-48500000D02*
X99404761Y-48452380D01*
X99547619Y-48452380D01*
X99690476Y-48500000D01*
X99785714Y-48595238D01*
X99833333Y-48690476D01*
X99880952Y-48880952D01*
X99880952Y-49023809D01*
X99833333Y-49214285D01*
X99785714Y-49309523D01*
X99690476Y-49404761D01*
X99547619Y-49452380D01*
X99452380Y-49452380D01*
X99309523Y-49404761D01*
X99261904Y-49357142D01*
X99261904Y-49023809D01*
X99452380Y-49023809D01*
X98833333Y-49452380D02*
X98833333Y-48452380D01*
X98261904Y-49452380D01*
X98261904Y-48452380D01*
X97785714Y-49452380D02*
X97785714Y-48452380D01*
X97547619Y-48452380D01*
X97404761Y-48500000D01*
X97309523Y-48595238D01*
X97261904Y-48690476D01*
X97214285Y-48880952D01*
X97214285Y-49023809D01*
X97261904Y-49214285D01*
X97309523Y-49309523D01*
X97404761Y-49404761D01*
X97547619Y-49452380D01*
X97785714Y-49452380D01*
X96023809Y-49452380D02*
X96023809Y-48452380D01*
X96023809Y-48928571D02*
X95452380Y-48928571D01*
X95452380Y-49452380D02*
X95452380Y-48452380D01*
X95023809Y-48547619D02*
X94976190Y-48500000D01*
X94880952Y-48452380D01*
X94642857Y-48452380D01*
X94547619Y-48500000D01*
X94500000Y-48547619D01*
X94452380Y-48642857D01*
X94452380Y-48738095D01*
X94500000Y-48880952D01*
X95071428Y-49452380D01*
X94452380Y-49452380D01*
X92785714Y-49452380D02*
X93261904Y-49452380D01*
X93261904Y-48452380D01*
X92500000Y-48547619D02*
X92452380Y-48500000D01*
X92357142Y-48452380D01*
X92119047Y-48452380D01*
X92023809Y-48500000D01*
X91976190Y-48547619D01*
X91928571Y-48642857D01*
X91928571Y-48738095D01*
X91976190Y-48880952D01*
X92547619Y-49452380D01*
X91928571Y-49452380D01*
X90738095Y-49452380D02*
X90738095Y-48452380D01*
X90500000Y-48452380D01*
X90357142Y-48500000D01*
X90261904Y-48595238D01*
X90214285Y-48690476D01*
X90166666Y-48880952D01*
X90166666Y-49023809D01*
X90214285Y-49214285D01*
X90261904Y-49309523D01*
X90357142Y-49404761D01*
X90500000Y-49452380D01*
X90738095Y-49452380D01*
X89214285Y-48500000D02*
X89309523Y-48452380D01*
X89452380Y-48452380D01*
X89595238Y-48500000D01*
X89690476Y-48595238D01*
X89738095Y-48690476D01*
X89785714Y-48880952D01*
X89785714Y-49023809D01*
X89738095Y-49214285D01*
X89690476Y-49309523D01*
X89595238Y-49404761D01*
X89452380Y-49452380D01*
X89357142Y-49452380D01*
X89214285Y-49404761D01*
X89166666Y-49357142D01*
X89166666Y-49023809D01*
X89357142Y-49023809D01*
X88738095Y-49452380D02*
X88738095Y-48452380D01*
X88166666Y-49452380D01*
X88166666Y-48452380D01*
X87690476Y-49452380D02*
X87690476Y-48452380D01*
X87452380Y-48452380D01*
X87309523Y-48500000D01*
X87214285Y-48595238D01*
X87166666Y-48690476D01*
X87119047Y-48880952D01*
X87119047Y-49023809D01*
X87166666Y-49214285D01*
X87214285Y-49309523D01*
X87309523Y-49404761D01*
X87452380Y-49452380D01*
X87690476Y-49452380D01*
X85928571Y-49071428D02*
X85166666Y-49071428D01*
X85547619Y-49452380D02*
X85547619Y-48690476D01*
X84214285Y-48452380D02*
X84690476Y-48452380D01*
X84738095Y-48928571D01*
X84690476Y-48880952D01*
X84595238Y-48833333D01*
X84357142Y-48833333D01*
X84261904Y-48880952D01*
X84214285Y-48928571D01*
X84166666Y-49023809D01*
X84166666Y-49261904D01*
X84214285Y-49357142D01*
X84261904Y-49404761D01*
X84357142Y-49452380D01*
X84595238Y-49452380D01*
X84690476Y-49404761D01*
X84738095Y-49357142D01*
X83880952Y-48452380D02*
X83547619Y-49452380D01*
X83214285Y-48452380D01*
X82880952Y-49452380D02*
X82880952Y-48452380D01*
X82642857Y-48452380D01*
X82500000Y-48500000D01*
X82404761Y-48595238D01*
X82357142Y-48690476D01*
X82309523Y-48880952D01*
X82309523Y-49023809D01*
X82357142Y-49214285D01*
X82404761Y-49309523D01*
X82500000Y-49404761D01*
X82642857Y-49452380D01*
X82880952Y-49452380D01*
X61833333Y-63571428D02*
X61071428Y-63571428D01*
X61452380Y-63952380D02*
X61452380Y-63190476D01*
X60119047Y-62952380D02*
X60595238Y-62952380D01*
X60642857Y-63428571D01*
X60595238Y-63380952D01*
X60500000Y-63333333D01*
X60261904Y-63333333D01*
X60166666Y-63380952D01*
X60119047Y-63428571D01*
X60071428Y-63523809D01*
X60071428Y-63761904D01*
X60119047Y-63857142D01*
X60166666Y-63904761D01*
X60261904Y-63952380D01*
X60500000Y-63952380D01*
X60595238Y-63904761D01*
X60642857Y-63857142D01*
X59785714Y-62952380D02*
X59452380Y-63952380D01*
X59119047Y-62952380D01*
X58785714Y-63952380D02*
X58785714Y-62952380D01*
X58547619Y-62952380D01*
X58404761Y-63000000D01*
X58309523Y-63095238D01*
X58261904Y-63190476D01*
X58214285Y-63380952D01*
X58214285Y-63523809D01*
X58261904Y-63714285D01*
X58309523Y-63809523D01*
X58404761Y-63904761D01*
X58547619Y-63952380D01*
X58785714Y-63952380D01*
X56547619Y-63952380D02*
X57023809Y-63952380D01*
X57023809Y-62952380D01*
X55690476Y-63952380D02*
X56261904Y-63952380D01*
X55976190Y-63952380D02*
X55976190Y-62952380D01*
X56071428Y-63095238D01*
X56166666Y-63190476D01*
X56261904Y-63238095D01*
X54500000Y-63952380D02*
X54500000Y-62952380D01*
X54500000Y-63428571D02*
X53928571Y-63428571D01*
X53928571Y-63952380D02*
X53928571Y-62952380D01*
X52928571Y-63952380D02*
X53500000Y-63952380D01*
X53214285Y-63952380D02*
X53214285Y-62952380D01*
X53309523Y-63095238D01*
X53404761Y-63190476D01*
X53500000Y-63238095D01*
X51738095Y-63952380D02*
X51738095Y-62952380D01*
X51500000Y-62952380D01*
X51357142Y-63000000D01*
X51261904Y-63095238D01*
X51214285Y-63190476D01*
X51166666Y-63380952D01*
X51166666Y-63523809D01*
X51214285Y-63714285D01*
X51261904Y-63809523D01*
X51357142Y-63904761D01*
X51500000Y-63952380D01*
X51738095Y-63952380D01*
X50214285Y-63000000D02*
X50309523Y-62952380D01*
X50452380Y-62952380D01*
X50595238Y-63000000D01*
X50690476Y-63095238D01*
X50738095Y-63190476D01*
X50785714Y-63380952D01*
X50785714Y-63523809D01*
X50738095Y-63714285D01*
X50690476Y-63809523D01*
X50595238Y-63904761D01*
X50452380Y-63952380D01*
X50357142Y-63952380D01*
X50214285Y-63904761D01*
X50166666Y-63857142D01*
X50166666Y-63523809D01*
X50357142Y-63523809D01*
X49738095Y-63952380D02*
X49738095Y-62952380D01*
X49166666Y-63952380D01*
X49166666Y-62952380D01*
X48690476Y-63952380D02*
X48690476Y-62952380D01*
X48452380Y-62952380D01*
X48309523Y-63000000D01*
X48214285Y-63095238D01*
X48166666Y-63190476D01*
X48119047Y-63380952D01*
X48119047Y-63523809D01*
X48166666Y-63714285D01*
X48214285Y-63809523D01*
X48309523Y-63904761D01*
X48452380Y-63952380D01*
X48690476Y-63952380D01*
X91785714Y-67071428D02*
X91023809Y-67071428D01*
X91404761Y-67452380D02*
X91404761Y-66690476D01*
X90690476Y-66452380D02*
X90357142Y-67452380D01*
X90023809Y-66452380D01*
X89166666Y-67452380D02*
X89738095Y-67452380D01*
X89452380Y-67452380D02*
X89452380Y-66452380D01*
X89547619Y-66595238D01*
X89642857Y-66690476D01*
X89738095Y-66738095D01*
X102785714Y-67071428D02*
X102023809Y-67071428D01*
X102404761Y-67452380D02*
X102404761Y-66690476D01*
X101690476Y-66452380D02*
X101357142Y-67452380D01*
X101023809Y-66452380D01*
X100738095Y-66547619D02*
X100690476Y-66500000D01*
X100595238Y-66452380D01*
X100357142Y-66452380D01*
X100261904Y-66500000D01*
X100214285Y-66547619D01*
X100166666Y-66642857D01*
X100166666Y-66738095D01*
X100214285Y-66880952D01*
X100785714Y-67452380D01*
X100166666Y-67452380D01*
X103690476Y-58071428D02*
X102928571Y-58071428D01*
X103309523Y-58452380D02*
X103309523Y-57690476D01*
X101976190Y-57452380D02*
X102452380Y-57452380D01*
X102500000Y-57928571D01*
X102452380Y-57880952D01*
X102357142Y-57833333D01*
X102119047Y-57833333D01*
X102023809Y-57880952D01*
X101976190Y-57928571D01*
X101928571Y-58023809D01*
X101928571Y-58261904D01*
X101976190Y-58357142D01*
X102023809Y-58404761D01*
X102119047Y-58452380D01*
X102357142Y-58452380D01*
X102452380Y-58404761D01*
X102500000Y-58357142D01*
X101642857Y-57452380D02*
X101309523Y-58452380D01*
X100976190Y-57452380D01*
X100642857Y-58452380D02*
X100642857Y-57452380D01*
X100404761Y-57452380D01*
X100261904Y-57500000D01*
X100166666Y-57595238D01*
X100119047Y-57690476D01*
X100071428Y-57880952D01*
X100071428Y-58023809D01*
X100119047Y-58214285D01*
X100166666Y-58309523D01*
X100261904Y-58404761D01*
X100404761Y-58452380D01*
X100642857Y-58452380D01*
X98880952Y-58452380D02*
X98880952Y-57452380D01*
X98642857Y-57452380D01*
X98500000Y-57500000D01*
X98404761Y-57595238D01*
X98357142Y-57690476D01*
X98309523Y-57880952D01*
X98309523Y-58023809D01*
X98357142Y-58214285D01*
X98404761Y-58309523D01*
X98500000Y-58404761D01*
X98642857Y-58452380D01*
X98880952Y-58452380D01*
X97357142Y-57500000D02*
X97452380Y-57452380D01*
X97595238Y-57452380D01*
X97738095Y-57500000D01*
X97833333Y-57595238D01*
X97880952Y-57690476D01*
X97928571Y-57880952D01*
X97928571Y-58023809D01*
X97880952Y-58214285D01*
X97833333Y-58309523D01*
X97738095Y-58404761D01*
X97595238Y-58452380D01*
X97500000Y-58452380D01*
X97357142Y-58404761D01*
X97309523Y-58357142D01*
X97309523Y-58023809D01*
X97500000Y-58023809D01*
X96880952Y-58452380D02*
X96880952Y-57452380D01*
X96309523Y-58452380D01*
X96309523Y-57452380D01*
X95833333Y-58452380D02*
X95833333Y-57452380D01*
X95595238Y-57452380D01*
X95452380Y-57500000D01*
X95357142Y-57595238D01*
X95309523Y-57690476D01*
X95261904Y-57880952D01*
X95261904Y-58023809D01*
X95309523Y-58214285D01*
X95357142Y-58309523D01*
X95452380Y-58404761D01*
X95595238Y-58452380D01*
X95833333Y-58452380D01*
X92476190Y-57452380D02*
X91904761Y-57452380D01*
X92190476Y-58452380D02*
X92190476Y-57452380D01*
X91571428Y-57785714D02*
X91571428Y-58785714D01*
X91571428Y-57833333D02*
X91476190Y-57785714D01*
X91285714Y-57785714D01*
X91190476Y-57833333D01*
X91142857Y-57880952D01*
X91095238Y-57976190D01*
X91095238Y-58261904D01*
X91142857Y-58357142D01*
X91190476Y-58404761D01*
X91285714Y-58452380D01*
X91476190Y-58452380D01*
X91571428Y-58404761D01*
X89904761Y-58452380D02*
X89904761Y-57452380D01*
X89428571Y-58452380D02*
X89428571Y-57452380D01*
X89428571Y-57928571D02*
X88857142Y-57928571D01*
X88857142Y-58452380D02*
X88857142Y-57452380D01*
X87952380Y-57785714D02*
X87952380Y-58595238D01*
X88000000Y-58690476D01*
X88047619Y-58738095D01*
X88142857Y-58785714D01*
X88285714Y-58785714D01*
X88380952Y-58738095D01*
X87952380Y-58404761D02*
X88047619Y-58452380D01*
X88238095Y-58452380D01*
X88333333Y-58404761D01*
X88380952Y-58357142D01*
X88428571Y-58261904D01*
X88428571Y-57976190D01*
X88380952Y-57880952D01*
X88333333Y-57833333D01*
X88238095Y-57785714D01*
X88047619Y-57785714D01*
X87952380Y-57833333D01*
X87476190Y-58452380D02*
X87476190Y-57452380D01*
X87047619Y-58452380D02*
X87047619Y-57928571D01*
X87095238Y-57833333D01*
X87190476Y-57785714D01*
X87333333Y-57785714D01*
X87428571Y-57833333D01*
X87476190Y-57880952D01*
X85809523Y-58452380D02*
X85809523Y-57452380D01*
X85380952Y-57547619D02*
X85333333Y-57500000D01*
X85238095Y-57452380D01*
X85000000Y-57452380D01*
X84904761Y-57500000D01*
X84857142Y-57547619D01*
X84809523Y-57642857D01*
X84809523Y-57738095D01*
X84857142Y-57880952D01*
X85428571Y-58452380D01*
X84809523Y-58452380D01*
X83619047Y-58452380D02*
X83619047Y-57452380D01*
X82619047Y-58452380D02*
X83190476Y-58452380D01*
X82904761Y-58452380D02*
X82904761Y-57452380D01*
X83000000Y-57595238D01*
X83095238Y-57690476D01*
X83190476Y-57738095D01*
X91690476Y-50571428D02*
X90928571Y-50571428D01*
X91309523Y-50952380D02*
X91309523Y-50190476D01*
X89976190Y-49952380D02*
X90452380Y-49952380D01*
X90500000Y-50428571D01*
X90452380Y-50380952D01*
X90357142Y-50333333D01*
X90119047Y-50333333D01*
X90023809Y-50380952D01*
X89976190Y-50428571D01*
X89928571Y-50523809D01*
X89928571Y-50761904D01*
X89976190Y-50857142D01*
X90023809Y-50904761D01*
X90119047Y-50952380D01*
X90357142Y-50952380D01*
X90452380Y-50904761D01*
X90500000Y-50857142D01*
X89642857Y-49952380D02*
X89309523Y-50952380D01*
X88976190Y-49952380D01*
X88642857Y-50952380D02*
X88642857Y-49952380D01*
X88404761Y-49952380D01*
X88261904Y-50000000D01*
X88166666Y-50095238D01*
X88119047Y-50190476D01*
X88071428Y-50380952D01*
X88071428Y-50523809D01*
X88119047Y-50714285D01*
X88166666Y-50809523D01*
X88261904Y-50904761D01*
X88404761Y-50952380D01*
X88642857Y-50952380D01*
X86880952Y-50952380D02*
X86880952Y-49952380D01*
X86642857Y-49952380D01*
X86500000Y-50000000D01*
X86404761Y-50095238D01*
X86357142Y-50190476D01*
X86309523Y-50380952D01*
X86309523Y-50523809D01*
X86357142Y-50714285D01*
X86404761Y-50809523D01*
X86500000Y-50904761D01*
X86642857Y-50952380D01*
X86880952Y-50952380D01*
X85357142Y-50000000D02*
X85452380Y-49952380D01*
X85595238Y-49952380D01*
X85738095Y-50000000D01*
X85833333Y-50095238D01*
X85880952Y-50190476D01*
X85928571Y-50380952D01*
X85928571Y-50523809D01*
X85880952Y-50714285D01*
X85833333Y-50809523D01*
X85738095Y-50904761D01*
X85595238Y-50952380D01*
X85500000Y-50952380D01*
X85357142Y-50904761D01*
X85309523Y-50857142D01*
X85309523Y-50523809D01*
X85500000Y-50523809D01*
X84880952Y-50952380D02*
X84880952Y-49952380D01*
X84309523Y-50952380D01*
X84309523Y-49952380D01*
X83833333Y-50952380D02*
X83833333Y-49952380D01*
X83595238Y-49952380D01*
X83452380Y-50000000D01*
X83357142Y-50095238D01*
X83309523Y-50190476D01*
X83261904Y-50380952D01*
X83261904Y-50523809D01*
X83309523Y-50714285D01*
X83357142Y-50809523D01*
X83452380Y-50904761D01*
X83595238Y-50952380D01*
X83833333Y-50952380D01*
X80738095Y-50571428D02*
X79976190Y-50571428D01*
X80357142Y-50952380D02*
X80357142Y-50190476D01*
X79642857Y-49952380D02*
X79309523Y-50952380D01*
X78976190Y-49952380D01*
X78642857Y-50952380D02*
X78642857Y-49952380D01*
X78642857Y-50428571D02*
X78071428Y-50428571D01*
X78071428Y-50952380D02*
X78071428Y-49952380D01*
X77166666Y-50285714D02*
X77166666Y-51095238D01*
X77214285Y-51190476D01*
X77261904Y-51238095D01*
X77357142Y-51285714D01*
X77500000Y-51285714D01*
X77595238Y-51238095D01*
X77166666Y-50904761D02*
X77261904Y-50952380D01*
X77452380Y-50952380D01*
X77547619Y-50904761D01*
X77595238Y-50857142D01*
X77642857Y-50761904D01*
X77642857Y-50476190D01*
X77595238Y-50380952D01*
X77547619Y-50333333D01*
X77452380Y-50285714D01*
X77261904Y-50285714D01*
X77166666Y-50333333D01*
X76690476Y-50952380D02*
X76690476Y-49952380D01*
X76261904Y-50952380D02*
X76261904Y-50428571D01*
X76309523Y-50333333D01*
X76404761Y-50285714D01*
X76547619Y-50285714D01*
X76642857Y-50333333D01*
X76690476Y-50380952D01*
%TO.C,R9*%
X86357666Y-79214380D02*
X86691000Y-78738190D01*
X86929095Y-79214380D02*
X86929095Y-78214380D01*
X86548142Y-78214380D01*
X86452904Y-78262000D01*
X86405285Y-78309619D01*
X86357666Y-78404857D01*
X86357666Y-78547714D01*
X86405285Y-78642952D01*
X86452904Y-78690571D01*
X86548142Y-78738190D01*
X86929095Y-78738190D01*
X85881476Y-79214380D02*
X85691000Y-79214380D01*
X85595761Y-79166761D01*
X85548142Y-79119142D01*
X85452904Y-78976285D01*
X85405285Y-78785809D01*
X85405285Y-78404857D01*
X85452904Y-78309619D01*
X85500523Y-78262000D01*
X85595761Y-78214380D01*
X85786238Y-78214380D01*
X85881476Y-78262000D01*
X85929095Y-78309619D01*
X85976714Y-78404857D01*
X85976714Y-78642952D01*
X85929095Y-78738190D01*
X85881476Y-78785809D01*
X85786238Y-78833428D01*
X85595761Y-78833428D01*
X85500523Y-78785809D01*
X85452904Y-78738190D01*
X85405285Y-78642952D01*
%TO.C,R8*%
X86357666Y-76964380D02*
X86691000Y-76488190D01*
X86929095Y-76964380D02*
X86929095Y-75964380D01*
X86548142Y-75964380D01*
X86452904Y-76012000D01*
X86405285Y-76059619D01*
X86357666Y-76154857D01*
X86357666Y-76297714D01*
X86405285Y-76392952D01*
X86452904Y-76440571D01*
X86548142Y-76488190D01*
X86929095Y-76488190D01*
X85786238Y-76392952D02*
X85881476Y-76345333D01*
X85929095Y-76297714D01*
X85976714Y-76202476D01*
X85976714Y-76154857D01*
X85929095Y-76059619D01*
X85881476Y-76012000D01*
X85786238Y-75964380D01*
X85595761Y-75964380D01*
X85500523Y-76012000D01*
X85452904Y-76059619D01*
X85405285Y-76154857D01*
X85405285Y-76202476D01*
X85452904Y-76297714D01*
X85500523Y-76345333D01*
X85595761Y-76392952D01*
X85786238Y-76392952D01*
X85881476Y-76440571D01*
X85929095Y-76488190D01*
X85976714Y-76583428D01*
X85976714Y-76773904D01*
X85929095Y-76869142D01*
X85881476Y-76916761D01*
X85786238Y-76964380D01*
X85595761Y-76964380D01*
X85500523Y-76916761D01*
X85452904Y-76869142D01*
X85405285Y-76773904D01*
X85405285Y-76583428D01*
X85452904Y-76488190D01*
X85500523Y-76440571D01*
X85595761Y-76392952D01*
%TO.C,R7*%
X89701666Y-36999880D02*
X90035000Y-36523690D01*
X90273095Y-36999880D02*
X90273095Y-35999880D01*
X89892142Y-35999880D01*
X89796904Y-36047500D01*
X89749285Y-36095119D01*
X89701666Y-36190357D01*
X89701666Y-36333214D01*
X89749285Y-36428452D01*
X89796904Y-36476071D01*
X89892142Y-36523690D01*
X90273095Y-36523690D01*
X89368333Y-35999880D02*
X88701666Y-35999880D01*
X89130238Y-36999880D01*
%TO.C,R6*%
X97321666Y-36999880D02*
X97655000Y-36523690D01*
X97893095Y-36999880D02*
X97893095Y-35999880D01*
X97512142Y-35999880D01*
X97416904Y-36047500D01*
X97369285Y-36095119D01*
X97321666Y-36190357D01*
X97321666Y-36333214D01*
X97369285Y-36428452D01*
X97416904Y-36476071D01*
X97512142Y-36523690D01*
X97893095Y-36523690D01*
X96464523Y-35999880D02*
X96655000Y-35999880D01*
X96750238Y-36047500D01*
X96797857Y-36095119D01*
X96893095Y-36237976D01*
X96940714Y-36428452D01*
X96940714Y-36809404D01*
X96893095Y-36904642D01*
X96845476Y-36952261D01*
X96750238Y-36999880D01*
X96559761Y-36999880D01*
X96464523Y-36952261D01*
X96416904Y-36904642D01*
X96369285Y-36809404D01*
X96369285Y-36571309D01*
X96416904Y-36476071D01*
X96464523Y-36428452D01*
X96559761Y-36380833D01*
X96750238Y-36380833D01*
X96845476Y-36428452D01*
X96893095Y-36476071D01*
X96940714Y-36571309D01*
%TO.C,R5*%
X121070666Y-80975380D02*
X121404000Y-80499190D01*
X121642095Y-80975380D02*
X121642095Y-79975380D01*
X121261142Y-79975380D01*
X121165904Y-80023000D01*
X121118285Y-80070619D01*
X121070666Y-80165857D01*
X121070666Y-80308714D01*
X121118285Y-80403952D01*
X121165904Y-80451571D01*
X121261142Y-80499190D01*
X121642095Y-80499190D01*
X120165904Y-79975380D02*
X120642095Y-79975380D01*
X120689714Y-80451571D01*
X120642095Y-80403952D01*
X120546857Y-80356333D01*
X120308761Y-80356333D01*
X120213523Y-80403952D01*
X120165904Y-80451571D01*
X120118285Y-80546809D01*
X120118285Y-80784904D01*
X120165904Y-80880142D01*
X120213523Y-80927761D01*
X120308761Y-80975380D01*
X120546857Y-80975380D01*
X120642095Y-80927761D01*
X120689714Y-80880142D01*
%TO.C,R4*%
X121254166Y-75675380D02*
X121587500Y-75199190D01*
X121825595Y-75675380D02*
X121825595Y-74675380D01*
X121444642Y-74675380D01*
X121349404Y-74723000D01*
X121301785Y-74770619D01*
X121254166Y-74865857D01*
X121254166Y-75008714D01*
X121301785Y-75103952D01*
X121349404Y-75151571D01*
X121444642Y-75199190D01*
X121825595Y-75199190D01*
X120397023Y-75008714D02*
X120397023Y-75675380D01*
X120635119Y-74627761D02*
X120873214Y-75342047D01*
X120254166Y-75342047D01*
%TO.C,R3*%
X70168166Y-79446380D02*
X70501500Y-78970190D01*
X70739595Y-79446380D02*
X70739595Y-78446380D01*
X70358642Y-78446380D01*
X70263404Y-78494000D01*
X70215785Y-78541619D01*
X70168166Y-78636857D01*
X70168166Y-78779714D01*
X70215785Y-78874952D01*
X70263404Y-78922571D01*
X70358642Y-78970190D01*
X70739595Y-78970190D01*
X69834833Y-78446380D02*
X69215785Y-78446380D01*
X69549119Y-78827333D01*
X69406261Y-78827333D01*
X69311023Y-78874952D01*
X69263404Y-78922571D01*
X69215785Y-79017809D01*
X69215785Y-79255904D01*
X69263404Y-79351142D01*
X69311023Y-79398761D01*
X69406261Y-79446380D01*
X69691976Y-79446380D01*
X69787214Y-79398761D01*
X69834833Y-79351142D01*
%TO.C,R2*%
X70106666Y-77030380D02*
X70440000Y-76554190D01*
X70678095Y-77030380D02*
X70678095Y-76030380D01*
X70297142Y-76030380D01*
X70201904Y-76078000D01*
X70154285Y-76125619D01*
X70106666Y-76220857D01*
X70106666Y-76363714D01*
X70154285Y-76458952D01*
X70201904Y-76506571D01*
X70297142Y-76554190D01*
X70678095Y-76554190D01*
X69725714Y-76125619D02*
X69678095Y-76078000D01*
X69582857Y-76030380D01*
X69344761Y-76030380D01*
X69249523Y-76078000D01*
X69201904Y-76125619D01*
X69154285Y-76220857D01*
X69154285Y-76316095D01*
X69201904Y-76458952D01*
X69773333Y-77030380D01*
X69154285Y-77030380D01*
%TO.C,R1*%
X111418666Y-100020380D02*
X111752000Y-99544190D01*
X111990095Y-100020380D02*
X111990095Y-99020380D01*
X111609142Y-99020380D01*
X111513904Y-99068000D01*
X111466285Y-99115619D01*
X111418666Y-99210857D01*
X111418666Y-99353714D01*
X111466285Y-99448952D01*
X111513904Y-99496571D01*
X111609142Y-99544190D01*
X111990095Y-99544190D01*
X110466285Y-100020380D02*
X111037714Y-100020380D01*
X110752000Y-100020380D02*
X110752000Y-99020380D01*
X110847238Y-99163238D01*
X110942476Y-99258476D01*
X111037714Y-99306095D01*
%TO.C,C2*%
X94654666Y-103989142D02*
X94702285Y-104036761D01*
X94845142Y-104084380D01*
X94940380Y-104084380D01*
X95083238Y-104036761D01*
X95178476Y-103941523D01*
X95226095Y-103846285D01*
X95273714Y-103655809D01*
X95273714Y-103512952D01*
X95226095Y-103322476D01*
X95178476Y-103227238D01*
X95083238Y-103132000D01*
X94940380Y-103084380D01*
X94845142Y-103084380D01*
X94702285Y-103132000D01*
X94654666Y-103179619D01*
X94273714Y-103179619D02*
X94226095Y-103132000D01*
X94130857Y-103084380D01*
X93892761Y-103084380D01*
X93797523Y-103132000D01*
X93749904Y-103179619D01*
X93702285Y-103274857D01*
X93702285Y-103370095D01*
X93749904Y-103512952D01*
X94321333Y-104084380D01*
X93702285Y-104084380D01*
%TO.C,C1*%
X42330666Y-52173142D02*
X42378285Y-52220761D01*
X42521142Y-52268380D01*
X42616380Y-52268380D01*
X42759238Y-52220761D01*
X42854476Y-52125523D01*
X42902095Y-52030285D01*
X42949714Y-51839809D01*
X42949714Y-51696952D01*
X42902095Y-51506476D01*
X42854476Y-51411238D01*
X42759238Y-51316000D01*
X42616380Y-51268380D01*
X42521142Y-51268380D01*
X42378285Y-51316000D01*
X42330666Y-51363619D01*
X41378285Y-52268380D02*
X41949714Y-52268380D01*
X41664000Y-52268380D02*
X41664000Y-51268380D01*
X41759238Y-51411238D01*
X41854476Y-51506476D01*
X41949714Y-51554095D01*
%TD*%
M02*
