%TF.GenerationSoftware,KiCad,Pcbnew,5.1.7-a382d34a8~88~ubuntu20.04.1*%
%TF.CreationDate,2021-04-08T15:18:28+02:00*%
%TF.ProjectId,Shield_Nucleo,53686965-6c64-45f4-9e75-636c656f2e6b,rev?*%
%TF.SameCoordinates,Original*%
%TF.FileFunction,Soldermask,Top*%
%TF.FilePolarity,Negative*%
%FSLAX46Y46*%
G04 Gerber Fmt 4.6, Leading zero omitted, Abs format (unit mm)*
G04 Created by KiCad (PCBNEW 5.1.7-a382d34a8~88~ubuntu20.04.1) date 2021-04-08 15:18:28*
%MOMM*%
%LPD*%
G01*
G04 APERTURE LIST*
%ADD10C,2.100000*%
%ADD11C,1.600000*%
%ADD12C,2.400000*%
%ADD13C,3.350000*%
%ADD14O,1.800000X1.800000*%
%ADD15C,1.705000*%
%ADD16C,3.100000*%
%ADD17C,1.630000*%
%ADD18C,6.100000*%
G04 APERTURE END LIST*
%TO.C,JP8*%
G36*
G01*
X78350000Y-56500000D02*
X76850000Y-56500000D01*
G75*
G02*
X76800000Y-56450000I0J50000D01*
G01*
X76800000Y-55450000D01*
G75*
G02*
X76850000Y-55400000I50000J0D01*
G01*
X78350000Y-55400000D01*
G75*
G02*
X78400000Y-55450000I0J-50000D01*
G01*
X78400000Y-56450000D01*
G75*
G02*
X78350000Y-56500000I-50000J0D01*
G01*
G37*
G36*
G01*
X78350000Y-55200000D02*
X76850000Y-55200000D01*
G75*
G02*
X76800000Y-55150000I0J50000D01*
G01*
X76800000Y-54150000D01*
G75*
G02*
X76850000Y-54100000I50000J0D01*
G01*
X78350000Y-54100000D01*
G75*
G02*
X78400000Y-54150000I0J-50000D01*
G01*
X78400000Y-55150000D01*
G75*
G02*
X78350000Y-55200000I-50000J0D01*
G01*
G37*
%TD*%
%TO.C,JP7*%
G36*
G01*
X80750000Y-56450000D02*
X79250000Y-56450000D01*
G75*
G02*
X79200000Y-56400000I0J50000D01*
G01*
X79200000Y-55400000D01*
G75*
G02*
X79250000Y-55350000I50000J0D01*
G01*
X80750000Y-55350000D01*
G75*
G02*
X80800000Y-55400000I0J-50000D01*
G01*
X80800000Y-56400000D01*
G75*
G02*
X80750000Y-56450000I-50000J0D01*
G01*
G37*
G36*
G01*
X80750000Y-55150000D02*
X79250000Y-55150000D01*
G75*
G02*
X79200000Y-55100000I0J50000D01*
G01*
X79200000Y-54100000D01*
G75*
G02*
X79250000Y-54050000I50000J0D01*
G01*
X80750000Y-54050000D01*
G75*
G02*
X80800000Y-54100000I0J-50000D01*
G01*
X80800000Y-55100000D01*
G75*
G02*
X80750000Y-55150000I-50000J0D01*
G01*
G37*
%TD*%
%TO.C,JP6*%
G36*
G01*
X103250000Y-68000000D02*
X101750000Y-68000000D01*
G75*
G02*
X101700000Y-67950000I0J50000D01*
G01*
X101700000Y-66950000D01*
G75*
G02*
X101750000Y-66900000I50000J0D01*
G01*
X103250000Y-66900000D01*
G75*
G02*
X103300000Y-66950000I0J-50000D01*
G01*
X103300000Y-67950000D01*
G75*
G02*
X103250000Y-68000000I-50000J0D01*
G01*
G37*
G36*
G01*
X103250000Y-66700000D02*
X101750000Y-66700000D01*
G75*
G02*
X101700000Y-66650000I0J50000D01*
G01*
X101700000Y-65650000D01*
G75*
G02*
X101750000Y-65600000I50000J0D01*
G01*
X103250000Y-65600000D01*
G75*
G02*
X103300000Y-65650000I0J-50000D01*
G01*
X103300000Y-66650000D01*
G75*
G02*
X103250000Y-66700000I-50000J0D01*
G01*
G37*
%TD*%
%TO.C,JP5*%
G36*
G01*
X100750000Y-68000000D02*
X99250000Y-68000000D01*
G75*
G02*
X99200000Y-67950000I0J50000D01*
G01*
X99200000Y-66950000D01*
G75*
G02*
X99250000Y-66900000I50000J0D01*
G01*
X100750000Y-66900000D01*
G75*
G02*
X100800000Y-66950000I0J-50000D01*
G01*
X100800000Y-67950000D01*
G75*
G02*
X100750000Y-68000000I-50000J0D01*
G01*
G37*
G36*
G01*
X100750000Y-66700000D02*
X99250000Y-66700000D01*
G75*
G02*
X99200000Y-66650000I0J50000D01*
G01*
X99200000Y-65650000D01*
G75*
G02*
X99250000Y-65600000I50000J0D01*
G01*
X100750000Y-65600000D01*
G75*
G02*
X100800000Y-65650000I0J-50000D01*
G01*
X100800000Y-66650000D01*
G75*
G02*
X100750000Y-66700000I-50000J0D01*
G01*
G37*
%TD*%
%TO.C,JP4*%
G36*
G01*
X84950000Y-63850000D02*
X84950000Y-62350000D01*
G75*
G02*
X85000000Y-62300000I50000J0D01*
G01*
X86000000Y-62300000D01*
G75*
G02*
X86050000Y-62350000I0J-50000D01*
G01*
X86050000Y-63850000D01*
G75*
G02*
X86000000Y-63900000I-50000J0D01*
G01*
X85000000Y-63900000D01*
G75*
G02*
X84950000Y-63850000I0J50000D01*
G01*
G37*
G36*
G01*
X86250000Y-63850000D02*
X86250000Y-62350000D01*
G75*
G02*
X86300000Y-62300000I50000J0D01*
G01*
X87300000Y-62300000D01*
G75*
G02*
X87350000Y-62350000I0J-50000D01*
G01*
X87350000Y-63850000D01*
G75*
G02*
X87300000Y-63900000I-50000J0D01*
G01*
X86300000Y-63900000D01*
G75*
G02*
X86250000Y-63850000I0J50000D01*
G01*
G37*
%TD*%
%TO.C,JP3*%
G36*
G01*
X84950000Y-65850000D02*
X84950000Y-64350000D01*
G75*
G02*
X85000000Y-64300000I50000J0D01*
G01*
X86000000Y-64300000D01*
G75*
G02*
X86050000Y-64350000I0J-50000D01*
G01*
X86050000Y-65850000D01*
G75*
G02*
X86000000Y-65900000I-50000J0D01*
G01*
X85000000Y-65900000D01*
G75*
G02*
X84950000Y-65850000I0J50000D01*
G01*
G37*
G36*
G01*
X86250000Y-65850000D02*
X86250000Y-64350000D01*
G75*
G02*
X86300000Y-64300000I50000J0D01*
G01*
X87300000Y-64300000D01*
G75*
G02*
X87350000Y-64350000I0J-50000D01*
G01*
X87350000Y-65850000D01*
G75*
G02*
X87300000Y-65900000I-50000J0D01*
G01*
X86300000Y-65900000D01*
G75*
G02*
X86250000Y-65850000I0J50000D01*
G01*
G37*
%TD*%
D10*
%TO.C,TP33*%
X124460000Y-88900000D03*
%TD*%
%TO.C,TP32*%
X124460000Y-93980000D03*
%TD*%
%TO.C,TP30*%
X81280000Y-109220000D03*
%TD*%
%TO.C,TP29*%
X76200000Y-109220000D03*
%TD*%
%TO.C,TP28*%
X81280000Y-104140000D03*
%TD*%
%TO.C,TP27*%
X76200000Y-104140000D03*
%TD*%
%TO.C,TP26*%
X66040000Y-104140000D03*
%TD*%
%TO.C,TP25*%
X66040000Y-109220000D03*
%TD*%
%TO.C,TP24*%
X60960000Y-104140000D03*
%TD*%
%TO.C,TP23*%
X60960000Y-109220000D03*
%TD*%
%TO.C,TP22*%
X55880000Y-104140000D03*
%TD*%
%TO.C,TP21*%
X55880000Y-109220000D03*
%TD*%
%TO.C,TP20*%
X76200000Y-116840000D03*
%TD*%
%TO.C,TP19*%
X76080000Y-121920000D03*
%TD*%
%TO.C,TP18*%
X81080000Y-116840000D03*
%TD*%
%TO.C,TP17*%
X81080000Y-121920000D03*
%TD*%
%TO.C,TP15*%
X119126000Y-106172000D03*
%TD*%
%TO.C,TP14*%
X124206000Y-101092000D03*
%TD*%
%TO.C,TP13*%
X124206000Y-106172000D03*
%TD*%
%TO.C,TP12*%
X45720000Y-121920000D03*
%TD*%
%TO.C,TP11*%
X71120000Y-116840000D03*
%TD*%
%TO.C,TP10*%
X71120000Y-121920000D03*
%TD*%
%TO.C,TP9*%
X66040000Y-116840000D03*
%TD*%
%TO.C,TP8*%
X66040000Y-121920000D03*
%TD*%
%TO.C,TP7*%
X60960000Y-116840000D03*
%TD*%
%TO.C,TP6*%
X60960000Y-121920000D03*
%TD*%
%TO.C,TP5*%
X55880000Y-116840000D03*
%TD*%
%TO.C,TP4*%
X55880000Y-121920000D03*
%TD*%
%TO.C,TP3*%
X45720000Y-116840000D03*
%TD*%
%TO.C,TP2*%
X45720000Y-111760000D03*
%TD*%
%TO.C,TP1*%
X119126000Y-101092000D03*
%TD*%
%TO.C,R13*%
G36*
G01*
X109695611Y-111410000D02*
X108744389Y-111410000D01*
G75*
G02*
X108470000Y-111135611I0J274389D01*
G01*
X108470000Y-110559389D01*
G75*
G02*
X108744389Y-110285000I274389J0D01*
G01*
X109695611Y-110285000D01*
G75*
G02*
X109970000Y-110559389I0J-274389D01*
G01*
X109970000Y-111135611D01*
G75*
G02*
X109695611Y-111410000I-274389J0D01*
G01*
G37*
G36*
G01*
X109695611Y-113235000D02*
X108744389Y-113235000D01*
G75*
G02*
X108470000Y-112960611I0J274389D01*
G01*
X108470000Y-112384389D01*
G75*
G02*
X108744389Y-112110000I274389J0D01*
G01*
X109695611Y-112110000D01*
G75*
G02*
X109970000Y-112384389I0J-274389D01*
G01*
X109970000Y-112960611D01*
G75*
G02*
X109695611Y-113235000I-274389J0D01*
G01*
G37*
%TD*%
%TO.C,R12*%
G36*
G01*
X120871611Y-111513500D02*
X119920389Y-111513500D01*
G75*
G02*
X119646000Y-111239111I0J274389D01*
G01*
X119646000Y-110662889D01*
G75*
G02*
X119920389Y-110388500I274389J0D01*
G01*
X120871611Y-110388500D01*
G75*
G02*
X121146000Y-110662889I0J-274389D01*
G01*
X121146000Y-111239111D01*
G75*
G02*
X120871611Y-111513500I-274389J0D01*
G01*
G37*
G36*
G01*
X120871611Y-113338500D02*
X119920389Y-113338500D01*
G75*
G02*
X119646000Y-113064111I0J274389D01*
G01*
X119646000Y-112487889D01*
G75*
G02*
X119920389Y-112213500I274389J0D01*
G01*
X120871611Y-112213500D01*
G75*
G02*
X121146000Y-112487889I0J-274389D01*
G01*
X121146000Y-113064111D01*
G75*
G02*
X120871611Y-113338500I-274389J0D01*
G01*
G37*
%TD*%
%TO.C,R11*%
G36*
G01*
X91407611Y-112830500D02*
X90456389Y-112830500D01*
G75*
G02*
X90182000Y-112556111I0J274389D01*
G01*
X90182000Y-111979889D01*
G75*
G02*
X90456389Y-111705500I274389J0D01*
G01*
X91407611Y-111705500D01*
G75*
G02*
X91682000Y-111979889I0J-274389D01*
G01*
X91682000Y-112556111D01*
G75*
G02*
X91407611Y-112830500I-274389J0D01*
G01*
G37*
G36*
G01*
X91407611Y-114655500D02*
X90456389Y-114655500D01*
G75*
G02*
X90182000Y-114381111I0J274389D01*
G01*
X90182000Y-113804889D01*
G75*
G02*
X90456389Y-113530500I274389J0D01*
G01*
X91407611Y-113530500D01*
G75*
G02*
X91682000Y-113804889I0J-274389D01*
G01*
X91682000Y-114381111D01*
G75*
G02*
X91407611Y-114655500I-274389J0D01*
G01*
G37*
%TD*%
%TO.C,R10*%
G36*
G01*
X101059611Y-111306500D02*
X100108389Y-111306500D01*
G75*
G02*
X99834000Y-111032111I0J274389D01*
G01*
X99834000Y-110455889D01*
G75*
G02*
X100108389Y-110181500I274389J0D01*
G01*
X101059611Y-110181500D01*
G75*
G02*
X101334000Y-110455889I0J-274389D01*
G01*
X101334000Y-111032111D01*
G75*
G02*
X101059611Y-111306500I-274389J0D01*
G01*
G37*
G36*
G01*
X101059611Y-113131500D02*
X100108389Y-113131500D01*
G75*
G02*
X99834000Y-112857111I0J274389D01*
G01*
X99834000Y-112280889D01*
G75*
G02*
X100108389Y-112006500I274389J0D01*
G01*
X101059611Y-112006500D01*
G75*
G02*
X101334000Y-112280889I0J-274389D01*
G01*
X101334000Y-112857111D01*
G75*
G02*
X101059611Y-113131500I-274389J0D01*
G01*
G37*
%TD*%
D11*
%TO.C,J3*%
X124720000Y-110744000D03*
X122430000Y-110744000D03*
X113290000Y-110744000D03*
X111000000Y-110744000D03*
D12*
X109730000Y-116454000D03*
X125990000Y-116454000D03*
D13*
X124210000Y-119884000D03*
X111510000Y-119884000D03*
D11*
X121412000Y-115564000D03*
X119380000Y-115564000D03*
X117348000Y-115564000D03*
X115316000Y-115564000D03*
X120396000Y-117344000D03*
X118364000Y-117344000D03*
X116332000Y-117344000D03*
G36*
G01*
X113500000Y-118094000D02*
X113500000Y-116594000D01*
G75*
G02*
X113550000Y-116544000I50000J0D01*
G01*
X115050000Y-116544000D01*
G75*
G02*
X115100000Y-116594000I0J-50000D01*
G01*
X115100000Y-118094000D01*
G75*
G02*
X115050000Y-118144000I-50000J0D01*
G01*
X113550000Y-118144000D01*
G75*
G02*
X113500000Y-118094000I0J50000D01*
G01*
G37*
%TD*%
%TO.C,J2*%
X104650000Y-110748000D03*
X102360000Y-110748000D03*
X93220000Y-110748000D03*
X90930000Y-110748000D03*
D12*
X89660000Y-116458000D03*
X105920000Y-116458000D03*
D13*
X104140000Y-119888000D03*
X91440000Y-119888000D03*
D11*
X101342000Y-115568000D03*
X99310000Y-115568000D03*
X97278000Y-115568000D03*
X95246000Y-115568000D03*
X100326000Y-117348000D03*
X98294000Y-117348000D03*
X96262000Y-117348000D03*
G36*
G01*
X93430000Y-118098000D02*
X93430000Y-116598000D01*
G75*
G02*
X93480000Y-116548000I50000J0D01*
G01*
X94980000Y-116548000D01*
G75*
G02*
X95030000Y-116598000I0J-50000D01*
G01*
X95030000Y-118098000D01*
G75*
G02*
X94980000Y-118148000I-50000J0D01*
G01*
X93480000Y-118148000D01*
G75*
G02*
X93430000Y-118098000I0J50000D01*
G01*
G37*
%TD*%
D14*
%TO.C,U1*%
X115102000Y-93520000D03*
G36*
G01*
X116792000Y-92620000D02*
X118492000Y-92620000D01*
G75*
G02*
X118542000Y-92670000I0J-50000D01*
G01*
X118542000Y-94370000D01*
G75*
G02*
X118492000Y-94420000I-50000J0D01*
G01*
X116792000Y-94420000D01*
G75*
G02*
X116742000Y-94370000I0J50000D01*
G01*
X116742000Y-92670000D01*
G75*
G02*
X116792000Y-92620000I50000J0D01*
G01*
G37*
G36*
G01*
X116792000Y-28993000D02*
X118492000Y-28993000D01*
G75*
G02*
X118542000Y-29043000I0J-50000D01*
G01*
X118542000Y-30743000D01*
G75*
G02*
X118492000Y-30793000I-50000J0D01*
G01*
X116792000Y-30793000D01*
G75*
G02*
X116742000Y-30743000I0J50000D01*
G01*
X116742000Y-29043000D01*
G75*
G02*
X116792000Y-28993000I50000J0D01*
G01*
G37*
X115102000Y-29893000D03*
G36*
G01*
X78657500Y-36727500D02*
X80262500Y-36727500D01*
G75*
G02*
X80312500Y-36777500I0J-50000D01*
G01*
X80312500Y-38382500D01*
G75*
G02*
X80262500Y-38432500I-50000J0D01*
G01*
X78657500Y-38432500D01*
G75*
G02*
X78607500Y-38382500I0J50000D01*
G01*
X78607500Y-36777500D01*
G75*
G02*
X78657500Y-36727500I50000J0D01*
G01*
G37*
D15*
X66760000Y-37580000D03*
X64220000Y-37580000D03*
X61680000Y-37580000D03*
G36*
G01*
X43097500Y-84987500D02*
X44702500Y-84987500D01*
G75*
G02*
X44752500Y-85037500I0J-50000D01*
G01*
X44752500Y-86642500D01*
G75*
G02*
X44702500Y-86692500I-50000J0D01*
G01*
X43097500Y-86692500D01*
G75*
G02*
X43047500Y-86642500I0J50000D01*
G01*
X43047500Y-85037500D01*
G75*
G02*
X43097500Y-84987500I50000J0D01*
G01*
G37*
X46440000Y-85840000D03*
X48980000Y-85840000D03*
X51520000Y-85840000D03*
X54060000Y-85840000D03*
X56600000Y-85840000D03*
X59140000Y-85840000D03*
X76920000Y-37580000D03*
X74380000Y-37580000D03*
X71840000Y-37580000D03*
X69300000Y-37580000D03*
X61680000Y-85840000D03*
G36*
G01*
X55797500Y-36727500D02*
X57402500Y-36727500D01*
G75*
G02*
X57452500Y-36777500I0J-50000D01*
G01*
X57452500Y-38382500D01*
G75*
G02*
X57402500Y-38432500I-50000J0D01*
G01*
X55797500Y-38432500D01*
G75*
G02*
X55747500Y-38382500I0J50000D01*
G01*
X55747500Y-36777500D01*
G75*
G02*
X55797500Y-36727500I50000J0D01*
G01*
G37*
X54060000Y-37580000D03*
X51520000Y-37580000D03*
X48980000Y-37580000D03*
X75900000Y-85840000D03*
X78440000Y-85840000D03*
X80980000Y-85840000D03*
X83520000Y-85840000D03*
X86060000Y-85840000D03*
X88600000Y-85840000D03*
X46440000Y-37580000D03*
X43900000Y-37580000D03*
G36*
G01*
X64937500Y-84987500D02*
X66542500Y-84987500D01*
G75*
G02*
X66592500Y-85037500I0J-50000D01*
G01*
X66592500Y-86642500D01*
G75*
G02*
X66542500Y-86692500I-50000J0D01*
G01*
X64937500Y-86692500D01*
G75*
G02*
X64887500Y-86642500I0J50000D01*
G01*
X64887500Y-85037500D01*
G75*
G02*
X64937500Y-84987500I50000J0D01*
G01*
G37*
X68280000Y-85840000D03*
X70820000Y-85840000D03*
X73360000Y-85840000D03*
D16*
X92160000Y-85840000D03*
X41360000Y-70600000D03*
D17*
X43900000Y-93460000D03*
X46440000Y-93460000D03*
X46440000Y-90920000D03*
X48980000Y-93460000D03*
X48980000Y-90920000D03*
X51520000Y-93460000D03*
X51520000Y-90920000D03*
X54060000Y-93460000D03*
X54060000Y-90920000D03*
X56600000Y-93460000D03*
X56600000Y-90920000D03*
X59140000Y-93460000D03*
X59140000Y-90920000D03*
X61680000Y-93460000D03*
X61680000Y-90920000D03*
X64220000Y-93460000D03*
X64220000Y-90920000D03*
X66760000Y-93460000D03*
X66760000Y-90920000D03*
X69300000Y-93460000D03*
X69300000Y-90920000D03*
X71840000Y-93460000D03*
X71840000Y-90920000D03*
X74380000Y-93460000D03*
X74380000Y-90920000D03*
X76920000Y-93460000D03*
X76920000Y-90920000D03*
X79460000Y-93460000D03*
X79460000Y-90920000D03*
X82000000Y-93460000D03*
X82000000Y-90920000D03*
X84540000Y-93460000D03*
X84540000Y-90920000D03*
X87080000Y-93460000D03*
X87080000Y-90920000D03*
X89620000Y-93460000D03*
X43900000Y-90920000D03*
G36*
G01*
X88855000Y-90105000D02*
X90385000Y-90105000D01*
G75*
G02*
X90435000Y-90155000I0J-50000D01*
G01*
X90435000Y-91685000D01*
G75*
G02*
X90385000Y-91735000I-50000J0D01*
G01*
X88855000Y-91735000D01*
G75*
G02*
X88805000Y-91685000I0J50000D01*
G01*
X88805000Y-90155000D01*
G75*
G02*
X88855000Y-90105000I50000J0D01*
G01*
G37*
X43900000Y-32500000D03*
X46440000Y-32500000D03*
X46440000Y-29960000D03*
X48980000Y-32500000D03*
X48980000Y-29960000D03*
X51520000Y-32500000D03*
X51520000Y-29960000D03*
X54060000Y-32500000D03*
X54060000Y-29960000D03*
X56600000Y-32500000D03*
X56600000Y-29960000D03*
X59140000Y-32500000D03*
X59140000Y-29960000D03*
X61680000Y-32500000D03*
X61680000Y-29960000D03*
X64220000Y-32500000D03*
X64220000Y-29960000D03*
X66760000Y-32500000D03*
X66760000Y-29960000D03*
X69300000Y-32500000D03*
X69300000Y-29960000D03*
X71840000Y-32500000D03*
X71840000Y-29960000D03*
X74380000Y-32500000D03*
X74380000Y-29960000D03*
X76920000Y-32500000D03*
X76920000Y-29960000D03*
X79460000Y-32500000D03*
X79460000Y-29960000D03*
X82000000Y-32500000D03*
X82000000Y-29960000D03*
X84540000Y-32500000D03*
X84540000Y-29960000D03*
X87080000Y-32500000D03*
X87080000Y-29960000D03*
X89620000Y-32500000D03*
X43900000Y-29960000D03*
G36*
G01*
X88855000Y-29145000D02*
X90385000Y-29145000D01*
G75*
G02*
X90435000Y-29195000I0J-50000D01*
G01*
X90435000Y-30725000D01*
G75*
G02*
X90385000Y-30775000I-50000J0D01*
G01*
X88855000Y-30775000D01*
G75*
G02*
X88805000Y-30725000I0J50000D01*
G01*
X88805000Y-29195000D01*
G75*
G02*
X88855000Y-29145000I50000J0D01*
G01*
G37*
%TD*%
D14*
%TO.C,J5*%
X125000000Y-45870000D03*
X125000000Y-43330000D03*
X125000000Y-40790000D03*
G36*
G01*
X124100000Y-39100000D02*
X124100000Y-37400000D01*
G75*
G02*
X124150000Y-37350000I50000J0D01*
G01*
X125850000Y-37350000D01*
G75*
G02*
X125900000Y-37400000I0J-50000D01*
G01*
X125900000Y-39100000D01*
G75*
G02*
X125850000Y-39150000I-50000J0D01*
G01*
X124150000Y-39150000D01*
G75*
G02*
X124100000Y-39100000I0J50000D01*
G01*
G37*
%TD*%
%TO.C,J4*%
X125000000Y-32540000D03*
G36*
G01*
X124100000Y-30850000D02*
X124100000Y-29150000D01*
G75*
G02*
X124150000Y-29100000I50000J0D01*
G01*
X125850000Y-29100000D01*
G75*
G02*
X125900000Y-29150000I0J-50000D01*
G01*
X125900000Y-30850000D01*
G75*
G02*
X125850000Y-30900000I-50000J0D01*
G01*
X124150000Y-30900000D01*
G75*
G02*
X124100000Y-30850000I0J50000D01*
G01*
G37*
%TD*%
%TO.C,JP2*%
X124500000Y-57790000D03*
G36*
G01*
X123600000Y-56100000D02*
X123600000Y-54400000D01*
G75*
G02*
X123650000Y-54350000I50000J0D01*
G01*
X125350000Y-54350000D01*
G75*
G02*
X125400000Y-54400000I0J-50000D01*
G01*
X125400000Y-56100000D01*
G75*
G02*
X125350000Y-56150000I-50000J0D01*
G01*
X123650000Y-56150000D01*
G75*
G02*
X123600000Y-56100000I0J50000D01*
G01*
G37*
%TD*%
D18*
%TO.C,BT1*%
X112250000Y-35250000D03*
G36*
G01*
X109750000Y-52700000D02*
X114750000Y-52700000D01*
G75*
G02*
X114800000Y-52750000I0J-50000D01*
G01*
X114800000Y-57750000D01*
G75*
G02*
X114750000Y-57800000I-50000J0D01*
G01*
X109750000Y-57800000D01*
G75*
G02*
X109700000Y-57750000I0J50000D01*
G01*
X109700000Y-52750000D01*
G75*
G02*
X109750000Y-52700000I50000J0D01*
G01*
G37*
%TD*%
%TO.C,J1*%
G36*
G01*
X125600000Y-75350000D02*
X125600000Y-73650000D01*
G75*
G02*
X125650000Y-73600000I50000J0D01*
G01*
X127350000Y-73600000D01*
G75*
G02*
X127400000Y-73650000I0J-50000D01*
G01*
X127400000Y-75350000D01*
G75*
G02*
X127350000Y-75400000I-50000J0D01*
G01*
X125650000Y-75400000D01*
G75*
G02*
X125600000Y-75350000I0J50000D01*
G01*
G37*
D14*
X77500000Y-79120000D03*
G36*
G01*
X76600000Y-72350000D02*
X76600000Y-70650000D01*
G75*
G02*
X76650000Y-70600000I50000J0D01*
G01*
X78350000Y-70600000D01*
G75*
G02*
X78400000Y-70650000I0J-50000D01*
G01*
X78400000Y-72350000D01*
G75*
G02*
X78350000Y-72400000I-50000J0D01*
G01*
X76650000Y-72400000D01*
G75*
G02*
X76600000Y-72350000I0J50000D01*
G01*
G37*
X94960000Y-40500000D03*
X126500000Y-79580000D03*
X126500000Y-77040000D03*
X77500000Y-76580000D03*
X77500000Y-74040000D03*
X92420000Y-40500000D03*
G36*
G01*
X96650000Y-39600000D02*
X98350000Y-39600000D01*
G75*
G02*
X98400000Y-39650000I0J-50000D01*
G01*
X98400000Y-41350000D01*
G75*
G02*
X98350000Y-41400000I-50000J0D01*
G01*
X96650000Y-41400000D01*
G75*
G02*
X96600000Y-41350000I0J50000D01*
G01*
X96600000Y-39650000D01*
G75*
G02*
X96650000Y-39600000I50000J0D01*
G01*
G37*
X92580000Y-46000000D03*
G36*
G01*
X51850000Y-66900000D02*
X50150000Y-66900000D01*
G75*
G02*
X50100000Y-66850000I0J50000D01*
G01*
X50100000Y-65150000D01*
G75*
G02*
X50150000Y-65100000I50000J0D01*
G01*
X51850000Y-65100000D01*
G75*
G02*
X51900000Y-65150000I0J-50000D01*
G01*
X51900000Y-66850000D01*
G75*
G02*
X51850000Y-66900000I-50000J0D01*
G01*
G37*
X58620000Y-66000000D03*
X56080000Y-66000000D03*
X53540000Y-66000000D03*
X95120000Y-46000000D03*
G36*
G01*
X88350000Y-46900000D02*
X86650000Y-46900000D01*
G75*
G02*
X86600000Y-46850000I0J50000D01*
G01*
X86600000Y-45150000D01*
G75*
G02*
X86650000Y-45100000I50000J0D01*
G01*
X88350000Y-45100000D01*
G75*
G02*
X88400000Y-45150000I0J-50000D01*
G01*
X88400000Y-46850000D01*
G75*
G02*
X88350000Y-46900000I-50000J0D01*
G01*
G37*
X97660000Y-46000000D03*
X90040000Y-46000000D03*
X91540000Y-64500000D03*
G36*
G01*
X89850000Y-65400000D02*
X88150000Y-65400000D01*
G75*
G02*
X88100000Y-65350000I0J50000D01*
G01*
X88100000Y-63650000D01*
G75*
G02*
X88150000Y-63600000I50000J0D01*
G01*
X89850000Y-63600000D01*
G75*
G02*
X89900000Y-63650000I0J-50000D01*
G01*
X89900000Y-65350000D01*
G75*
G02*
X89850000Y-65400000I-50000J0D01*
G01*
G37*
X102540000Y-64500000D03*
G36*
G01*
X100850000Y-65400000D02*
X99150000Y-65400000D01*
G75*
G02*
X99100000Y-65350000I0J50000D01*
G01*
X99100000Y-63650000D01*
G75*
G02*
X99150000Y-63600000I50000J0D01*
G01*
X100850000Y-63600000D01*
G75*
G02*
X100900000Y-63650000I0J-50000D01*
G01*
X100900000Y-65350000D01*
G75*
G02*
X100850000Y-65400000I-50000J0D01*
G01*
G37*
G36*
G01*
X78350000Y-53900000D02*
X76650000Y-53900000D01*
G75*
G02*
X76600000Y-53850000I0J50000D01*
G01*
X76600000Y-52150000D01*
G75*
G02*
X76650000Y-52100000I50000J0D01*
G01*
X78350000Y-52100000D01*
G75*
G02*
X78400000Y-52150000I0J-50000D01*
G01*
X78400000Y-53850000D01*
G75*
G02*
X78350000Y-53900000I-50000J0D01*
G01*
G37*
X80040000Y-53000000D03*
X86540000Y-60500000D03*
G36*
G01*
X84850000Y-61400000D02*
X83150000Y-61400000D01*
G75*
G02*
X83100000Y-61350000I0J50000D01*
G01*
X83100000Y-59650000D01*
G75*
G02*
X83150000Y-59600000I50000J0D01*
G01*
X84850000Y-59600000D01*
G75*
G02*
X84900000Y-59650000I0J-50000D01*
G01*
X84900000Y-61350000D01*
G75*
G02*
X84850000Y-61400000I-50000J0D01*
G01*
G37*
X89080000Y-60500000D03*
X91620000Y-60500000D03*
X89080000Y-53000000D03*
X86540000Y-53000000D03*
X91620000Y-53000000D03*
G36*
G01*
X84850000Y-53900000D02*
X83150000Y-53900000D01*
G75*
G02*
X83100000Y-53850000I0J50000D01*
G01*
X83100000Y-52150000D01*
G75*
G02*
X83150000Y-52100000I50000J0D01*
G01*
X84850000Y-52100000D01*
G75*
G02*
X84900000Y-52150000I0J-50000D01*
G01*
X84900000Y-53850000D01*
G75*
G02*
X84850000Y-53900000I-50000J0D01*
G01*
G37*
X101080000Y-60500000D03*
X103620000Y-60500000D03*
G36*
G01*
X96850000Y-61400000D02*
X95150000Y-61400000D01*
G75*
G02*
X95100000Y-61350000I0J50000D01*
G01*
X95100000Y-59650000D01*
G75*
G02*
X95150000Y-59600000I50000J0D01*
G01*
X96850000Y-59600000D01*
G75*
G02*
X96900000Y-59650000I0J-50000D01*
G01*
X96900000Y-61350000D01*
G75*
G02*
X96850000Y-61400000I-50000J0D01*
G01*
G37*
X98540000Y-60500000D03*
%TD*%
M02*
