%TF.GenerationSoftware,KiCad,Pcbnew,5.1.7-a382d34a8~88~ubuntu20.04.1*%
%TF.CreationDate,2021-04-08T15:18:28+02:00*%
%TF.ProjectId,Shield_Nucleo,53686965-6c64-45f4-9e75-636c656f2e6b,rev?*%
%TF.SameCoordinates,Original*%
%TF.FileFunction,Legend,Top*%
%TF.FilePolarity,Positive*%
%FSLAX46Y46*%
G04 Gerber Fmt 4.6, Leading zero omitted, Abs format (unit mm)*
G04 Created by KiCad (PCBNEW 5.1.7-a382d34a8~88~ubuntu20.04.1) date 2021-04-08 15:18:28*
%MOMM*%
%LPD*%
G01*
G04 APERTURE LIST*
%ADD10C,0.150000*%
%ADD11C,0.120000*%
%ADD12C,0.300000*%
%ADD13C,0.127000*%
%ADD14C,0.200000*%
%ADD15C,0.010000*%
G04 APERTURE END LIST*
D10*
X123229809Y-103989142D02*
X123182190Y-104036761D01*
X123039333Y-104084380D01*
X122944095Y-104084380D01*
X122801238Y-104036761D01*
X122706000Y-103941523D01*
X122658380Y-103846285D01*
X122610761Y-103655809D01*
X122610761Y-103512952D01*
X122658380Y-103322476D01*
X122706000Y-103227238D01*
X122801238Y-103132000D01*
X122944095Y-103084380D01*
X123039333Y-103084380D01*
X123182190Y-103132000D01*
X123229809Y-103179619D01*
X123610761Y-103798666D02*
X124086952Y-103798666D01*
X123515523Y-104084380D02*
X123848857Y-103084380D01*
X124182190Y-104084380D01*
X124372666Y-103084380D02*
X124944095Y-103084380D01*
X124658380Y-104084380D02*
X124658380Y-103084380D01*
X125182190Y-103084380D02*
X125848857Y-104084380D01*
X125848857Y-103084380D02*
X125182190Y-104084380D01*
X123269523Y-85860000D02*
X123174285Y-85812380D01*
X123031428Y-85812380D01*
X122888571Y-85860000D01*
X122793333Y-85955238D01*
X122745714Y-86050476D01*
X122698095Y-86240952D01*
X122698095Y-86383809D01*
X122745714Y-86574285D01*
X122793333Y-86669523D01*
X122888571Y-86764761D01*
X123031428Y-86812380D01*
X123126666Y-86812380D01*
X123269523Y-86764761D01*
X123317142Y-86717142D01*
X123317142Y-86383809D01*
X123126666Y-86383809D01*
X124317142Y-86717142D02*
X124269523Y-86764761D01*
X124126666Y-86812380D01*
X124031428Y-86812380D01*
X123888571Y-86764761D01*
X123793333Y-86669523D01*
X123745714Y-86574285D01*
X123698095Y-86383809D01*
X123698095Y-86240952D01*
X123745714Y-86050476D01*
X123793333Y-85955238D01*
X123888571Y-85860000D01*
X124031428Y-85812380D01*
X124126666Y-85812380D01*
X124269523Y-85860000D01*
X124317142Y-85907619D01*
X124698095Y-86526666D02*
X125174285Y-86526666D01*
X124602857Y-86812380D02*
X124936190Y-85812380D01*
X125269523Y-86812380D01*
X125602857Y-86812380D02*
X125602857Y-85812380D01*
X126174285Y-86812380D01*
X126174285Y-85812380D01*
X122674285Y-90892380D02*
X123007619Y-91892380D01*
X123340952Y-90892380D01*
X124245714Y-91797142D02*
X124198095Y-91844761D01*
X124055238Y-91892380D01*
X123960000Y-91892380D01*
X123817142Y-91844761D01*
X123721904Y-91749523D01*
X123674285Y-91654285D01*
X123626666Y-91463809D01*
X123626666Y-91320952D01*
X123674285Y-91130476D01*
X123721904Y-91035238D01*
X123817142Y-90940000D01*
X123960000Y-90892380D01*
X124055238Y-90892380D01*
X124198095Y-90940000D01*
X124245714Y-90987619D01*
X124626666Y-91606666D02*
X125102857Y-91606666D01*
X124531428Y-91892380D02*
X124864761Y-90892380D01*
X125198095Y-91892380D01*
X125531428Y-91892380D02*
X125531428Y-90892380D01*
X126102857Y-91892380D01*
X126102857Y-90892380D01*
X123110761Y-98909142D02*
X123063142Y-98956761D01*
X122920285Y-99004380D01*
X122825047Y-99004380D01*
X122682190Y-98956761D01*
X122586952Y-98861523D01*
X122539333Y-98766285D01*
X122491714Y-98575809D01*
X122491714Y-98432952D01*
X122539333Y-98242476D01*
X122586952Y-98147238D01*
X122682190Y-98052000D01*
X122825047Y-98004380D01*
X122920285Y-98004380D01*
X123063142Y-98052000D01*
X123110761Y-98099619D01*
X123491714Y-98718666D02*
X123967904Y-98718666D01*
X123396476Y-99004380D02*
X123729809Y-98004380D01*
X124063142Y-99004380D01*
X124967904Y-99004380D02*
X124634571Y-98528190D01*
X124396476Y-99004380D02*
X124396476Y-98004380D01*
X124777428Y-98004380D01*
X124872666Y-98052000D01*
X124920285Y-98099619D01*
X124967904Y-98194857D01*
X124967904Y-98337714D01*
X124920285Y-98432952D01*
X124872666Y-98480571D01*
X124777428Y-98528190D01*
X124396476Y-98528190D01*
X125301238Y-98004380D02*
X125967904Y-99004380D01*
X125967904Y-98004380D02*
X125301238Y-99004380D01*
X117864095Y-98052000D02*
X117768857Y-98004380D01*
X117626000Y-98004380D01*
X117483142Y-98052000D01*
X117387904Y-98147238D01*
X117340285Y-98242476D01*
X117292666Y-98432952D01*
X117292666Y-98575809D01*
X117340285Y-98766285D01*
X117387904Y-98861523D01*
X117483142Y-98956761D01*
X117626000Y-99004380D01*
X117721238Y-99004380D01*
X117864095Y-98956761D01*
X117911714Y-98909142D01*
X117911714Y-98575809D01*
X117721238Y-98575809D01*
X118340285Y-99004380D02*
X118340285Y-98004380D01*
X118911714Y-99004380D01*
X118911714Y-98004380D01*
X119387904Y-99004380D02*
X119387904Y-98004380D01*
X119626000Y-98004380D01*
X119768857Y-98052000D01*
X119864095Y-98147238D01*
X119911714Y-98242476D01*
X119959333Y-98432952D01*
X119959333Y-98575809D01*
X119911714Y-98766285D01*
X119864095Y-98861523D01*
X119768857Y-98956761D01*
X119626000Y-99004380D01*
X119387904Y-99004380D01*
X120387904Y-99004380D02*
X120387904Y-98004380D01*
X120626000Y-98004380D01*
X120768857Y-98052000D01*
X120864095Y-98147238D01*
X120911714Y-98242476D01*
X120959333Y-98432952D01*
X120959333Y-98575809D01*
X120911714Y-98766285D01*
X120864095Y-98861523D01*
X120768857Y-98956761D01*
X120626000Y-99004380D01*
X120387904Y-99004380D01*
X118078380Y-103989142D02*
X118030761Y-104036761D01*
X117887904Y-104084380D01*
X117792666Y-104084380D01*
X117649809Y-104036761D01*
X117554571Y-103941523D01*
X117506952Y-103846285D01*
X117459333Y-103655809D01*
X117459333Y-103512952D01*
X117506952Y-103322476D01*
X117554571Y-103227238D01*
X117649809Y-103132000D01*
X117792666Y-103084380D01*
X117887904Y-103084380D01*
X118030761Y-103132000D01*
X118078380Y-103179619D01*
X118459333Y-104036761D02*
X118602190Y-104084380D01*
X118840285Y-104084380D01*
X118935523Y-104036761D01*
X118983142Y-103989142D01*
X119030761Y-103893904D01*
X119030761Y-103798666D01*
X118983142Y-103703428D01*
X118935523Y-103655809D01*
X118840285Y-103608190D01*
X118649809Y-103560571D01*
X118554571Y-103512952D01*
X118506952Y-103465333D01*
X118459333Y-103370095D01*
X118459333Y-103274857D01*
X118506952Y-103179619D01*
X118554571Y-103132000D01*
X118649809Y-103084380D01*
X118887904Y-103084380D01*
X119030761Y-103132000D01*
X119316476Y-103084380D02*
X119887904Y-103084380D01*
X119602190Y-104084380D02*
X119602190Y-103084380D01*
X120554571Y-103560571D02*
X120697428Y-103608190D01*
X120745047Y-103655809D01*
X120792666Y-103751047D01*
X120792666Y-103893904D01*
X120745047Y-103989142D01*
X120697428Y-104036761D01*
X120602190Y-104084380D01*
X120221238Y-104084380D01*
X120221238Y-103084380D01*
X120554571Y-103084380D01*
X120649809Y-103132000D01*
X120697428Y-103179619D01*
X120745047Y-103274857D01*
X120745047Y-103370095D01*
X120697428Y-103465333D01*
X120649809Y-103512952D01*
X120554571Y-103560571D01*
X120221238Y-103560571D01*
X44458095Y-118880000D02*
X44362857Y-118832380D01*
X44220000Y-118832380D01*
X44077142Y-118880000D01*
X43981904Y-118975238D01*
X43934285Y-119070476D01*
X43886666Y-119260952D01*
X43886666Y-119403809D01*
X43934285Y-119594285D01*
X43981904Y-119689523D01*
X44077142Y-119784761D01*
X44220000Y-119832380D01*
X44315238Y-119832380D01*
X44458095Y-119784761D01*
X44505714Y-119737142D01*
X44505714Y-119403809D01*
X44315238Y-119403809D01*
X44934285Y-119832380D02*
X44934285Y-118832380D01*
X45505714Y-119832380D01*
X45505714Y-118832380D01*
X45981904Y-119832380D02*
X45981904Y-118832380D01*
X46220000Y-118832380D01*
X46362857Y-118880000D01*
X46458095Y-118975238D01*
X46505714Y-119070476D01*
X46553333Y-119260952D01*
X46553333Y-119403809D01*
X46505714Y-119594285D01*
X46458095Y-119689523D01*
X46362857Y-119784761D01*
X46220000Y-119832380D01*
X45981904Y-119832380D01*
X46981904Y-119832380D02*
X46981904Y-118832380D01*
X47220000Y-118832380D01*
X47362857Y-118880000D01*
X47458095Y-118975238D01*
X47505714Y-119070476D01*
X47553333Y-119260952D01*
X47553333Y-119403809D01*
X47505714Y-119594285D01*
X47458095Y-119689523D01*
X47362857Y-119784761D01*
X47220000Y-119832380D01*
X46981904Y-119832380D01*
X44077142Y-113752380D02*
X44410476Y-114752380D01*
X44743809Y-113752380D01*
X45410476Y-114228571D02*
X45553333Y-114276190D01*
X45600952Y-114323809D01*
X45648571Y-114419047D01*
X45648571Y-114561904D01*
X45600952Y-114657142D01*
X45553333Y-114704761D01*
X45458095Y-114752380D01*
X45077142Y-114752380D01*
X45077142Y-113752380D01*
X45410476Y-113752380D01*
X45505714Y-113800000D01*
X45553333Y-113847619D01*
X45600952Y-113942857D01*
X45600952Y-114038095D01*
X45553333Y-114133333D01*
X45505714Y-114180952D01*
X45410476Y-114228571D01*
X45077142Y-114228571D01*
X46029523Y-114466666D02*
X46505714Y-114466666D01*
X45934285Y-114752380D02*
X46267619Y-113752380D01*
X46600952Y-114752380D01*
X46791428Y-113752380D02*
X47362857Y-113752380D01*
X47077142Y-114752380D02*
X47077142Y-113752380D01*
X43720000Y-109291428D02*
X44481904Y-109291428D01*
X44100952Y-109672380D02*
X44100952Y-108910476D01*
X44862857Y-108672380D02*
X45481904Y-108672380D01*
X45148571Y-109053333D01*
X45291428Y-109053333D01*
X45386666Y-109100952D01*
X45434285Y-109148571D01*
X45481904Y-109243809D01*
X45481904Y-109481904D01*
X45434285Y-109577142D01*
X45386666Y-109624761D01*
X45291428Y-109672380D01*
X45005714Y-109672380D01*
X44910476Y-109624761D01*
X44862857Y-109577142D01*
X45910476Y-109577142D02*
X45958095Y-109624761D01*
X45910476Y-109672380D01*
X45862857Y-109624761D01*
X45910476Y-109577142D01*
X45910476Y-109672380D01*
X46291428Y-108672380D02*
X46910476Y-108672380D01*
X46577142Y-109053333D01*
X46720000Y-109053333D01*
X46815238Y-109100952D01*
X46862857Y-109148571D01*
X46910476Y-109243809D01*
X46910476Y-109481904D01*
X46862857Y-109577142D01*
X46815238Y-109624761D01*
X46720000Y-109672380D01*
X46434285Y-109672380D01*
X46339047Y-109624761D01*
X46291428Y-109577142D01*
X47196190Y-108672380D02*
X47529523Y-109672380D01*
X47862857Y-108672380D01*
D11*
X78830000Y-80450000D02*
X76170000Y-80450000D01*
D10*
X54141904Y-101052380D02*
X54475238Y-102052380D01*
X54808571Y-101052380D01*
X55665714Y-102052380D02*
X55094285Y-102052380D01*
X55380000Y-102052380D02*
X55380000Y-101052380D01*
X55284761Y-101195238D01*
X55189523Y-101290476D01*
X55094285Y-101338095D01*
X56570476Y-102052380D02*
X56094285Y-102052380D01*
X56094285Y-101052380D01*
X56903809Y-102052380D02*
X56903809Y-101052380D01*
X57475238Y-102052380D01*
X57475238Y-101052380D01*
X54165714Y-106132380D02*
X54499047Y-107132380D01*
X54832380Y-106132380D01*
X55689523Y-107132380D02*
X55118095Y-107132380D01*
X55403809Y-107132380D02*
X55403809Y-106132380D01*
X55308571Y-106275238D01*
X55213333Y-106370476D01*
X55118095Y-106418095D01*
X56594285Y-107132380D02*
X56118095Y-107132380D01*
X56118095Y-106132380D01*
X56927619Y-107132380D02*
X56927619Y-106132380D01*
X57308571Y-106132380D01*
X57403809Y-106180000D01*
X57451428Y-106227619D01*
X57499047Y-106322857D01*
X57499047Y-106465714D01*
X57451428Y-106560952D01*
X57403809Y-106608571D01*
X57308571Y-106656190D01*
X56927619Y-106656190D01*
X59245714Y-106132380D02*
X59579047Y-107132380D01*
X59912380Y-106132380D01*
X60198095Y-106227619D02*
X60245714Y-106180000D01*
X60340952Y-106132380D01*
X60579047Y-106132380D01*
X60674285Y-106180000D01*
X60721904Y-106227619D01*
X60769523Y-106322857D01*
X60769523Y-106418095D01*
X60721904Y-106560952D01*
X60150476Y-107132380D01*
X60769523Y-107132380D01*
X61674285Y-107132380D02*
X61198095Y-107132380D01*
X61198095Y-106132380D01*
X62007619Y-107132380D02*
X62007619Y-106132380D01*
X62388571Y-106132380D01*
X62483809Y-106180000D01*
X62531428Y-106227619D01*
X62579047Y-106322857D01*
X62579047Y-106465714D01*
X62531428Y-106560952D01*
X62483809Y-106608571D01*
X62388571Y-106656190D01*
X62007619Y-106656190D01*
X59221904Y-101052380D02*
X59555238Y-102052380D01*
X59888571Y-101052380D01*
X60174285Y-101147619D02*
X60221904Y-101100000D01*
X60317142Y-101052380D01*
X60555238Y-101052380D01*
X60650476Y-101100000D01*
X60698095Y-101147619D01*
X60745714Y-101242857D01*
X60745714Y-101338095D01*
X60698095Y-101480952D01*
X60126666Y-102052380D01*
X60745714Y-102052380D01*
X61650476Y-102052380D02*
X61174285Y-102052380D01*
X61174285Y-101052380D01*
X61983809Y-102052380D02*
X61983809Y-101052380D01*
X62555238Y-102052380D01*
X62555238Y-101052380D01*
X64182857Y-101052380D02*
X64516190Y-102052380D01*
X64849523Y-101052380D01*
X65706666Y-102052380D02*
X65135238Y-102052380D01*
X65420952Y-102052380D02*
X65420952Y-101052380D01*
X65325714Y-101195238D01*
X65230476Y-101290476D01*
X65135238Y-101338095D01*
X66135238Y-102052380D02*
X66135238Y-101052380D01*
X66135238Y-101528571D02*
X66706666Y-101528571D01*
X66706666Y-102052380D02*
X66706666Y-101052380D01*
X67182857Y-102052380D02*
X67182857Y-101052380D01*
X67754285Y-102052380D01*
X67754285Y-101052380D01*
X64206666Y-106132380D02*
X64540000Y-107132380D01*
X64873333Y-106132380D01*
X65730476Y-107132380D02*
X65159047Y-107132380D01*
X65444761Y-107132380D02*
X65444761Y-106132380D01*
X65349523Y-106275238D01*
X65254285Y-106370476D01*
X65159047Y-106418095D01*
X66159047Y-107132380D02*
X66159047Y-106132380D01*
X66159047Y-106608571D02*
X66730476Y-106608571D01*
X66730476Y-107132380D02*
X66730476Y-106132380D01*
X67206666Y-107132380D02*
X67206666Y-106132380D01*
X67587619Y-106132380D01*
X67682857Y-106180000D01*
X67730476Y-106227619D01*
X67778095Y-106322857D01*
X67778095Y-106465714D01*
X67730476Y-106560952D01*
X67682857Y-106608571D01*
X67587619Y-106656190D01*
X67206666Y-106656190D01*
X80399047Y-102052380D02*
X80399047Y-101052380D01*
X80827619Y-101147619D02*
X80875238Y-101100000D01*
X80970476Y-101052380D01*
X81208571Y-101052380D01*
X81303809Y-101100000D01*
X81351428Y-101147619D01*
X81399047Y-101242857D01*
X81399047Y-101338095D01*
X81351428Y-101480952D01*
X80780000Y-102052380D01*
X81399047Y-102052380D01*
X82303809Y-102052380D02*
X81827619Y-102052380D01*
X81827619Y-101052380D01*
X75319047Y-102052380D02*
X75319047Y-101052380D01*
X76319047Y-102052380D02*
X75747619Y-102052380D01*
X76033333Y-102052380D02*
X76033333Y-101052380D01*
X75938095Y-101195238D01*
X75842857Y-101290476D01*
X75747619Y-101338095D01*
X77223809Y-102052380D02*
X76747619Y-102052380D01*
X76747619Y-101052380D01*
X75200000Y-107132380D02*
X75200000Y-106132380D01*
X76200000Y-107132380D02*
X75628571Y-107132380D01*
X75914285Y-107132380D02*
X75914285Y-106132380D01*
X75819047Y-106275238D01*
X75723809Y-106370476D01*
X75628571Y-106418095D01*
X76628571Y-107132380D02*
X76628571Y-106132380D01*
X76628571Y-106608571D02*
X77200000Y-106608571D01*
X77200000Y-107132380D02*
X77200000Y-106132380D01*
X79922857Y-106132380D02*
X80494285Y-106132380D01*
X80208571Y-107132380D02*
X80208571Y-106132380D01*
X80827619Y-107132380D02*
X80827619Y-106132380D01*
X81160952Y-106846666D01*
X81494285Y-106132380D01*
X81494285Y-107132380D01*
X81970476Y-107132380D02*
X81970476Y-106132380D01*
X82351428Y-106132380D01*
X82446666Y-106180000D01*
X82494285Y-106227619D01*
X82541904Y-106322857D01*
X82541904Y-106465714D01*
X82494285Y-106560952D01*
X82446666Y-106608571D01*
X82351428Y-106656190D01*
X81970476Y-106656190D01*
X79960952Y-119737142D02*
X79913333Y-119784761D01*
X79770476Y-119832380D01*
X79675238Y-119832380D01*
X79532380Y-119784761D01*
X79437142Y-119689523D01*
X79389523Y-119594285D01*
X79341904Y-119403809D01*
X79341904Y-119260952D01*
X79389523Y-119070476D01*
X79437142Y-118975238D01*
X79532380Y-118880000D01*
X79675238Y-118832380D01*
X79770476Y-118832380D01*
X79913333Y-118880000D01*
X79960952Y-118927619D01*
X80389523Y-119832380D02*
X80389523Y-118832380D01*
X80389523Y-119308571D02*
X80960952Y-119308571D01*
X80960952Y-119832380D02*
X80960952Y-118832380D01*
X81770476Y-119308571D02*
X81437142Y-119308571D01*
X81437142Y-119832380D02*
X81437142Y-118832380D01*
X81913333Y-118832380D01*
X82818095Y-119832380D02*
X82246666Y-119832380D01*
X82532380Y-119832380D02*
X82532380Y-118832380D01*
X82437142Y-118975238D01*
X82341904Y-119070476D01*
X82246666Y-119118095D01*
X79960952Y-114657142D02*
X79913333Y-114704761D01*
X79770476Y-114752380D01*
X79675238Y-114752380D01*
X79532380Y-114704761D01*
X79437142Y-114609523D01*
X79389523Y-114514285D01*
X79341904Y-114323809D01*
X79341904Y-114180952D01*
X79389523Y-113990476D01*
X79437142Y-113895238D01*
X79532380Y-113800000D01*
X79675238Y-113752380D01*
X79770476Y-113752380D01*
X79913333Y-113800000D01*
X79960952Y-113847619D01*
X80389523Y-114752380D02*
X80389523Y-113752380D01*
X80389523Y-114228571D02*
X80960952Y-114228571D01*
X80960952Y-114752380D02*
X80960952Y-113752380D01*
X81770476Y-114228571D02*
X81437142Y-114228571D01*
X81437142Y-114752380D02*
X81437142Y-113752380D01*
X81913333Y-113752380D01*
X82246666Y-113847619D02*
X82294285Y-113800000D01*
X82389523Y-113752380D01*
X82627619Y-113752380D01*
X82722857Y-113800000D01*
X82770476Y-113847619D01*
X82818095Y-113942857D01*
X82818095Y-114038095D01*
X82770476Y-114180952D01*
X82199047Y-114752380D01*
X82818095Y-114752380D01*
X75057142Y-119737142D02*
X75009523Y-119784761D01*
X74866666Y-119832380D01*
X74771428Y-119832380D01*
X74628571Y-119784761D01*
X74533333Y-119689523D01*
X74485714Y-119594285D01*
X74438095Y-119403809D01*
X74438095Y-119260952D01*
X74485714Y-119070476D01*
X74533333Y-118975238D01*
X74628571Y-118880000D01*
X74771428Y-118832380D01*
X74866666Y-118832380D01*
X75009523Y-118880000D01*
X75057142Y-118927619D01*
X75485714Y-119832380D02*
X75485714Y-118832380D01*
X75485714Y-119308571D02*
X76057142Y-119308571D01*
X76057142Y-119832380D02*
X76057142Y-118832380D01*
X76533333Y-119308571D02*
X76866666Y-119308571D01*
X77009523Y-119832380D02*
X76533333Y-119832380D01*
X76533333Y-118832380D01*
X77009523Y-118832380D01*
X77961904Y-119832380D02*
X77390476Y-119832380D01*
X77676190Y-119832380D02*
X77676190Y-118832380D01*
X77580952Y-118975238D01*
X77485714Y-119070476D01*
X77390476Y-119118095D01*
X75057142Y-114657142D02*
X75009523Y-114704761D01*
X74866666Y-114752380D01*
X74771428Y-114752380D01*
X74628571Y-114704761D01*
X74533333Y-114609523D01*
X74485714Y-114514285D01*
X74438095Y-114323809D01*
X74438095Y-114180952D01*
X74485714Y-113990476D01*
X74533333Y-113895238D01*
X74628571Y-113800000D01*
X74771428Y-113752380D01*
X74866666Y-113752380D01*
X75009523Y-113800000D01*
X75057142Y-113847619D01*
X75485714Y-114752380D02*
X75485714Y-113752380D01*
X75485714Y-114228571D02*
X76057142Y-114228571D01*
X76057142Y-114752380D02*
X76057142Y-113752380D01*
X76533333Y-114228571D02*
X76866666Y-114228571D01*
X77009523Y-114752380D02*
X76533333Y-114752380D01*
X76533333Y-113752380D01*
X77009523Y-113752380D01*
X77390476Y-113847619D02*
X77438095Y-113800000D01*
X77533333Y-113752380D01*
X77771428Y-113752380D01*
X77866666Y-113800000D01*
X77914285Y-113847619D01*
X77961904Y-113942857D01*
X77961904Y-114038095D01*
X77914285Y-114180952D01*
X77342857Y-114752380D01*
X77961904Y-114752380D01*
X69929523Y-119737142D02*
X69881904Y-119784761D01*
X69739047Y-119832380D01*
X69643809Y-119832380D01*
X69500952Y-119784761D01*
X69405714Y-119689523D01*
X69358095Y-119594285D01*
X69310476Y-119403809D01*
X69310476Y-119260952D01*
X69358095Y-119070476D01*
X69405714Y-118975238D01*
X69500952Y-118880000D01*
X69643809Y-118832380D01*
X69739047Y-118832380D01*
X69881904Y-118880000D01*
X69929523Y-118927619D01*
X70358095Y-119832380D02*
X70358095Y-118832380D01*
X70358095Y-119308571D02*
X70929523Y-119308571D01*
X70929523Y-119832380D02*
X70929523Y-118832380D01*
X71405714Y-119832380D02*
X71405714Y-118832380D01*
X71643809Y-118832380D01*
X71786666Y-118880000D01*
X71881904Y-118975238D01*
X71929523Y-119070476D01*
X71977142Y-119260952D01*
X71977142Y-119403809D01*
X71929523Y-119594285D01*
X71881904Y-119689523D01*
X71786666Y-119784761D01*
X71643809Y-119832380D01*
X71405714Y-119832380D01*
X72929523Y-119832380D02*
X72358095Y-119832380D01*
X72643809Y-119832380D02*
X72643809Y-118832380D01*
X72548571Y-118975238D01*
X72453333Y-119070476D01*
X72358095Y-119118095D01*
X69929523Y-114657142D02*
X69881904Y-114704761D01*
X69739047Y-114752380D01*
X69643809Y-114752380D01*
X69500952Y-114704761D01*
X69405714Y-114609523D01*
X69358095Y-114514285D01*
X69310476Y-114323809D01*
X69310476Y-114180952D01*
X69358095Y-113990476D01*
X69405714Y-113895238D01*
X69500952Y-113800000D01*
X69643809Y-113752380D01*
X69739047Y-113752380D01*
X69881904Y-113800000D01*
X69929523Y-113847619D01*
X70358095Y-114752380D02*
X70358095Y-113752380D01*
X70358095Y-114228571D02*
X70929523Y-114228571D01*
X70929523Y-114752380D02*
X70929523Y-113752380D01*
X71405714Y-114752380D02*
X71405714Y-113752380D01*
X71643809Y-113752380D01*
X71786666Y-113800000D01*
X71881904Y-113895238D01*
X71929523Y-113990476D01*
X71977142Y-114180952D01*
X71977142Y-114323809D01*
X71929523Y-114514285D01*
X71881904Y-114609523D01*
X71786666Y-114704761D01*
X71643809Y-114752380D01*
X71405714Y-114752380D01*
X72358095Y-113847619D02*
X72405714Y-113800000D01*
X72500952Y-113752380D01*
X72739047Y-113752380D01*
X72834285Y-113800000D01*
X72881904Y-113847619D01*
X72929523Y-113942857D01*
X72929523Y-114038095D01*
X72881904Y-114180952D01*
X72310476Y-114752380D01*
X72929523Y-114752380D01*
X64849523Y-119737142D02*
X64801904Y-119784761D01*
X64659047Y-119832380D01*
X64563809Y-119832380D01*
X64420952Y-119784761D01*
X64325714Y-119689523D01*
X64278095Y-119594285D01*
X64230476Y-119403809D01*
X64230476Y-119260952D01*
X64278095Y-119070476D01*
X64325714Y-118975238D01*
X64420952Y-118880000D01*
X64563809Y-118832380D01*
X64659047Y-118832380D01*
X64801904Y-118880000D01*
X64849523Y-118927619D01*
X65278095Y-119832380D02*
X65278095Y-118832380D01*
X65278095Y-119308571D02*
X65849523Y-119308571D01*
X65849523Y-119832380D02*
X65849523Y-118832380D01*
X66897142Y-119737142D02*
X66849523Y-119784761D01*
X66706666Y-119832380D01*
X66611428Y-119832380D01*
X66468571Y-119784761D01*
X66373333Y-119689523D01*
X66325714Y-119594285D01*
X66278095Y-119403809D01*
X66278095Y-119260952D01*
X66325714Y-119070476D01*
X66373333Y-118975238D01*
X66468571Y-118880000D01*
X66611428Y-118832380D01*
X66706666Y-118832380D01*
X66849523Y-118880000D01*
X66897142Y-118927619D01*
X67849523Y-119832380D02*
X67278095Y-119832380D01*
X67563809Y-119832380D02*
X67563809Y-118832380D01*
X67468571Y-118975238D01*
X67373333Y-119070476D01*
X67278095Y-119118095D01*
X64849523Y-114657142D02*
X64801904Y-114704761D01*
X64659047Y-114752380D01*
X64563809Y-114752380D01*
X64420952Y-114704761D01*
X64325714Y-114609523D01*
X64278095Y-114514285D01*
X64230476Y-114323809D01*
X64230476Y-114180952D01*
X64278095Y-113990476D01*
X64325714Y-113895238D01*
X64420952Y-113800000D01*
X64563809Y-113752380D01*
X64659047Y-113752380D01*
X64801904Y-113800000D01*
X64849523Y-113847619D01*
X65278095Y-114752380D02*
X65278095Y-113752380D01*
X65278095Y-114228571D02*
X65849523Y-114228571D01*
X65849523Y-114752380D02*
X65849523Y-113752380D01*
X66897142Y-114657142D02*
X66849523Y-114704761D01*
X66706666Y-114752380D01*
X66611428Y-114752380D01*
X66468571Y-114704761D01*
X66373333Y-114609523D01*
X66325714Y-114514285D01*
X66278095Y-114323809D01*
X66278095Y-114180952D01*
X66325714Y-113990476D01*
X66373333Y-113895238D01*
X66468571Y-113800000D01*
X66611428Y-113752380D01*
X66706666Y-113752380D01*
X66849523Y-113800000D01*
X66897142Y-113847619D01*
X67278095Y-113847619D02*
X67325714Y-113800000D01*
X67420952Y-113752380D01*
X67659047Y-113752380D01*
X67754285Y-113800000D01*
X67801904Y-113847619D01*
X67849523Y-113942857D01*
X67849523Y-114038095D01*
X67801904Y-114180952D01*
X67230476Y-114752380D01*
X67849523Y-114752380D01*
X59769523Y-114657142D02*
X59721904Y-114704761D01*
X59579047Y-114752380D01*
X59483809Y-114752380D01*
X59340952Y-114704761D01*
X59245714Y-114609523D01*
X59198095Y-114514285D01*
X59150476Y-114323809D01*
X59150476Y-114180952D01*
X59198095Y-113990476D01*
X59245714Y-113895238D01*
X59340952Y-113800000D01*
X59483809Y-113752380D01*
X59579047Y-113752380D01*
X59721904Y-113800000D01*
X59769523Y-113847619D01*
X60198095Y-114752380D02*
X60198095Y-113752380D01*
X60198095Y-114228571D02*
X60769523Y-114228571D01*
X60769523Y-114752380D02*
X60769523Y-113752380D01*
X61579047Y-114228571D02*
X61721904Y-114276190D01*
X61769523Y-114323809D01*
X61817142Y-114419047D01*
X61817142Y-114561904D01*
X61769523Y-114657142D01*
X61721904Y-114704761D01*
X61626666Y-114752380D01*
X61245714Y-114752380D01*
X61245714Y-113752380D01*
X61579047Y-113752380D01*
X61674285Y-113800000D01*
X61721904Y-113847619D01*
X61769523Y-113942857D01*
X61769523Y-114038095D01*
X61721904Y-114133333D01*
X61674285Y-114180952D01*
X61579047Y-114228571D01*
X61245714Y-114228571D01*
X62198095Y-113847619D02*
X62245714Y-113800000D01*
X62340952Y-113752380D01*
X62579047Y-113752380D01*
X62674285Y-113800000D01*
X62721904Y-113847619D01*
X62769523Y-113942857D01*
X62769523Y-114038095D01*
X62721904Y-114180952D01*
X62150476Y-114752380D01*
X62769523Y-114752380D01*
X59769523Y-119737142D02*
X59721904Y-119784761D01*
X59579047Y-119832380D01*
X59483809Y-119832380D01*
X59340952Y-119784761D01*
X59245714Y-119689523D01*
X59198095Y-119594285D01*
X59150476Y-119403809D01*
X59150476Y-119260952D01*
X59198095Y-119070476D01*
X59245714Y-118975238D01*
X59340952Y-118880000D01*
X59483809Y-118832380D01*
X59579047Y-118832380D01*
X59721904Y-118880000D01*
X59769523Y-118927619D01*
X60198095Y-119832380D02*
X60198095Y-118832380D01*
X60198095Y-119308571D02*
X60769523Y-119308571D01*
X60769523Y-119832380D02*
X60769523Y-118832380D01*
X61579047Y-119308571D02*
X61721904Y-119356190D01*
X61769523Y-119403809D01*
X61817142Y-119499047D01*
X61817142Y-119641904D01*
X61769523Y-119737142D01*
X61721904Y-119784761D01*
X61626666Y-119832380D01*
X61245714Y-119832380D01*
X61245714Y-118832380D01*
X61579047Y-118832380D01*
X61674285Y-118880000D01*
X61721904Y-118927619D01*
X61769523Y-119022857D01*
X61769523Y-119118095D01*
X61721904Y-119213333D01*
X61674285Y-119260952D01*
X61579047Y-119308571D01*
X61245714Y-119308571D01*
X62769523Y-119832380D02*
X62198095Y-119832380D01*
X62483809Y-119832380D02*
X62483809Y-118832380D01*
X62388571Y-118975238D01*
X62293333Y-119070476D01*
X62198095Y-119118095D01*
X54760952Y-119737142D02*
X54713333Y-119784761D01*
X54570476Y-119832380D01*
X54475238Y-119832380D01*
X54332380Y-119784761D01*
X54237142Y-119689523D01*
X54189523Y-119594285D01*
X54141904Y-119403809D01*
X54141904Y-119260952D01*
X54189523Y-119070476D01*
X54237142Y-118975238D01*
X54332380Y-118880000D01*
X54475238Y-118832380D01*
X54570476Y-118832380D01*
X54713333Y-118880000D01*
X54760952Y-118927619D01*
X55189523Y-119832380D02*
X55189523Y-118832380D01*
X55189523Y-119308571D02*
X55760952Y-119308571D01*
X55760952Y-119832380D02*
X55760952Y-118832380D01*
X56189523Y-119546666D02*
X56665714Y-119546666D01*
X56094285Y-119832380D02*
X56427619Y-118832380D01*
X56760952Y-119832380D01*
X57618095Y-119832380D02*
X57046666Y-119832380D01*
X57332380Y-119832380D02*
X57332380Y-118832380D01*
X57237142Y-118975238D01*
X57141904Y-119070476D01*
X57046666Y-119118095D01*
X54760952Y-114657142D02*
X54713333Y-114704761D01*
X54570476Y-114752380D01*
X54475238Y-114752380D01*
X54332380Y-114704761D01*
X54237142Y-114609523D01*
X54189523Y-114514285D01*
X54141904Y-114323809D01*
X54141904Y-114180952D01*
X54189523Y-113990476D01*
X54237142Y-113895238D01*
X54332380Y-113800000D01*
X54475238Y-113752380D01*
X54570476Y-113752380D01*
X54713333Y-113800000D01*
X54760952Y-113847619D01*
X55189523Y-114752380D02*
X55189523Y-113752380D01*
X55189523Y-114228571D02*
X55760952Y-114228571D01*
X55760952Y-114752380D02*
X55760952Y-113752380D01*
X56189523Y-114466666D02*
X56665714Y-114466666D01*
X56094285Y-114752380D02*
X56427619Y-113752380D01*
X56760952Y-114752380D01*
X57046666Y-113847619D02*
X57094285Y-113800000D01*
X57189523Y-113752380D01*
X57427619Y-113752380D01*
X57522857Y-113800000D01*
X57570476Y-113847619D01*
X57618095Y-113942857D01*
X57618095Y-114038095D01*
X57570476Y-114180952D01*
X56999047Y-114752380D01*
X57618095Y-114752380D01*
D11*
X84328000Y-124460000D02*
X51308000Y-124460000D01*
X84328000Y-113284000D02*
X84328000Y-124460000D01*
X51308000Y-113284000D02*
X51308000Y-124460000D01*
X51308000Y-113284000D02*
X68580000Y-113284000D01*
X51308000Y-100584000D02*
X51308000Y-113284000D01*
X68580000Y-100584000D02*
X51308000Y-100584000D01*
X68580000Y-100584000D02*
X68834000Y-100584000D01*
X68580000Y-113284000D02*
X68580000Y-100584000D01*
X84328000Y-113284000D02*
X68580000Y-113284000D01*
X84328000Y-100584000D02*
X84328000Y-113284000D01*
X68834000Y-100584000D02*
X84328000Y-100584000D01*
D10*
X93901619Y-31631380D02*
X93901619Y-30631380D01*
X94473047Y-31631380D01*
X94473047Y-30631380D01*
X95377809Y-30964714D02*
X95377809Y-31631380D01*
X94949238Y-30964714D02*
X94949238Y-31488523D01*
X94996857Y-31583761D01*
X95092095Y-31631380D01*
X95234952Y-31631380D01*
X95330190Y-31583761D01*
X95377809Y-31536142D01*
X96282571Y-31583761D02*
X96187333Y-31631380D01*
X95996857Y-31631380D01*
X95901619Y-31583761D01*
X95854000Y-31536142D01*
X95806380Y-31440904D01*
X95806380Y-31155190D01*
X95854000Y-31059952D01*
X95901619Y-31012333D01*
X95996857Y-30964714D01*
X96187333Y-30964714D01*
X96282571Y-31012333D01*
X96854000Y-31631380D02*
X96758761Y-31583761D01*
X96711142Y-31488523D01*
X96711142Y-30631380D01*
X97615904Y-31583761D02*
X97520666Y-31631380D01*
X97330190Y-31631380D01*
X97234952Y-31583761D01*
X97187333Y-31488523D01*
X97187333Y-31107571D01*
X97234952Y-31012333D01*
X97330190Y-30964714D01*
X97520666Y-30964714D01*
X97615904Y-31012333D01*
X97663523Y-31107571D01*
X97663523Y-31202809D01*
X97187333Y-31298047D01*
X98234952Y-31631380D02*
X98139714Y-31583761D01*
X98092095Y-31536142D01*
X98044476Y-31440904D01*
X98044476Y-31155190D01*
X98092095Y-31059952D01*
X98139714Y-31012333D01*
X98234952Y-30964714D01*
X98377809Y-30964714D01*
X98473047Y-31012333D01*
X98520666Y-31059952D01*
X98568285Y-31155190D01*
X98568285Y-31440904D01*
X98520666Y-31536142D01*
X98473047Y-31583761D01*
X98377809Y-31631380D01*
X98234952Y-31631380D01*
X99711142Y-31583761D02*
X99854000Y-31631380D01*
X100092095Y-31631380D01*
X100187333Y-31583761D01*
X100234952Y-31536142D01*
X100282571Y-31440904D01*
X100282571Y-31345666D01*
X100234952Y-31250428D01*
X100187333Y-31202809D01*
X100092095Y-31155190D01*
X99901619Y-31107571D01*
X99806380Y-31059952D01*
X99758761Y-31012333D01*
X99711142Y-30917095D01*
X99711142Y-30821857D01*
X99758761Y-30726619D01*
X99806380Y-30679000D01*
X99901619Y-30631380D01*
X100139714Y-30631380D01*
X100282571Y-30679000D01*
X100568285Y-30631380D02*
X101139714Y-30631380D01*
X100854000Y-31631380D02*
X100854000Y-30631380D01*
X101473047Y-31631380D02*
X101473047Y-30631380D01*
X101806380Y-31345666D01*
X102139714Y-30631380D01*
X102139714Y-31631380D01*
X102520666Y-30631380D02*
X103139714Y-30631380D01*
X102806380Y-31012333D01*
X102949238Y-31012333D01*
X103044476Y-31059952D01*
X103092095Y-31107571D01*
X103139714Y-31202809D01*
X103139714Y-31440904D01*
X103092095Y-31536142D01*
X103044476Y-31583761D01*
X102949238Y-31631380D01*
X102663523Y-31631380D01*
X102568285Y-31583761D01*
X102520666Y-31536142D01*
X103520666Y-30726619D02*
X103568285Y-30679000D01*
X103663523Y-30631380D01*
X103901619Y-30631380D01*
X103996857Y-30679000D01*
X104044476Y-30726619D01*
X104092095Y-30821857D01*
X104092095Y-30917095D01*
X104044476Y-31059952D01*
X103473047Y-31631380D01*
X104092095Y-31631380D01*
X105044476Y-30679000D02*
X104949238Y-30631380D01*
X104806380Y-30631380D01*
X104663523Y-30679000D01*
X104568285Y-30774238D01*
X104520666Y-30869476D01*
X104473047Y-31059952D01*
X104473047Y-31202809D01*
X104520666Y-31393285D01*
X104568285Y-31488523D01*
X104663523Y-31583761D01*
X104806380Y-31631380D01*
X104901619Y-31631380D01*
X105044476Y-31583761D01*
X105092095Y-31536142D01*
X105092095Y-31202809D01*
X104901619Y-31202809D01*
X105949238Y-30964714D02*
X105949238Y-31631380D01*
X105711142Y-30583761D02*
X105473047Y-31298047D01*
X106092095Y-31298047D01*
X106377809Y-30631380D02*
X107044476Y-30631380D01*
X106615904Y-31631380D01*
X107853999Y-30964714D02*
X107853999Y-31631380D01*
X107615904Y-30583761D02*
X107377809Y-31298047D01*
X107996857Y-31298047D01*
X108949238Y-31631380D02*
X108615904Y-31155190D01*
X108377809Y-31631380D02*
X108377809Y-30631380D01*
X108758761Y-30631380D01*
X108853999Y-30679000D01*
X108901619Y-30726619D01*
X108949238Y-30821857D01*
X108949238Y-30964714D01*
X108901619Y-31059952D01*
X108853999Y-31107571D01*
X108758761Y-31155190D01*
X108377809Y-31155190D01*
X109377809Y-31107571D02*
X109711142Y-31107571D01*
X109853999Y-31631380D02*
X109377809Y-31631380D01*
X109377809Y-30631380D01*
X109853999Y-30631380D01*
X88156190Y-100178380D02*
X88489523Y-101178380D01*
X88822857Y-100178380D01*
X89680000Y-101178380D02*
X89108571Y-101178380D01*
X89394285Y-101178380D02*
X89394285Y-100178380D01*
X89299047Y-100321238D01*
X89203809Y-100416476D01*
X89108571Y-100464095D01*
X90108571Y-101083142D02*
X90156190Y-101130761D01*
X90108571Y-101178380D01*
X90060952Y-101130761D01*
X90108571Y-101083142D01*
X90108571Y-101178380D01*
X90775238Y-100178380D02*
X90870476Y-100178380D01*
X90965714Y-100226000D01*
X91013333Y-100273619D01*
X91060952Y-100368857D01*
X91108571Y-100559333D01*
X91108571Y-100797428D01*
X91060952Y-100987904D01*
X91013333Y-101083142D01*
X90965714Y-101130761D01*
X90870476Y-101178380D01*
X90775238Y-101178380D01*
X90680000Y-101130761D01*
X90632380Y-101083142D01*
X90584761Y-100987904D01*
X90537142Y-100797428D01*
X90537142Y-100559333D01*
X90584761Y-100368857D01*
X90632380Y-100273619D01*
X90680000Y-100226000D01*
X90775238Y-100178380D01*
X88394285Y-103178380D02*
X88394285Y-102178380D01*
X88632380Y-102178380D01*
X88775238Y-102226000D01*
X88870476Y-102321238D01*
X88918095Y-102416476D01*
X88965714Y-102606952D01*
X88965714Y-102749809D01*
X88918095Y-102940285D01*
X88870476Y-103035523D01*
X88775238Y-103130761D01*
X88632380Y-103178380D01*
X88394285Y-103178380D01*
X89775238Y-103130761D02*
X89680000Y-103178380D01*
X89489523Y-103178380D01*
X89394285Y-103130761D01*
X89346666Y-103035523D01*
X89346666Y-102654571D01*
X89394285Y-102559333D01*
X89489523Y-102511714D01*
X89680000Y-102511714D01*
X89775238Y-102559333D01*
X89822857Y-102654571D01*
X89822857Y-102749809D01*
X89346666Y-102845047D01*
X90203809Y-103130761D02*
X90299047Y-103178380D01*
X90489523Y-103178380D01*
X90584761Y-103130761D01*
X90632380Y-103035523D01*
X90632380Y-102987904D01*
X90584761Y-102892666D01*
X90489523Y-102845047D01*
X90346666Y-102845047D01*
X90251428Y-102797428D01*
X90203809Y-102702190D01*
X90203809Y-102654571D01*
X90251428Y-102559333D01*
X90346666Y-102511714D01*
X90489523Y-102511714D01*
X90584761Y-102559333D01*
X91060952Y-103178380D02*
X91060952Y-102511714D01*
X91060952Y-102178380D02*
X91013333Y-102226000D01*
X91060952Y-102273619D01*
X91108571Y-102226000D01*
X91060952Y-102178380D01*
X91060952Y-102273619D01*
X91965714Y-102511714D02*
X91965714Y-103321238D01*
X91918095Y-103416476D01*
X91870476Y-103464095D01*
X91775238Y-103511714D01*
X91632380Y-103511714D01*
X91537142Y-103464095D01*
X91965714Y-103130761D02*
X91870476Y-103178380D01*
X91680000Y-103178380D01*
X91584761Y-103130761D01*
X91537142Y-103083142D01*
X91489523Y-102987904D01*
X91489523Y-102702190D01*
X91537142Y-102606952D01*
X91584761Y-102559333D01*
X91680000Y-102511714D01*
X91870476Y-102511714D01*
X91965714Y-102559333D01*
X92441904Y-102511714D02*
X92441904Y-103178380D01*
X92441904Y-102606952D02*
X92489523Y-102559333D01*
X92584761Y-102511714D01*
X92727619Y-102511714D01*
X92822857Y-102559333D01*
X92870476Y-102654571D01*
X92870476Y-103178380D01*
X94394285Y-102178380D02*
X94394285Y-102892666D01*
X94346666Y-103035523D01*
X94251428Y-103130761D01*
X94108571Y-103178380D01*
X94013333Y-103178380D01*
X94870476Y-103083142D02*
X94918095Y-103130761D01*
X94870476Y-103178380D01*
X94822857Y-103130761D01*
X94870476Y-103083142D01*
X94870476Y-103178380D01*
X95299047Y-102892666D02*
X95775238Y-102892666D01*
X95203809Y-103178380D02*
X95537142Y-102178380D01*
X95870476Y-103178380D01*
X96346666Y-103178380D02*
X96251428Y-103130761D01*
X96203809Y-103035523D01*
X96203809Y-102178380D01*
X96727619Y-103178380D02*
X96727619Y-102511714D01*
X96727619Y-102178380D02*
X96680000Y-102226000D01*
X96727619Y-102273619D01*
X96775238Y-102226000D01*
X96727619Y-102178380D01*
X96727619Y-102273619D01*
X97203809Y-102511714D02*
X97203809Y-103178380D01*
X97203809Y-102606952D02*
X97251428Y-102559333D01*
X97346666Y-102511714D01*
X97489523Y-102511714D01*
X97584761Y-102559333D01*
X97632380Y-102654571D01*
X97632380Y-103178380D01*
X98489523Y-103130761D02*
X98394285Y-103178380D01*
X98203809Y-103178380D01*
X98108571Y-103130761D01*
X98060952Y-103035523D01*
X98060952Y-102654571D01*
X98108571Y-102559333D01*
X98203809Y-102511714D01*
X98394285Y-102511714D01*
X98489523Y-102559333D01*
X98537142Y-102654571D01*
X98537142Y-102749809D01*
X98060952Y-102845047D01*
X98965714Y-103178380D02*
X98965714Y-102511714D01*
X98965714Y-102178380D02*
X98918095Y-102226000D01*
X98965714Y-102273619D01*
X99013333Y-102226000D01*
X98965714Y-102178380D01*
X98965714Y-102273619D01*
D12*
X89358571Y-107761714D02*
X89287142Y-107833142D01*
X89072857Y-107904571D01*
X88930000Y-107904571D01*
X88715714Y-107833142D01*
X88572857Y-107690285D01*
X88501428Y-107547428D01*
X88430000Y-107261714D01*
X88430000Y-107047428D01*
X88501428Y-106761714D01*
X88572857Y-106618857D01*
X88715714Y-106476000D01*
X88930000Y-106404571D01*
X89072857Y-106404571D01*
X89287142Y-106476000D01*
X89358571Y-106547428D01*
X90001428Y-107118857D02*
X90501428Y-107118857D01*
X90715714Y-107904571D02*
X90001428Y-107904571D01*
X90001428Y-106404571D01*
X90715714Y-106404571D01*
X92215714Y-107904571D02*
X91715714Y-107190285D01*
X91358571Y-107904571D02*
X91358571Y-106404571D01*
X91930000Y-106404571D01*
X92072857Y-106476000D01*
X92144285Y-106547428D01*
X92215714Y-106690285D01*
X92215714Y-106904571D01*
X92144285Y-107047428D01*
X92072857Y-107118857D01*
X91930000Y-107190285D01*
X91358571Y-107190285D01*
X92858571Y-107904571D02*
X92858571Y-106404571D01*
X93715714Y-107904571D01*
X93715714Y-106404571D01*
X94430000Y-107333142D02*
X95572857Y-107333142D01*
X96572857Y-106404571D02*
X96858571Y-106404571D01*
X97001428Y-106476000D01*
X97144285Y-106618857D01*
X97215714Y-106904571D01*
X97215714Y-107404571D01*
X97144285Y-107690285D01*
X97001428Y-107833142D01*
X96858571Y-107904571D01*
X96572857Y-107904571D01*
X96430000Y-107833142D01*
X96287142Y-107690285D01*
X96215714Y-107404571D01*
X96215714Y-106904571D01*
X96287142Y-106618857D01*
X96430000Y-106476000D01*
X96572857Y-106404571D01*
X97858571Y-107904571D02*
X97858571Y-106404571D01*
X97858571Y-107118857D02*
X98715714Y-107118857D01*
X98715714Y-107904571D02*
X98715714Y-106404571D01*
X100144285Y-107904571D02*
X99430000Y-107904571D01*
X99430000Y-106404571D01*
X100644285Y-107333142D02*
X101787142Y-107333142D01*
X102430000Y-107833142D02*
X102644285Y-107904571D01*
X103001428Y-107904571D01*
X103144285Y-107833142D01*
X103215714Y-107761714D01*
X103287142Y-107618857D01*
X103287142Y-107476000D01*
X103215714Y-107333142D01*
X103144285Y-107261714D01*
X103001428Y-107190285D01*
X102715714Y-107118857D01*
X102572857Y-107047428D01*
X102501428Y-106976000D01*
X102430000Y-106833142D01*
X102430000Y-106690285D01*
X102501428Y-106547428D01*
X102572857Y-106476000D01*
X102715714Y-106404571D01*
X103072857Y-106404571D01*
X103287142Y-106476000D01*
X106930000Y-107904571D02*
X106215714Y-107904571D01*
X106215714Y-106404571D01*
X107430000Y-107904571D02*
X107430000Y-106904571D01*
X107430000Y-106404571D02*
X107358571Y-106476000D01*
X107430000Y-106547428D01*
X107501428Y-106476000D01*
X107430000Y-106404571D01*
X107430000Y-106547428D01*
X108787142Y-107833142D02*
X108644285Y-107904571D01*
X108358571Y-107904571D01*
X108215714Y-107833142D01*
X108144285Y-107761714D01*
X108072857Y-107618857D01*
X108072857Y-107190285D01*
X108144285Y-107047428D01*
X108215714Y-106976000D01*
X108358571Y-106904571D01*
X108644285Y-106904571D01*
X108787142Y-106976000D01*
X110001428Y-107833142D02*
X109858571Y-107904571D01*
X109572857Y-107904571D01*
X109430000Y-107833142D01*
X109358571Y-107690285D01*
X109358571Y-107118857D01*
X109430000Y-106976000D01*
X109572857Y-106904571D01*
X109858571Y-106904571D01*
X110001428Y-106976000D01*
X110072857Y-107118857D01*
X110072857Y-107261714D01*
X109358571Y-107404571D01*
X110715714Y-106904571D02*
X110715714Y-107904571D01*
X110715714Y-107047428D02*
X110787142Y-106976000D01*
X110930000Y-106904571D01*
X111144285Y-106904571D01*
X111287142Y-106976000D01*
X111358571Y-107118857D01*
X111358571Y-107904571D01*
X112001428Y-107833142D02*
X112144285Y-107904571D01*
X112430000Y-107904571D01*
X112572857Y-107833142D01*
X112644285Y-107690285D01*
X112644285Y-107618857D01*
X112572857Y-107476000D01*
X112430000Y-107404571D01*
X112215714Y-107404571D01*
X112072857Y-107333142D01*
X112001428Y-107190285D01*
X112001428Y-107118857D01*
X112072857Y-106976000D01*
X112215714Y-106904571D01*
X112430000Y-106904571D01*
X112572857Y-106976000D01*
X113858571Y-107833142D02*
X113715714Y-107904571D01*
X113430000Y-107904571D01*
X113287142Y-107833142D01*
X113215714Y-107690285D01*
X113215714Y-107118857D01*
X113287142Y-106976000D01*
X113430000Y-106904571D01*
X113715714Y-106904571D01*
X113858571Y-106976000D01*
X113930000Y-107118857D01*
X113930000Y-107261714D01*
X113215714Y-107404571D01*
D10*
X88310952Y-104654571D02*
X88453809Y-104702190D01*
X88501428Y-104749809D01*
X88549047Y-104845047D01*
X88549047Y-104987904D01*
X88501428Y-105083142D01*
X88453809Y-105130761D01*
X88358571Y-105178380D01*
X87977619Y-105178380D01*
X87977619Y-104178380D01*
X88310952Y-104178380D01*
X88406190Y-104226000D01*
X88453809Y-104273619D01*
X88501428Y-104368857D01*
X88501428Y-104464095D01*
X88453809Y-104559333D01*
X88406190Y-104606952D01*
X88310952Y-104654571D01*
X87977619Y-104654571D01*
X88977619Y-105178380D02*
X88977619Y-104511714D01*
X88977619Y-104702190D02*
X89025238Y-104606952D01*
X89072857Y-104559333D01*
X89168095Y-104511714D01*
X89263333Y-104511714D01*
X89739523Y-105178380D02*
X89644285Y-105130761D01*
X89596666Y-105083142D01*
X89549047Y-104987904D01*
X89549047Y-104702190D01*
X89596666Y-104606952D01*
X89644285Y-104559333D01*
X89739523Y-104511714D01*
X89882380Y-104511714D01*
X89977619Y-104559333D01*
X90025238Y-104606952D01*
X90072857Y-104702190D01*
X90072857Y-104987904D01*
X90025238Y-105083142D01*
X89977619Y-105130761D01*
X89882380Y-105178380D01*
X89739523Y-105178380D01*
X90930000Y-104511714D02*
X90930000Y-105178380D01*
X90501428Y-104511714D02*
X90501428Y-105035523D01*
X90549047Y-105130761D01*
X90644285Y-105178380D01*
X90787142Y-105178380D01*
X90882380Y-105130761D01*
X90930000Y-105083142D01*
X91834761Y-104511714D02*
X91834761Y-105321238D01*
X91787142Y-105416476D01*
X91739523Y-105464095D01*
X91644285Y-105511714D01*
X91501428Y-105511714D01*
X91406190Y-105464095D01*
X91834761Y-105130761D02*
X91739523Y-105178380D01*
X91549047Y-105178380D01*
X91453809Y-105130761D01*
X91406190Y-105083142D01*
X91358571Y-104987904D01*
X91358571Y-104702190D01*
X91406190Y-104606952D01*
X91453809Y-104559333D01*
X91549047Y-104511714D01*
X91739523Y-104511714D01*
X91834761Y-104559333D01*
X92310952Y-105178380D02*
X92310952Y-104178380D01*
X92739523Y-105178380D02*
X92739523Y-104654571D01*
X92691904Y-104559333D01*
X92596666Y-104511714D01*
X92453809Y-104511714D01*
X92358571Y-104559333D01*
X92310952Y-104606952D01*
X93072857Y-104511714D02*
X93453809Y-104511714D01*
X93215714Y-104178380D02*
X93215714Y-105035523D01*
X93263333Y-105130761D01*
X93358571Y-105178380D01*
X93453809Y-105178380D01*
X94406190Y-104511714D02*
X94787142Y-104511714D01*
X94549047Y-104178380D02*
X94549047Y-105035523D01*
X94596666Y-105130761D01*
X94691904Y-105178380D01*
X94787142Y-105178380D01*
X95263333Y-105178380D02*
X95168095Y-105130761D01*
X95120476Y-105083142D01*
X95072857Y-104987904D01*
X95072857Y-104702190D01*
X95120476Y-104606952D01*
X95168095Y-104559333D01*
X95263333Y-104511714D01*
X95406190Y-104511714D01*
X95501428Y-104559333D01*
X95549047Y-104606952D01*
X95596666Y-104702190D01*
X95596666Y-104987904D01*
X95549047Y-105083142D01*
X95501428Y-105130761D01*
X95406190Y-105178380D01*
X95263333Y-105178380D01*
X96691904Y-104511714D02*
X96930000Y-105178380D01*
X97168095Y-104511714D02*
X96930000Y-105178380D01*
X96834761Y-105416476D01*
X96787142Y-105464095D01*
X96691904Y-105511714D01*
X97691904Y-105178380D02*
X97596666Y-105130761D01*
X97549047Y-105083142D01*
X97501428Y-104987904D01*
X97501428Y-104702190D01*
X97549047Y-104606952D01*
X97596666Y-104559333D01*
X97691904Y-104511714D01*
X97834761Y-104511714D01*
X97930000Y-104559333D01*
X97977619Y-104606952D01*
X98025238Y-104702190D01*
X98025238Y-104987904D01*
X97977619Y-105083142D01*
X97930000Y-105130761D01*
X97834761Y-105178380D01*
X97691904Y-105178380D01*
X98882380Y-104511714D02*
X98882380Y-105178380D01*
X98453809Y-104511714D02*
X98453809Y-105035523D01*
X98501428Y-105130761D01*
X98596666Y-105178380D01*
X98739523Y-105178380D01*
X98834761Y-105130761D01*
X98882380Y-105083142D01*
X100120476Y-105178380D02*
X100120476Y-104178380D01*
X100120476Y-104559333D02*
X100215714Y-104511714D01*
X100406190Y-104511714D01*
X100501428Y-104559333D01*
X100549047Y-104606952D01*
X100596666Y-104702190D01*
X100596666Y-104987904D01*
X100549047Y-105083142D01*
X100501428Y-105130761D01*
X100406190Y-105178380D01*
X100215714Y-105178380D01*
X100120476Y-105130761D01*
X100930000Y-104511714D02*
X101168095Y-105178380D01*
X101406190Y-104511714D02*
X101168095Y-105178380D01*
X101072857Y-105416476D01*
X101025238Y-105464095D01*
X100930000Y-105511714D01*
X102739523Y-104178380D02*
X102930000Y-104178380D01*
X103025238Y-104226000D01*
X103120476Y-104321238D01*
X103168095Y-104511714D01*
X103168095Y-104845047D01*
X103120476Y-105035523D01*
X103025238Y-105130761D01*
X102930000Y-105178380D01*
X102739523Y-105178380D01*
X102644285Y-105130761D01*
X102549047Y-105035523D01*
X102501428Y-104845047D01*
X102501428Y-104511714D01*
X102549047Y-104321238D01*
X102644285Y-104226000D01*
X102739523Y-104178380D01*
X103501428Y-104511714D02*
X103691904Y-105178380D01*
X103882380Y-104702190D01*
X104072857Y-105178380D01*
X104263333Y-104511714D01*
X104644285Y-104511714D02*
X104644285Y-105178380D01*
X104644285Y-104606952D02*
X104691904Y-104559333D01*
X104787142Y-104511714D01*
X104930000Y-104511714D01*
X105025238Y-104559333D01*
X105072857Y-104654571D01*
X105072857Y-105178380D01*
X105406190Y-104178380D02*
X105977619Y-104178380D01*
X105691904Y-105178380D02*
X105691904Y-104178380D01*
X106691904Y-105130761D02*
X106596666Y-105178380D01*
X106406190Y-105178380D01*
X106310952Y-105130761D01*
X106263333Y-105035523D01*
X106263333Y-104654571D01*
X106310952Y-104559333D01*
X106406190Y-104511714D01*
X106596666Y-104511714D01*
X106691904Y-104559333D01*
X106739523Y-104654571D01*
X106739523Y-104749809D01*
X106263333Y-104845047D01*
X107596666Y-105130761D02*
X107501428Y-105178380D01*
X107310952Y-105178380D01*
X107215714Y-105130761D01*
X107168095Y-105083142D01*
X107120476Y-104987904D01*
X107120476Y-104702190D01*
X107168095Y-104606952D01*
X107215714Y-104559333D01*
X107310952Y-104511714D01*
X107501428Y-104511714D01*
X107596666Y-104559333D01*
X108025238Y-105178380D02*
X108025238Y-104178380D01*
X108453809Y-105178380D02*
X108453809Y-104654571D01*
X108406190Y-104559333D01*
X108310952Y-104511714D01*
X108168095Y-104511714D01*
X108072857Y-104559333D01*
X108025238Y-104606952D01*
X109549047Y-104511714D02*
X109930000Y-104511714D01*
X109691904Y-104178380D02*
X109691904Y-105035523D01*
X109739523Y-105130761D01*
X109834761Y-105178380D01*
X109930000Y-105178380D01*
X110644285Y-105130761D02*
X110549047Y-105178380D01*
X110358571Y-105178380D01*
X110263333Y-105130761D01*
X110215714Y-105035523D01*
X110215714Y-104654571D01*
X110263333Y-104559333D01*
X110358571Y-104511714D01*
X110549047Y-104511714D01*
X110644285Y-104559333D01*
X110691904Y-104654571D01*
X110691904Y-104749809D01*
X110215714Y-104845047D01*
X111549047Y-105178380D02*
X111549047Y-104654571D01*
X111501428Y-104559333D01*
X111406190Y-104511714D01*
X111215714Y-104511714D01*
X111120476Y-104559333D01*
X111549047Y-105130761D02*
X111453809Y-105178380D01*
X111215714Y-105178380D01*
X111120476Y-105130761D01*
X111072857Y-105035523D01*
X111072857Y-104940285D01*
X111120476Y-104845047D01*
X111215714Y-104797428D01*
X111453809Y-104797428D01*
X111549047Y-104749809D01*
X112025238Y-105178380D02*
X112025238Y-104511714D01*
X112025238Y-104606952D02*
X112072857Y-104559333D01*
X112168095Y-104511714D01*
X112310952Y-104511714D01*
X112406190Y-104559333D01*
X112453809Y-104654571D01*
X112453809Y-105178380D01*
X112453809Y-104654571D02*
X112501428Y-104559333D01*
X112596666Y-104511714D01*
X112739523Y-104511714D01*
X112834761Y-104559333D01*
X112882380Y-104654571D01*
X112882380Y-105178380D01*
D11*
%TO.C,JP8*%
X76600000Y-56700000D02*
X76600000Y-53900000D01*
X76600000Y-53900000D02*
X78600000Y-53900000D01*
X78600000Y-53900000D02*
X78600000Y-56700000D01*
X78600000Y-56700000D02*
X76600000Y-56700000D01*
%TO.C,JP7*%
X79000000Y-56650000D02*
X79000000Y-53850000D01*
X79000000Y-53850000D02*
X81000000Y-53850000D01*
X81000000Y-53850000D02*
X81000000Y-56650000D01*
X81000000Y-56650000D02*
X79000000Y-56650000D01*
%TO.C,JP6*%
X101500000Y-68200000D02*
X101500000Y-65400000D01*
X101500000Y-65400000D02*
X103500000Y-65400000D01*
X103500000Y-65400000D02*
X103500000Y-68200000D01*
X103500000Y-68200000D02*
X101500000Y-68200000D01*
%TO.C,JP5*%
X99000000Y-68200000D02*
X99000000Y-65400000D01*
X99000000Y-65400000D02*
X101000000Y-65400000D01*
X101000000Y-65400000D02*
X101000000Y-68200000D01*
X101000000Y-68200000D02*
X99000000Y-68200000D01*
%TO.C,JP4*%
X84750000Y-62100000D02*
X87550000Y-62100000D01*
X87550000Y-62100000D02*
X87550000Y-64100000D01*
X87550000Y-64100000D02*
X84750000Y-64100000D01*
X84750000Y-64100000D02*
X84750000Y-62100000D01*
%TO.C,JP3*%
X84750000Y-64100000D02*
X87550000Y-64100000D01*
X87550000Y-64100000D02*
X87550000Y-66100000D01*
X87550000Y-66100000D02*
X84750000Y-66100000D01*
X84750000Y-66100000D02*
X84750000Y-64100000D01*
%TO.C,TP33*%
X125660000Y-88900000D02*
G75*
G03*
X125660000Y-88900000I-1200000J0D01*
G01*
%TO.C,TP32*%
X125660000Y-93980000D02*
G75*
G03*
X125660000Y-93980000I-1200000J0D01*
G01*
%TO.C,TP30*%
X82480000Y-109220000D02*
G75*
G03*
X82480000Y-109220000I-1200000J0D01*
G01*
%TO.C,TP29*%
X77400000Y-109220000D02*
G75*
G03*
X77400000Y-109220000I-1200000J0D01*
G01*
%TO.C,TP28*%
X82480000Y-104140000D02*
G75*
G03*
X82480000Y-104140000I-1200000J0D01*
G01*
%TO.C,TP27*%
X77400000Y-104140000D02*
G75*
G03*
X77400000Y-104140000I-1200000J0D01*
G01*
%TO.C,TP26*%
X67240000Y-104140000D02*
G75*
G03*
X67240000Y-104140000I-1200000J0D01*
G01*
%TO.C,TP25*%
X67240000Y-109220000D02*
G75*
G03*
X67240000Y-109220000I-1200000J0D01*
G01*
%TO.C,TP24*%
X62160000Y-104140000D02*
G75*
G03*
X62160000Y-104140000I-1200000J0D01*
G01*
%TO.C,TP23*%
X62160000Y-109220000D02*
G75*
G03*
X62160000Y-109220000I-1200000J0D01*
G01*
%TO.C,TP22*%
X57080000Y-104140000D02*
G75*
G03*
X57080000Y-104140000I-1200000J0D01*
G01*
%TO.C,TP21*%
X57080000Y-109220000D02*
G75*
G03*
X57080000Y-109220000I-1200000J0D01*
G01*
%TO.C,TP20*%
X77400000Y-116840000D02*
G75*
G03*
X77400000Y-116840000I-1200000J0D01*
G01*
%TO.C,TP19*%
X77280000Y-121920000D02*
G75*
G03*
X77280000Y-121920000I-1200000J0D01*
G01*
%TO.C,TP18*%
X82280000Y-116840000D02*
G75*
G03*
X82280000Y-116840000I-1200000J0D01*
G01*
%TO.C,TP17*%
X82280000Y-121920000D02*
G75*
G03*
X82280000Y-121920000I-1200000J0D01*
G01*
%TO.C,TP15*%
X120326000Y-106172000D02*
G75*
G03*
X120326000Y-106172000I-1200000J0D01*
G01*
%TO.C,TP14*%
X125406000Y-101092000D02*
G75*
G03*
X125406000Y-101092000I-1200000J0D01*
G01*
%TO.C,TP13*%
X125406000Y-106172000D02*
G75*
G03*
X125406000Y-106172000I-1200000J0D01*
G01*
%TO.C,TP12*%
X46920000Y-121920000D02*
G75*
G03*
X46920000Y-121920000I-1200000J0D01*
G01*
%TO.C,TP11*%
X72320000Y-116840000D02*
G75*
G03*
X72320000Y-116840000I-1200000J0D01*
G01*
%TO.C,TP10*%
X72320000Y-121920000D02*
G75*
G03*
X72320000Y-121920000I-1200000J0D01*
G01*
%TO.C,TP9*%
X67240000Y-116840000D02*
G75*
G03*
X67240000Y-116840000I-1200000J0D01*
G01*
%TO.C,TP8*%
X67240000Y-121920000D02*
G75*
G03*
X67240000Y-121920000I-1200000J0D01*
G01*
%TO.C,TP7*%
X62160000Y-116840000D02*
G75*
G03*
X62160000Y-116840000I-1200000J0D01*
G01*
%TO.C,TP6*%
X62160000Y-121920000D02*
G75*
G03*
X62160000Y-121920000I-1200000J0D01*
G01*
%TO.C,TP5*%
X57080000Y-116840000D02*
G75*
G03*
X57080000Y-116840000I-1200000J0D01*
G01*
%TO.C,TP4*%
X57080000Y-121920000D02*
G75*
G03*
X57080000Y-121920000I-1200000J0D01*
G01*
%TO.C,TP3*%
X46920000Y-116840000D02*
G75*
G03*
X46920000Y-116840000I-1200000J0D01*
G01*
%TO.C,TP2*%
X46920000Y-111760000D02*
G75*
G03*
X46920000Y-111760000I-1200000J0D01*
G01*
%TO.C,TP1*%
X120326000Y-101092000D02*
G75*
G03*
X120326000Y-101092000I-1200000J0D01*
G01*
%TO.C,R13*%
X108485000Y-111987064D02*
X108485000Y-111532936D01*
X109955000Y-111987064D02*
X109955000Y-111532936D01*
%TO.C,R12*%
X119661000Y-112090564D02*
X119661000Y-111636436D01*
X121131000Y-112090564D02*
X121131000Y-111636436D01*
%TO.C,R11*%
X90197000Y-113407564D02*
X90197000Y-112953436D01*
X91667000Y-113407564D02*
X91667000Y-112953436D01*
%TO.C,R10*%
X99849000Y-111883564D02*
X99849000Y-111429436D01*
X101319000Y-111883564D02*
X101319000Y-111429436D01*
D13*
%TO.C,U1*%
X42360000Y-26710000D02*
X119860000Y-26710000D01*
X121360000Y-28210000D02*
X121360000Y-95210000D01*
X119860000Y-96710000D02*
X42360000Y-96710000D01*
X40860000Y-95210000D02*
X40860000Y-74710000D01*
X40860000Y-74710000D02*
X38860000Y-72710000D01*
X38860000Y-72710000D02*
X38860000Y-39710000D01*
X38860000Y-39710000D02*
X40860000Y-37710000D01*
X40860000Y-37710000D02*
X40860000Y-28210000D01*
X90890000Y-89690000D02*
X42630000Y-89690000D01*
X42630000Y-89690000D02*
X42630000Y-94690000D01*
X42630000Y-94690000D02*
X90890000Y-94690000D01*
X90890000Y-94690000D02*
X90890000Y-89690000D01*
X90890000Y-28730000D02*
X42630000Y-28730000D01*
X42630000Y-28730000D02*
X42630000Y-33730000D01*
X42630000Y-33730000D02*
X90890000Y-33730000D01*
X90890000Y-33730000D02*
X90890000Y-28730000D01*
D14*
X89720000Y-28210000D02*
G75*
G03*
X89720000Y-28210000I-100000J0D01*
G01*
X89720000Y-89170000D02*
G75*
G03*
X89720000Y-89170000I-100000J0D01*
G01*
D13*
X42380000Y-84590000D02*
X42380000Y-87090000D01*
X63200000Y-84590000D02*
X42380000Y-84590000D01*
X63200000Y-87090000D02*
X63200000Y-84590000D01*
X42380000Y-87090000D02*
X63200000Y-87090000D01*
D14*
X79560000Y-35830000D02*
G75*
G03*
X79560000Y-35830000I-100000J0D01*
G01*
D13*
X64220000Y-84590000D02*
X64220000Y-87090000D01*
X90120000Y-84590000D02*
X64220000Y-84590000D01*
X90120000Y-87090000D02*
X90120000Y-84590000D01*
X64220000Y-87090000D02*
X90120000Y-87090000D01*
D14*
X56700000Y-35830000D02*
G75*
G03*
X56700000Y-35830000I-100000J0D01*
G01*
D13*
X80980000Y-38830000D02*
X80980000Y-36330000D01*
X60160000Y-38830000D02*
X80980000Y-38830000D01*
X60160000Y-36330000D02*
X60160000Y-38830000D01*
X80980000Y-36330000D02*
X60160000Y-36330000D01*
D14*
X65840000Y-87590000D02*
G75*
G03*
X65840000Y-87590000I-100000J0D01*
G01*
D13*
X58120000Y-38830000D02*
X58120000Y-36330000D01*
X42380000Y-38830000D02*
X58120000Y-38830000D01*
X42380000Y-36330000D02*
X42380000Y-38830000D01*
X58120000Y-36330000D02*
X42380000Y-36330000D01*
D14*
X44000000Y-87590000D02*
G75*
G03*
X44000000Y-87590000I-100000J0D01*
G01*
D11*
X117642000Y-28563000D02*
X118972000Y-28563000D01*
X118972000Y-28563000D02*
X118972000Y-29893000D01*
X116372000Y-31223000D02*
X113772000Y-31223000D01*
X113772000Y-28563000D02*
X113772000Y-31223000D01*
X116372000Y-28563000D02*
X113772000Y-28563000D01*
X116372000Y-28563000D02*
X116372000Y-31223000D01*
X118972000Y-92190000D02*
X118972000Y-93520000D01*
X117642000Y-92190000D02*
X118972000Y-92190000D01*
X113772000Y-92190000D02*
X113772000Y-94850000D01*
X116372000Y-94850000D02*
X113772000Y-94850000D01*
X116372000Y-92190000D02*
X116372000Y-94850000D01*
X116372000Y-92190000D02*
X113772000Y-92190000D01*
D13*
X40860000Y-28210000D02*
G75*
G02*
X42360000Y-26710000I1500000J0D01*
G01*
X42360000Y-96710000D02*
G75*
G02*
X40860000Y-95210000I0J1500000D01*
G01*
X121360000Y-95210000D02*
G75*
G02*
X119860000Y-96710000I-1500000J0D01*
G01*
X119860000Y-26710000D02*
G75*
G02*
X121360000Y-28210000I0J-1500000D01*
G01*
D11*
%TO.C,J5*%
X123670000Y-36920000D02*
X125000000Y-36920000D01*
X123670000Y-38250000D02*
X123670000Y-36920000D01*
X123670000Y-39520000D02*
X126330000Y-39520000D01*
X126330000Y-39520000D02*
X126330000Y-47200000D01*
X123670000Y-39520000D02*
X123670000Y-47200000D01*
X123670000Y-47200000D02*
X126330000Y-47200000D01*
%TO.C,J4*%
X123670000Y-28670000D02*
X125000000Y-28670000D01*
X123670000Y-30000000D02*
X123670000Y-28670000D01*
X123670000Y-31270000D02*
X126330000Y-31270000D01*
X126330000Y-31270000D02*
X126330000Y-33870000D01*
X123670000Y-31270000D02*
X123670000Y-33870000D01*
X123670000Y-33870000D02*
X126330000Y-33870000D01*
%TO.C,JP2*%
X123170000Y-53920000D02*
X124500000Y-53920000D01*
X123170000Y-55250000D02*
X123170000Y-53920000D01*
X123170000Y-56520000D02*
X125830000Y-56520000D01*
X125830000Y-56520000D02*
X125830000Y-59120000D01*
X123170000Y-56520000D02*
X123170000Y-59120000D01*
X123170000Y-59120000D02*
X125830000Y-59120000D01*
%TO.C,J1*%
X59950000Y-67330000D02*
X59950000Y-64670000D01*
X88770000Y-47330000D02*
X98990000Y-47330000D01*
X88770000Y-47330000D02*
X88770000Y-44670000D01*
X88770000Y-44670000D02*
X98990000Y-44670000D01*
X51000000Y-67330000D02*
X49670000Y-67330000D01*
X52270000Y-67330000D02*
X59950000Y-67330000D01*
X98990000Y-47330000D02*
X98990000Y-44670000D01*
X52270000Y-67330000D02*
X52270000Y-64670000D01*
X52270000Y-64670000D02*
X59950000Y-64670000D01*
X86170000Y-47330000D02*
X86170000Y-46000000D01*
X87500000Y-47330000D02*
X86170000Y-47330000D01*
X49670000Y-67330000D02*
X49670000Y-66000000D01*
X97270000Y-59170000D02*
X104950000Y-59170000D01*
X97270000Y-61830000D02*
X97270000Y-59170000D01*
X104950000Y-61830000D02*
X104950000Y-59170000D01*
X94670000Y-61830000D02*
X94670000Y-60500000D01*
X97270000Y-61830000D02*
X104950000Y-61830000D01*
X96000000Y-61830000D02*
X94670000Y-61830000D01*
X92950000Y-54330000D02*
X92950000Y-51670000D01*
X85270000Y-54330000D02*
X85270000Y-51670000D01*
X82670000Y-54330000D02*
X82670000Y-53000000D01*
X85270000Y-54330000D02*
X92950000Y-54330000D01*
X85270000Y-51670000D02*
X92950000Y-51670000D01*
X84000000Y-54330000D02*
X82670000Y-54330000D01*
X85270000Y-61830000D02*
X85270000Y-59170000D01*
X85270000Y-59170000D02*
X92950000Y-59170000D01*
X82670000Y-61830000D02*
X82670000Y-60500000D01*
X85270000Y-61830000D02*
X92950000Y-61830000D01*
X92950000Y-61830000D02*
X92950000Y-59170000D01*
X84000000Y-61830000D02*
X82670000Y-61830000D01*
X78770000Y-54330000D02*
X81370000Y-54330000D01*
X76170000Y-54330000D02*
X76170000Y-53000000D01*
X78770000Y-51670000D02*
X81370000Y-51670000D01*
X78770000Y-54330000D02*
X78770000Y-51670000D01*
X81370000Y-54330000D02*
X81370000Y-51670000D01*
X77500000Y-54330000D02*
X76170000Y-54330000D01*
X103870000Y-65830000D02*
X103870000Y-63170000D01*
X100000000Y-65830000D02*
X98670000Y-65830000D01*
X101270000Y-63170000D02*
X103870000Y-63170000D01*
X101270000Y-65830000D02*
X101270000Y-63170000D01*
X98670000Y-65830000D02*
X98670000Y-64500000D01*
X101270000Y-65830000D02*
X103870000Y-65830000D01*
X90270000Y-63170000D02*
X92870000Y-63170000D01*
X87670000Y-65830000D02*
X87670000Y-64500000D01*
X90270000Y-65830000D02*
X92870000Y-65830000D01*
X89000000Y-65830000D02*
X87670000Y-65830000D01*
X92870000Y-65830000D02*
X92870000Y-63170000D01*
X90270000Y-65830000D02*
X90270000Y-63170000D01*
X78830000Y-72770000D02*
X78830000Y-80450000D01*
X76170000Y-72770000D02*
X78830000Y-72770000D01*
X96230000Y-41830000D02*
X91090000Y-41830000D01*
X96230000Y-39170000D02*
X96230000Y-41830000D01*
X76170000Y-71500000D02*
X76170000Y-70170000D01*
X76170000Y-70170000D02*
X77500000Y-70170000D01*
X98830000Y-39170000D02*
X98830000Y-40500000D01*
X97500000Y-39170000D02*
X98830000Y-39170000D01*
X91090000Y-39170000D02*
X91090000Y-41830000D01*
X127830000Y-75770000D02*
X127830000Y-80910000D01*
X125170000Y-75770000D02*
X127830000Y-75770000D01*
X125170000Y-74500000D02*
X125170000Y-73170000D01*
X125170000Y-75770000D02*
X125170000Y-80910000D01*
X125170000Y-73170000D02*
X126500000Y-73170000D01*
X125170000Y-80910000D02*
X127830000Y-80910000D01*
X96230000Y-39170000D02*
X91090000Y-39170000D01*
X76170000Y-72770000D02*
X76170000Y-80450000D01*
D15*
%TO.C,REF\u002A\u002A*%
G36*
X110533910Y-97968348D02*
G01*
X110612454Y-97968778D01*
X110669298Y-97969942D01*
X110708105Y-97972207D01*
X110732538Y-97975940D01*
X110746262Y-97981506D01*
X110752940Y-97989273D01*
X110756236Y-97999605D01*
X110756556Y-98000943D01*
X110761562Y-98025079D01*
X110770829Y-98072701D01*
X110783392Y-98138741D01*
X110798287Y-98218128D01*
X110814551Y-98305796D01*
X110815119Y-98308875D01*
X110831410Y-98394789D01*
X110846652Y-98470696D01*
X110859861Y-98532045D01*
X110870054Y-98574282D01*
X110876248Y-98592855D01*
X110876543Y-98593184D01*
X110894788Y-98602253D01*
X110932405Y-98617367D01*
X110981271Y-98635262D01*
X110981543Y-98635358D01*
X111043093Y-98658493D01*
X111115657Y-98687965D01*
X111184057Y-98717597D01*
X111187294Y-98719062D01*
X111298702Y-98769626D01*
X111545399Y-98601160D01*
X111621077Y-98549803D01*
X111689631Y-98503889D01*
X111747088Y-98466030D01*
X111789476Y-98438837D01*
X111812825Y-98424921D01*
X111815042Y-98423889D01*
X111832010Y-98428484D01*
X111863701Y-98450655D01*
X111911352Y-98491447D01*
X111976198Y-98551905D01*
X112042397Y-98616227D01*
X112106214Y-98679612D01*
X112163329Y-98737451D01*
X112210305Y-98786175D01*
X112243703Y-98822210D01*
X112260085Y-98841984D01*
X112260694Y-98843002D01*
X112262505Y-98856572D01*
X112255683Y-98878733D01*
X112238540Y-98912478D01*
X112209393Y-98960800D01*
X112166555Y-99026692D01*
X112109448Y-99111517D01*
X112058766Y-99186177D01*
X112013461Y-99253140D01*
X111976150Y-99308516D01*
X111949452Y-99348420D01*
X111935985Y-99368962D01*
X111935137Y-99370356D01*
X111936781Y-99390038D01*
X111949245Y-99428293D01*
X111970048Y-99477889D01*
X111977462Y-99493728D01*
X112009814Y-99564290D01*
X112044328Y-99644353D01*
X112072365Y-99713629D01*
X112092568Y-99765045D01*
X112108615Y-99804119D01*
X112117888Y-99824541D01*
X112119041Y-99826114D01*
X112136096Y-99828721D01*
X112176298Y-99835863D01*
X112234302Y-99846523D01*
X112304763Y-99859685D01*
X112382335Y-99874333D01*
X112461672Y-99889449D01*
X112537431Y-99904018D01*
X112604264Y-99917022D01*
X112656828Y-99927445D01*
X112689776Y-99934270D01*
X112697857Y-99936199D01*
X112706205Y-99940962D01*
X112712506Y-99951718D01*
X112717045Y-99972098D01*
X112720104Y-100005734D01*
X112721967Y-100056255D01*
X112722918Y-100127292D01*
X112723240Y-100222476D01*
X112723257Y-100261492D01*
X112723257Y-100578799D01*
X112647057Y-100593839D01*
X112604663Y-100601995D01*
X112541400Y-100613899D01*
X112464962Y-100628116D01*
X112383043Y-100643210D01*
X112360400Y-100647355D01*
X112284806Y-100662053D01*
X112218953Y-100676505D01*
X112168366Y-100689375D01*
X112138574Y-100699322D01*
X112133612Y-100702287D01*
X112121426Y-100723283D01*
X112103953Y-100763967D01*
X112084577Y-100816322D01*
X112080734Y-100827600D01*
X112055339Y-100897523D01*
X112023817Y-100976418D01*
X111992969Y-101047266D01*
X111992817Y-101047595D01*
X111941447Y-101158733D01*
X112110399Y-101407253D01*
X112279352Y-101655772D01*
X112062429Y-101873058D01*
X111996819Y-101937726D01*
X111936979Y-101994733D01*
X111886267Y-102041033D01*
X111848046Y-102073584D01*
X111825675Y-102089343D01*
X111822466Y-102090343D01*
X111803626Y-102082469D01*
X111765180Y-102060578D01*
X111711330Y-102027267D01*
X111646276Y-101985131D01*
X111575940Y-101937943D01*
X111504555Y-101889810D01*
X111440908Y-101847928D01*
X111389041Y-101814871D01*
X111352995Y-101793218D01*
X111336867Y-101785543D01*
X111317189Y-101792037D01*
X111279875Y-101809150D01*
X111232621Y-101833326D01*
X111227612Y-101836013D01*
X111163977Y-101867927D01*
X111120341Y-101883579D01*
X111093202Y-101883745D01*
X111079057Y-101869204D01*
X111078975Y-101869000D01*
X111071905Y-101851779D01*
X111055042Y-101810899D01*
X111029695Y-101749525D01*
X110997171Y-101670819D01*
X110958778Y-101577947D01*
X110915822Y-101474072D01*
X110874222Y-101373502D01*
X110828504Y-101262516D01*
X110786526Y-101159703D01*
X110749548Y-101068215D01*
X110718827Y-100991201D01*
X110695622Y-100931815D01*
X110681190Y-100893209D01*
X110676743Y-100878800D01*
X110687896Y-100862272D01*
X110717069Y-100835930D01*
X110755971Y-100806887D01*
X110866757Y-100715039D01*
X110953351Y-100609759D01*
X111014716Y-100493266D01*
X111049815Y-100367776D01*
X111057608Y-100235507D01*
X111051943Y-100174457D01*
X111021078Y-100047795D01*
X110967920Y-99935941D01*
X110895767Y-99840001D01*
X110807917Y-99761076D01*
X110707665Y-99700270D01*
X110598310Y-99658687D01*
X110483147Y-99637428D01*
X110365475Y-99637599D01*
X110248590Y-99660301D01*
X110135789Y-99706638D01*
X110030369Y-99777713D01*
X109986368Y-99817911D01*
X109901979Y-99921129D01*
X109843222Y-100033925D01*
X109809704Y-100153010D01*
X109801035Y-100275095D01*
X109816823Y-100396893D01*
X109856678Y-100515116D01*
X109920207Y-100626475D01*
X110007021Y-100727684D01*
X110104029Y-100806887D01*
X110144437Y-100837162D01*
X110172982Y-100863219D01*
X110183257Y-100878825D01*
X110177877Y-100895843D01*
X110162575Y-100936500D01*
X110138612Y-100997642D01*
X110107244Y-101076119D01*
X110069732Y-101168780D01*
X110027333Y-101272472D01*
X109985663Y-101373526D01*
X109939690Y-101484607D01*
X109897107Y-101587541D01*
X109859221Y-101679165D01*
X109827340Y-101756316D01*
X109802771Y-101815831D01*
X109786820Y-101854544D01*
X109780910Y-101869000D01*
X109766948Y-101883685D01*
X109739940Y-101883642D01*
X109696413Y-101868099D01*
X109632890Y-101836284D01*
X109632388Y-101836013D01*
X109584560Y-101811323D01*
X109545897Y-101793338D01*
X109524095Y-101785614D01*
X109523133Y-101785543D01*
X109506721Y-101793378D01*
X109470487Y-101815165D01*
X109418474Y-101848328D01*
X109354725Y-101890291D01*
X109284060Y-101937943D01*
X109212116Y-101986191D01*
X109147274Y-102028151D01*
X109093735Y-102061227D01*
X109055697Y-102082821D01*
X109037533Y-102090343D01*
X109020808Y-102080457D01*
X108987180Y-102052826D01*
X108940010Y-102010495D01*
X108882658Y-101956505D01*
X108818484Y-101893899D01*
X108797497Y-101872983D01*
X108580499Y-101655623D01*
X108745668Y-101413220D01*
X108795864Y-101338781D01*
X108839919Y-101271972D01*
X108875362Y-101216665D01*
X108899719Y-101176729D01*
X108910522Y-101156036D01*
X108910838Y-101154563D01*
X108905143Y-101135058D01*
X108889826Y-101095822D01*
X108867537Y-101043430D01*
X108851893Y-101008355D01*
X108822641Y-100941201D01*
X108795094Y-100873358D01*
X108773737Y-100816034D01*
X108767935Y-100798572D01*
X108751452Y-100751938D01*
X108735340Y-100715905D01*
X108726490Y-100702287D01*
X108706960Y-100693952D01*
X108664334Y-100682137D01*
X108604145Y-100668181D01*
X108531922Y-100653422D01*
X108499600Y-100647355D01*
X108417522Y-100632273D01*
X108338795Y-100617669D01*
X108271109Y-100604980D01*
X108222160Y-100595642D01*
X108212943Y-100593839D01*
X108136743Y-100578799D01*
X108136743Y-100261492D01*
X108136914Y-100157154D01*
X108137616Y-100078213D01*
X108139134Y-100021038D01*
X108141749Y-99981999D01*
X108145746Y-99957465D01*
X108151409Y-99943805D01*
X108159020Y-99937389D01*
X108162143Y-99936199D01*
X108180978Y-99931980D01*
X108222588Y-99923562D01*
X108281630Y-99911961D01*
X108352757Y-99898195D01*
X108430625Y-99883280D01*
X108509887Y-99868232D01*
X108585198Y-99854069D01*
X108651213Y-99841806D01*
X108702587Y-99832461D01*
X108733975Y-99827050D01*
X108740959Y-99826114D01*
X108747285Y-99813596D01*
X108761290Y-99780246D01*
X108780355Y-99732377D01*
X108787634Y-99713629D01*
X108816996Y-99641195D01*
X108851571Y-99561170D01*
X108882537Y-99493728D01*
X108905323Y-99442159D01*
X108920482Y-99399785D01*
X108925542Y-99373834D01*
X108924736Y-99370356D01*
X108914041Y-99353936D01*
X108889620Y-99317417D01*
X108854095Y-99264687D01*
X108810087Y-99199635D01*
X108760217Y-99126151D01*
X108750356Y-99111645D01*
X108692492Y-99025704D01*
X108649956Y-98960261D01*
X108621054Y-98912304D01*
X108604090Y-98878820D01*
X108597367Y-98856795D01*
X108599190Y-98843217D01*
X108599236Y-98843131D01*
X108613586Y-98825297D01*
X108645323Y-98790817D01*
X108691010Y-98743268D01*
X108747204Y-98686222D01*
X108810468Y-98623255D01*
X108817602Y-98616227D01*
X108897330Y-98539020D01*
X108958857Y-98482330D01*
X109003421Y-98445110D01*
X109032257Y-98426315D01*
X109044958Y-98423889D01*
X109063494Y-98434471D01*
X109101961Y-98458916D01*
X109156386Y-98494612D01*
X109222798Y-98538947D01*
X109297225Y-98589311D01*
X109314601Y-98601160D01*
X109561297Y-98769626D01*
X109672706Y-98719062D01*
X109740457Y-98689595D01*
X109813183Y-98659959D01*
X109875703Y-98636330D01*
X109878457Y-98635358D01*
X109927360Y-98617457D01*
X109965057Y-98602320D01*
X109983425Y-98593210D01*
X109983456Y-98593184D01*
X109989285Y-98576717D01*
X109999192Y-98536219D01*
X110012195Y-98476242D01*
X110027309Y-98401340D01*
X110043552Y-98316064D01*
X110044881Y-98308875D01*
X110061175Y-98221014D01*
X110076133Y-98141260D01*
X110088791Y-98074681D01*
X110098186Y-98026347D01*
X110103354Y-98001325D01*
X110103444Y-98000943D01*
X110106589Y-97990299D01*
X110112704Y-97982262D01*
X110125453Y-97976467D01*
X110148500Y-97972547D01*
X110185509Y-97970135D01*
X110240144Y-97968865D01*
X110316067Y-97968371D01*
X110416944Y-97968286D01*
X110430000Y-97968286D01*
X110533910Y-97968348D01*
G37*
X110533910Y-97968348D02*
X110612454Y-97968778D01*
X110669298Y-97969942D01*
X110708105Y-97972207D01*
X110732538Y-97975940D01*
X110746262Y-97981506D01*
X110752940Y-97989273D01*
X110756236Y-97999605D01*
X110756556Y-98000943D01*
X110761562Y-98025079D01*
X110770829Y-98072701D01*
X110783392Y-98138741D01*
X110798287Y-98218128D01*
X110814551Y-98305796D01*
X110815119Y-98308875D01*
X110831410Y-98394789D01*
X110846652Y-98470696D01*
X110859861Y-98532045D01*
X110870054Y-98574282D01*
X110876248Y-98592855D01*
X110876543Y-98593184D01*
X110894788Y-98602253D01*
X110932405Y-98617367D01*
X110981271Y-98635262D01*
X110981543Y-98635358D01*
X111043093Y-98658493D01*
X111115657Y-98687965D01*
X111184057Y-98717597D01*
X111187294Y-98719062D01*
X111298702Y-98769626D01*
X111545399Y-98601160D01*
X111621077Y-98549803D01*
X111689631Y-98503889D01*
X111747088Y-98466030D01*
X111789476Y-98438837D01*
X111812825Y-98424921D01*
X111815042Y-98423889D01*
X111832010Y-98428484D01*
X111863701Y-98450655D01*
X111911352Y-98491447D01*
X111976198Y-98551905D01*
X112042397Y-98616227D01*
X112106214Y-98679612D01*
X112163329Y-98737451D01*
X112210305Y-98786175D01*
X112243703Y-98822210D01*
X112260085Y-98841984D01*
X112260694Y-98843002D01*
X112262505Y-98856572D01*
X112255683Y-98878733D01*
X112238540Y-98912478D01*
X112209393Y-98960800D01*
X112166555Y-99026692D01*
X112109448Y-99111517D01*
X112058766Y-99186177D01*
X112013461Y-99253140D01*
X111976150Y-99308516D01*
X111949452Y-99348420D01*
X111935985Y-99368962D01*
X111935137Y-99370356D01*
X111936781Y-99390038D01*
X111949245Y-99428293D01*
X111970048Y-99477889D01*
X111977462Y-99493728D01*
X112009814Y-99564290D01*
X112044328Y-99644353D01*
X112072365Y-99713629D01*
X112092568Y-99765045D01*
X112108615Y-99804119D01*
X112117888Y-99824541D01*
X112119041Y-99826114D01*
X112136096Y-99828721D01*
X112176298Y-99835863D01*
X112234302Y-99846523D01*
X112304763Y-99859685D01*
X112382335Y-99874333D01*
X112461672Y-99889449D01*
X112537431Y-99904018D01*
X112604264Y-99917022D01*
X112656828Y-99927445D01*
X112689776Y-99934270D01*
X112697857Y-99936199D01*
X112706205Y-99940962D01*
X112712506Y-99951718D01*
X112717045Y-99972098D01*
X112720104Y-100005734D01*
X112721967Y-100056255D01*
X112722918Y-100127292D01*
X112723240Y-100222476D01*
X112723257Y-100261492D01*
X112723257Y-100578799D01*
X112647057Y-100593839D01*
X112604663Y-100601995D01*
X112541400Y-100613899D01*
X112464962Y-100628116D01*
X112383043Y-100643210D01*
X112360400Y-100647355D01*
X112284806Y-100662053D01*
X112218953Y-100676505D01*
X112168366Y-100689375D01*
X112138574Y-100699322D01*
X112133612Y-100702287D01*
X112121426Y-100723283D01*
X112103953Y-100763967D01*
X112084577Y-100816322D01*
X112080734Y-100827600D01*
X112055339Y-100897523D01*
X112023817Y-100976418D01*
X111992969Y-101047266D01*
X111992817Y-101047595D01*
X111941447Y-101158733D01*
X112110399Y-101407253D01*
X112279352Y-101655772D01*
X112062429Y-101873058D01*
X111996819Y-101937726D01*
X111936979Y-101994733D01*
X111886267Y-102041033D01*
X111848046Y-102073584D01*
X111825675Y-102089343D01*
X111822466Y-102090343D01*
X111803626Y-102082469D01*
X111765180Y-102060578D01*
X111711330Y-102027267D01*
X111646276Y-101985131D01*
X111575940Y-101937943D01*
X111504555Y-101889810D01*
X111440908Y-101847928D01*
X111389041Y-101814871D01*
X111352995Y-101793218D01*
X111336867Y-101785543D01*
X111317189Y-101792037D01*
X111279875Y-101809150D01*
X111232621Y-101833326D01*
X111227612Y-101836013D01*
X111163977Y-101867927D01*
X111120341Y-101883579D01*
X111093202Y-101883745D01*
X111079057Y-101869204D01*
X111078975Y-101869000D01*
X111071905Y-101851779D01*
X111055042Y-101810899D01*
X111029695Y-101749525D01*
X110997171Y-101670819D01*
X110958778Y-101577947D01*
X110915822Y-101474072D01*
X110874222Y-101373502D01*
X110828504Y-101262516D01*
X110786526Y-101159703D01*
X110749548Y-101068215D01*
X110718827Y-100991201D01*
X110695622Y-100931815D01*
X110681190Y-100893209D01*
X110676743Y-100878800D01*
X110687896Y-100862272D01*
X110717069Y-100835930D01*
X110755971Y-100806887D01*
X110866757Y-100715039D01*
X110953351Y-100609759D01*
X111014716Y-100493266D01*
X111049815Y-100367776D01*
X111057608Y-100235507D01*
X111051943Y-100174457D01*
X111021078Y-100047795D01*
X110967920Y-99935941D01*
X110895767Y-99840001D01*
X110807917Y-99761076D01*
X110707665Y-99700270D01*
X110598310Y-99658687D01*
X110483147Y-99637428D01*
X110365475Y-99637599D01*
X110248590Y-99660301D01*
X110135789Y-99706638D01*
X110030369Y-99777713D01*
X109986368Y-99817911D01*
X109901979Y-99921129D01*
X109843222Y-100033925D01*
X109809704Y-100153010D01*
X109801035Y-100275095D01*
X109816823Y-100396893D01*
X109856678Y-100515116D01*
X109920207Y-100626475D01*
X110007021Y-100727684D01*
X110104029Y-100806887D01*
X110144437Y-100837162D01*
X110172982Y-100863219D01*
X110183257Y-100878825D01*
X110177877Y-100895843D01*
X110162575Y-100936500D01*
X110138612Y-100997642D01*
X110107244Y-101076119D01*
X110069732Y-101168780D01*
X110027333Y-101272472D01*
X109985663Y-101373526D01*
X109939690Y-101484607D01*
X109897107Y-101587541D01*
X109859221Y-101679165D01*
X109827340Y-101756316D01*
X109802771Y-101815831D01*
X109786820Y-101854544D01*
X109780910Y-101869000D01*
X109766948Y-101883685D01*
X109739940Y-101883642D01*
X109696413Y-101868099D01*
X109632890Y-101836284D01*
X109632388Y-101836013D01*
X109584560Y-101811323D01*
X109545897Y-101793338D01*
X109524095Y-101785614D01*
X109523133Y-101785543D01*
X109506721Y-101793378D01*
X109470487Y-101815165D01*
X109418474Y-101848328D01*
X109354725Y-101890291D01*
X109284060Y-101937943D01*
X109212116Y-101986191D01*
X109147274Y-102028151D01*
X109093735Y-102061227D01*
X109055697Y-102082821D01*
X109037533Y-102090343D01*
X109020808Y-102080457D01*
X108987180Y-102052826D01*
X108940010Y-102010495D01*
X108882658Y-101956505D01*
X108818484Y-101893899D01*
X108797497Y-101872983D01*
X108580499Y-101655623D01*
X108745668Y-101413220D01*
X108795864Y-101338781D01*
X108839919Y-101271972D01*
X108875362Y-101216665D01*
X108899719Y-101176729D01*
X108910522Y-101156036D01*
X108910838Y-101154563D01*
X108905143Y-101135058D01*
X108889826Y-101095822D01*
X108867537Y-101043430D01*
X108851893Y-101008355D01*
X108822641Y-100941201D01*
X108795094Y-100873358D01*
X108773737Y-100816034D01*
X108767935Y-100798572D01*
X108751452Y-100751938D01*
X108735340Y-100715905D01*
X108726490Y-100702287D01*
X108706960Y-100693952D01*
X108664334Y-100682137D01*
X108604145Y-100668181D01*
X108531922Y-100653422D01*
X108499600Y-100647355D01*
X108417522Y-100632273D01*
X108338795Y-100617669D01*
X108271109Y-100604980D01*
X108222160Y-100595642D01*
X108212943Y-100593839D01*
X108136743Y-100578799D01*
X108136743Y-100261492D01*
X108136914Y-100157154D01*
X108137616Y-100078213D01*
X108139134Y-100021038D01*
X108141749Y-99981999D01*
X108145746Y-99957465D01*
X108151409Y-99943805D01*
X108159020Y-99937389D01*
X108162143Y-99936199D01*
X108180978Y-99931980D01*
X108222588Y-99923562D01*
X108281630Y-99911961D01*
X108352757Y-99898195D01*
X108430625Y-99883280D01*
X108509887Y-99868232D01*
X108585198Y-99854069D01*
X108651213Y-99841806D01*
X108702587Y-99832461D01*
X108733975Y-99827050D01*
X108740959Y-99826114D01*
X108747285Y-99813596D01*
X108761290Y-99780246D01*
X108780355Y-99732377D01*
X108787634Y-99713629D01*
X108816996Y-99641195D01*
X108851571Y-99561170D01*
X108882537Y-99493728D01*
X108905323Y-99442159D01*
X108920482Y-99399785D01*
X108925542Y-99373834D01*
X108924736Y-99370356D01*
X108914041Y-99353936D01*
X108889620Y-99317417D01*
X108854095Y-99264687D01*
X108810087Y-99199635D01*
X108760217Y-99126151D01*
X108750356Y-99111645D01*
X108692492Y-99025704D01*
X108649956Y-98960261D01*
X108621054Y-98912304D01*
X108604090Y-98878820D01*
X108597367Y-98856795D01*
X108599190Y-98843217D01*
X108599236Y-98843131D01*
X108613586Y-98825297D01*
X108645323Y-98790817D01*
X108691010Y-98743268D01*
X108747204Y-98686222D01*
X108810468Y-98623255D01*
X108817602Y-98616227D01*
X108897330Y-98539020D01*
X108958857Y-98482330D01*
X109003421Y-98445110D01*
X109032257Y-98426315D01*
X109044958Y-98423889D01*
X109063494Y-98434471D01*
X109101961Y-98458916D01*
X109156386Y-98494612D01*
X109222798Y-98538947D01*
X109297225Y-98589311D01*
X109314601Y-98601160D01*
X109561297Y-98769626D01*
X109672706Y-98719062D01*
X109740457Y-98689595D01*
X109813183Y-98659959D01*
X109875703Y-98636330D01*
X109878457Y-98635358D01*
X109927360Y-98617457D01*
X109965057Y-98602320D01*
X109983425Y-98593210D01*
X109983456Y-98593184D01*
X109989285Y-98576717D01*
X109999192Y-98536219D01*
X110012195Y-98476242D01*
X110027309Y-98401340D01*
X110043552Y-98316064D01*
X110044881Y-98308875D01*
X110061175Y-98221014D01*
X110076133Y-98141260D01*
X110088791Y-98074681D01*
X110098186Y-98026347D01*
X110103354Y-98001325D01*
X110103444Y-98000943D01*
X110106589Y-97990299D01*
X110112704Y-97982262D01*
X110125453Y-97976467D01*
X110148500Y-97972547D01*
X110185509Y-97970135D01*
X110240144Y-97968865D01*
X110316067Y-97968371D01*
X110416944Y-97968286D01*
X110430000Y-97968286D01*
X110533910Y-97968348D01*
G36*
X113583595Y-102692966D02*
G01*
X113641021Y-102730497D01*
X113668719Y-102764096D01*
X113690662Y-102825064D01*
X113692405Y-102873308D01*
X113688457Y-102937816D01*
X113539686Y-103002934D01*
X113467349Y-103036202D01*
X113420084Y-103062964D01*
X113395507Y-103086144D01*
X113391237Y-103108667D01*
X113404889Y-103133455D01*
X113419943Y-103149886D01*
X113463746Y-103176235D01*
X113511389Y-103178081D01*
X113555145Y-103157546D01*
X113587289Y-103116752D01*
X113593038Y-103102347D01*
X113620576Y-103057356D01*
X113652258Y-103038182D01*
X113695714Y-103021779D01*
X113695714Y-103083966D01*
X113691872Y-103126283D01*
X113676823Y-103161969D01*
X113645280Y-103202943D01*
X113640592Y-103208267D01*
X113605506Y-103244720D01*
X113575347Y-103264283D01*
X113537615Y-103273283D01*
X113506335Y-103276230D01*
X113450385Y-103276965D01*
X113410555Y-103267660D01*
X113385708Y-103253846D01*
X113346656Y-103223467D01*
X113319625Y-103190613D01*
X113302517Y-103149294D01*
X113293238Y-103093521D01*
X113289693Y-103017305D01*
X113289410Y-102978622D01*
X113290372Y-102932247D01*
X113378007Y-102932247D01*
X113379023Y-102957126D01*
X113381556Y-102961200D01*
X113398274Y-102955665D01*
X113434249Y-102941017D01*
X113482331Y-102920190D01*
X113492386Y-102915714D01*
X113553152Y-102884814D01*
X113586632Y-102857657D01*
X113593990Y-102832220D01*
X113576391Y-102806481D01*
X113561856Y-102795109D01*
X113509410Y-102772364D01*
X113460322Y-102776122D01*
X113419227Y-102803884D01*
X113390758Y-102853152D01*
X113381631Y-102892257D01*
X113378007Y-102932247D01*
X113290372Y-102932247D01*
X113291285Y-102888249D01*
X113298196Y-102821384D01*
X113311884Y-102772695D01*
X113334096Y-102736849D01*
X113366574Y-102708513D01*
X113380733Y-102699355D01*
X113445053Y-102675507D01*
X113515473Y-102674006D01*
X113583595Y-102692966D01*
G37*
X113583595Y-102692966D02*
X113641021Y-102730497D01*
X113668719Y-102764096D01*
X113690662Y-102825064D01*
X113692405Y-102873308D01*
X113688457Y-102937816D01*
X113539686Y-103002934D01*
X113467349Y-103036202D01*
X113420084Y-103062964D01*
X113395507Y-103086144D01*
X113391237Y-103108667D01*
X113404889Y-103133455D01*
X113419943Y-103149886D01*
X113463746Y-103176235D01*
X113511389Y-103178081D01*
X113555145Y-103157546D01*
X113587289Y-103116752D01*
X113593038Y-103102347D01*
X113620576Y-103057356D01*
X113652258Y-103038182D01*
X113695714Y-103021779D01*
X113695714Y-103083966D01*
X113691872Y-103126283D01*
X113676823Y-103161969D01*
X113645280Y-103202943D01*
X113640592Y-103208267D01*
X113605506Y-103244720D01*
X113575347Y-103264283D01*
X113537615Y-103273283D01*
X113506335Y-103276230D01*
X113450385Y-103276965D01*
X113410555Y-103267660D01*
X113385708Y-103253846D01*
X113346656Y-103223467D01*
X113319625Y-103190613D01*
X113302517Y-103149294D01*
X113293238Y-103093521D01*
X113289693Y-103017305D01*
X113289410Y-102978622D01*
X113290372Y-102932247D01*
X113378007Y-102932247D01*
X113379023Y-102957126D01*
X113381556Y-102961200D01*
X113398274Y-102955665D01*
X113434249Y-102941017D01*
X113482331Y-102920190D01*
X113492386Y-102915714D01*
X113553152Y-102884814D01*
X113586632Y-102857657D01*
X113593990Y-102832220D01*
X113576391Y-102806481D01*
X113561856Y-102795109D01*
X113509410Y-102772364D01*
X113460322Y-102776122D01*
X113419227Y-102803884D01*
X113390758Y-102853152D01*
X113381631Y-102892257D01*
X113378007Y-102932247D01*
X113290372Y-102932247D01*
X113291285Y-102888249D01*
X113298196Y-102821384D01*
X113311884Y-102772695D01*
X113334096Y-102736849D01*
X113366574Y-102708513D01*
X113380733Y-102699355D01*
X113445053Y-102675507D01*
X113515473Y-102674006D01*
X113583595Y-102692966D01*
G36*
X113082600Y-102684752D02*
G01*
X113099948Y-102692334D01*
X113141356Y-102725128D01*
X113176765Y-102772547D01*
X113198664Y-102823151D01*
X113202229Y-102848098D01*
X113190279Y-102882927D01*
X113164067Y-102901357D01*
X113135964Y-102912516D01*
X113123095Y-102914572D01*
X113116829Y-102899649D01*
X113104456Y-102867175D01*
X113099028Y-102852502D01*
X113068590Y-102801744D01*
X113024520Y-102776427D01*
X112968010Y-102777206D01*
X112963825Y-102778203D01*
X112933655Y-102792507D01*
X112911476Y-102820393D01*
X112896327Y-102865287D01*
X112887250Y-102930615D01*
X112883286Y-103019804D01*
X112882914Y-103067261D01*
X112882730Y-103142071D01*
X112881522Y-103193069D01*
X112878309Y-103225471D01*
X112872109Y-103244495D01*
X112861940Y-103255356D01*
X112846819Y-103263272D01*
X112845946Y-103263670D01*
X112816828Y-103275981D01*
X112802403Y-103280514D01*
X112800186Y-103266809D01*
X112798289Y-103228925D01*
X112796847Y-103171715D01*
X112795998Y-103100027D01*
X112795829Y-103047565D01*
X112796692Y-102946047D01*
X112800070Y-102869032D01*
X112807142Y-102812023D01*
X112819088Y-102770526D01*
X112837090Y-102740043D01*
X112862327Y-102716080D01*
X112887247Y-102699355D01*
X112947171Y-102677097D01*
X113016911Y-102672076D01*
X113082600Y-102684752D01*
G37*
X113082600Y-102684752D02*
X113099948Y-102692334D01*
X113141356Y-102725128D01*
X113176765Y-102772547D01*
X113198664Y-102823151D01*
X113202229Y-102848098D01*
X113190279Y-102882927D01*
X113164067Y-102901357D01*
X113135964Y-102912516D01*
X113123095Y-102914572D01*
X113116829Y-102899649D01*
X113104456Y-102867175D01*
X113099028Y-102852502D01*
X113068590Y-102801744D01*
X113024520Y-102776427D01*
X112968010Y-102777206D01*
X112963825Y-102778203D01*
X112933655Y-102792507D01*
X112911476Y-102820393D01*
X112896327Y-102865287D01*
X112887250Y-102930615D01*
X112883286Y-103019804D01*
X112882914Y-103067261D01*
X112882730Y-103142071D01*
X112881522Y-103193069D01*
X112878309Y-103225471D01*
X112872109Y-103244495D01*
X112861940Y-103255356D01*
X112846819Y-103263272D01*
X112845946Y-103263670D01*
X112816828Y-103275981D01*
X112802403Y-103280514D01*
X112800186Y-103266809D01*
X112798289Y-103228925D01*
X112796847Y-103171715D01*
X112795998Y-103100027D01*
X112795829Y-103047565D01*
X112796692Y-102946047D01*
X112800070Y-102869032D01*
X112807142Y-102812023D01*
X112819088Y-102770526D01*
X112837090Y-102740043D01*
X112862327Y-102716080D01*
X112887247Y-102699355D01*
X112947171Y-102677097D01*
X113016911Y-102672076D01*
X113082600Y-102684752D01*
G36*
X112574876Y-102682335D02*
G01*
X112616667Y-102701344D01*
X112649469Y-102724378D01*
X112673503Y-102750133D01*
X112690097Y-102783358D01*
X112700577Y-102828800D01*
X112706271Y-102891207D01*
X112708507Y-102975327D01*
X112708743Y-103030721D01*
X112708743Y-103246826D01*
X112671774Y-103263670D01*
X112642656Y-103275981D01*
X112628231Y-103280514D01*
X112625472Y-103267025D01*
X112623282Y-103230653D01*
X112621942Y-103177542D01*
X112621657Y-103135372D01*
X112620434Y-103074447D01*
X112617136Y-103026115D01*
X112612321Y-102996518D01*
X112608496Y-102990229D01*
X112582783Y-102996652D01*
X112542418Y-103013125D01*
X112495679Y-103035458D01*
X112450845Y-103059457D01*
X112416193Y-103080930D01*
X112400002Y-103095685D01*
X112399938Y-103095845D01*
X112401330Y-103123152D01*
X112413818Y-103149219D01*
X112435743Y-103170392D01*
X112467743Y-103177474D01*
X112495092Y-103176649D01*
X112533826Y-103176042D01*
X112554158Y-103185116D01*
X112566369Y-103209092D01*
X112567909Y-103213613D01*
X112573203Y-103247806D01*
X112559047Y-103268568D01*
X112522148Y-103278462D01*
X112482289Y-103280292D01*
X112410562Y-103266727D01*
X112373432Y-103247355D01*
X112327576Y-103201845D01*
X112303256Y-103145983D01*
X112301073Y-103086957D01*
X112321629Y-103031953D01*
X112352549Y-102997486D01*
X112383420Y-102978189D01*
X112431942Y-102953759D01*
X112488485Y-102928985D01*
X112497910Y-102925199D01*
X112560019Y-102897791D01*
X112595822Y-102873634D01*
X112607337Y-102849619D01*
X112596580Y-102822635D01*
X112578114Y-102801543D01*
X112534469Y-102775572D01*
X112486446Y-102773624D01*
X112442406Y-102793637D01*
X112410709Y-102833551D01*
X112406549Y-102843848D01*
X112382327Y-102881724D01*
X112346965Y-102909842D01*
X112302343Y-102932917D01*
X112302343Y-102867485D01*
X112304969Y-102827506D01*
X112316230Y-102795997D01*
X112341199Y-102762378D01*
X112365169Y-102736484D01*
X112402441Y-102699817D01*
X112431401Y-102680121D01*
X112462505Y-102672220D01*
X112497713Y-102670914D01*
X112574876Y-102682335D01*
G37*
X112574876Y-102682335D02*
X112616667Y-102701344D01*
X112649469Y-102724378D01*
X112673503Y-102750133D01*
X112690097Y-102783358D01*
X112700577Y-102828800D01*
X112706271Y-102891207D01*
X112708507Y-102975327D01*
X112708743Y-103030721D01*
X112708743Y-103246826D01*
X112671774Y-103263670D01*
X112642656Y-103275981D01*
X112628231Y-103280514D01*
X112625472Y-103267025D01*
X112623282Y-103230653D01*
X112621942Y-103177542D01*
X112621657Y-103135372D01*
X112620434Y-103074447D01*
X112617136Y-103026115D01*
X112612321Y-102996518D01*
X112608496Y-102990229D01*
X112582783Y-102996652D01*
X112542418Y-103013125D01*
X112495679Y-103035458D01*
X112450845Y-103059457D01*
X112416193Y-103080930D01*
X112400002Y-103095685D01*
X112399938Y-103095845D01*
X112401330Y-103123152D01*
X112413818Y-103149219D01*
X112435743Y-103170392D01*
X112467743Y-103177474D01*
X112495092Y-103176649D01*
X112533826Y-103176042D01*
X112554158Y-103185116D01*
X112566369Y-103209092D01*
X112567909Y-103213613D01*
X112573203Y-103247806D01*
X112559047Y-103268568D01*
X112522148Y-103278462D01*
X112482289Y-103280292D01*
X112410562Y-103266727D01*
X112373432Y-103247355D01*
X112327576Y-103201845D01*
X112303256Y-103145983D01*
X112301073Y-103086957D01*
X112321629Y-103031953D01*
X112352549Y-102997486D01*
X112383420Y-102978189D01*
X112431942Y-102953759D01*
X112488485Y-102928985D01*
X112497910Y-102925199D01*
X112560019Y-102897791D01*
X112595822Y-102873634D01*
X112607337Y-102849619D01*
X112596580Y-102822635D01*
X112578114Y-102801543D01*
X112534469Y-102775572D01*
X112486446Y-102773624D01*
X112442406Y-102793637D01*
X112410709Y-102833551D01*
X112406549Y-102843848D01*
X112382327Y-102881724D01*
X112346965Y-102909842D01*
X112302343Y-102932917D01*
X112302343Y-102867485D01*
X112304969Y-102827506D01*
X112316230Y-102795997D01*
X112341199Y-102762378D01*
X112365169Y-102736484D01*
X112402441Y-102699817D01*
X112431401Y-102680121D01*
X112462505Y-102672220D01*
X112497713Y-102670914D01*
X112574876Y-102682335D01*
G36*
X112209833Y-102684663D02*
G01*
X112212048Y-102722850D01*
X112213784Y-102780886D01*
X112214899Y-102854180D01*
X112215257Y-102931055D01*
X112215257Y-103191196D01*
X112169326Y-103237127D01*
X112137675Y-103265429D01*
X112109890Y-103276893D01*
X112071915Y-103276168D01*
X112056840Y-103274321D01*
X112009726Y-103268948D01*
X111970756Y-103265869D01*
X111961257Y-103265585D01*
X111929233Y-103267445D01*
X111883432Y-103272114D01*
X111865674Y-103274321D01*
X111822057Y-103277735D01*
X111792745Y-103270320D01*
X111763680Y-103247427D01*
X111753188Y-103237127D01*
X111707257Y-103191196D01*
X111707257Y-102704602D01*
X111744226Y-102687758D01*
X111776059Y-102675282D01*
X111794683Y-102670914D01*
X111799458Y-102684718D01*
X111803921Y-102723286D01*
X111807775Y-102782356D01*
X111810722Y-102857663D01*
X111812143Y-102921286D01*
X111816114Y-103171657D01*
X111850759Y-103176556D01*
X111882268Y-103173131D01*
X111897708Y-103162041D01*
X111902023Y-103141308D01*
X111905708Y-103097145D01*
X111908469Y-103035146D01*
X111910012Y-102960909D01*
X111910235Y-102922706D01*
X111910457Y-102702783D01*
X111956166Y-102686849D01*
X111988518Y-102676015D01*
X112006115Y-102670962D01*
X112006623Y-102670914D01*
X112008388Y-102684648D01*
X112010329Y-102722730D01*
X112012282Y-102780482D01*
X112014084Y-102853227D01*
X112015343Y-102921286D01*
X112019314Y-103171657D01*
X112106400Y-103171657D01*
X112110396Y-102943240D01*
X112114392Y-102714822D01*
X112156847Y-102692868D01*
X112188192Y-102677793D01*
X112206744Y-102670951D01*
X112207279Y-102670914D01*
X112209833Y-102684663D01*
G37*
X112209833Y-102684663D02*
X112212048Y-102722850D01*
X112213784Y-102780886D01*
X112214899Y-102854180D01*
X112215257Y-102931055D01*
X112215257Y-103191196D01*
X112169326Y-103237127D01*
X112137675Y-103265429D01*
X112109890Y-103276893D01*
X112071915Y-103276168D01*
X112056840Y-103274321D01*
X112009726Y-103268948D01*
X111970756Y-103265869D01*
X111961257Y-103265585D01*
X111929233Y-103267445D01*
X111883432Y-103272114D01*
X111865674Y-103274321D01*
X111822057Y-103277735D01*
X111792745Y-103270320D01*
X111763680Y-103247427D01*
X111753188Y-103237127D01*
X111707257Y-103191196D01*
X111707257Y-102704602D01*
X111744226Y-102687758D01*
X111776059Y-102675282D01*
X111794683Y-102670914D01*
X111799458Y-102684718D01*
X111803921Y-102723286D01*
X111807775Y-102782356D01*
X111810722Y-102857663D01*
X111812143Y-102921286D01*
X111816114Y-103171657D01*
X111850759Y-103176556D01*
X111882268Y-103173131D01*
X111897708Y-103162041D01*
X111902023Y-103141308D01*
X111905708Y-103097145D01*
X111908469Y-103035146D01*
X111910012Y-102960909D01*
X111910235Y-102922706D01*
X111910457Y-102702783D01*
X111956166Y-102686849D01*
X111988518Y-102676015D01*
X112006115Y-102670962D01*
X112006623Y-102670914D01*
X112008388Y-102684648D01*
X112010329Y-102722730D01*
X112012282Y-102780482D01*
X112014084Y-102853227D01*
X112015343Y-102921286D01*
X112019314Y-103171657D01*
X112106400Y-103171657D01*
X112110396Y-102943240D01*
X112114392Y-102714822D01*
X112156847Y-102692868D01*
X112188192Y-102677793D01*
X112206744Y-102670951D01*
X112207279Y-102670914D01*
X112209833Y-102684663D01*
G36*
X111620117Y-102791358D02*
G01*
X111619933Y-102899837D01*
X111619219Y-102983287D01*
X111617675Y-103045704D01*
X111615001Y-103091085D01*
X111610894Y-103123429D01*
X111605055Y-103146733D01*
X111597182Y-103164995D01*
X111591221Y-103175418D01*
X111541855Y-103231945D01*
X111479264Y-103267377D01*
X111410013Y-103280090D01*
X111340668Y-103268463D01*
X111299375Y-103247568D01*
X111256025Y-103211422D01*
X111226481Y-103167276D01*
X111208655Y-103109462D01*
X111200463Y-103032313D01*
X111199302Y-102975714D01*
X111199458Y-102971647D01*
X111300857Y-102971647D01*
X111301476Y-103036550D01*
X111304314Y-103079514D01*
X111310840Y-103107622D01*
X111322523Y-103127953D01*
X111336483Y-103143288D01*
X111383365Y-103172890D01*
X111433701Y-103175419D01*
X111481276Y-103150705D01*
X111484979Y-103147356D01*
X111500783Y-103129935D01*
X111510693Y-103109209D01*
X111516058Y-103078362D01*
X111518228Y-103030577D01*
X111518571Y-102977748D01*
X111517827Y-102911381D01*
X111514748Y-102867106D01*
X111508061Y-102838009D01*
X111496496Y-102817173D01*
X111487013Y-102806107D01*
X111442960Y-102778198D01*
X111392224Y-102774843D01*
X111343796Y-102796159D01*
X111334450Y-102804073D01*
X111318540Y-102821647D01*
X111308610Y-102842587D01*
X111303278Y-102873782D01*
X111301163Y-102922122D01*
X111300857Y-102971647D01*
X111199458Y-102971647D01*
X111202810Y-102884568D01*
X111214726Y-102816086D01*
X111237135Y-102764600D01*
X111272124Y-102724443D01*
X111299375Y-102703861D01*
X111348907Y-102681625D01*
X111406316Y-102671304D01*
X111459682Y-102674067D01*
X111489543Y-102685212D01*
X111501261Y-102688383D01*
X111509037Y-102676557D01*
X111514465Y-102644866D01*
X111518571Y-102596593D01*
X111523067Y-102542829D01*
X111529313Y-102510482D01*
X111540676Y-102491985D01*
X111560528Y-102479770D01*
X111573000Y-102474362D01*
X111620171Y-102454601D01*
X111620117Y-102791358D01*
G37*
X111620117Y-102791358D02*
X111619933Y-102899837D01*
X111619219Y-102983287D01*
X111617675Y-103045704D01*
X111615001Y-103091085D01*
X111610894Y-103123429D01*
X111605055Y-103146733D01*
X111597182Y-103164995D01*
X111591221Y-103175418D01*
X111541855Y-103231945D01*
X111479264Y-103267377D01*
X111410013Y-103280090D01*
X111340668Y-103268463D01*
X111299375Y-103247568D01*
X111256025Y-103211422D01*
X111226481Y-103167276D01*
X111208655Y-103109462D01*
X111200463Y-103032313D01*
X111199302Y-102975714D01*
X111199458Y-102971647D01*
X111300857Y-102971647D01*
X111301476Y-103036550D01*
X111304314Y-103079514D01*
X111310840Y-103107622D01*
X111322523Y-103127953D01*
X111336483Y-103143288D01*
X111383365Y-103172890D01*
X111433701Y-103175419D01*
X111481276Y-103150705D01*
X111484979Y-103147356D01*
X111500783Y-103129935D01*
X111510693Y-103109209D01*
X111516058Y-103078362D01*
X111518228Y-103030577D01*
X111518571Y-102977748D01*
X111517827Y-102911381D01*
X111514748Y-102867106D01*
X111508061Y-102838009D01*
X111496496Y-102817173D01*
X111487013Y-102806107D01*
X111442960Y-102778198D01*
X111392224Y-102774843D01*
X111343796Y-102796159D01*
X111334450Y-102804073D01*
X111318540Y-102821647D01*
X111308610Y-102842587D01*
X111303278Y-102873782D01*
X111301163Y-102922122D01*
X111300857Y-102971647D01*
X111199458Y-102971647D01*
X111202810Y-102884568D01*
X111214726Y-102816086D01*
X111237135Y-102764600D01*
X111272124Y-102724443D01*
X111299375Y-102703861D01*
X111348907Y-102681625D01*
X111406316Y-102671304D01*
X111459682Y-102674067D01*
X111489543Y-102685212D01*
X111501261Y-102688383D01*
X111509037Y-102676557D01*
X111514465Y-102644866D01*
X111518571Y-102596593D01*
X111523067Y-102542829D01*
X111529313Y-102510482D01*
X111540676Y-102491985D01*
X111560528Y-102479770D01*
X111573000Y-102474362D01*
X111620171Y-102454601D01*
X111620117Y-102791358D01*
G36*
X110959926Y-102675755D02*
G01*
X111025858Y-102700084D01*
X111079273Y-102743117D01*
X111100164Y-102773409D01*
X111122939Y-102828994D01*
X111122466Y-102869186D01*
X111098562Y-102896217D01*
X111089717Y-102900813D01*
X111051530Y-102915144D01*
X111032028Y-102911472D01*
X111025422Y-102887407D01*
X111025086Y-102874114D01*
X111012992Y-102825210D01*
X110981471Y-102790999D01*
X110937659Y-102774476D01*
X110888695Y-102778634D01*
X110848894Y-102800227D01*
X110835450Y-102812544D01*
X110825921Y-102827487D01*
X110819485Y-102850075D01*
X110815317Y-102885328D01*
X110812597Y-102938266D01*
X110810502Y-103013907D01*
X110809960Y-103037857D01*
X110807981Y-103119790D01*
X110805731Y-103177455D01*
X110802357Y-103215608D01*
X110797006Y-103239004D01*
X110788824Y-103252398D01*
X110776959Y-103260545D01*
X110769362Y-103264144D01*
X110737102Y-103276452D01*
X110718111Y-103280514D01*
X110711836Y-103266948D01*
X110708006Y-103225934D01*
X110706600Y-103156999D01*
X110707598Y-103059669D01*
X110707908Y-103044657D01*
X110710101Y-102955859D01*
X110712693Y-102891019D01*
X110716382Y-102845067D01*
X110721864Y-102812935D01*
X110729835Y-102789553D01*
X110740993Y-102769852D01*
X110746830Y-102761410D01*
X110780296Y-102724057D01*
X110817727Y-102695003D01*
X110822309Y-102692467D01*
X110889426Y-102672443D01*
X110959926Y-102675755D01*
G37*
X110959926Y-102675755D02*
X111025858Y-102700084D01*
X111079273Y-102743117D01*
X111100164Y-102773409D01*
X111122939Y-102828994D01*
X111122466Y-102869186D01*
X111098562Y-102896217D01*
X111089717Y-102900813D01*
X111051530Y-102915144D01*
X111032028Y-102911472D01*
X111025422Y-102887407D01*
X111025086Y-102874114D01*
X111012992Y-102825210D01*
X110981471Y-102790999D01*
X110937659Y-102774476D01*
X110888695Y-102778634D01*
X110848894Y-102800227D01*
X110835450Y-102812544D01*
X110825921Y-102827487D01*
X110819485Y-102850075D01*
X110815317Y-102885328D01*
X110812597Y-102938266D01*
X110810502Y-103013907D01*
X110809960Y-103037857D01*
X110807981Y-103119790D01*
X110805731Y-103177455D01*
X110802357Y-103215608D01*
X110797006Y-103239004D01*
X110788824Y-103252398D01*
X110776959Y-103260545D01*
X110769362Y-103264144D01*
X110737102Y-103276452D01*
X110718111Y-103280514D01*
X110711836Y-103266948D01*
X110708006Y-103225934D01*
X110706600Y-103156999D01*
X110707598Y-103059669D01*
X110707908Y-103044657D01*
X110710101Y-102955859D01*
X110712693Y-102891019D01*
X110716382Y-102845067D01*
X110721864Y-102812935D01*
X110729835Y-102789553D01*
X110740993Y-102769852D01*
X110746830Y-102761410D01*
X110780296Y-102724057D01*
X110817727Y-102695003D01*
X110822309Y-102692467D01*
X110889426Y-102672443D01*
X110959926Y-102675755D01*
G36*
X110469744Y-102676968D02*
G01*
X110526616Y-102698087D01*
X110527267Y-102698493D01*
X110562440Y-102724380D01*
X110588407Y-102754633D01*
X110606670Y-102794058D01*
X110618732Y-102847462D01*
X110626096Y-102919651D01*
X110630264Y-103015432D01*
X110630629Y-103029078D01*
X110635876Y-103234842D01*
X110591716Y-103257678D01*
X110559763Y-103273110D01*
X110540470Y-103280423D01*
X110539578Y-103280514D01*
X110536239Y-103267022D01*
X110533587Y-103230626D01*
X110531956Y-103177452D01*
X110531600Y-103134393D01*
X110531592Y-103064641D01*
X110528403Y-103020837D01*
X110517288Y-102999944D01*
X110493501Y-102998925D01*
X110452296Y-103014741D01*
X110390086Y-103043815D01*
X110344341Y-103067963D01*
X110320813Y-103088913D01*
X110313896Y-103111747D01*
X110313886Y-103112877D01*
X110325299Y-103152212D01*
X110359092Y-103173462D01*
X110410809Y-103176539D01*
X110448061Y-103176006D01*
X110467703Y-103186735D01*
X110479952Y-103212505D01*
X110487002Y-103245337D01*
X110476842Y-103263966D01*
X110473017Y-103266632D01*
X110437001Y-103277340D01*
X110386566Y-103278856D01*
X110334626Y-103271759D01*
X110297822Y-103258788D01*
X110246938Y-103215585D01*
X110218014Y-103155446D01*
X110212286Y-103108462D01*
X110216657Y-103066082D01*
X110232475Y-103031488D01*
X110263797Y-103000763D01*
X110314678Y-102969990D01*
X110389176Y-102935252D01*
X110393714Y-102933288D01*
X110460821Y-102902287D01*
X110502232Y-102876862D01*
X110519981Y-102854014D01*
X110516107Y-102830745D01*
X110492643Y-102804056D01*
X110485627Y-102797914D01*
X110438630Y-102774100D01*
X110389933Y-102775103D01*
X110347522Y-102798451D01*
X110319384Y-102841675D01*
X110316769Y-102850160D01*
X110291308Y-102891308D01*
X110259001Y-102911128D01*
X110212286Y-102930770D01*
X110212286Y-102879950D01*
X110226496Y-102806082D01*
X110268675Y-102738327D01*
X110290624Y-102715661D01*
X110340517Y-102686569D01*
X110403967Y-102673400D01*
X110469744Y-102676968D01*
G37*
X110469744Y-102676968D02*
X110526616Y-102698087D01*
X110527267Y-102698493D01*
X110562440Y-102724380D01*
X110588407Y-102754633D01*
X110606670Y-102794058D01*
X110618732Y-102847462D01*
X110626096Y-102919651D01*
X110630264Y-103015432D01*
X110630629Y-103029078D01*
X110635876Y-103234842D01*
X110591716Y-103257678D01*
X110559763Y-103273110D01*
X110540470Y-103280423D01*
X110539578Y-103280514D01*
X110536239Y-103267022D01*
X110533587Y-103230626D01*
X110531956Y-103177452D01*
X110531600Y-103134393D01*
X110531592Y-103064641D01*
X110528403Y-103020837D01*
X110517288Y-102999944D01*
X110493501Y-102998925D01*
X110452296Y-103014741D01*
X110390086Y-103043815D01*
X110344341Y-103067963D01*
X110320813Y-103088913D01*
X110313896Y-103111747D01*
X110313886Y-103112877D01*
X110325299Y-103152212D01*
X110359092Y-103173462D01*
X110410809Y-103176539D01*
X110448061Y-103176006D01*
X110467703Y-103186735D01*
X110479952Y-103212505D01*
X110487002Y-103245337D01*
X110476842Y-103263966D01*
X110473017Y-103266632D01*
X110437001Y-103277340D01*
X110386566Y-103278856D01*
X110334626Y-103271759D01*
X110297822Y-103258788D01*
X110246938Y-103215585D01*
X110218014Y-103155446D01*
X110212286Y-103108462D01*
X110216657Y-103066082D01*
X110232475Y-103031488D01*
X110263797Y-103000763D01*
X110314678Y-102969990D01*
X110389176Y-102935252D01*
X110393714Y-102933288D01*
X110460821Y-102902287D01*
X110502232Y-102876862D01*
X110519981Y-102854014D01*
X110516107Y-102830745D01*
X110492643Y-102804056D01*
X110485627Y-102797914D01*
X110438630Y-102774100D01*
X110389933Y-102775103D01*
X110347522Y-102798451D01*
X110319384Y-102841675D01*
X110316769Y-102850160D01*
X110291308Y-102891308D01*
X110259001Y-102911128D01*
X110212286Y-102930770D01*
X110212286Y-102879950D01*
X110226496Y-102806082D01*
X110268675Y-102738327D01*
X110290624Y-102715661D01*
X110340517Y-102686569D01*
X110403967Y-102673400D01*
X110469744Y-102676968D01*
G36*
X109805886Y-102577289D02*
G01*
X109810139Y-102636613D01*
X109815025Y-102671572D01*
X109821795Y-102686820D01*
X109831702Y-102687015D01*
X109834914Y-102685195D01*
X109877644Y-102672015D01*
X109933227Y-102672785D01*
X109989737Y-102686333D01*
X110025082Y-102703861D01*
X110061321Y-102731861D01*
X110087813Y-102763549D01*
X110105999Y-102803813D01*
X110117322Y-102857543D01*
X110123222Y-102929626D01*
X110125143Y-103024951D01*
X110125177Y-103043237D01*
X110125200Y-103248646D01*
X110079491Y-103264580D01*
X110047027Y-103275420D01*
X110029215Y-103280468D01*
X110028691Y-103280514D01*
X110026937Y-103266828D01*
X110025444Y-103229076D01*
X110024326Y-103172224D01*
X110023697Y-103101234D01*
X110023600Y-103058073D01*
X110023398Y-102972973D01*
X110022358Y-102911981D01*
X110019831Y-102870177D01*
X110015164Y-102842642D01*
X110007707Y-102824456D01*
X109996811Y-102810698D01*
X109990007Y-102804073D01*
X109943272Y-102777375D01*
X109892272Y-102775375D01*
X109846001Y-102797955D01*
X109837444Y-102806107D01*
X109824893Y-102821436D01*
X109816188Y-102839618D01*
X109810631Y-102865909D01*
X109807526Y-102905562D01*
X109806176Y-102963832D01*
X109805886Y-103044173D01*
X109805886Y-103248646D01*
X109760177Y-103264580D01*
X109727713Y-103275420D01*
X109709901Y-103280468D01*
X109709377Y-103280514D01*
X109708037Y-103266623D01*
X109706828Y-103227439D01*
X109705801Y-103166700D01*
X109705002Y-103088141D01*
X109704481Y-102995498D01*
X109704286Y-102892509D01*
X109704286Y-102495342D01*
X109751457Y-102475444D01*
X109798629Y-102455547D01*
X109805886Y-102577289D01*
G37*
X109805886Y-102577289D02*
X109810139Y-102636613D01*
X109815025Y-102671572D01*
X109821795Y-102686820D01*
X109831702Y-102687015D01*
X109834914Y-102685195D01*
X109877644Y-102672015D01*
X109933227Y-102672785D01*
X109989737Y-102686333D01*
X110025082Y-102703861D01*
X110061321Y-102731861D01*
X110087813Y-102763549D01*
X110105999Y-102803813D01*
X110117322Y-102857543D01*
X110123222Y-102929626D01*
X110125143Y-103024951D01*
X110125177Y-103043237D01*
X110125200Y-103248646D01*
X110079491Y-103264580D01*
X110047027Y-103275420D01*
X110029215Y-103280468D01*
X110028691Y-103280514D01*
X110026937Y-103266828D01*
X110025444Y-103229076D01*
X110024326Y-103172224D01*
X110023697Y-103101234D01*
X110023600Y-103058073D01*
X110023398Y-102972973D01*
X110022358Y-102911981D01*
X110019831Y-102870177D01*
X110015164Y-102842642D01*
X110007707Y-102824456D01*
X109996811Y-102810698D01*
X109990007Y-102804073D01*
X109943272Y-102777375D01*
X109892272Y-102775375D01*
X109846001Y-102797955D01*
X109837444Y-102806107D01*
X109824893Y-102821436D01*
X109816188Y-102839618D01*
X109810631Y-102865909D01*
X109807526Y-102905562D01*
X109806176Y-102963832D01*
X109805886Y-103044173D01*
X109805886Y-103248646D01*
X109760177Y-103264580D01*
X109727713Y-103275420D01*
X109709901Y-103280468D01*
X109709377Y-103280514D01*
X109708037Y-103266623D01*
X109706828Y-103227439D01*
X109705801Y-103166700D01*
X109705002Y-103088141D01*
X109704481Y-102995498D01*
X109704286Y-102892509D01*
X109704286Y-102495342D01*
X109751457Y-102475444D01*
X109798629Y-102455547D01*
X109805886Y-102577289D01*
G36*
X108598303Y-102657239D02*
G01*
X108655527Y-102695735D01*
X108699749Y-102751335D01*
X108726167Y-102822086D01*
X108731510Y-102874162D01*
X108730903Y-102895893D01*
X108725822Y-102912531D01*
X108711855Y-102927437D01*
X108684589Y-102943973D01*
X108639612Y-102965498D01*
X108572511Y-102995374D01*
X108572171Y-102995524D01*
X108510407Y-103023813D01*
X108459759Y-103048933D01*
X108425404Y-103068179D01*
X108412518Y-103078848D01*
X108412514Y-103078934D01*
X108423872Y-103102166D01*
X108450431Y-103127774D01*
X108480923Y-103146221D01*
X108496370Y-103149886D01*
X108538515Y-103137212D01*
X108574808Y-103105471D01*
X108592517Y-103070572D01*
X108609552Y-103044845D01*
X108642922Y-103015546D01*
X108682149Y-102990235D01*
X108716756Y-102976471D01*
X108723993Y-102975714D01*
X108732139Y-102988160D01*
X108732630Y-103019972D01*
X108726643Y-103062866D01*
X108715357Y-103108558D01*
X108699950Y-103148761D01*
X108699171Y-103150322D01*
X108652804Y-103215062D01*
X108592711Y-103259097D01*
X108524465Y-103280711D01*
X108453638Y-103278185D01*
X108385804Y-103249804D01*
X108382788Y-103247808D01*
X108329427Y-103199448D01*
X108294340Y-103136352D01*
X108274922Y-103053387D01*
X108272316Y-103030078D01*
X108267701Y-102920055D01*
X108273233Y-102868748D01*
X108412514Y-102868748D01*
X108414324Y-102900753D01*
X108424222Y-102910093D01*
X108448898Y-102903105D01*
X108487795Y-102886587D01*
X108531275Y-102865881D01*
X108532356Y-102865333D01*
X108569209Y-102845949D01*
X108584000Y-102833013D01*
X108580353Y-102819451D01*
X108564995Y-102801632D01*
X108525923Y-102775845D01*
X108483846Y-102773950D01*
X108446103Y-102792717D01*
X108420034Y-102828915D01*
X108412514Y-102868748D01*
X108273233Y-102868748D01*
X108277194Y-102832027D01*
X108301550Y-102762212D01*
X108335456Y-102713302D01*
X108396653Y-102663878D01*
X108464063Y-102639359D01*
X108532880Y-102637797D01*
X108598303Y-102657239D01*
G37*
X108598303Y-102657239D02*
X108655527Y-102695735D01*
X108699749Y-102751335D01*
X108726167Y-102822086D01*
X108731510Y-102874162D01*
X108730903Y-102895893D01*
X108725822Y-102912531D01*
X108711855Y-102927437D01*
X108684589Y-102943973D01*
X108639612Y-102965498D01*
X108572511Y-102995374D01*
X108572171Y-102995524D01*
X108510407Y-103023813D01*
X108459759Y-103048933D01*
X108425404Y-103068179D01*
X108412518Y-103078848D01*
X108412514Y-103078934D01*
X108423872Y-103102166D01*
X108450431Y-103127774D01*
X108480923Y-103146221D01*
X108496370Y-103149886D01*
X108538515Y-103137212D01*
X108574808Y-103105471D01*
X108592517Y-103070572D01*
X108609552Y-103044845D01*
X108642922Y-103015546D01*
X108682149Y-102990235D01*
X108716756Y-102976471D01*
X108723993Y-102975714D01*
X108732139Y-102988160D01*
X108732630Y-103019972D01*
X108726643Y-103062866D01*
X108715357Y-103108558D01*
X108699950Y-103148761D01*
X108699171Y-103150322D01*
X108652804Y-103215062D01*
X108592711Y-103259097D01*
X108524465Y-103280711D01*
X108453638Y-103278185D01*
X108385804Y-103249804D01*
X108382788Y-103247808D01*
X108329427Y-103199448D01*
X108294340Y-103136352D01*
X108274922Y-103053387D01*
X108272316Y-103030078D01*
X108267701Y-102920055D01*
X108273233Y-102868748D01*
X108412514Y-102868748D01*
X108414324Y-102900753D01*
X108424222Y-102910093D01*
X108448898Y-102903105D01*
X108487795Y-102886587D01*
X108531275Y-102865881D01*
X108532356Y-102865333D01*
X108569209Y-102845949D01*
X108584000Y-102833013D01*
X108580353Y-102819451D01*
X108564995Y-102801632D01*
X108525923Y-102775845D01*
X108483846Y-102773950D01*
X108446103Y-102792717D01*
X108420034Y-102828915D01*
X108412514Y-102868748D01*
X108273233Y-102868748D01*
X108277194Y-102832027D01*
X108301550Y-102762212D01*
X108335456Y-102713302D01*
X108396653Y-102663878D01*
X108464063Y-102639359D01*
X108532880Y-102637797D01*
X108598303Y-102657239D01*
G36*
X107471115Y-102647962D02*
G01*
X107539145Y-102683733D01*
X107589351Y-102741301D01*
X107607185Y-102778312D01*
X107621063Y-102833882D01*
X107628167Y-102904096D01*
X107628840Y-102980727D01*
X107623427Y-103055552D01*
X107612270Y-103120342D01*
X107595714Y-103166873D01*
X107590626Y-103174887D01*
X107530355Y-103234707D01*
X107458769Y-103270535D01*
X107381092Y-103281020D01*
X107302548Y-103264810D01*
X107280689Y-103255092D01*
X107238122Y-103225143D01*
X107200763Y-103185433D01*
X107197232Y-103180397D01*
X107182881Y-103156124D01*
X107173394Y-103130178D01*
X107167790Y-103096022D01*
X107165086Y-103047119D01*
X107164299Y-102976935D01*
X107164286Y-102961200D01*
X107164322Y-102956192D01*
X107309429Y-102956192D01*
X107310273Y-103022430D01*
X107313596Y-103066386D01*
X107320583Y-103094779D01*
X107332416Y-103114325D01*
X107338457Y-103120857D01*
X107373186Y-103145680D01*
X107406903Y-103144548D01*
X107440995Y-103123016D01*
X107461329Y-103100029D01*
X107473371Y-103066478D01*
X107480134Y-103013569D01*
X107480598Y-103007399D01*
X107481752Y-102911513D01*
X107469688Y-102840299D01*
X107444570Y-102794194D01*
X107406560Y-102773635D01*
X107392992Y-102772514D01*
X107357364Y-102778152D01*
X107332994Y-102797686D01*
X107318093Y-102835042D01*
X107310875Y-102894150D01*
X107309429Y-102956192D01*
X107164322Y-102956192D01*
X107164826Y-102886413D01*
X107167096Y-102834159D01*
X107172068Y-102797949D01*
X107180713Y-102771299D01*
X107194005Y-102747722D01*
X107196943Y-102743338D01*
X107246313Y-102684249D01*
X107300109Y-102649947D01*
X107365602Y-102636331D01*
X107387842Y-102635665D01*
X107471115Y-102647962D01*
G37*
X107471115Y-102647962D02*
X107539145Y-102683733D01*
X107589351Y-102741301D01*
X107607185Y-102778312D01*
X107621063Y-102833882D01*
X107628167Y-102904096D01*
X107628840Y-102980727D01*
X107623427Y-103055552D01*
X107612270Y-103120342D01*
X107595714Y-103166873D01*
X107590626Y-103174887D01*
X107530355Y-103234707D01*
X107458769Y-103270535D01*
X107381092Y-103281020D01*
X107302548Y-103264810D01*
X107280689Y-103255092D01*
X107238122Y-103225143D01*
X107200763Y-103185433D01*
X107197232Y-103180397D01*
X107182881Y-103156124D01*
X107173394Y-103130178D01*
X107167790Y-103096022D01*
X107165086Y-103047119D01*
X107164299Y-102976935D01*
X107164286Y-102961200D01*
X107164322Y-102956192D01*
X107309429Y-102956192D01*
X107310273Y-103022430D01*
X107313596Y-103066386D01*
X107320583Y-103094779D01*
X107332416Y-103114325D01*
X107338457Y-103120857D01*
X107373186Y-103145680D01*
X107406903Y-103144548D01*
X107440995Y-103123016D01*
X107461329Y-103100029D01*
X107473371Y-103066478D01*
X107480134Y-103013569D01*
X107480598Y-103007399D01*
X107481752Y-102911513D01*
X107469688Y-102840299D01*
X107444570Y-102794194D01*
X107406560Y-102773635D01*
X107392992Y-102772514D01*
X107357364Y-102778152D01*
X107332994Y-102797686D01*
X107318093Y-102835042D01*
X107310875Y-102894150D01*
X107309429Y-102956192D01*
X107164322Y-102956192D01*
X107164826Y-102886413D01*
X107167096Y-102834159D01*
X107172068Y-102797949D01*
X107180713Y-102771299D01*
X107194005Y-102747722D01*
X107196943Y-102743338D01*
X107246313Y-102684249D01*
X107300109Y-102649947D01*
X107365602Y-102636331D01*
X107387842Y-102635665D01*
X107471115Y-102647962D01*
G36*
X109146093Y-102653780D02*
G01*
X109192672Y-102680723D01*
X109225057Y-102707466D01*
X109248742Y-102735484D01*
X109265059Y-102769748D01*
X109275339Y-102815227D01*
X109280914Y-102876892D01*
X109283116Y-102959711D01*
X109283371Y-103019246D01*
X109283371Y-103238391D01*
X109221686Y-103266044D01*
X109160000Y-103293697D01*
X109152743Y-103053670D01*
X109149744Y-102964028D01*
X109146598Y-102898962D01*
X109142701Y-102854026D01*
X109137447Y-102824770D01*
X109130231Y-102806748D01*
X109120450Y-102795511D01*
X109117312Y-102793079D01*
X109069761Y-102774083D01*
X109021697Y-102781600D01*
X108993086Y-102801543D01*
X108981447Y-102815675D01*
X108973391Y-102834220D01*
X108968271Y-102862334D01*
X108965441Y-102905173D01*
X108964256Y-102967895D01*
X108964057Y-103033261D01*
X108964018Y-103115268D01*
X108962614Y-103173316D01*
X108957914Y-103212465D01*
X108947987Y-103237780D01*
X108930903Y-103254323D01*
X108904732Y-103267156D01*
X108869775Y-103280491D01*
X108831596Y-103295007D01*
X108836141Y-103037389D01*
X108837971Y-102944519D01*
X108840112Y-102875889D01*
X108843181Y-102826711D01*
X108847794Y-102792198D01*
X108854568Y-102767562D01*
X108864119Y-102748016D01*
X108875634Y-102730770D01*
X108931190Y-102675680D01*
X108998980Y-102643822D01*
X109072713Y-102636191D01*
X109146093Y-102653780D01*
G37*
X109146093Y-102653780D02*
X109192672Y-102680723D01*
X109225057Y-102707466D01*
X109248742Y-102735484D01*
X109265059Y-102769748D01*
X109275339Y-102815227D01*
X109280914Y-102876892D01*
X109283116Y-102959711D01*
X109283371Y-103019246D01*
X109283371Y-103238391D01*
X109221686Y-103266044D01*
X109160000Y-103293697D01*
X109152743Y-103053670D01*
X109149744Y-102964028D01*
X109146598Y-102898962D01*
X109142701Y-102854026D01*
X109137447Y-102824770D01*
X109130231Y-102806748D01*
X109120450Y-102795511D01*
X109117312Y-102793079D01*
X109069761Y-102774083D01*
X109021697Y-102781600D01*
X108993086Y-102801543D01*
X108981447Y-102815675D01*
X108973391Y-102834220D01*
X108968271Y-102862334D01*
X108965441Y-102905173D01*
X108964256Y-102967895D01*
X108964057Y-103033261D01*
X108964018Y-103115268D01*
X108962614Y-103173316D01*
X108957914Y-103212465D01*
X108947987Y-103237780D01*
X108930903Y-103254323D01*
X108904732Y-103267156D01*
X108869775Y-103280491D01*
X108831596Y-103295007D01*
X108836141Y-103037389D01*
X108837971Y-102944519D01*
X108840112Y-102875889D01*
X108843181Y-102826711D01*
X108847794Y-102792198D01*
X108854568Y-102767562D01*
X108864119Y-102748016D01*
X108875634Y-102730770D01*
X108931190Y-102675680D01*
X108998980Y-102643822D01*
X109072713Y-102636191D01*
X109146093Y-102653780D01*
G36*
X108029744Y-102645918D02*
G01*
X108085201Y-102673568D01*
X108134148Y-102724480D01*
X108147629Y-102743338D01*
X108162314Y-102768015D01*
X108171842Y-102794816D01*
X108177293Y-102830587D01*
X108179747Y-102882169D01*
X108180286Y-102950267D01*
X108177852Y-103043588D01*
X108169394Y-103113657D01*
X108153174Y-103165931D01*
X108127454Y-103205869D01*
X108090497Y-103238929D01*
X108087782Y-103240886D01*
X108051360Y-103260908D01*
X108007502Y-103270815D01*
X107951724Y-103273257D01*
X107861048Y-103273257D01*
X107861010Y-103361283D01*
X107860166Y-103410308D01*
X107855024Y-103439065D01*
X107841587Y-103456311D01*
X107815858Y-103470808D01*
X107809679Y-103473769D01*
X107780764Y-103487648D01*
X107758376Y-103496414D01*
X107741729Y-103497171D01*
X107730036Y-103487023D01*
X107722510Y-103463073D01*
X107718366Y-103422426D01*
X107716815Y-103362186D01*
X107717071Y-103279455D01*
X107718349Y-103171339D01*
X107718748Y-103139000D01*
X107720185Y-103027524D01*
X107721472Y-102954603D01*
X107860971Y-102954603D01*
X107861755Y-103016499D01*
X107865240Y-103056997D01*
X107873124Y-103083708D01*
X107887105Y-103104244D01*
X107896597Y-103114260D01*
X107935404Y-103143567D01*
X107969763Y-103145952D01*
X108005216Y-103121750D01*
X108006114Y-103120857D01*
X108020539Y-103102153D01*
X108029313Y-103076732D01*
X108033739Y-103037584D01*
X108035118Y-102977697D01*
X108035143Y-102964430D01*
X108031812Y-102881901D01*
X108020969Y-102824691D01*
X108001340Y-102789766D01*
X107971650Y-102774094D01*
X107954491Y-102772514D01*
X107913766Y-102779926D01*
X107885832Y-102804330D01*
X107869017Y-102848980D01*
X107861650Y-102917130D01*
X107860971Y-102954603D01*
X107721472Y-102954603D01*
X107721708Y-102941245D01*
X107723677Y-102876333D01*
X107726450Y-102828958D01*
X107730388Y-102795290D01*
X107735849Y-102771498D01*
X107743192Y-102753753D01*
X107752777Y-102738224D01*
X107756887Y-102732381D01*
X107811405Y-102677185D01*
X107880336Y-102645890D01*
X107960072Y-102637165D01*
X108029744Y-102645918D01*
G37*
X108029744Y-102645918D02*
X108085201Y-102673568D01*
X108134148Y-102724480D01*
X108147629Y-102743338D01*
X108162314Y-102768015D01*
X108171842Y-102794816D01*
X108177293Y-102830587D01*
X108179747Y-102882169D01*
X108180286Y-102950267D01*
X108177852Y-103043588D01*
X108169394Y-103113657D01*
X108153174Y-103165931D01*
X108127454Y-103205869D01*
X108090497Y-103238929D01*
X108087782Y-103240886D01*
X108051360Y-103260908D01*
X108007502Y-103270815D01*
X107951724Y-103273257D01*
X107861048Y-103273257D01*
X107861010Y-103361283D01*
X107860166Y-103410308D01*
X107855024Y-103439065D01*
X107841587Y-103456311D01*
X107815858Y-103470808D01*
X107809679Y-103473769D01*
X107780764Y-103487648D01*
X107758376Y-103496414D01*
X107741729Y-103497171D01*
X107730036Y-103487023D01*
X107722510Y-103463073D01*
X107718366Y-103422426D01*
X107716815Y-103362186D01*
X107717071Y-103279455D01*
X107718349Y-103171339D01*
X107718748Y-103139000D01*
X107720185Y-103027524D01*
X107721472Y-102954603D01*
X107860971Y-102954603D01*
X107861755Y-103016499D01*
X107865240Y-103056997D01*
X107873124Y-103083708D01*
X107887105Y-103104244D01*
X107896597Y-103114260D01*
X107935404Y-103143567D01*
X107969763Y-103145952D01*
X108005216Y-103121750D01*
X108006114Y-103120857D01*
X108020539Y-103102153D01*
X108029313Y-103076732D01*
X108033739Y-103037584D01*
X108035118Y-102977697D01*
X108035143Y-102964430D01*
X108031812Y-102881901D01*
X108020969Y-102824691D01*
X108001340Y-102789766D01*
X107971650Y-102774094D01*
X107954491Y-102772514D01*
X107913766Y-102779926D01*
X107885832Y-102804330D01*
X107869017Y-102848980D01*
X107861650Y-102917130D01*
X107860971Y-102954603D01*
X107721472Y-102954603D01*
X107721708Y-102941245D01*
X107723677Y-102876333D01*
X107726450Y-102828958D01*
X107730388Y-102795290D01*
X107735849Y-102771498D01*
X107743192Y-102753753D01*
X107752777Y-102738224D01*
X107756887Y-102732381D01*
X107811405Y-102677185D01*
X107880336Y-102645890D01*
X107960072Y-102637165D01*
X108029744Y-102645918D01*
%TO.C,JP8*%
D10*
X75252380Y-56133333D02*
X75966666Y-56133333D01*
X76109523Y-56180952D01*
X76204761Y-56276190D01*
X76252380Y-56419047D01*
X76252380Y-56514285D01*
X76252380Y-55657142D02*
X75252380Y-55657142D01*
X75252380Y-55276190D01*
X75300000Y-55180952D01*
X75347619Y-55133333D01*
X75442857Y-55085714D01*
X75585714Y-55085714D01*
X75680952Y-55133333D01*
X75728571Y-55180952D01*
X75776190Y-55276190D01*
X75776190Y-55657142D01*
X75680952Y-54514285D02*
X75633333Y-54609523D01*
X75585714Y-54657142D01*
X75490476Y-54704761D01*
X75442857Y-54704761D01*
X75347619Y-54657142D01*
X75300000Y-54609523D01*
X75252380Y-54514285D01*
X75252380Y-54323809D01*
X75300000Y-54228571D01*
X75347619Y-54180952D01*
X75442857Y-54133333D01*
X75490476Y-54133333D01*
X75585714Y-54180952D01*
X75633333Y-54228571D01*
X75680952Y-54323809D01*
X75680952Y-54514285D01*
X75728571Y-54609523D01*
X75776190Y-54657142D01*
X75871428Y-54704761D01*
X76061904Y-54704761D01*
X76157142Y-54657142D01*
X76204761Y-54609523D01*
X76252380Y-54514285D01*
X76252380Y-54323809D01*
X76204761Y-54228571D01*
X76157142Y-54180952D01*
X76061904Y-54133333D01*
X75871428Y-54133333D01*
X75776190Y-54180952D01*
X75728571Y-54228571D01*
X75680952Y-54323809D01*
%TO.C,JP7*%
X77652380Y-56083333D02*
X78366666Y-56083333D01*
X78509523Y-56130952D01*
X78604761Y-56226190D01*
X78652380Y-56369047D01*
X78652380Y-56464285D01*
X78652380Y-55607142D02*
X77652380Y-55607142D01*
X77652380Y-55226190D01*
X77700000Y-55130952D01*
X77747619Y-55083333D01*
X77842857Y-55035714D01*
X77985714Y-55035714D01*
X78080952Y-55083333D01*
X78128571Y-55130952D01*
X78176190Y-55226190D01*
X78176190Y-55607142D01*
X77652380Y-54702380D02*
X77652380Y-54035714D01*
X78652380Y-54464285D01*
%TO.C,JP6*%
X100152380Y-67633333D02*
X100866666Y-67633333D01*
X101009523Y-67680952D01*
X101104761Y-67776190D01*
X101152380Y-67919047D01*
X101152380Y-68014285D01*
X101152380Y-67157142D02*
X100152380Y-67157142D01*
X100152380Y-66776190D01*
X100200000Y-66680952D01*
X100247619Y-66633333D01*
X100342857Y-66585714D01*
X100485714Y-66585714D01*
X100580952Y-66633333D01*
X100628571Y-66680952D01*
X100676190Y-66776190D01*
X100676190Y-67157142D01*
X100152380Y-65728571D02*
X100152380Y-65919047D01*
X100200000Y-66014285D01*
X100247619Y-66061904D01*
X100390476Y-66157142D01*
X100580952Y-66204761D01*
X100961904Y-66204761D01*
X101057142Y-66157142D01*
X101104761Y-66109523D01*
X101152380Y-66014285D01*
X101152380Y-65823809D01*
X101104761Y-65728571D01*
X101057142Y-65680952D01*
X100961904Y-65633333D01*
X100723809Y-65633333D01*
X100628571Y-65680952D01*
X100580952Y-65728571D01*
X100533333Y-65823809D01*
X100533333Y-66014285D01*
X100580952Y-66109523D01*
X100628571Y-66157142D01*
X100723809Y-66204761D01*
%TO.C,JP5*%
X97652380Y-67633333D02*
X98366666Y-67633333D01*
X98509523Y-67680952D01*
X98604761Y-67776190D01*
X98652380Y-67919047D01*
X98652380Y-68014285D01*
X98652380Y-67157142D02*
X97652380Y-67157142D01*
X97652380Y-66776190D01*
X97700000Y-66680952D01*
X97747619Y-66633333D01*
X97842857Y-66585714D01*
X97985714Y-66585714D01*
X98080952Y-66633333D01*
X98128571Y-66680952D01*
X98176190Y-66776190D01*
X98176190Y-67157142D01*
X97652380Y-65680952D02*
X97652380Y-66157142D01*
X98128571Y-66204761D01*
X98080952Y-66157142D01*
X98033333Y-66061904D01*
X98033333Y-65823809D01*
X98080952Y-65728571D01*
X98128571Y-65680952D01*
X98223809Y-65633333D01*
X98461904Y-65633333D01*
X98557142Y-65680952D01*
X98604761Y-65728571D01*
X98652380Y-65823809D01*
X98652380Y-66061904D01*
X98604761Y-66157142D01*
X98557142Y-66204761D01*
%TO.C,JP4*%
X85316666Y-60752380D02*
X85316666Y-61466666D01*
X85269047Y-61609523D01*
X85173809Y-61704761D01*
X85030952Y-61752380D01*
X84935714Y-61752380D01*
X85792857Y-61752380D02*
X85792857Y-60752380D01*
X86173809Y-60752380D01*
X86269047Y-60800000D01*
X86316666Y-60847619D01*
X86364285Y-60942857D01*
X86364285Y-61085714D01*
X86316666Y-61180952D01*
X86269047Y-61228571D01*
X86173809Y-61276190D01*
X85792857Y-61276190D01*
X87221428Y-61085714D02*
X87221428Y-61752380D01*
X86983333Y-60704761D02*
X86745238Y-61419047D01*
X87364285Y-61419047D01*
%TO.C,JP3*%
X85316666Y-62752380D02*
X85316666Y-63466666D01*
X85269047Y-63609523D01*
X85173809Y-63704761D01*
X85030952Y-63752380D01*
X84935714Y-63752380D01*
X85792857Y-63752380D02*
X85792857Y-62752380D01*
X86173809Y-62752380D01*
X86269047Y-62800000D01*
X86316666Y-62847619D01*
X86364285Y-62942857D01*
X86364285Y-63085714D01*
X86316666Y-63180952D01*
X86269047Y-63228571D01*
X86173809Y-63276190D01*
X85792857Y-63276190D01*
X86697619Y-62752380D02*
X87316666Y-62752380D01*
X86983333Y-63133333D01*
X87126190Y-63133333D01*
X87221428Y-63180952D01*
X87269047Y-63228571D01*
X87316666Y-63323809D01*
X87316666Y-63561904D01*
X87269047Y-63657142D01*
X87221428Y-63704761D01*
X87126190Y-63752380D01*
X86840476Y-63752380D01*
X86745238Y-63704761D01*
X86697619Y-63657142D01*
%TO.C,R13*%
X111117142Y-113124880D02*
X110783809Y-112648690D01*
X110545714Y-113124880D02*
X110545714Y-112124880D01*
X110926666Y-112124880D01*
X111021904Y-112172500D01*
X111069523Y-112220119D01*
X111117142Y-112315357D01*
X111117142Y-112458214D01*
X111069523Y-112553452D01*
X111021904Y-112601071D01*
X110926666Y-112648690D01*
X110545714Y-112648690D01*
X112069523Y-113124880D02*
X111498095Y-113124880D01*
X111783809Y-113124880D02*
X111783809Y-112124880D01*
X111688571Y-112267738D01*
X111593333Y-112362976D01*
X111498095Y-112410595D01*
X112402857Y-112124880D02*
X113021904Y-112124880D01*
X112688571Y-112505833D01*
X112831428Y-112505833D01*
X112926666Y-112553452D01*
X112974285Y-112601071D01*
X113021904Y-112696309D01*
X113021904Y-112934404D01*
X112974285Y-113029642D01*
X112926666Y-113077261D01*
X112831428Y-113124880D01*
X112545714Y-113124880D01*
X112450476Y-113077261D01*
X112402857Y-113029642D01*
%TO.C,R12*%
X122293142Y-113228380D02*
X121959809Y-112752190D01*
X121721714Y-113228380D02*
X121721714Y-112228380D01*
X122102666Y-112228380D01*
X122197904Y-112276000D01*
X122245523Y-112323619D01*
X122293142Y-112418857D01*
X122293142Y-112561714D01*
X122245523Y-112656952D01*
X122197904Y-112704571D01*
X122102666Y-112752190D01*
X121721714Y-112752190D01*
X123245523Y-113228380D02*
X122674095Y-113228380D01*
X122959809Y-113228380D02*
X122959809Y-112228380D01*
X122864571Y-112371238D01*
X122769333Y-112466476D01*
X122674095Y-112514095D01*
X123626476Y-112323619D02*
X123674095Y-112276000D01*
X123769333Y-112228380D01*
X124007428Y-112228380D01*
X124102666Y-112276000D01*
X124150285Y-112323619D01*
X124197904Y-112418857D01*
X124197904Y-112514095D01*
X124150285Y-112656952D01*
X123578857Y-113228380D01*
X124197904Y-113228380D01*
%TO.C,R11*%
X92829142Y-113632880D02*
X92495809Y-113156690D01*
X92257714Y-113632880D02*
X92257714Y-112632880D01*
X92638666Y-112632880D01*
X92733904Y-112680500D01*
X92781523Y-112728119D01*
X92829142Y-112823357D01*
X92829142Y-112966214D01*
X92781523Y-113061452D01*
X92733904Y-113109071D01*
X92638666Y-113156690D01*
X92257714Y-113156690D01*
X93781523Y-113632880D02*
X93210095Y-113632880D01*
X93495809Y-113632880D02*
X93495809Y-112632880D01*
X93400571Y-112775738D01*
X93305333Y-112870976D01*
X93210095Y-112918595D01*
X94733904Y-113632880D02*
X94162476Y-113632880D01*
X94448190Y-113632880D02*
X94448190Y-112632880D01*
X94352952Y-112775738D01*
X94257714Y-112870976D01*
X94162476Y-112918595D01*
%TO.C,R10*%
X102481142Y-113124880D02*
X102147809Y-112648690D01*
X101909714Y-113124880D02*
X101909714Y-112124880D01*
X102290666Y-112124880D01*
X102385904Y-112172500D01*
X102433523Y-112220119D01*
X102481142Y-112315357D01*
X102481142Y-112458214D01*
X102433523Y-112553452D01*
X102385904Y-112601071D01*
X102290666Y-112648690D01*
X101909714Y-112648690D01*
X103433523Y-113124880D02*
X102862095Y-113124880D01*
X103147809Y-113124880D02*
X103147809Y-112124880D01*
X103052571Y-112267738D01*
X102957333Y-112362976D01*
X102862095Y-112410595D01*
X104052571Y-112124880D02*
X104147809Y-112124880D01*
X104243047Y-112172500D01*
X104290666Y-112220119D01*
X104338285Y-112315357D01*
X104385904Y-112505833D01*
X104385904Y-112743928D01*
X104338285Y-112934404D01*
X104290666Y-113029642D01*
X104243047Y-113077261D01*
X104147809Y-113124880D01*
X104052571Y-113124880D01*
X103957333Y-113077261D01*
X103909714Y-113029642D01*
X103862095Y-112934404D01*
X103814476Y-112743928D01*
X103814476Y-112505833D01*
X103862095Y-112315357D01*
X103909714Y-112220119D01*
X103957333Y-112172500D01*
X104052571Y-112124880D01*
%TO.C,J5*%
X124666666Y-47712380D02*
X124666666Y-48426666D01*
X124619047Y-48569523D01*
X124523809Y-48664761D01*
X124380952Y-48712380D01*
X124285714Y-48712380D01*
X125619047Y-47712380D02*
X125142857Y-47712380D01*
X125095238Y-48188571D01*
X125142857Y-48140952D01*
X125238095Y-48093333D01*
X125476190Y-48093333D01*
X125571428Y-48140952D01*
X125619047Y-48188571D01*
X125666666Y-48283809D01*
X125666666Y-48521904D01*
X125619047Y-48617142D01*
X125571428Y-48664761D01*
X125476190Y-48712380D01*
X125238095Y-48712380D01*
X125142857Y-48664761D01*
X125095238Y-48617142D01*
%TO.C,J4*%
X124634666Y-27392380D02*
X124634666Y-28106666D01*
X124587047Y-28249523D01*
X124491809Y-28344761D01*
X124348952Y-28392380D01*
X124253714Y-28392380D01*
X125539428Y-27725714D02*
X125539428Y-28392380D01*
X125301333Y-27344761D02*
X125063238Y-28059047D01*
X125682285Y-28059047D01*
%TO.C,JP2*%
X123666666Y-52372380D02*
X123666666Y-53086666D01*
X123619047Y-53229523D01*
X123523809Y-53324761D01*
X123380952Y-53372380D01*
X123285714Y-53372380D01*
X124142857Y-53372380D02*
X124142857Y-52372380D01*
X124523809Y-52372380D01*
X124619047Y-52420000D01*
X124666666Y-52467619D01*
X124714285Y-52562857D01*
X124714285Y-52705714D01*
X124666666Y-52800952D01*
X124619047Y-52848571D01*
X124523809Y-52896190D01*
X124142857Y-52896190D01*
X125095238Y-52467619D02*
X125142857Y-52420000D01*
X125238095Y-52372380D01*
X125476190Y-52372380D01*
X125571428Y-52420000D01*
X125619047Y-52467619D01*
X125666666Y-52562857D01*
X125666666Y-52658095D01*
X125619047Y-52800952D01*
X125047619Y-53372380D01*
X125666666Y-53372380D01*
%TO.C,J1*%
X46666666Y-20952380D02*
X46666666Y-21666666D01*
X46619047Y-21809523D01*
X46523809Y-21904761D01*
X46380952Y-21952380D01*
X46285714Y-21952380D01*
X47666666Y-21952380D02*
X47095238Y-21952380D01*
X47380952Y-21952380D02*
X47380952Y-20952380D01*
X47285714Y-21095238D01*
X47190476Y-21190476D01*
X47095238Y-21238095D01*
X80166666Y-81476190D02*
X80166666Y-81000000D01*
X80452380Y-81571428D02*
X79452380Y-81238095D01*
X80452380Y-80904761D01*
X79500000Y-80047619D02*
X79452380Y-80142857D01*
X79452380Y-80285714D01*
X79500000Y-80428571D01*
X79595238Y-80523809D01*
X79690476Y-80571428D01*
X79880952Y-80619047D01*
X80023809Y-80619047D01*
X80214285Y-80571428D01*
X80309523Y-80523809D01*
X80404761Y-80428571D01*
X80452380Y-80285714D01*
X80452380Y-80190476D01*
X80404761Y-80047619D01*
X80357142Y-80000000D01*
X80023809Y-80000000D01*
X80023809Y-80190476D01*
X80452380Y-79571428D02*
X79452380Y-79571428D01*
X80452380Y-79000000D01*
X79452380Y-79000000D01*
X80452380Y-78523809D02*
X79452380Y-78523809D01*
X79452380Y-78285714D01*
X79500000Y-78142857D01*
X79595238Y-78047619D01*
X79690476Y-78000000D01*
X79880952Y-77952380D01*
X80023809Y-77952380D01*
X80214285Y-78000000D01*
X80309523Y-78047619D01*
X80404761Y-78142857D01*
X80452380Y-78285714D01*
X80452380Y-78523809D01*
X79452380Y-76904761D02*
X79452380Y-76333333D01*
X80452380Y-76619047D02*
X79452380Y-76619047D01*
X79785714Y-76000000D02*
X80785714Y-76000000D01*
X79833333Y-76000000D02*
X79785714Y-75904761D01*
X79785714Y-75714285D01*
X79833333Y-75619047D01*
X79880952Y-75571428D01*
X79976190Y-75523809D01*
X80261904Y-75523809D01*
X80357142Y-75571428D01*
X80404761Y-75619047D01*
X80452380Y-75714285D01*
X80452380Y-75904761D01*
X80404761Y-76000000D01*
X80452380Y-74333333D02*
X79452380Y-74333333D01*
X80452380Y-73333333D02*
X80452380Y-73904761D01*
X80452380Y-73619047D02*
X79452380Y-73619047D01*
X79595238Y-73714285D01*
X79690476Y-73809523D01*
X79738095Y-73904761D01*
X80071428Y-72142857D02*
X80071428Y-71380952D01*
X80452380Y-71761904D02*
X79690476Y-71761904D01*
X79452380Y-70428571D02*
X79452380Y-70904761D01*
X79928571Y-70952380D01*
X79880952Y-70904761D01*
X79833333Y-70809523D01*
X79833333Y-70571428D01*
X79880952Y-70476190D01*
X79928571Y-70428571D01*
X80023809Y-70380952D01*
X80261904Y-70380952D01*
X80357142Y-70428571D01*
X80404761Y-70476190D01*
X80452380Y-70571428D01*
X80452380Y-70809523D01*
X80404761Y-70904761D01*
X80357142Y-70952380D01*
X79452380Y-70095238D02*
X80452380Y-69761904D01*
X79452380Y-69428571D01*
X80452380Y-69095238D02*
X79452380Y-69095238D01*
X79452380Y-68857142D01*
X79500000Y-68714285D01*
X79595238Y-68619047D01*
X79690476Y-68571428D01*
X79880952Y-68523809D01*
X80023809Y-68523809D01*
X80214285Y-68571428D01*
X80309523Y-68619047D01*
X80404761Y-68714285D01*
X80452380Y-68857142D01*
X80452380Y-69095238D01*
X124166666Y-83261904D02*
X124166666Y-82785714D01*
X124452380Y-83357142D02*
X123452380Y-83023809D01*
X124452380Y-82690476D01*
X123500000Y-81833333D02*
X123452380Y-81928571D01*
X123452380Y-82071428D01*
X123500000Y-82214285D01*
X123595238Y-82309523D01*
X123690476Y-82357142D01*
X123880952Y-82404761D01*
X124023809Y-82404761D01*
X124214285Y-82357142D01*
X124309523Y-82309523D01*
X124404761Y-82214285D01*
X124452380Y-82071428D01*
X124452380Y-81976190D01*
X124404761Y-81833333D01*
X124357142Y-81785714D01*
X124023809Y-81785714D01*
X124023809Y-81976190D01*
X124452380Y-81357142D02*
X123452380Y-81357142D01*
X124452380Y-80785714D01*
X123452380Y-80785714D01*
X124452380Y-80309523D02*
X123452380Y-80309523D01*
X123452380Y-80071428D01*
X123500000Y-79928571D01*
X123595238Y-79833333D01*
X123690476Y-79785714D01*
X123880952Y-79738095D01*
X124023809Y-79738095D01*
X124214285Y-79785714D01*
X124309523Y-79833333D01*
X124404761Y-79928571D01*
X124452380Y-80071428D01*
X124452380Y-80309523D01*
X124452380Y-78547619D02*
X123452380Y-78547619D01*
X123547619Y-78119047D02*
X123500000Y-78071428D01*
X123452380Y-77976190D01*
X123452380Y-77738095D01*
X123500000Y-77642857D01*
X123547619Y-77595238D01*
X123642857Y-77547619D01*
X123738095Y-77547619D01*
X123880952Y-77595238D01*
X124452380Y-78166666D01*
X124452380Y-77547619D01*
X124071428Y-76357142D02*
X124071428Y-75595238D01*
X124452380Y-75976190D02*
X123690476Y-75976190D01*
X123452380Y-74642857D02*
X123452380Y-75119047D01*
X123928571Y-75166666D01*
X123880952Y-75119047D01*
X123833333Y-75023809D01*
X123833333Y-74785714D01*
X123880952Y-74690476D01*
X123928571Y-74642857D01*
X124023809Y-74595238D01*
X124261904Y-74595238D01*
X124357142Y-74642857D01*
X124404761Y-74690476D01*
X124452380Y-74785714D01*
X124452380Y-75023809D01*
X124404761Y-75119047D01*
X124357142Y-75166666D01*
X123452380Y-74309523D02*
X124452380Y-73976190D01*
X123452380Y-73642857D01*
X124452380Y-73309523D02*
X123452380Y-73309523D01*
X123452380Y-73071428D01*
X123500000Y-72928571D01*
X123595238Y-72833333D01*
X123690476Y-72785714D01*
X123880952Y-72738095D01*
X124023809Y-72738095D01*
X124214285Y-72785714D01*
X124309523Y-72833333D01*
X124404761Y-72928571D01*
X124452380Y-73071428D01*
X124452380Y-73309523D01*
X88285714Y-43166666D02*
X88761904Y-43166666D01*
X88190476Y-43452380D02*
X88523809Y-42452380D01*
X88857142Y-43452380D01*
X89714285Y-42500000D02*
X89619047Y-42452380D01*
X89476190Y-42452380D01*
X89333333Y-42500000D01*
X89238095Y-42595238D01*
X89190476Y-42690476D01*
X89142857Y-42880952D01*
X89142857Y-43023809D01*
X89190476Y-43214285D01*
X89238095Y-43309523D01*
X89333333Y-43404761D01*
X89476190Y-43452380D01*
X89571428Y-43452380D01*
X89714285Y-43404761D01*
X89761904Y-43357142D01*
X89761904Y-43023809D01*
X89571428Y-43023809D01*
X90190476Y-43452380D02*
X90190476Y-42452380D01*
X90761904Y-43452380D01*
X90761904Y-42452380D01*
X91238095Y-43452380D02*
X91238095Y-42452380D01*
X91476190Y-42452380D01*
X91619047Y-42500000D01*
X91714285Y-42595238D01*
X91761904Y-42690476D01*
X91809523Y-42880952D01*
X91809523Y-43023809D01*
X91761904Y-43214285D01*
X91714285Y-43309523D01*
X91619047Y-43404761D01*
X91476190Y-43452380D01*
X91238095Y-43452380D01*
X93000000Y-43452380D02*
X93000000Y-42452380D01*
X93476190Y-43452380D02*
X93476190Y-42452380D01*
X93476190Y-42928571D02*
X94047619Y-42928571D01*
X94047619Y-43452380D02*
X94047619Y-42452380D01*
X94952380Y-42785714D02*
X94952380Y-43595238D01*
X94904761Y-43690476D01*
X94857142Y-43738095D01*
X94761904Y-43785714D01*
X94619047Y-43785714D01*
X94523809Y-43738095D01*
X94952380Y-43404761D02*
X94857142Y-43452380D01*
X94666666Y-43452380D01*
X94571428Y-43404761D01*
X94523809Y-43357142D01*
X94476190Y-43261904D01*
X94476190Y-42976190D01*
X94523809Y-42880952D01*
X94571428Y-42833333D01*
X94666666Y-42785714D01*
X94857142Y-42785714D01*
X94952380Y-42833333D01*
X95428571Y-43452380D02*
X95428571Y-42452380D01*
X95857142Y-43452380D02*
X95857142Y-42928571D01*
X95809523Y-42833333D01*
X95714285Y-42785714D01*
X95571428Y-42785714D01*
X95476190Y-42833333D01*
X95428571Y-42880952D01*
X97095238Y-43071428D02*
X97857142Y-43071428D01*
X97476190Y-43452380D02*
X97476190Y-42690476D01*
X98809523Y-42452380D02*
X98333333Y-42452380D01*
X98285714Y-42928571D01*
X98333333Y-42880952D01*
X98428571Y-42833333D01*
X98666666Y-42833333D01*
X98761904Y-42880952D01*
X98809523Y-42928571D01*
X98857142Y-43023809D01*
X98857142Y-43261904D01*
X98809523Y-43357142D01*
X98761904Y-43404761D01*
X98666666Y-43452380D01*
X98428571Y-43452380D01*
X98333333Y-43404761D01*
X98285714Y-43357142D01*
X99142857Y-42452380D02*
X99476190Y-43452380D01*
X99809523Y-42452380D01*
X100142857Y-43452380D02*
X100142857Y-42452380D01*
X100380952Y-42452380D01*
X100523809Y-42500000D01*
X100619047Y-42595238D01*
X100666666Y-42690476D01*
X100714285Y-42880952D01*
X100714285Y-43023809D01*
X100666666Y-43214285D01*
X100619047Y-43309523D01*
X100523809Y-43404761D01*
X100380952Y-43452380D01*
X100142857Y-43452380D01*
X48166666Y-63952380D02*
X48166666Y-62952380D01*
X48404761Y-62952380D01*
X48547619Y-63000000D01*
X48642857Y-63095238D01*
X48690476Y-63190476D01*
X48738095Y-63380952D01*
X48738095Y-63523809D01*
X48690476Y-63714285D01*
X48642857Y-63809523D01*
X48547619Y-63904761D01*
X48404761Y-63952380D01*
X48166666Y-63952380D01*
X49690476Y-63000000D02*
X49595238Y-62952380D01*
X49452380Y-62952380D01*
X49309523Y-63000000D01*
X49214285Y-63095238D01*
X49166666Y-63190476D01*
X49119047Y-63380952D01*
X49119047Y-63523809D01*
X49166666Y-63714285D01*
X49214285Y-63809523D01*
X49309523Y-63904761D01*
X49452380Y-63952380D01*
X49547619Y-63952380D01*
X49690476Y-63904761D01*
X49738095Y-63857142D01*
X49738095Y-63523809D01*
X49547619Y-63523809D01*
X50166666Y-63952380D02*
X50166666Y-62952380D01*
X50738095Y-63952380D01*
X50738095Y-62952380D01*
X51214285Y-63952380D02*
X51214285Y-62952380D01*
X51452380Y-62952380D01*
X51595238Y-63000000D01*
X51690476Y-63095238D01*
X51738095Y-63190476D01*
X51785714Y-63380952D01*
X51785714Y-63523809D01*
X51738095Y-63714285D01*
X51690476Y-63809523D01*
X51595238Y-63904761D01*
X51452380Y-63952380D01*
X51214285Y-63952380D01*
X52976190Y-63952380D02*
X52976190Y-62952380D01*
X52976190Y-63428571D02*
X53547619Y-63428571D01*
X53547619Y-63952380D02*
X53547619Y-62952380D01*
X54547619Y-63952380D02*
X53976190Y-63952380D01*
X54261904Y-63952380D02*
X54261904Y-62952380D01*
X54166666Y-63095238D01*
X54071428Y-63190476D01*
X53976190Y-63238095D01*
X56214285Y-63952380D02*
X55738095Y-63952380D01*
X55738095Y-62952380D01*
X57071428Y-63952380D02*
X56500000Y-63952380D01*
X56785714Y-63952380D02*
X56785714Y-62952380D01*
X56690476Y-63095238D01*
X56595238Y-63190476D01*
X56500000Y-63238095D01*
X58261904Y-63571428D02*
X59023809Y-63571428D01*
X58642857Y-63952380D02*
X58642857Y-63190476D01*
X59976190Y-62952380D02*
X59500000Y-62952380D01*
X59452380Y-63428571D01*
X59500000Y-63380952D01*
X59595238Y-63333333D01*
X59833333Y-63333333D01*
X59928571Y-63380952D01*
X59976190Y-63428571D01*
X60023809Y-63523809D01*
X60023809Y-63761904D01*
X59976190Y-63857142D01*
X59928571Y-63904761D01*
X59833333Y-63952380D01*
X59595238Y-63952380D01*
X59500000Y-63904761D01*
X59452380Y-63857142D01*
X60309523Y-62952380D02*
X60642857Y-63952380D01*
X60976190Y-62952380D01*
X61309523Y-63952380D02*
X61309523Y-62952380D01*
X61547619Y-62952380D01*
X61690476Y-63000000D01*
X61785714Y-63095238D01*
X61833333Y-63190476D01*
X61880952Y-63380952D01*
X61880952Y-63523809D01*
X61833333Y-63714285D01*
X61785714Y-63809523D01*
X61690476Y-63904761D01*
X61547619Y-63952380D01*
X61309523Y-63952380D01*
X82357142Y-49071428D02*
X83119047Y-49071428D01*
X82738095Y-49452380D02*
X82738095Y-48690476D01*
X84071428Y-48452380D02*
X83595238Y-48452380D01*
X83547619Y-48928571D01*
X83595238Y-48880952D01*
X83690476Y-48833333D01*
X83928571Y-48833333D01*
X84023809Y-48880952D01*
X84071428Y-48928571D01*
X84119047Y-49023809D01*
X84119047Y-49261904D01*
X84071428Y-49357142D01*
X84023809Y-49404761D01*
X83928571Y-49452380D01*
X83690476Y-49452380D01*
X83595238Y-49404761D01*
X83547619Y-49357142D01*
X84404761Y-48452380D02*
X84738095Y-49452380D01*
X85071428Y-48452380D01*
X85404761Y-49452380D02*
X85404761Y-48452380D01*
X85642857Y-48452380D01*
X85785714Y-48500000D01*
X85880952Y-48595238D01*
X85928571Y-48690476D01*
X85976190Y-48880952D01*
X85976190Y-49023809D01*
X85928571Y-49214285D01*
X85880952Y-49309523D01*
X85785714Y-49404761D01*
X85642857Y-49452380D01*
X85404761Y-49452380D01*
X87166666Y-49452380D02*
X87166666Y-48452380D01*
X87404761Y-48452380D01*
X87547619Y-48500000D01*
X87642857Y-48595238D01*
X87690476Y-48690476D01*
X87738095Y-48880952D01*
X87738095Y-49023809D01*
X87690476Y-49214285D01*
X87642857Y-49309523D01*
X87547619Y-49404761D01*
X87404761Y-49452380D01*
X87166666Y-49452380D01*
X88690476Y-48500000D02*
X88595238Y-48452380D01*
X88452380Y-48452380D01*
X88309523Y-48500000D01*
X88214285Y-48595238D01*
X88166666Y-48690476D01*
X88119047Y-48880952D01*
X88119047Y-49023809D01*
X88166666Y-49214285D01*
X88214285Y-49309523D01*
X88309523Y-49404761D01*
X88452380Y-49452380D01*
X88547619Y-49452380D01*
X88690476Y-49404761D01*
X88738095Y-49357142D01*
X88738095Y-49023809D01*
X88547619Y-49023809D01*
X89166666Y-49452380D02*
X89166666Y-48452380D01*
X89738095Y-49452380D01*
X89738095Y-48452380D01*
X90214285Y-49452380D02*
X90214285Y-48452380D01*
X90452380Y-48452380D01*
X90595238Y-48500000D01*
X90690476Y-48595238D01*
X90738095Y-48690476D01*
X90785714Y-48880952D01*
X90785714Y-49023809D01*
X90738095Y-49214285D01*
X90690476Y-49309523D01*
X90595238Y-49404761D01*
X90452380Y-49452380D01*
X90214285Y-49452380D01*
X92452380Y-49452380D02*
X91976190Y-49452380D01*
X91976190Y-48452380D01*
X92738095Y-48547619D02*
X92785714Y-48500000D01*
X92880952Y-48452380D01*
X93119047Y-48452380D01*
X93214285Y-48500000D01*
X93261904Y-48547619D01*
X93309523Y-48642857D01*
X93309523Y-48738095D01*
X93261904Y-48880952D01*
X92690476Y-49452380D01*
X93309523Y-49452380D01*
X94499999Y-49452380D02*
X94499999Y-48452380D01*
X94499999Y-48928571D02*
X95071428Y-48928571D01*
X95071428Y-49452380D02*
X95071428Y-48452380D01*
X95499999Y-48547619D02*
X95547619Y-48500000D01*
X95642857Y-48452380D01*
X95880952Y-48452380D01*
X95976190Y-48500000D01*
X96023809Y-48547619D01*
X96071428Y-48642857D01*
X96071428Y-48738095D01*
X96023809Y-48880952D01*
X95452380Y-49452380D01*
X96071428Y-49452380D01*
X97261904Y-49452380D02*
X97261904Y-48452380D01*
X97833333Y-49452380D01*
X97833333Y-48452380D01*
X98071428Y-49547619D02*
X98833333Y-49547619D01*
X99595238Y-48500000D02*
X99499999Y-48452380D01*
X99357142Y-48452380D01*
X99214285Y-48500000D01*
X99119047Y-48595238D01*
X99071428Y-48690476D01*
X99023809Y-48880952D01*
X99023809Y-49023809D01*
X99071428Y-49214285D01*
X99119047Y-49309523D01*
X99214285Y-49404761D01*
X99357142Y-49452380D01*
X99452380Y-49452380D01*
X99595238Y-49404761D01*
X99642857Y-49357142D01*
X99642857Y-49023809D01*
X99452380Y-49023809D01*
X100071428Y-49452380D02*
X100071428Y-48452380D01*
X100642857Y-49452380D01*
X100642857Y-48452380D01*
X101119047Y-49452380D02*
X101119047Y-48452380D01*
X101357142Y-48452380D01*
X101499999Y-48500000D01*
X101595238Y-48595238D01*
X101642857Y-48690476D01*
X101690476Y-48880952D01*
X101690476Y-49023809D01*
X101642857Y-49214285D01*
X101595238Y-49309523D01*
X101499999Y-49404761D01*
X101357142Y-49452380D01*
X101119047Y-49452380D01*
X100071428Y-66452380D02*
X100404761Y-67452380D01*
X100738095Y-66452380D01*
X101023809Y-66547619D02*
X101071428Y-66500000D01*
X101166666Y-66452380D01*
X101404761Y-66452380D01*
X101500000Y-66500000D01*
X101547619Y-66547619D01*
X101595238Y-66642857D01*
X101595238Y-66738095D01*
X101547619Y-66880952D01*
X100976190Y-67452380D01*
X101595238Y-67452380D01*
X102023809Y-67071428D02*
X102785714Y-67071428D01*
X102404761Y-67452380D02*
X102404761Y-66690476D01*
X89071428Y-66452380D02*
X89404761Y-67452380D01*
X89738095Y-66452380D01*
X90595238Y-67452380D02*
X90023809Y-67452380D01*
X90309523Y-67452380D02*
X90309523Y-66452380D01*
X90214285Y-66595238D01*
X90119047Y-66690476D01*
X90023809Y-66738095D01*
X91023809Y-67071428D02*
X91785714Y-67071428D01*
X91404761Y-67452380D02*
X91404761Y-66690476D01*
X82666666Y-58452380D02*
X82666666Y-57452380D01*
X83666666Y-58452380D02*
X83095238Y-58452380D01*
X83380952Y-58452380D02*
X83380952Y-57452380D01*
X83285714Y-57595238D01*
X83190476Y-57690476D01*
X83095238Y-57738095D01*
X84857142Y-58452380D02*
X84857142Y-57452380D01*
X85285714Y-57547619D02*
X85333333Y-57500000D01*
X85428571Y-57452380D01*
X85666666Y-57452380D01*
X85761904Y-57500000D01*
X85809523Y-57547619D01*
X85857142Y-57642857D01*
X85857142Y-57738095D01*
X85809523Y-57880952D01*
X85238095Y-58452380D01*
X85857142Y-58452380D01*
X87047619Y-58452380D02*
X87047619Y-57452380D01*
X87523809Y-58452380D02*
X87523809Y-57452380D01*
X87523809Y-57928571D02*
X88095238Y-57928571D01*
X88095238Y-58452380D02*
X88095238Y-57452380D01*
X89000000Y-57785714D02*
X89000000Y-58595238D01*
X88952380Y-58690476D01*
X88904761Y-58738095D01*
X88809523Y-58785714D01*
X88666666Y-58785714D01*
X88571428Y-58738095D01*
X89000000Y-58404761D02*
X88904761Y-58452380D01*
X88714285Y-58452380D01*
X88619047Y-58404761D01*
X88571428Y-58357142D01*
X88523809Y-58261904D01*
X88523809Y-57976190D01*
X88571428Y-57880952D01*
X88619047Y-57833333D01*
X88714285Y-57785714D01*
X88904761Y-57785714D01*
X89000000Y-57833333D01*
X89476190Y-58452380D02*
X89476190Y-57452380D01*
X89904761Y-58452380D02*
X89904761Y-57928571D01*
X89857142Y-57833333D01*
X89761904Y-57785714D01*
X89619047Y-57785714D01*
X89523809Y-57833333D01*
X89476190Y-57880952D01*
X91000000Y-57452380D02*
X91571428Y-57452380D01*
X91285714Y-58452380D02*
X91285714Y-57452380D01*
X91904761Y-57785714D02*
X91904761Y-58785714D01*
X91904761Y-57833333D02*
X92000000Y-57785714D01*
X92190476Y-57785714D01*
X92285714Y-57833333D01*
X92333333Y-57880952D01*
X92380952Y-57976190D01*
X92380952Y-58261904D01*
X92333333Y-58357142D01*
X92285714Y-58404761D01*
X92190476Y-58452380D01*
X92000000Y-58452380D01*
X91904761Y-58404761D01*
X95377523Y-58364380D02*
X95377523Y-57364380D01*
X95615619Y-57364380D01*
X95758476Y-57412000D01*
X95853714Y-57507238D01*
X95901333Y-57602476D01*
X95948952Y-57792952D01*
X95948952Y-57935809D01*
X95901333Y-58126285D01*
X95853714Y-58221523D01*
X95758476Y-58316761D01*
X95615619Y-58364380D01*
X95377523Y-58364380D01*
X96901333Y-57412000D02*
X96806095Y-57364380D01*
X96663238Y-57364380D01*
X96520380Y-57412000D01*
X96425142Y-57507238D01*
X96377523Y-57602476D01*
X96329904Y-57792952D01*
X96329904Y-57935809D01*
X96377523Y-58126285D01*
X96425142Y-58221523D01*
X96520380Y-58316761D01*
X96663238Y-58364380D01*
X96758476Y-58364380D01*
X96901333Y-58316761D01*
X96948952Y-58269142D01*
X96948952Y-57935809D01*
X96758476Y-57935809D01*
X97377523Y-58364380D02*
X97377523Y-57364380D01*
X97948952Y-58364380D01*
X97948952Y-57364380D01*
X98425142Y-58364380D02*
X98425142Y-57364380D01*
X98663238Y-57364380D01*
X98806095Y-57412000D01*
X98901333Y-57507238D01*
X98948952Y-57602476D01*
X98996571Y-57792952D01*
X98996571Y-57935809D01*
X98948952Y-58126285D01*
X98901333Y-58221523D01*
X98806095Y-58316761D01*
X98663238Y-58364380D01*
X98425142Y-58364380D01*
X100187047Y-57983428D02*
X100948952Y-57983428D01*
X100568000Y-58364380D02*
X100568000Y-57602476D01*
X101901333Y-57364380D02*
X101425142Y-57364380D01*
X101377523Y-57840571D01*
X101425142Y-57792952D01*
X101520380Y-57745333D01*
X101758476Y-57745333D01*
X101853714Y-57792952D01*
X101901333Y-57840571D01*
X101948952Y-57935809D01*
X101948952Y-58173904D01*
X101901333Y-58269142D01*
X101853714Y-58316761D01*
X101758476Y-58364380D01*
X101520380Y-58364380D01*
X101425142Y-58316761D01*
X101377523Y-58269142D01*
X102234666Y-57364380D02*
X102568000Y-58364380D01*
X102901333Y-57364380D01*
X103234666Y-58364380D02*
X103234666Y-57364380D01*
X103472761Y-57364380D01*
X103615619Y-57412000D01*
X103710857Y-57507238D01*
X103758476Y-57602476D01*
X103806095Y-57792952D01*
X103806095Y-57935809D01*
X103758476Y-58126285D01*
X103710857Y-58221523D01*
X103615619Y-58316761D01*
X103472761Y-58364380D01*
X103234666Y-58364380D01*
X83309523Y-50952380D02*
X83309523Y-49952380D01*
X83547619Y-49952380D01*
X83690476Y-50000000D01*
X83785714Y-50095238D01*
X83833333Y-50190476D01*
X83880952Y-50380952D01*
X83880952Y-50523809D01*
X83833333Y-50714285D01*
X83785714Y-50809523D01*
X83690476Y-50904761D01*
X83547619Y-50952380D01*
X83309523Y-50952380D01*
X84833333Y-50000000D02*
X84738095Y-49952380D01*
X84595238Y-49952380D01*
X84452380Y-50000000D01*
X84357142Y-50095238D01*
X84309523Y-50190476D01*
X84261904Y-50380952D01*
X84261904Y-50523809D01*
X84309523Y-50714285D01*
X84357142Y-50809523D01*
X84452380Y-50904761D01*
X84595238Y-50952380D01*
X84690476Y-50952380D01*
X84833333Y-50904761D01*
X84880952Y-50857142D01*
X84880952Y-50523809D01*
X84690476Y-50523809D01*
X85309523Y-50952380D02*
X85309523Y-49952380D01*
X85880952Y-50952380D01*
X85880952Y-49952380D01*
X86357142Y-50952380D02*
X86357142Y-49952380D01*
X86595238Y-49952380D01*
X86738095Y-50000000D01*
X86833333Y-50095238D01*
X86880952Y-50190476D01*
X86928571Y-50380952D01*
X86928571Y-50523809D01*
X86880952Y-50714285D01*
X86833333Y-50809523D01*
X86738095Y-50904761D01*
X86595238Y-50952380D01*
X86357142Y-50952380D01*
X88119047Y-50571428D02*
X88880952Y-50571428D01*
X88500000Y-50952380D02*
X88500000Y-50190476D01*
X89833333Y-49952380D02*
X89357142Y-49952380D01*
X89309523Y-50428571D01*
X89357142Y-50380952D01*
X89452380Y-50333333D01*
X89690476Y-50333333D01*
X89785714Y-50380952D01*
X89833333Y-50428571D01*
X89880952Y-50523809D01*
X89880952Y-50761904D01*
X89833333Y-50857142D01*
X89785714Y-50904761D01*
X89690476Y-50952380D01*
X89452380Y-50952380D01*
X89357142Y-50904761D01*
X89309523Y-50857142D01*
X90166666Y-49952380D02*
X90500000Y-50952380D01*
X90833333Y-49952380D01*
X91166666Y-50952380D02*
X91166666Y-49952380D01*
X91404761Y-49952380D01*
X91547619Y-50000000D01*
X91642857Y-50095238D01*
X91690476Y-50190476D01*
X91738095Y-50380952D01*
X91738095Y-50523809D01*
X91690476Y-50714285D01*
X91642857Y-50809523D01*
X91547619Y-50904761D01*
X91404761Y-50952380D01*
X91166666Y-50952380D01*
X76119047Y-49952380D02*
X76452380Y-50952380D01*
X76785714Y-49952380D01*
X77119047Y-50952380D02*
X77119047Y-49952380D01*
X77119047Y-50428571D02*
X77690476Y-50428571D01*
X77690476Y-50952380D02*
X77690476Y-49952380D01*
X78595238Y-50285714D02*
X78595238Y-51095238D01*
X78547619Y-51190476D01*
X78500000Y-51238095D01*
X78404761Y-51285714D01*
X78261904Y-51285714D01*
X78166666Y-51238095D01*
X78595238Y-50904761D02*
X78500000Y-50952380D01*
X78309523Y-50952380D01*
X78214285Y-50904761D01*
X78166666Y-50857142D01*
X78119047Y-50761904D01*
X78119047Y-50476190D01*
X78166666Y-50380952D01*
X78214285Y-50333333D01*
X78309523Y-50285714D01*
X78500000Y-50285714D01*
X78595238Y-50333333D01*
X79071428Y-50952380D02*
X79071428Y-49952380D01*
X79500000Y-50952380D02*
X79500000Y-50428571D01*
X79452380Y-50333333D01*
X79357142Y-50285714D01*
X79214285Y-50285714D01*
X79119047Y-50333333D01*
X79071428Y-50380952D01*
X79976190Y-50571428D02*
X80738095Y-50571428D01*
X80357142Y-50952380D02*
X80357142Y-50190476D01*
%TD*%
M02*
