%TF.GenerationSoftware,KiCad,Pcbnew,5.1.7-a382d34a8~88~ubuntu20.04.1*%
%TF.CreationDate,2021-04-08T15:18:28+02:00*%
%TF.ProjectId,Shield_Nucleo,53686965-6c64-45f4-9e75-636c656f2e6b,rev?*%
%TF.SameCoordinates,Original*%
%TF.FileFunction,Copper,L1,Top*%
%TF.FilePolarity,Positive*%
%FSLAX46Y46*%
G04 Gerber Fmt 4.6, Leading zero omitted, Abs format (unit mm)*
G04 Created by KiCad (PCBNEW 5.1.7-a382d34a8~88~ubuntu20.04.1) date 2021-04-08 15:18:28*
%MOMM*%
%LPD*%
G01*
G04 APERTURE LIST*
%TA.AperFunction,SMDPad,CuDef*%
%ADD10R,1.500000X1.000000*%
%TD*%
%TA.AperFunction,SMDPad,CuDef*%
%ADD11R,1.000000X1.500000*%
%TD*%
%TA.AperFunction,ComponentPad*%
%ADD12C,2.000000*%
%TD*%
%TA.AperFunction,ComponentPad*%
%ADD13C,1.500000*%
%TD*%
%TA.AperFunction,ComponentPad*%
%ADD14C,2.300000*%
%TD*%
%TA.AperFunction,ComponentPad*%
%ADD15R,1.500000X1.500000*%
%TD*%
%TA.AperFunction,ComponentPad*%
%ADD16O,1.700000X1.700000*%
%TD*%
%TA.AperFunction,ComponentPad*%
%ADD17R,1.700000X1.700000*%
%TD*%
%TA.AperFunction,ComponentPad*%
%ADD18R,1.605000X1.605000*%
%TD*%
%TA.AperFunction,ComponentPad*%
%ADD19C,1.605000*%
%TD*%
%TA.AperFunction,ComponentPad*%
%ADD20C,1.530000*%
%TD*%
%TA.AperFunction,ComponentPad*%
%ADD21R,1.530000X1.530000*%
%TD*%
%TA.AperFunction,ComponentPad*%
%ADD22C,6.000000*%
%TD*%
%TA.AperFunction,ComponentPad*%
%ADD23R,5.000000X5.000000*%
%TD*%
%TA.AperFunction,ViaPad*%
%ADD24C,0.800000*%
%TD*%
%TA.AperFunction,Conductor*%
%ADD25C,0.250000*%
%TD*%
G04 APERTURE END LIST*
D10*
%TO.P,JP8,1*%
%TO.N,/V_high_N*%
X77600000Y-55950000D03*
%TO.P,JP8,2*%
%TO.N,/V_high_raw_N*%
X77600000Y-54650000D03*
%TD*%
%TO.P,JP7,1*%
%TO.N,/V_high_P*%
X80000000Y-55900000D03*
%TO.P,JP7,2*%
%TO.N,/V_high_raw_P*%
X80000000Y-54600000D03*
%TD*%
%TO.P,JP6,1*%
%TO.N,/V2_low_N*%
X102500000Y-67450000D03*
%TO.P,JP6,2*%
%TO.N,/V2_low_raw_N*%
X102500000Y-66150000D03*
%TD*%
%TO.P,JP5,1*%
%TO.N,/V2_low_P*%
X100000000Y-67450000D03*
%TO.P,JP5,2*%
%TO.N,/V2_low_raw_P*%
X100000000Y-66150000D03*
%TD*%
D11*
%TO.P,JP4,1*%
%TO.N,/V1_low_N*%
X85500000Y-63100000D03*
%TO.P,JP4,2*%
%TO.N,/V1_low_raw_N*%
X86800000Y-63100000D03*
%TD*%
%TO.P,JP3,1*%
%TO.N,/V1_low_P*%
X85500000Y-65100000D03*
%TO.P,JP3,2*%
%TO.N,/V1_low_raw_P*%
X86800000Y-65100000D03*
%TD*%
D12*
%TO.P,TP33,1*%
%TO.N,/GND_CAN*%
X124460000Y-88900000D03*
%TD*%
%TO.P,TP32,1*%
%TO.N,/V_BUS_CAN*%
X124460000Y-93980000D03*
%TD*%
%TO.P,TP30,1*%
%TO.N,/Temp*%
X81280000Y-109220000D03*
%TD*%
%TO.P,TP29,1*%
%TO.N,/I_high*%
X76200000Y-109220000D03*
%TD*%
%TO.P,TP28,1*%
%TO.N,/I2_low*%
X81280000Y-104140000D03*
%TD*%
%TO.P,TP27,1*%
%TO.N,/I1_low*%
X76200000Y-104140000D03*
%TD*%
%TO.P,TP26,1*%
%TO.N,/V_high_N*%
X66040000Y-104140000D03*
%TD*%
%TO.P,TP25,1*%
%TO.N,/V_high_P*%
X66040000Y-109220000D03*
%TD*%
%TO.P,TP24,1*%
%TO.N,/V2_low_N*%
X60960000Y-104140000D03*
%TD*%
%TO.P,TP23,1*%
%TO.N,/V2_low_P*%
X60960000Y-109220000D03*
%TD*%
%TO.P,TP22,1*%
%TO.N,/V1_low_N*%
X55880000Y-104140000D03*
%TD*%
%TO.P,TP21,1*%
%TO.N,/V1_low_P*%
X55880000Y-109220000D03*
%TD*%
%TO.P,TP20,1*%
%TO.N,/HRTIM1_CHE2*%
X76200000Y-116840000D03*
%TD*%
%TO.P,TP19,1*%
%TO.N,/HRTIM1_CHE1*%
X76080000Y-121920000D03*
%TD*%
%TO.P,TP18,1*%
%TO.N,/HRTIM1_CHF2*%
X81080000Y-116840000D03*
%TD*%
%TO.P,TP17,1*%
%TO.N,/HRTIM1_CHF1*%
X81080000Y-121920000D03*
%TD*%
%TO.P,TP15,1*%
%TO.N,/CAN1_STB*%
X119126000Y-106172000D03*
%TD*%
%TO.P,TP14,1*%
%TO.N,/FDCAN1_RX*%
X124206000Y-101092000D03*
%TD*%
%TO.P,TP13,1*%
%TO.N,/FDCAN1_TX*%
X124206000Y-106172000D03*
%TD*%
%TO.P,TP12,1*%
%TO.N,GNDD*%
X45720000Y-121920000D03*
%TD*%
%TO.P,TP11,1*%
%TO.N,/HRTIM1_CHD2*%
X71120000Y-116840000D03*
%TD*%
%TO.P,TP10,1*%
%TO.N,/HRTIM1_CHD1*%
X71120000Y-121920000D03*
%TD*%
%TO.P,TP9,1*%
%TO.N,/HRTIM1_CHC2*%
X66040000Y-116840000D03*
%TD*%
%TO.P,TP8,1*%
%TO.N,/HRTIM1_CHC1*%
X66040000Y-121920000D03*
%TD*%
%TO.P,TP7,1*%
%TO.N,/HRTIM1_CHB2*%
X60960000Y-116840000D03*
%TD*%
%TO.P,TP6,1*%
%TO.N,/HRTIM1_CHB1*%
X60960000Y-121920000D03*
%TD*%
%TO.P,TP5,1*%
%TO.N,/HRTIM1_CHA2*%
X55880000Y-116840000D03*
%TD*%
%TO.P,TP4,1*%
%TO.N,/HRTIM1_CHA1*%
X55880000Y-121920000D03*
%TD*%
%TO.P,TP3,1*%
%TO.N,+BATT*%
X45720000Y-116840000D03*
%TD*%
%TO.P,TP2,1*%
%TO.N,+3V3*%
X45720000Y-111760000D03*
%TD*%
%TO.P,TP1,1*%
%TO.N,GNDD*%
X119126000Y-101092000D03*
%TD*%
%TO.P,R13,2*%
%TO.N,Net-(J3-Pad9)*%
%TA.AperFunction,SMDPad,CuDef*%
G36*
G01*
X109670001Y-111360000D02*
X108769999Y-111360000D01*
G75*
G02*
X108520000Y-111110001I0J249999D01*
G01*
X108520000Y-110584999D01*
G75*
G02*
X108769999Y-110335000I249999J0D01*
G01*
X109670001Y-110335000D01*
G75*
G02*
X109920000Y-110584999I0J-249999D01*
G01*
X109920000Y-111110001D01*
G75*
G02*
X109670001Y-111360000I-249999J0D01*
G01*
G37*
%TD.AperFunction*%
%TO.P,R13,1*%
%TO.N,/GND_CAN*%
%TA.AperFunction,SMDPad,CuDef*%
G36*
G01*
X109670001Y-113185000D02*
X108769999Y-113185000D01*
G75*
G02*
X108520000Y-112935001I0J249999D01*
G01*
X108520000Y-112409999D01*
G75*
G02*
X108769999Y-112160000I249999J0D01*
G01*
X109670001Y-112160000D01*
G75*
G02*
X109920000Y-112409999I0J-249999D01*
G01*
X109920000Y-112935001D01*
G75*
G02*
X109670001Y-113185000I-249999J0D01*
G01*
G37*
%TD.AperFunction*%
%TD*%
%TO.P,R12,2*%
%TO.N,Net-(J3-Pad11)*%
%TA.AperFunction,SMDPad,CuDef*%
G36*
G01*
X120846001Y-111463500D02*
X119945999Y-111463500D01*
G75*
G02*
X119696000Y-111213501I0J249999D01*
G01*
X119696000Y-110688499D01*
G75*
G02*
X119945999Y-110438500I249999J0D01*
G01*
X120846001Y-110438500D01*
G75*
G02*
X121096000Y-110688499I0J-249999D01*
G01*
X121096000Y-111213501D01*
G75*
G02*
X120846001Y-111463500I-249999J0D01*
G01*
G37*
%TD.AperFunction*%
%TO.P,R12,1*%
%TO.N,/CAN_L*%
%TA.AperFunction,SMDPad,CuDef*%
G36*
G01*
X120846001Y-113288500D02*
X119945999Y-113288500D01*
G75*
G02*
X119696000Y-113038501I0J249999D01*
G01*
X119696000Y-112513499D01*
G75*
G02*
X119945999Y-112263500I249999J0D01*
G01*
X120846001Y-112263500D01*
G75*
G02*
X121096000Y-112513499I0J-249999D01*
G01*
X121096000Y-113038501D01*
G75*
G02*
X120846001Y-113288500I-249999J0D01*
G01*
G37*
%TD.AperFunction*%
%TD*%
%TO.P,R11,2*%
%TO.N,Net-(J2-Pad9)*%
%TA.AperFunction,SMDPad,CuDef*%
G36*
G01*
X91382001Y-112780500D02*
X90481999Y-112780500D01*
G75*
G02*
X90232000Y-112530501I0J249999D01*
G01*
X90232000Y-112005499D01*
G75*
G02*
X90481999Y-111755500I249999J0D01*
G01*
X91382001Y-111755500D01*
G75*
G02*
X91632000Y-112005499I0J-249999D01*
G01*
X91632000Y-112530501D01*
G75*
G02*
X91382001Y-112780500I-249999J0D01*
G01*
G37*
%TD.AperFunction*%
%TO.P,R11,1*%
%TO.N,/GND_CAN*%
%TA.AperFunction,SMDPad,CuDef*%
G36*
G01*
X91382001Y-114605500D02*
X90481999Y-114605500D01*
G75*
G02*
X90232000Y-114355501I0J249999D01*
G01*
X90232000Y-113830499D01*
G75*
G02*
X90481999Y-113580500I249999J0D01*
G01*
X91382001Y-113580500D01*
G75*
G02*
X91632000Y-113830499I0J-249999D01*
G01*
X91632000Y-114355501D01*
G75*
G02*
X91382001Y-114605500I-249999J0D01*
G01*
G37*
%TD.AperFunction*%
%TD*%
%TO.P,R10,2*%
%TO.N,Net-(J2-Pad11)*%
%TA.AperFunction,SMDPad,CuDef*%
G36*
G01*
X101034001Y-111256500D02*
X100133999Y-111256500D01*
G75*
G02*
X99884000Y-111006501I0J249999D01*
G01*
X99884000Y-110481499D01*
G75*
G02*
X100133999Y-110231500I249999J0D01*
G01*
X101034001Y-110231500D01*
G75*
G02*
X101284000Y-110481499I0J-249999D01*
G01*
X101284000Y-111006501D01*
G75*
G02*
X101034001Y-111256500I-249999J0D01*
G01*
G37*
%TD.AperFunction*%
%TO.P,R10,1*%
%TO.N,/CAN_L*%
%TA.AperFunction,SMDPad,CuDef*%
G36*
G01*
X101034001Y-113081500D02*
X100133999Y-113081500D01*
G75*
G02*
X99884000Y-112831501I0J249999D01*
G01*
X99884000Y-112306499D01*
G75*
G02*
X100133999Y-112056500I249999J0D01*
G01*
X101034001Y-112056500D01*
G75*
G02*
X101284000Y-112306499I0J-249999D01*
G01*
X101284000Y-112831501D01*
G75*
G02*
X101034001Y-113081500I-249999J0D01*
G01*
G37*
%TD.AperFunction*%
%TD*%
D13*
%TO.P,J3,12*%
%TO.N,+3V3*%
X124720000Y-110744000D03*
%TO.P,J3,11*%
%TO.N,Net-(J3-Pad11)*%
X122430000Y-110744000D03*
%TO.P,J3,10*%
%TO.N,/PWR_CAN2*%
X113290000Y-110744000D03*
%TO.P,J3,9*%
%TO.N,Net-(J3-Pad9)*%
X111000000Y-110744000D03*
D14*
%TO.P,J3,SH*%
%TO.N,GNDD*%
X109730000Y-116454000D03*
X125990000Y-116454000D03*
D13*
%TO.P,J3,8*%
%TO.N,Net-(J3-Pad8)*%
X121412000Y-115564000D03*
%TO.P,J3,6*%
%TO.N,Net-(J3-Pad6)*%
X119380000Y-115564000D03*
%TO.P,J3,4*%
%TO.N,/PWR_CAN2*%
X117348000Y-115564000D03*
%TO.P,J3,2*%
%TO.N,/CAN_L*%
X115316000Y-115564000D03*
%TO.P,J3,7*%
%TO.N,/GND_CAN*%
X120396000Y-117344000D03*
%TO.P,J3,5*%
%TO.N,/PWR_CAN2*%
X118364000Y-117344000D03*
%TO.P,J3,3*%
%TO.N,/GND_CAN*%
X116332000Y-117344000D03*
D15*
%TO.P,J3,1*%
%TO.N,/CAN_H*%
X114300000Y-117344000D03*
%TD*%
D13*
%TO.P,J2,12*%
%TO.N,+3V3*%
X104650000Y-110748000D03*
%TO.P,J2,11*%
%TO.N,Net-(J2-Pad11)*%
X102360000Y-110748000D03*
%TO.P,J2,10*%
%TO.N,/PWR_CAN1*%
X93220000Y-110748000D03*
%TO.P,J2,9*%
%TO.N,Net-(J2-Pad9)*%
X90930000Y-110748000D03*
D14*
%TO.P,J2,SH*%
%TO.N,GNDD*%
X89660000Y-116458000D03*
X105920000Y-116458000D03*
D13*
%TO.P,J2,8*%
%TO.N,Net-(J2-Pad8)*%
X101342000Y-115568000D03*
%TO.P,J2,6*%
%TO.N,Net-(J2-Pad6)*%
X99310000Y-115568000D03*
%TO.P,J2,4*%
%TO.N,/PWR_CAN1*%
X97278000Y-115568000D03*
%TO.P,J2,2*%
%TO.N,/CAN_L*%
X95246000Y-115568000D03*
%TO.P,J2,7*%
%TO.N,/GND_CAN*%
X100326000Y-117348000D03*
%TO.P,J2,5*%
%TO.N,/PWR_CAN1*%
X98294000Y-117348000D03*
%TO.P,J2,3*%
%TO.N,/GND_CAN*%
X96262000Y-117348000D03*
D15*
%TO.P,J2,1*%
%TO.N,/CAN_H*%
X94230000Y-117348000D03*
%TD*%
D16*
%TO.P,U1,2*%
%TO.N,N/C*%
X115102000Y-93520000D03*
D17*
%TO.P,U1,1*%
X117642000Y-93520000D03*
X117642000Y-29893000D03*
D16*
%TO.P,U1,2*%
X115102000Y-29893000D03*
D18*
%TO.P,U1,CN7_10*%
X79460000Y-37580000D03*
D19*
%TO.P,U1,CN7_20*%
%TO.N,GNDD*%
X66760000Y-37580000D03*
%TO.P,U1,CN7_22*%
X64220000Y-37580000D03*
%TO.P,U1,CN7_24*%
%TO.N,Net-(U1-PadCN7_24)*%
X61680000Y-37580000D03*
D18*
%TO.P,U1,CN10_37*%
%TO.N,Net-(U1-PadCN10_37)*%
X43900000Y-85840000D03*
D19*
%TO.P,U1,CN10_35*%
%TO.N,Net-(U1-PadCN10_35)*%
X46440000Y-85840000D03*
%TO.P,U1,CN10_33*%
%TO.N,/HRTIM1_CHB1*%
X48980000Y-85840000D03*
%TO.P,U1,CN10_31*%
%TO.N,Net-(U1-PadCN10_31)*%
X51520000Y-85840000D03*
%TO.P,U1,CN10_29*%
%TO.N,/SPI3_MOSI*%
X54060000Y-85840000D03*
%TO.P,U1,CN10_27*%
%TO.N,/SPI3_MISO*%
X56600000Y-85840000D03*
%TO.P,U1,CN10_25*%
%TO.N,/CAN1_STB*%
X59140000Y-85840000D03*
%TO.P,U1,CN7_12*%
%TO.N,Net-(U1-PadCN7_12)*%
X76920000Y-37580000D03*
%TO.P,U1,CN7_14*%
%TO.N,Net-(U1-PadCN7_14)*%
X74380000Y-37580000D03*
%TO.P,U1,CN7_16*%
%TO.N,+3V3*%
X71840000Y-37580000D03*
%TO.P,U1,CN7_18*%
%TO.N,Net-(U1-PadCN7_18)*%
X69300000Y-37580000D03*
%TO.P,U1,CN10_23*%
%TO.N,/HRTIM1_CHA1*%
X61680000Y-85840000D03*
D18*
%TO.P,U1,CN7_28*%
%TO.N,/V1_low_P*%
X56600000Y-37580000D03*
D19*
%TO.P,U1,CN7_30*%
%TO.N,/V1_low_N*%
X54060000Y-37580000D03*
%TO.P,U1,CN7_32*%
%TO.N,/SPI3_CS*%
X51520000Y-37580000D03*
%TO.P,U1,CN7_34*%
%TO.N,/EEPROM_HOLD*%
X48980000Y-37580000D03*
%TO.P,U1,CN10_13*%
%TO.N,/V2_low_P*%
X75900000Y-85840000D03*
%TO.P,U1,CN10_11*%
%TO.N,Net-(U1-PadCN10_11)*%
X78440000Y-85840000D03*
%TO.P,U1,CN10_9*%
%TO.N,GNDD*%
X80980000Y-85840000D03*
%TO.P,U1,CN10_7*%
%TO.N,Net-(U1-PadCN10_7)*%
X83520000Y-85840000D03*
%TO.P,U1,CN10_5*%
%TO.N,/FDCAN1_TX*%
X86060000Y-85840000D03*
%TO.P,U1,CN10_3*%
%TO.N,/FDCAN1_RX*%
X88600000Y-85840000D03*
%TO.P,U1,CN7_36*%
%TO.N,/I2_low*%
X46440000Y-37580000D03*
%TO.P,U1,CN7_38*%
%TO.N,/I1_low*%
X43900000Y-37580000D03*
D18*
%TO.P,U1,CN10_21*%
%TO.N,/HRTIM1_CHA2*%
X65740000Y-85840000D03*
D19*
%TO.P,U1,CN10_19*%
%TO.N,/HRTIM1_CHF2*%
X68280000Y-85840000D03*
%TO.P,U1,CN10_17*%
%TO.N,/USART1_TX*%
X70820000Y-85840000D03*
%TO.P,U1,CN10_15*%
%TO.N,/V2_low_N*%
X73360000Y-85840000D03*
D20*
%TO.P,U1,CN10_38*%
%TO.N,N/C*%
X43900000Y-93460000D03*
%TO.P,U1,CN10_36*%
X46440000Y-93460000D03*
%TO.P,U1,CN10_35*%
%TO.N,Net-(U1-PadCN10_35)*%
X46440000Y-90920000D03*
%TO.P,U1,CN10_34*%
%TO.N,/SPI3_CS2*%
X48980000Y-93460000D03*
%TO.P,U1,CN10_33*%
%TO.N,/HRTIM1_CHB1*%
X48980000Y-90920000D03*
%TO.P,U1,CN10_32*%
%TO.N,GNDD*%
X51520000Y-93460000D03*
%TO.P,U1,CN10_31*%
%TO.N,Net-(U1-PadCN10_31)*%
X51520000Y-90920000D03*
%TO.P,U1,CN10_30*%
%TO.N,/HRTIM1_CHC2*%
X54060000Y-93460000D03*
%TO.P,U1,CN10_29*%
%TO.N,/SPI3_MOSI*%
X54060000Y-90920000D03*
%TO.P,U1,CN10_28*%
%TO.N,/HRTIM1_CHD1*%
X56600000Y-93460000D03*
%TO.P,U1,CN10_27*%
%TO.N,/SPI3_MISO*%
X56600000Y-90920000D03*
%TO.P,U1,CN10_26*%
%TO.N,/HRTIM1_CHD2*%
X59140000Y-93460000D03*
%TO.P,U1,CN10_25*%
%TO.N,/CAN1_STB*%
X59140000Y-90920000D03*
%TO.P,U1,CN10_24*%
%TO.N,/Temp*%
X61680000Y-93460000D03*
%TO.P,U1,CN10_23*%
%TO.N,/HRTIM1_CHA1*%
X61680000Y-90920000D03*
%TO.P,U1,CN10_22*%
%TO.N,/V_high_N*%
X64220000Y-93460000D03*
%TO.P,U1,CN10_21*%
%TO.N,/HRTIM1_CHA2*%
X64220000Y-90920000D03*
%TO.P,U1,CN10_20*%
%TO.N,GNDD*%
X66760000Y-93460000D03*
%TO.P,U1,CN10_19*%
%TO.N,/HRTIM1_CHF2*%
X66760000Y-90920000D03*
%TO.P,U1,CN10_18*%
%TO.N,/N_GND*%
X69300000Y-93460000D03*
%TO.P,U1,CN10_17*%
%TO.N,/USART1_TX*%
X69300000Y-90920000D03*
%TO.P,U1,CN10_16*%
%TO.N,/HRTIM1_CHC1*%
X71840000Y-93460000D03*
%TO.P,U1,CN10_15*%
%TO.N,/V2_low_N*%
X71840000Y-90920000D03*
%TO.P,U1,CN10_14*%
%TO.N,/HRTIM1_CHB2*%
X74380000Y-93460000D03*
%TO.P,U1,CN10_13*%
%TO.N,/V2_low_P*%
X74380000Y-90920000D03*
%TO.P,U1,CN10_12*%
%TO.N,/HRTIM1_FLT1*%
X76920000Y-93460000D03*
%TO.P,U1,CN10_11*%
%TO.N,Net-(U1-PadCN10_11)*%
X76920000Y-90920000D03*
%TO.P,U1,CN10_10*%
%TO.N,N/C*%
X79460000Y-93460000D03*
%TO.P,U1,CN10_9*%
%TO.N,GNDD*%
X79460000Y-90920000D03*
%TO.P,U1,CN10_8*%
%TO.N,Net-(U1-PadCN10_8)*%
X82000000Y-93460000D03*
%TO.P,U1,CN10_7*%
%TO.N,Net-(U1-PadCN10_7)*%
X82000000Y-90920000D03*
%TO.P,U1,CN10_6*%
%TO.N,/V_high_P*%
X84540000Y-93460000D03*
%TO.P,U1,CN10_5*%
%TO.N,/FDCAN1_TX*%
X84540000Y-90920000D03*
%TO.P,U1,CN10_4*%
%TO.N,/HRTIM1_CHF1*%
X87080000Y-93460000D03*
%TO.P,U1,CN10_3*%
%TO.N,/FDCAN1_RX*%
X87080000Y-90920000D03*
%TO.P,U1,CN10_2*%
%TO.N,/HRTIM1_CHE1*%
X89620000Y-93460000D03*
%TO.P,U1,CN10_37*%
%TO.N,Net-(U1-PadCN10_37)*%
X43900000Y-90920000D03*
D21*
%TO.P,U1,CN10_1*%
%TO.N,/HRTIM1_CHE2*%
X89620000Y-90920000D03*
D20*
%TO.P,U1,CN7_38*%
%TO.N,/I1_low*%
X43900000Y-32500000D03*
%TO.P,U1,CN7_36*%
%TO.N,/I2_low*%
X46440000Y-32500000D03*
%TO.P,U1,CN7_35*%
%TO.N,/I_high*%
X46440000Y-29960000D03*
%TO.P,U1,CN7_34*%
%TO.N,/EEPROM_HOLD*%
X48980000Y-32500000D03*
%TO.P,U1,CN7_33*%
%TO.N,+BATT*%
X48980000Y-29960000D03*
%TO.P,U1,CN7_32*%
%TO.N,/SPI3_CS*%
X51520000Y-32500000D03*
%TO.P,U1,CN7_31*%
%TO.N,Net-(U1-PadCN7_31)*%
X51520000Y-29960000D03*
%TO.P,U1,CN7_30*%
%TO.N,/V1_low_N*%
X54060000Y-32500000D03*
%TO.P,U1,CN7_29*%
%TO.N,Net-(U1-PadCN7_29)*%
X54060000Y-29960000D03*
%TO.P,U1,CN7_28*%
%TO.N,/V1_low_P*%
X56600000Y-32500000D03*
%TO.P,U1,CN7_27*%
%TO.N,Net-(U1-PadCN7_27)*%
X56600000Y-29960000D03*
%TO.P,U1,CN7_26*%
%TO.N,N/C*%
X59140000Y-32500000D03*
%TO.P,U1,CN7_25*%
%TO.N,Net-(U1-PadCN7_25)*%
X59140000Y-29960000D03*
%TO.P,U1,CN7_24*%
%TO.N,Net-(U1-PadCN7_24)*%
X61680000Y-32500000D03*
%TO.P,U1,CN7_23*%
%TO.N,Net-(U1-PadCN7_23)*%
X61680000Y-29960000D03*
%TO.P,U1,CN7_22*%
%TO.N,GNDD*%
X64220000Y-32500000D03*
%TO.P,U1,CN7_21*%
%TO.N,/USART1_RX*%
X64220000Y-29960000D03*
%TO.P,U1,CN7_20*%
%TO.N,GNDD*%
X66760000Y-32500000D03*
%TO.P,U1,CN7_19*%
X66760000Y-29960000D03*
%TO.P,U1,CN7_18*%
%TO.N,Net-(U1-PadCN7_18)*%
X69300000Y-32500000D03*
%TO.P,U1,CN7_17*%
%TO.N,/HRTIM1_FLT2*%
X69300000Y-29960000D03*
%TO.P,U1,CN7_16*%
%TO.N,+3V3*%
X71840000Y-32500000D03*
%TO.P,U1,CN7_15*%
%TO.N,Net-(U1-PadCN7_15)*%
X71840000Y-29960000D03*
%TO.P,U1,CN7_14*%
%TO.N,Net-(U1-PadCN7_14)*%
X74380000Y-32500000D03*
%TO.P,U1,CN7_13*%
%TO.N,Net-(U1-PadCN7_13)*%
X74380000Y-29960000D03*
%TO.P,U1,CN7_12*%
%TO.N,Net-(U1-PadCN7_12)*%
X76920000Y-32500000D03*
%TO.P,U1,CN7_11*%
%TO.N,N/C*%
X76920000Y-29960000D03*
%TO.P,U1,CN7_10*%
X79460000Y-32500000D03*
%TO.P,U1,CN7_9*%
X79460000Y-29960000D03*
%TO.P,U1,CN7_8*%
%TO.N,GNDD*%
X82000000Y-32500000D03*
%TO.P,U1,CN7_7*%
%TO.N,Net-(U1-PadCN7_7)*%
X82000000Y-29960000D03*
%TO.P,U1,CN7_6*%
%TO.N,/E5V*%
X84540000Y-32500000D03*
%TO.P,U1,CN7_5*%
%TO.N,Net-(U1-PadCN7_5)*%
X84540000Y-29960000D03*
%TO.P,U1,CN7_4*%
%TO.N,Net-(U1-PadCN7_4)*%
X87080000Y-32500000D03*
%TO.P,U1,CN7_3*%
%TO.N,/HRTIM_EEV2*%
X87080000Y-29960000D03*
%TO.P,U1,CN7_2*%
%TO.N,/HRTIM_EEV1*%
X89620000Y-32500000D03*
%TO.P,U1,CN7_37*%
%TO.N,/EEPROM_WP*%
X43900000Y-29960000D03*
D21*
%TO.P,U1,CN7_1*%
%TO.N,/SPI3_SCK*%
X89620000Y-29960000D03*
%TD*%
D16*
%TO.P,J5,4*%
%TO.N,/SPI3_CS2*%
X125000000Y-45870000D03*
%TO.P,J5,3*%
%TO.N,/SPI3_SCK*%
X125000000Y-43330000D03*
%TO.P,J5,2*%
%TO.N,/SPI3_MOSI*%
X125000000Y-40790000D03*
D17*
%TO.P,J5,1*%
%TO.N,/SPI3_MISO*%
X125000000Y-38250000D03*
%TD*%
D16*
%TO.P,J4,2*%
%TO.N,/USART1_RX*%
X125000000Y-32540000D03*
D17*
%TO.P,J4,1*%
%TO.N,/USART1_TX*%
X125000000Y-30000000D03*
%TD*%
D16*
%TO.P,JP2,2*%
%TO.N,+BATT*%
X124500000Y-57790000D03*
D17*
%TO.P,JP2,1*%
%TO.N,Net-(BT1-Pad1)*%
X124500000Y-55250000D03*
%TD*%
D22*
%TO.P,BT1,2*%
%TO.N,GNDD*%
X112250000Y-35250000D03*
D23*
%TO.P,BT1,1*%
%TO.N,Net-(BT1-Pad1)*%
X112250000Y-55250000D03*
%TD*%
D17*
%TO.P,J1,0*%
%TO.N,N/C*%
X126500000Y-74500000D03*
D16*
%TO.P,J1,16*%
%TO.N,GNDD*%
X77500000Y-79120000D03*
D17*
%TO.P,J1,0*%
%TO.N,N/C*%
X77500000Y-71500000D03*
D16*
%TO.P,J1,11*%
%TO.N,/I_high_raw*%
X94960000Y-40500000D03*
%TO.P,J1,16*%
%TO.N,GNDD*%
X126500000Y-79580000D03*
%TO.P,J1,10*%
%TO.N,/I2_low_raw*%
X126500000Y-77040000D03*
%TO.P,J1,12*%
%TO.N,Net-(J1-Pad12)*%
X77500000Y-76580000D03*
%TO.P,J1,9*%
%TO.N,/I1_low_raw*%
X77500000Y-74040000D03*
%TO.P,J1,16*%
%TO.N,GNDD*%
X92420000Y-40500000D03*
D17*
%TO.P,J1,0*%
%TO.N,N/C*%
X97500000Y-40500000D03*
D16*
%TO.P,J1,23*%
%TO.N,/HRTIM1_CHB2*%
X92580000Y-46000000D03*
D17*
%TO.P,J1,14*%
%TO.N,GNDD*%
X51000000Y-66000000D03*
D16*
%TO.P,J1,15*%
%TO.N,/E5V*%
X58620000Y-66000000D03*
%TO.P,J1,20*%
%TO.N,/HRTIM1_CHA1*%
X56080000Y-66000000D03*
%TO.P,J1,21*%
%TO.N,/HRTIM1_CHA2*%
X53540000Y-66000000D03*
%TO.P,J1,22*%
%TO.N,/HRTIM1_CHB1*%
X95120000Y-46000000D03*
D17*
%TO.P,J1,15*%
%TO.N,/E5V*%
X87500000Y-46000000D03*
D16*
%TO.P,J1,30*%
%TO.N,/N_GND*%
X97660000Y-46000000D03*
%TO.P,J1,14*%
%TO.N,GNDD*%
X90040000Y-46000000D03*
%TO.P,J1,4*%
%TO.N,/V1_low_raw_N*%
X91540000Y-64500000D03*
D17*
%TO.P,J1,3*%
%TO.N,/V1_low_raw_P*%
X89000000Y-64500000D03*
D16*
%TO.P,J1,6*%
%TO.N,/V2_low_raw_N*%
X102540000Y-64500000D03*
D17*
%TO.P,J1,5*%
%TO.N,/V2_low_raw_P*%
X100000000Y-64500000D03*
%TO.P,J1,8*%
%TO.N,/V_high_raw_N*%
X77500000Y-53000000D03*
D16*
%TO.P,J1,7*%
%TO.N,/V_high_raw_P*%
X80040000Y-53000000D03*
%TO.P,J1,0*%
%TO.N,N/C*%
X86540000Y-60500000D03*
D17*
X84000000Y-60500000D03*
D16*
X89080000Y-60500000D03*
X91620000Y-60500000D03*
X89080000Y-53000000D03*
%TO.P,J1,14*%
%TO.N,GNDD*%
X86540000Y-53000000D03*
%TO.P,J1,0*%
%TO.N,N/C*%
X91620000Y-53000000D03*
D17*
%TO.P,J1,14*%
%TO.N,GNDD*%
X84000000Y-53000000D03*
D16*
%TO.P,J1,15*%
%TO.N,/E5V*%
X101080000Y-60500000D03*
X103620000Y-60500000D03*
D17*
%TO.P,J1,14*%
%TO.N,GNDD*%
X96000000Y-60500000D03*
D16*
X98540000Y-60500000D03*
%TD*%
D24*
%TO.N,GNDD*%
X57700000Y-39200000D03*
X93800000Y-71000000D03*
X93800000Y-73000000D03*
X58674000Y-49022000D03*
X46264990Y-53848000D03*
X115750000Y-87750000D03*
X97000000Y-105000000D03*
X65024000Y-49022000D03*
X79502000Y-46736000D03*
X81788000Y-44196000D03*
X69750000Y-98750000D03*
X70750000Y-98750000D03*
X71750000Y-98750000D03*
X69750000Y-103250000D03*
X70750000Y-103250000D03*
X71750000Y-103250000D03*
X113792000Y-45212000D03*
X118110000Y-45212000D03*
X106250000Y-51000000D03*
X109500000Y-51000000D03*
X109250000Y-85000000D03*
X112750000Y-88000000D03*
X48514000Y-53340000D03*
X48514000Y-50800000D03*
X46250000Y-54750000D03*
X42500000Y-54750000D03*
X42500000Y-53750000D03*
X115750000Y-87000000D03*
X47750000Y-43000000D03*
X113750000Y-40000000D03*
X108750000Y-40000000D03*
X110750000Y-42500000D03*
X115250000Y-42250000D03*
X83312000Y-39250000D03*
X85598000Y-37084000D03*
X86868000Y-39370000D03*
X85090000Y-41148000D03*
X69088000Y-49022000D03*
X66802000Y-46482000D03*
X91750000Y-100750000D03*
X90000000Y-100750000D03*
X88750000Y-105250000D03*
X91500000Y-105250000D03*
X46250000Y-97500000D03*
X42750000Y-100500000D03*
X122250000Y-81000000D03*
X125000000Y-83000000D03*
X97250000Y-52500000D03*
X99000000Y-50250000D03*
X97500000Y-54500000D03*
X100250000Y-52750000D03*
X71120000Y-46482000D03*
X102359000Y-103635000D03*
X64770000Y-46482000D03*
X60960000Y-46482000D03*
X62230000Y-49022000D03*
X98044000Y-29210000D03*
X101600000Y-29210000D03*
X59300000Y-43900000D03*
X52600000Y-38900000D03*
X97200000Y-72800000D03*
X86700000Y-73500000D03*
X117700000Y-69200000D03*
X118100000Y-72300000D03*
X112000000Y-72600000D03*
X69300000Y-72000000D03*
X64900000Y-72000000D03*
X70400000Y-67150000D03*
X61700000Y-50900000D03*
X66300000Y-52300000D03*
X57200000Y-58100000D03*
X60300000Y-61100000D03*
X60100000Y-63400000D03*
X57100000Y-60700000D03*
X98900000Y-80500000D03*
X96300000Y-80500006D03*
X93800000Y-80500000D03*
%TO.N,/HRTIM1_CHB2*%
X74500004Y-95524990D03*
%TO.N,/E5V*%
X65300000Y-50500000D03*
X69200000Y-63900000D03*
X96800000Y-74700000D03*
X88100000Y-76600000D03*
X116300000Y-65900000D03*
X51901669Y-40610889D03*
X94200000Y-76300000D03*
%TO.N,/HRTIM1_CHA2*%
X57711046Y-95314273D03*
%TO.N,/N_GND*%
X96750000Y-92250000D03*
%TO.N,/V1_low_N*%
X43974350Y-61500330D03*
X84400000Y-62700000D03*
%TO.N,/V1_low_P*%
X43433986Y-62992000D03*
X85500000Y-66500000D03*
%TO.N,/V2_low_N*%
X70750000Y-96225010D03*
%TO.N,/V_high_P*%
X84774990Y-104850010D03*
%TO.N,/CAN1_STB*%
X79756000Y-80518016D03*
X107500000Y-105000000D03*
X101700000Y-83300000D03*
%TO.N,/FDCAN1_RX*%
X99060000Y-101092000D03*
%TO.N,/USART1_TX*%
X105500000Y-38750000D03*
X100669423Y-50394104D03*
%TO.N,/Temp*%
X84016000Y-77412000D03*
X63500000Y-103750000D03*
%TO.N,/HRTIM1_CHC1*%
X69500000Y-112000000D03*
%TO.N,/FDCAN1_TX*%
X98806000Y-103886000D03*
%TO.N,/EEPROM_HOLD*%
X44750000Y-47500000D03*
%TO.N,/I1_low*%
X71545010Y-77724000D03*
X47500000Y-77750000D03*
X64650000Y-77750000D03*
%TO.N,/I2_low*%
X119610420Y-76873000D03*
%TO.N,/I_high*%
X92710000Y-34798000D03*
%TO.N,+3V3*%
X44196000Y-53848000D03*
X93472000Y-102108022D03*
X97000000Y-101600000D03*
%TO.N,/GND_CAN*%
X91948000Y-114300000D03*
X107188000Y-112776000D03*
%TO.N,/PWR_CAN2*%
X116500000Y-110576000D03*
%TO.N,/SPI3_CS*%
X43750000Y-42750000D03*
%TO.N,/SPI3_CS2*%
X110250000Y-46250000D03*
X106250020Y-49250000D03*
%TO.N,/I_high_raw*%
X62600000Y-40300000D03*
%TO.N,/I1_low_raw*%
X67000010Y-75000000D03*
%TO.N,/Vref*%
X96000000Y-70200000D03*
X87300000Y-68900000D03*
%TD*%
D25*
%TO.N,/HRTIM1_CHB2*%
X60960000Y-116840000D02*
X63246000Y-114554000D01*
X78250000Y-111113590D02*
X78250000Y-100573002D01*
X63246000Y-114554000D02*
X67310000Y-114554000D01*
X78250000Y-100573002D02*
X74500004Y-96823006D01*
X68580000Y-118330000D02*
X69250000Y-119000000D01*
X74500004Y-96823006D02*
X74500004Y-95524990D01*
X68580000Y-115824000D02*
X68580000Y-118330000D01*
X73549989Y-117700011D02*
X73549989Y-115813600D01*
X67310000Y-114554000D02*
X68580000Y-115824000D01*
X69250000Y-119000000D02*
X72250000Y-119000000D01*
X72250000Y-119000000D02*
X73549989Y-117700011D01*
X73549989Y-115813600D02*
X78250000Y-111113590D01*
%TO.N,/HRTIM1_CHA1*%
X60915001Y-91684999D02*
X61680000Y-90920000D01*
X55880000Y-121920000D02*
X51750000Y-117790000D01*
X56625000Y-94875000D02*
X57125000Y-94875000D01*
X58607000Y-92202000D02*
X60398000Y-92202000D01*
X51750000Y-117790000D02*
X51750000Y-99750000D01*
X51750000Y-99750000D02*
X56625000Y-94875000D01*
X57912000Y-92897000D02*
X58607000Y-92202000D01*
X57912000Y-94088000D02*
X57912000Y-92897000D01*
X57125000Y-94875000D02*
X57912000Y-94088000D01*
X60398000Y-92202000D02*
X60915001Y-91684999D01*
%TO.N,/HRTIM1_CHA2*%
X52635989Y-113595989D02*
X52635989Y-100389330D01*
X52635989Y-100389330D02*
X57711046Y-95314273D01*
X55880000Y-116840000D02*
X52635989Y-113595989D01*
%TO.N,/HRTIM1_CHB1*%
X60960000Y-121920000D02*
X60960000Y-122174000D01*
X50250000Y-92190000D02*
X48980000Y-90920000D01*
X49500000Y-96998000D02*
X50250000Y-96248000D01*
X50250000Y-96248000D02*
X50250000Y-92190000D01*
X49500000Y-123500000D02*
X49500000Y-96998000D01*
X57630000Y-125250000D02*
X51250000Y-125250000D01*
X51250000Y-125250000D02*
X49500000Y-123500000D01*
X60960000Y-121920000D02*
X57630000Y-125250000D01*
%TO.N,/N_GND*%
X96750000Y-91684315D02*
X96750000Y-92250000D01*
X96750000Y-87176996D02*
X96750000Y-91684315D01*
X107500000Y-76426996D02*
X96750000Y-87176996D01*
X107500000Y-57750000D02*
X107500000Y-76426996D01*
X101250000Y-51500000D02*
X107500000Y-57750000D01*
X99000000Y-51500000D02*
X101250000Y-51500000D01*
X97660000Y-50160000D02*
X99000000Y-51500000D01*
X97660000Y-46000000D02*
X97660000Y-50160000D01*
%TO.N,/V1_low_N*%
X55640000Y-36000000D02*
X54060000Y-37580000D01*
X57500000Y-36000000D02*
X55640000Y-36000000D01*
X58250000Y-37850000D02*
X58250000Y-36750000D01*
X72701989Y-41713989D02*
X62113989Y-41713989D01*
X82042000Y-51054000D02*
X72701989Y-41713989D01*
X82042000Y-62738000D02*
X82042000Y-51054000D01*
X58250000Y-36750000D02*
X57500000Y-36000000D01*
X62113989Y-41713989D02*
X58250000Y-37850000D01*
X83312000Y-64008000D02*
X82042000Y-62738000D01*
X84592000Y-64008000D02*
X83312000Y-64008000D01*
X85500000Y-63100000D02*
X84592000Y-64008000D01*
X44374349Y-61100331D02*
X43974350Y-61500330D01*
X57750000Y-42404906D02*
X57750000Y-47724680D01*
X55700000Y-40354906D02*
X57750000Y-42404906D01*
X57750000Y-47724680D02*
X44374349Y-61100331D01*
X55700000Y-39220000D02*
X55700000Y-40354906D01*
X54060000Y-37580000D02*
X55700000Y-39220000D01*
X85100000Y-62700000D02*
X85500000Y-63100000D01*
X84400000Y-62700000D02*
X85100000Y-62700000D01*
%TO.N,/V1_low_P*%
X56600000Y-40600000D02*
X56600000Y-37580000D01*
X58250000Y-42250000D02*
X56600000Y-40600000D01*
X58250000Y-48250000D02*
X58250000Y-42250000D01*
X43433986Y-62992000D02*
X43508000Y-62992000D01*
X43508000Y-62992000D02*
X58250000Y-48250000D01*
X85500000Y-65100000D02*
X85500000Y-66500000D01*
X85200000Y-65100000D02*
X85500000Y-65100000D01*
X83042000Y-64500000D02*
X84600000Y-64500000D01*
X81534000Y-62992000D02*
X83042000Y-64500000D01*
X81534000Y-51308000D02*
X81534000Y-62992000D01*
X72390000Y-42164000D02*
X81534000Y-51308000D01*
X61764000Y-42164000D02*
X72390000Y-42164000D01*
X57180000Y-37580000D02*
X61764000Y-42164000D01*
X84600000Y-64500000D02*
X85200000Y-65100000D01*
X56600000Y-37580000D02*
X57180000Y-37580000D01*
%TO.N,/V2_low_N*%
X73360000Y-86860000D02*
X73360000Y-85840000D01*
X74000000Y-87500000D02*
X73360000Y-86860000D01*
X76329351Y-87500000D02*
X74000000Y-87500000D01*
X77250000Y-86579351D02*
X76329351Y-87500000D01*
X77250000Y-85126410D02*
X77250000Y-86579351D01*
X78626410Y-83750000D02*
X77250000Y-85126410D01*
X84750000Y-83750000D02*
X78626410Y-83750000D01*
X68750000Y-105000000D02*
X68750000Y-98225010D01*
X63320000Y-106500000D02*
X67250000Y-106500000D01*
X68750000Y-98225010D02*
X70750000Y-96225010D01*
X67250000Y-106500000D02*
X68750000Y-105000000D01*
X60960000Y-104140000D02*
X63320000Y-106500000D01*
X102500000Y-67450000D02*
X102350000Y-67450000D01*
X101400000Y-68400000D02*
X100100000Y-68400000D01*
X102350000Y-67450000D02*
X101400000Y-68400000D01*
X100100000Y-68400000D02*
X84750000Y-83750000D01*
%TO.N,/V2_low_P*%
X74500000Y-90800000D02*
X74380000Y-90920000D01*
X78440011Y-83299989D02*
X75900000Y-85840000D01*
X84450011Y-83299989D02*
X78440011Y-83299989D01*
X100000000Y-67750000D02*
X84450011Y-83299989D01*
X73289999Y-92010001D02*
X74380000Y-90920000D01*
X73289999Y-111960001D02*
X73289999Y-92010001D01*
X72000000Y-113250000D02*
X73289999Y-111960001D01*
X63500000Y-113250000D02*
X72000000Y-113250000D01*
X60960000Y-110710000D02*
X63500000Y-113250000D01*
X60960000Y-109220000D02*
X60960000Y-110710000D01*
%TO.N,/V_high_N*%
X66000000Y-95240000D02*
X66000000Y-104100000D01*
X66000000Y-104100000D02*
X66040000Y-104140000D01*
X64220000Y-93460000D02*
X66000000Y-95240000D01*
X65532000Y-92148000D02*
X64220000Y-93460000D01*
X65532000Y-89218000D02*
X65532000Y-92148000D01*
X68250000Y-88500000D02*
X66250000Y-88500000D01*
X84949989Y-79800011D02*
X82802987Y-81947013D01*
X84949989Y-70979989D02*
X84949989Y-79800011D01*
X66250000Y-88500000D02*
X65532000Y-89218000D01*
X78500000Y-64530000D02*
X84949989Y-70979989D01*
X72166576Y-81947013D02*
X69596000Y-84517589D01*
X69596000Y-87154000D02*
X68250000Y-88500000D01*
X77600000Y-55850000D02*
X78050000Y-55850000D01*
X78050000Y-55850000D02*
X78500000Y-56300000D01*
X69596000Y-84517589D02*
X69596000Y-87154000D01*
X82802987Y-81947013D02*
X72166576Y-81947013D01*
X78500000Y-56300000D02*
X78500000Y-64530000D01*
%TO.N,/V_high_P*%
X84540000Y-93460000D02*
X84540000Y-104615020D01*
X84540000Y-104615020D02*
X84774990Y-104850010D01*
X83090001Y-92010001D02*
X84540000Y-93460000D01*
X73750000Y-88500000D02*
X81500000Y-88500000D01*
X72136000Y-86886000D02*
X73750000Y-88500000D01*
X72136000Y-83114000D02*
X72136000Y-86886000D01*
X72852976Y-82397024D02*
X72136000Y-83114000D01*
X82989387Y-82397024D02*
X72852976Y-82397024D01*
X85400000Y-79986411D02*
X82989387Y-82397024D01*
X79000000Y-64268000D02*
X85400000Y-70668000D01*
X79550000Y-55650000D02*
X79000000Y-56200000D01*
X80000000Y-55650000D02*
X79550000Y-55650000D01*
X83090001Y-90090001D02*
X83090001Y-92010001D01*
X79000000Y-56200000D02*
X79000000Y-64268000D01*
X81500000Y-88500000D02*
X83090001Y-90090001D01*
X85400000Y-70668000D02*
X85400000Y-79986411D01*
%TO.N,/HRTIM1_CHD2*%
X68072000Y-113792000D02*
X71120000Y-116840000D01*
X54102000Y-113792000D02*
X68072000Y-113792000D01*
X53500000Y-101128998D02*
X53500000Y-113190000D01*
X59140000Y-95488998D02*
X53500000Y-101128998D01*
X53500000Y-113190000D02*
X54102000Y-113792000D01*
X59140000Y-93460000D02*
X59140000Y-95488998D01*
%TO.N,/HRTIM1_CHF2*%
X68430000Y-89250000D02*
X66760000Y-90920000D01*
X80000000Y-89250000D02*
X68430000Y-89250000D01*
X80750000Y-90000000D02*
X80000000Y-89250000D01*
X80750000Y-94000000D02*
X80750000Y-90000000D01*
X83500000Y-96750000D02*
X80750000Y-94000000D01*
X83500000Y-114420000D02*
X83500000Y-96750000D01*
X81080000Y-116840000D02*
X83500000Y-114420000D01*
%TO.N,/HRTIM1_CHC2*%
X51000000Y-98606000D02*
X54060000Y-95546000D01*
X52197999Y-123697999D02*
X51000000Y-122500000D01*
X54060000Y-95546000D02*
X54060000Y-93460000D01*
X51000000Y-122500000D02*
X51000000Y-98606000D01*
X57150000Y-123697999D02*
X52197999Y-123697999D01*
X57911999Y-122936000D02*
X57150000Y-123697999D01*
X57911999Y-120088001D02*
X57911999Y-122936000D01*
X58750000Y-119250000D02*
X57911999Y-120088001D01*
X63630000Y-119250000D02*
X58750000Y-119250000D01*
X66040000Y-116840000D02*
X63630000Y-119250000D01*
%TO.N,/CAN1_STB*%
X64481984Y-80518016D02*
X79756000Y-80518016D01*
X59160000Y-85840000D02*
X64481984Y-80518016D01*
X59140000Y-85840000D02*
X59160000Y-85840000D01*
X108672000Y-106172000D02*
X107500000Y-105000000D01*
X119126000Y-106172000D02*
X108672000Y-106172000D01*
X107500000Y-105000000D02*
X101700000Y-99200000D01*
X101700000Y-99200000D02*
X101700000Y-83300000D01*
%TO.N,/HRTIM1_CHF1*%
X82830000Y-121920000D02*
X81080000Y-121920000D01*
X85500000Y-119250000D02*
X82830000Y-121920000D01*
X87080000Y-93460000D02*
X85500000Y-95040000D01*
X85500000Y-95040000D02*
X85500000Y-119250000D01*
%TO.N,/FDCAN1_RX*%
X88600000Y-86350000D02*
X88600000Y-85840000D01*
X98552000Y-96302000D02*
X88600000Y-86350000D01*
X98552000Y-100584000D02*
X98552000Y-96302000D01*
X99060000Y-101092000D02*
X98552000Y-100584000D01*
X124206000Y-101346000D02*
X124206000Y-101092000D01*
X121920000Y-106680000D02*
X121920000Y-103632000D01*
X120396000Y-108204000D02*
X121920000Y-106680000D01*
X121920000Y-103632000D02*
X124206000Y-101346000D01*
X105213989Y-106737989D02*
X116389989Y-106737989D01*
X99060000Y-101092000D02*
X101342000Y-101092000D01*
X103250000Y-104774000D02*
X105213989Y-106737989D01*
X117856000Y-108204000D02*
X120396000Y-108204000D01*
X101342000Y-101092000D02*
X103250000Y-103000000D01*
X116389989Y-106737989D02*
X117856000Y-108204000D01*
X103250000Y-103000000D02*
X103250000Y-104774000D01*
%TO.N,/HRTIM1_CHE1*%
X82613590Y-124500000D02*
X78660000Y-124500000D01*
X87000000Y-120113590D02*
X82613590Y-124500000D01*
X78660000Y-124500000D02*
X76080000Y-121920000D01*
X87000000Y-98250000D02*
X87000000Y-120113590D01*
X89620000Y-95630000D02*
X87000000Y-98250000D01*
X89620000Y-93460000D02*
X89620000Y-95630000D01*
%TO.N,/USART1_TX*%
X105500000Y-38750000D02*
X105500000Y-45563527D01*
X105500000Y-45563527D02*
X100669423Y-50394104D01*
%TO.N,/Temp*%
X84016000Y-77977685D02*
X84016000Y-77412000D01*
X80743685Y-81250000D02*
X84016000Y-77977685D01*
X66324000Y-81250000D02*
X80743685Y-81250000D01*
X63000000Y-84574000D02*
X66324000Y-81250000D01*
X63000000Y-92140000D02*
X63000000Y-84574000D01*
X61680000Y-93460000D02*
X63000000Y-92140000D01*
X61680000Y-93460000D02*
X63500000Y-95280000D01*
X63500000Y-95280000D02*
X63500000Y-103750000D01*
%TO.N,/HRTIM1_CHD1*%
X55342000Y-92202000D02*
X56600000Y-93460000D01*
X53395399Y-92202000D02*
X55342000Y-92202000D01*
X52832000Y-92765399D02*
X53395399Y-92202000D01*
X52832000Y-95168000D02*
X52832000Y-92765399D01*
X50250000Y-97750000D02*
X52832000Y-95168000D01*
X71120000Y-121920000D02*
X71120000Y-123880000D01*
X58674000Y-123190000D02*
X57364000Y-124500000D01*
X71120000Y-123880000D02*
X70540000Y-124460000D01*
X70540000Y-124460000D02*
X63754000Y-124460000D01*
X63754000Y-124460000D02*
X63246000Y-123952000D01*
X51750000Y-124500000D02*
X50250000Y-123000000D01*
X63246000Y-123952000D02*
X63246000Y-120904000D01*
X50250000Y-123000000D02*
X50250000Y-97750000D01*
X63246000Y-120904000D02*
X62092000Y-119750000D01*
X62092000Y-119750000D02*
X59750000Y-119750000D01*
X59750000Y-119750000D02*
X58674000Y-120826000D01*
X58674000Y-120826000D02*
X58674000Y-123190000D01*
X57364000Y-124500000D02*
X51750000Y-124500000D01*
%TO.N,/HRTIM1_CHC1*%
X69750000Y-112000000D02*
X69500000Y-112000000D01*
X72604999Y-109145001D02*
X69750000Y-112000000D01*
X72604999Y-94224999D02*
X72604999Y-109145001D01*
X71840000Y-93460000D02*
X72604999Y-94224999D01*
%TO.N,/FDCAN1_TX*%
X86856000Y-85840000D02*
X86060000Y-85840000D01*
X98044000Y-97028000D02*
X86856000Y-85840000D01*
X98044000Y-103124000D02*
X98044000Y-97028000D01*
X98806000Y-103886000D02*
X98044000Y-103124000D01*
X102108000Y-104648000D02*
X99568000Y-104648000D01*
X104648000Y-107188000D02*
X102108000Y-104648000D01*
X116203589Y-107188000D02*
X104648000Y-107188000D01*
X117669600Y-108654011D02*
X116203589Y-107188000D01*
X121723989Y-108654011D02*
X117669600Y-108654011D01*
X99568000Y-104648000D02*
X98806000Y-103886000D01*
X124206000Y-106172000D02*
X121723989Y-108654011D01*
%TO.N,/HRTIM1_CHE2*%
X78232000Y-118872000D02*
X76200000Y-116840000D01*
X78232000Y-122482000D02*
X78232000Y-118872000D01*
X79599978Y-123849978D02*
X78232000Y-122482000D01*
X86250000Y-97750000D02*
X86250000Y-119750000D01*
X88529999Y-95470001D02*
X86250000Y-97750000D01*
X82150022Y-123849978D02*
X79599978Y-123849978D01*
X86250000Y-119750000D02*
X82150022Y-123849978D01*
X89620000Y-91846798D02*
X88529999Y-92936799D01*
X88529999Y-92936799D02*
X88529999Y-95470001D01*
X89620000Y-90920000D02*
X89620000Y-91846798D01*
%TO.N,/EEPROM_HOLD*%
X43000000Y-45750000D02*
X44750000Y-47500000D01*
X42500000Y-45250000D02*
X43000000Y-45750000D01*
X42500000Y-41250000D02*
X42500000Y-45250000D01*
X44750000Y-39000000D02*
X42500000Y-41250000D01*
X47560000Y-39000000D02*
X44750000Y-39000000D01*
X48980000Y-37580000D02*
X47560000Y-39000000D01*
%TO.N,/I1_low*%
X76200000Y-104140000D02*
X75946000Y-103886000D01*
X71519010Y-77750000D02*
X71545010Y-77724000D01*
X47500000Y-77750000D02*
X71519010Y-77750000D01*
X47500000Y-72500000D02*
X47500000Y-77750000D01*
X40894000Y-65894000D02*
X47500000Y-72500000D01*
X40894000Y-40586000D02*
X40894000Y-65894000D01*
X43900000Y-37580000D02*
X40894000Y-40586000D01*
%TO.N,/I2_low*%
X119610420Y-76873000D02*
X119610420Y-40108420D01*
X47500000Y-35500000D02*
X46440000Y-36560000D01*
X119610420Y-40108420D02*
X118364000Y-38862000D01*
X118364000Y-38862000D02*
X110744000Y-38862000D01*
X110744000Y-38862000D02*
X108132000Y-36250000D01*
X108132000Y-36250000D02*
X87304000Y-36250000D01*
X87304000Y-36250000D02*
X86554000Y-35500000D01*
X86554000Y-35500000D02*
X47500000Y-35500000D01*
X46440000Y-36560000D02*
X46440000Y-37580000D01*
%TO.N,/I_high*%
X76200000Y-109220000D02*
X76200000Y-109474000D01*
X92710000Y-29718000D02*
X92710000Y-34798000D01*
X48900000Y-27500000D02*
X90492000Y-27500000D01*
X90492000Y-27500000D02*
X92710000Y-29718000D01*
X46440000Y-29960000D02*
X48900000Y-27500000D01*
%TO.N,+3V3*%
X104650000Y-110742000D02*
X104650000Y-110748000D01*
X106172000Y-109220000D02*
X104650000Y-110742000D01*
X123196000Y-109220000D02*
X106172000Y-109220000D01*
X124720000Y-110744000D02*
X123196000Y-109220000D01*
X106172000Y-109220000D02*
X103066998Y-109220000D01*
X103066998Y-109220000D02*
X97000000Y-103153002D01*
X97000000Y-103153002D02*
X97000000Y-101600000D01*
%TO.N,/GND_CAN*%
X91741000Y-114093000D02*
X91948000Y-114300000D01*
X90932000Y-114093000D02*
X91741000Y-114093000D01*
X108608500Y-112776000D02*
X108712000Y-112672500D01*
X107188000Y-112776000D02*
X108608500Y-112776000D01*
%TO.N,/CAN_L*%
X95326000Y-114924000D02*
X95326000Y-115860000D01*
X96500000Y-113750000D02*
X95326000Y-114924000D01*
X113574000Y-115860000D02*
X111464000Y-113750000D01*
X115516000Y-115860000D02*
X113574000Y-115860000D01*
X100584000Y-113200000D02*
X101134000Y-113750000D01*
X100584000Y-112672500D02*
X100584000Y-113200000D01*
X101134000Y-113750000D02*
X96500000Y-113750000D01*
X111464000Y-113750000D02*
X101134000Y-113750000D01*
X118235000Y-112776000D02*
X115316000Y-115695000D01*
X120396000Y-112776000D02*
X118235000Y-112776000D01*
%TO.N,/CAN_H*%
X96304000Y-119634000D02*
X94310000Y-117640000D01*
X100866000Y-119634000D02*
X96304000Y-119634000D01*
X103250000Y-117250000D02*
X100866000Y-119634000D01*
X103250000Y-115500000D02*
X103250000Y-117250000D01*
X104450000Y-114300000D02*
X103250000Y-115500000D01*
X110998000Y-114300000D02*
X104450000Y-114300000D01*
X114338000Y-117640000D02*
X110998000Y-114300000D01*
X114500000Y-117640000D02*
X114338000Y-117640000D01*
%TO.N,/PWR_CAN2*%
X113290000Y-110875000D02*
X116201000Y-110875000D01*
X116201000Y-110875000D02*
X116500000Y-110576000D01*
%TO.N,/SPI3_CS*%
X46350000Y-42750000D02*
X51520000Y-37580000D01*
X43750000Y-42750000D02*
X46350000Y-42750000D01*
%TO.N,/SPI3_CS2*%
X107250000Y-49250000D02*
X106250020Y-49250000D01*
X110250000Y-46250000D02*
X107250000Y-49250000D01*
%TO.N,Net-(J2-Pad11)*%
X102260500Y-110847500D02*
X102360000Y-110748000D01*
X100584000Y-110847500D02*
X102260500Y-110847500D01*
%TO.N,Net-(J2-Pad9)*%
X90932000Y-110750000D02*
X90930000Y-110748000D01*
X90932000Y-112268000D02*
X90932000Y-110750000D01*
%TO.N,Net-(J3-Pad11)*%
X122354000Y-110951000D02*
X122430000Y-110875000D01*
X120396000Y-110951000D02*
X122354000Y-110951000D01*
%TO.N,Net-(J3-Pad9)*%
X110972500Y-110847500D02*
X111000000Y-110875000D01*
X108712000Y-110847500D02*
X110972500Y-110847500D01*
%TO.N,/I_high_raw*%
X94960000Y-40500000D02*
X94960000Y-39360000D01*
X94124999Y-38524999D02*
X89875001Y-38524999D01*
X94960000Y-39360000D02*
X94124999Y-38524999D01*
X87977001Y-40422999D02*
X62722999Y-40422999D01*
X89875001Y-38524999D02*
X87977001Y-40422999D01*
X62722999Y-40422999D02*
X62600000Y-40300000D01*
X62600000Y-40300000D02*
X62600000Y-40300000D01*
%TO.N,/I1_low_raw*%
X72900000Y-75000000D02*
X67000010Y-75000000D01*
X73860000Y-74040000D02*
X72900000Y-75000000D01*
X77500000Y-74040000D02*
X73860000Y-74040000D01*
%TO.N,/V1_low_raw_N*%
X90140000Y-63100000D02*
X91540000Y-64500000D01*
X86800000Y-63100000D02*
X90140000Y-63100000D01*
%TO.N,/V1_low_raw_P*%
X88400000Y-65100000D02*
X89000000Y-64500000D01*
X86800000Y-65100000D02*
X88400000Y-65100000D01*
%TO.N,/V2_low_raw_N*%
X102540000Y-66110000D02*
X102500000Y-66150000D01*
X102540000Y-64500000D02*
X102540000Y-66110000D01*
%TO.N,/V2_low_raw_P*%
X100000000Y-66150000D02*
X100000000Y-64500000D01*
%TO.N,/V_high_raw_N*%
X77500000Y-54450000D02*
X77600000Y-54550000D01*
X77500000Y-53000000D02*
X77500000Y-54450000D01*
%TO.N,/V_high_raw_P*%
X80040000Y-54310000D02*
X80000000Y-54350000D01*
X80040000Y-53000000D02*
X80040000Y-54310000D01*
%TO.N,/Vref*%
X96000000Y-70200000D02*
X88600000Y-70200000D01*
X88600000Y-70200000D02*
X87300000Y-68900000D01*
%TD*%
M02*
