%TF.GenerationSoftware,KiCad,Pcbnew,5.1.7-a382d34a8~88~ubuntu20.04.1*%
%TF.CreationDate,2021-04-08T15:18:28+02:00*%
%TF.ProjectId,Shield_Nucleo,53686965-6c64-45f4-9e75-636c656f2e6b,rev?*%
%TF.SameCoordinates,Original*%
%TF.FileFunction,Soldermask,Bot*%
%TF.FilePolarity,Negative*%
%FSLAX46Y46*%
G04 Gerber Fmt 4.6, Leading zero omitted, Abs format (unit mm)*
G04 Created by KiCad (PCBNEW 5.1.7-a382d34a8~88~ubuntu20.04.1) date 2021-04-08 15:18:28*
%MOMM*%
%LPD*%
G01*
G04 APERTURE LIST*
%ADD10C,2.100000*%
%ADD11C,1.600000*%
%ADD12C,2.400000*%
%ADD13C,3.350000*%
%ADD14O,1.800000X1.800000*%
%ADD15C,1.705000*%
%ADD16C,3.100000*%
%ADD17C,1.630000*%
%ADD18C,6.100000*%
G04 APERTURE END LIST*
%TO.C,U10*%
G36*
G01*
X95970000Y-78950000D02*
X96770000Y-78950000D01*
G75*
G02*
X96820000Y-79000000I0J-50000D01*
G01*
X96820000Y-79900000D01*
G75*
G02*
X96770000Y-79950000I-50000J0D01*
G01*
X95970000Y-79950000D01*
G75*
G02*
X95920000Y-79900000I0J50000D01*
G01*
X95920000Y-79000000D01*
G75*
G02*
X95970000Y-78950000I50000J0D01*
G01*
G37*
G36*
G01*
X96920000Y-76950000D02*
X97720000Y-76950000D01*
G75*
G02*
X97770000Y-77000000I0J-50000D01*
G01*
X97770000Y-77900000D01*
G75*
G02*
X97720000Y-77950000I-50000J0D01*
G01*
X96920000Y-77950000D01*
G75*
G02*
X96870000Y-77900000I0J50000D01*
G01*
X96870000Y-77000000D01*
G75*
G02*
X96920000Y-76950000I50000J0D01*
G01*
G37*
G36*
G01*
X95020000Y-76950000D02*
X95820000Y-76950000D01*
G75*
G02*
X95870000Y-77000000I0J-50000D01*
G01*
X95870000Y-77900000D01*
G75*
G02*
X95820000Y-77950000I-50000J0D01*
G01*
X95020000Y-77950000D01*
G75*
G02*
X94970000Y-77900000I0J50000D01*
G01*
X94970000Y-77000000D01*
G75*
G02*
X95020000Y-76950000I50000J0D01*
G01*
G37*
%TD*%
%TO.C,C10*%
G36*
G01*
X98500000Y-78800000D02*
X99500000Y-78800000D01*
G75*
G02*
X99775000Y-79075000I0J-275000D01*
G01*
X99775000Y-79625000D01*
G75*
G02*
X99500000Y-79900000I-275000J0D01*
G01*
X98500000Y-79900000D01*
G75*
G02*
X98225000Y-79625000I0J275000D01*
G01*
X98225000Y-79075000D01*
G75*
G02*
X98500000Y-78800000I275000J0D01*
G01*
G37*
G36*
G01*
X98500000Y-76900000D02*
X99500000Y-76900000D01*
G75*
G02*
X99775000Y-77175000I0J-275000D01*
G01*
X99775000Y-77725000D01*
G75*
G02*
X99500000Y-78000000I-275000J0D01*
G01*
X98500000Y-78000000D01*
G75*
G02*
X98225000Y-77725000I0J275000D01*
G01*
X98225000Y-77175000D01*
G75*
G02*
X98500000Y-76900000I275000J0D01*
G01*
G37*
%TD*%
%TO.C,C9*%
G36*
G01*
X93200000Y-78850000D02*
X94200000Y-78850000D01*
G75*
G02*
X94475000Y-79125000I0J-275000D01*
G01*
X94475000Y-79675000D01*
G75*
G02*
X94200000Y-79950000I-275000J0D01*
G01*
X93200000Y-79950000D01*
G75*
G02*
X92925000Y-79675000I0J275000D01*
G01*
X92925000Y-79125000D01*
G75*
G02*
X93200000Y-78850000I275000J0D01*
G01*
G37*
G36*
G01*
X93200000Y-76950000D02*
X94200000Y-76950000D01*
G75*
G02*
X94475000Y-77225000I0J-275000D01*
G01*
X94475000Y-77775000D01*
G75*
G02*
X94200000Y-78050000I-275000J0D01*
G01*
X93200000Y-78050000D01*
G75*
G02*
X92925000Y-77775000I0J275000D01*
G01*
X92925000Y-77225000D01*
G75*
G02*
X93200000Y-76950000I275000J0D01*
G01*
G37*
%TD*%
%TO.C,U9*%
G36*
G01*
X67250000Y-65725000D02*
X66850000Y-65725000D01*
G75*
G02*
X66800000Y-65675000I0J50000D01*
G01*
X66800000Y-65025000D01*
G75*
G02*
X66850000Y-64975000I50000J0D01*
G01*
X67250000Y-64975000D01*
G75*
G02*
X67300000Y-65025000I0J-50000D01*
G01*
X67300000Y-65675000D01*
G75*
G02*
X67250000Y-65725000I-50000J0D01*
G01*
G37*
G36*
G01*
X65950000Y-65725000D02*
X65550000Y-65725000D01*
G75*
G02*
X65500000Y-65675000I0J50000D01*
G01*
X65500000Y-65025000D01*
G75*
G02*
X65550000Y-64975000I50000J0D01*
G01*
X65950000Y-64975000D01*
G75*
G02*
X66000000Y-65025000I0J-50000D01*
G01*
X66000000Y-65675000D01*
G75*
G02*
X65950000Y-65725000I-50000J0D01*
G01*
G37*
G36*
G01*
X66600000Y-67625000D02*
X66200000Y-67625000D01*
G75*
G02*
X66150000Y-67575000I0J50000D01*
G01*
X66150000Y-66925000D01*
G75*
G02*
X66200000Y-66875000I50000J0D01*
G01*
X66600000Y-66875000D01*
G75*
G02*
X66650000Y-66925000I0J-50000D01*
G01*
X66650000Y-67575000D01*
G75*
G02*
X66600000Y-67625000I-50000J0D01*
G01*
G37*
G36*
G01*
X65950000Y-67625000D02*
X65550000Y-67625000D01*
G75*
G02*
X65500000Y-67575000I0J50000D01*
G01*
X65500000Y-66925000D01*
G75*
G02*
X65550000Y-66875000I50000J0D01*
G01*
X65950000Y-66875000D01*
G75*
G02*
X66000000Y-66925000I0J-50000D01*
G01*
X66000000Y-67575000D01*
G75*
G02*
X65950000Y-67625000I-50000J0D01*
G01*
G37*
G36*
G01*
X67250000Y-67625000D02*
X66850000Y-67625000D01*
G75*
G02*
X66800000Y-67575000I0J50000D01*
G01*
X66800000Y-66925000D01*
G75*
G02*
X66850000Y-66875000I50000J0D01*
G01*
X67250000Y-66875000D01*
G75*
G02*
X67300000Y-66925000I0J-50000D01*
G01*
X67300000Y-67575000D01*
G75*
G02*
X67250000Y-67625000I-50000J0D01*
G01*
G37*
%TD*%
%TO.C,U8*%
G36*
G01*
X115050000Y-67825000D02*
X114650000Y-67825000D01*
G75*
G02*
X114600000Y-67775000I0J50000D01*
G01*
X114600000Y-67125000D01*
G75*
G02*
X114650000Y-67075000I50000J0D01*
G01*
X115050000Y-67075000D01*
G75*
G02*
X115100000Y-67125000I0J-50000D01*
G01*
X115100000Y-67775000D01*
G75*
G02*
X115050000Y-67825000I-50000J0D01*
G01*
G37*
G36*
G01*
X113750000Y-67825000D02*
X113350000Y-67825000D01*
G75*
G02*
X113300000Y-67775000I0J50000D01*
G01*
X113300000Y-67125000D01*
G75*
G02*
X113350000Y-67075000I50000J0D01*
G01*
X113750000Y-67075000D01*
G75*
G02*
X113800000Y-67125000I0J-50000D01*
G01*
X113800000Y-67775000D01*
G75*
G02*
X113750000Y-67825000I-50000J0D01*
G01*
G37*
G36*
G01*
X114400000Y-69725000D02*
X114000000Y-69725000D01*
G75*
G02*
X113950000Y-69675000I0J50000D01*
G01*
X113950000Y-69025000D01*
G75*
G02*
X114000000Y-68975000I50000J0D01*
G01*
X114400000Y-68975000D01*
G75*
G02*
X114450000Y-69025000I0J-50000D01*
G01*
X114450000Y-69675000D01*
G75*
G02*
X114400000Y-69725000I-50000J0D01*
G01*
G37*
G36*
G01*
X113750000Y-69725000D02*
X113350000Y-69725000D01*
G75*
G02*
X113300000Y-69675000I0J50000D01*
G01*
X113300000Y-69025000D01*
G75*
G02*
X113350000Y-68975000I50000J0D01*
G01*
X113750000Y-68975000D01*
G75*
G02*
X113800000Y-69025000I0J-50000D01*
G01*
X113800000Y-69675000D01*
G75*
G02*
X113750000Y-69725000I-50000J0D01*
G01*
G37*
G36*
G01*
X115050000Y-69725000D02*
X114650000Y-69725000D01*
G75*
G02*
X114600000Y-69675000I0J50000D01*
G01*
X114600000Y-69025000D01*
G75*
G02*
X114650000Y-68975000I50000J0D01*
G01*
X115050000Y-68975000D01*
G75*
G02*
X115100000Y-69025000I0J-50000D01*
G01*
X115100000Y-69675000D01*
G75*
G02*
X115050000Y-69725000I-50000J0D01*
G01*
G37*
%TD*%
%TO.C,U7*%
G36*
G01*
X53225000Y-41950000D02*
X53225000Y-42350000D01*
G75*
G02*
X53175000Y-42400000I-50000J0D01*
G01*
X52525000Y-42400000D01*
G75*
G02*
X52475000Y-42350000I0J50000D01*
G01*
X52475000Y-41950000D01*
G75*
G02*
X52525000Y-41900000I50000J0D01*
G01*
X53175000Y-41900000D01*
G75*
G02*
X53225000Y-41950000I0J-50000D01*
G01*
G37*
G36*
G01*
X53225000Y-43250000D02*
X53225000Y-43650000D01*
G75*
G02*
X53175000Y-43700000I-50000J0D01*
G01*
X52525000Y-43700000D01*
G75*
G02*
X52475000Y-43650000I0J50000D01*
G01*
X52475000Y-43250000D01*
G75*
G02*
X52525000Y-43200000I50000J0D01*
G01*
X53175000Y-43200000D01*
G75*
G02*
X53225000Y-43250000I0J-50000D01*
G01*
G37*
G36*
G01*
X55125000Y-42600000D02*
X55125000Y-43000000D01*
G75*
G02*
X55075000Y-43050000I-50000J0D01*
G01*
X54425000Y-43050000D01*
G75*
G02*
X54375000Y-43000000I0J50000D01*
G01*
X54375000Y-42600000D01*
G75*
G02*
X54425000Y-42550000I50000J0D01*
G01*
X55075000Y-42550000D01*
G75*
G02*
X55125000Y-42600000I0J-50000D01*
G01*
G37*
G36*
G01*
X55125000Y-43250000D02*
X55125000Y-43650000D01*
G75*
G02*
X55075000Y-43700000I-50000J0D01*
G01*
X54425000Y-43700000D01*
G75*
G02*
X54375000Y-43650000I0J50000D01*
G01*
X54375000Y-43250000D01*
G75*
G02*
X54425000Y-43200000I50000J0D01*
G01*
X55075000Y-43200000D01*
G75*
G02*
X55125000Y-43250000I0J-50000D01*
G01*
G37*
G36*
G01*
X55125000Y-41950000D02*
X55125000Y-42350000D01*
G75*
G02*
X55075000Y-42400000I-50000J0D01*
G01*
X54425000Y-42400000D01*
G75*
G02*
X54375000Y-42350000I0J50000D01*
G01*
X54375000Y-41950000D01*
G75*
G02*
X54425000Y-41900000I50000J0D01*
G01*
X55075000Y-41900000D01*
G75*
G02*
X55125000Y-41950000I0J-50000D01*
G01*
G37*
%TD*%
%TO.C,U6*%
G36*
G01*
X89250000Y-74975000D02*
X89650000Y-74975000D01*
G75*
G02*
X89700000Y-75025000I0J-50000D01*
G01*
X89700000Y-75675000D01*
G75*
G02*
X89650000Y-75725000I-50000J0D01*
G01*
X89250000Y-75725000D01*
G75*
G02*
X89200000Y-75675000I0J50000D01*
G01*
X89200000Y-75025000D01*
G75*
G02*
X89250000Y-74975000I50000J0D01*
G01*
G37*
G36*
G01*
X90550000Y-74975000D02*
X90950000Y-74975000D01*
G75*
G02*
X91000000Y-75025000I0J-50000D01*
G01*
X91000000Y-75675000D01*
G75*
G02*
X90950000Y-75725000I-50000J0D01*
G01*
X90550000Y-75725000D01*
G75*
G02*
X90500000Y-75675000I0J50000D01*
G01*
X90500000Y-75025000D01*
G75*
G02*
X90550000Y-74975000I50000J0D01*
G01*
G37*
G36*
G01*
X89900000Y-73075000D02*
X90300000Y-73075000D01*
G75*
G02*
X90350000Y-73125000I0J-50000D01*
G01*
X90350000Y-73775000D01*
G75*
G02*
X90300000Y-73825000I-50000J0D01*
G01*
X89900000Y-73825000D01*
G75*
G02*
X89850000Y-73775000I0J50000D01*
G01*
X89850000Y-73125000D01*
G75*
G02*
X89900000Y-73075000I50000J0D01*
G01*
G37*
G36*
G01*
X90550000Y-73075000D02*
X90950000Y-73075000D01*
G75*
G02*
X91000000Y-73125000I0J-50000D01*
G01*
X91000000Y-73775000D01*
G75*
G02*
X90950000Y-73825000I-50000J0D01*
G01*
X90550000Y-73825000D01*
G75*
G02*
X90500000Y-73775000I0J50000D01*
G01*
X90500000Y-73125000D01*
G75*
G02*
X90550000Y-73075000I50000J0D01*
G01*
G37*
G36*
G01*
X89250000Y-73075000D02*
X89650000Y-73075000D01*
G75*
G02*
X89700000Y-73125000I0J-50000D01*
G01*
X89700000Y-73775000D01*
G75*
G02*
X89650000Y-73825000I-50000J0D01*
G01*
X89250000Y-73825000D01*
G75*
G02*
X89200000Y-73775000I0J50000D01*
G01*
X89200000Y-73125000D01*
G75*
G02*
X89250000Y-73075000I50000J0D01*
G01*
G37*
%TD*%
%TO.C,U5*%
G36*
G01*
X100150000Y-74375000D02*
X100550000Y-74375000D01*
G75*
G02*
X100600000Y-74425000I0J-50000D01*
G01*
X100600000Y-75075000D01*
G75*
G02*
X100550000Y-75125000I-50000J0D01*
G01*
X100150000Y-75125000D01*
G75*
G02*
X100100000Y-75075000I0J50000D01*
G01*
X100100000Y-74425000D01*
G75*
G02*
X100150000Y-74375000I50000J0D01*
G01*
G37*
G36*
G01*
X101450000Y-74375000D02*
X101850000Y-74375000D01*
G75*
G02*
X101900000Y-74425000I0J-50000D01*
G01*
X101900000Y-75075000D01*
G75*
G02*
X101850000Y-75125000I-50000J0D01*
G01*
X101450000Y-75125000D01*
G75*
G02*
X101400000Y-75075000I0J50000D01*
G01*
X101400000Y-74425000D01*
G75*
G02*
X101450000Y-74375000I50000J0D01*
G01*
G37*
G36*
G01*
X100800000Y-72475000D02*
X101200000Y-72475000D01*
G75*
G02*
X101250000Y-72525000I0J-50000D01*
G01*
X101250000Y-73175000D01*
G75*
G02*
X101200000Y-73225000I-50000J0D01*
G01*
X100800000Y-73225000D01*
G75*
G02*
X100750000Y-73175000I0J50000D01*
G01*
X100750000Y-72525000D01*
G75*
G02*
X100800000Y-72475000I50000J0D01*
G01*
G37*
G36*
G01*
X101450000Y-72475000D02*
X101850000Y-72475000D01*
G75*
G02*
X101900000Y-72525000I0J-50000D01*
G01*
X101900000Y-73175000D01*
G75*
G02*
X101850000Y-73225000I-50000J0D01*
G01*
X101450000Y-73225000D01*
G75*
G02*
X101400000Y-73175000I0J50000D01*
G01*
X101400000Y-72525000D01*
G75*
G02*
X101450000Y-72475000I50000J0D01*
G01*
G37*
G36*
G01*
X100150000Y-72475000D02*
X100550000Y-72475000D01*
G75*
G02*
X100600000Y-72525000I0J-50000D01*
G01*
X100600000Y-73175000D01*
G75*
G02*
X100550000Y-73225000I-50000J0D01*
G01*
X100150000Y-73225000D01*
G75*
G02*
X100100000Y-73175000I0J50000D01*
G01*
X100100000Y-72525000D01*
G75*
G02*
X100150000Y-72475000I50000J0D01*
G01*
G37*
%TD*%
%TO.C,U4*%
G36*
G01*
X59825000Y-54050000D02*
X59825000Y-54450000D01*
G75*
G02*
X59775000Y-54500000I-50000J0D01*
G01*
X59125000Y-54500000D01*
G75*
G02*
X59075000Y-54450000I0J50000D01*
G01*
X59075000Y-54050000D01*
G75*
G02*
X59125000Y-54000000I50000J0D01*
G01*
X59775000Y-54000000D01*
G75*
G02*
X59825000Y-54050000I0J-50000D01*
G01*
G37*
G36*
G01*
X59825000Y-55350000D02*
X59825000Y-55750000D01*
G75*
G02*
X59775000Y-55800000I-50000J0D01*
G01*
X59125000Y-55800000D01*
G75*
G02*
X59075000Y-55750000I0J50000D01*
G01*
X59075000Y-55350000D01*
G75*
G02*
X59125000Y-55300000I50000J0D01*
G01*
X59775000Y-55300000D01*
G75*
G02*
X59825000Y-55350000I0J-50000D01*
G01*
G37*
G36*
G01*
X61725000Y-54700000D02*
X61725000Y-55100000D01*
G75*
G02*
X61675000Y-55150000I-50000J0D01*
G01*
X61025000Y-55150000D01*
G75*
G02*
X60975000Y-55100000I0J50000D01*
G01*
X60975000Y-54700000D01*
G75*
G02*
X61025000Y-54650000I50000J0D01*
G01*
X61675000Y-54650000D01*
G75*
G02*
X61725000Y-54700000I0J-50000D01*
G01*
G37*
G36*
G01*
X61725000Y-55350000D02*
X61725000Y-55750000D01*
G75*
G02*
X61675000Y-55800000I-50000J0D01*
G01*
X61025000Y-55800000D01*
G75*
G02*
X60975000Y-55750000I0J50000D01*
G01*
X60975000Y-55350000D01*
G75*
G02*
X61025000Y-55300000I50000J0D01*
G01*
X61675000Y-55300000D01*
G75*
G02*
X61725000Y-55350000I0J-50000D01*
G01*
G37*
G36*
G01*
X61725000Y-54050000D02*
X61725000Y-54450000D01*
G75*
G02*
X61675000Y-54500000I-50000J0D01*
G01*
X61025000Y-54500000D01*
G75*
G02*
X60975000Y-54450000I0J50000D01*
G01*
X60975000Y-54050000D01*
G75*
G02*
X61025000Y-54000000I50000J0D01*
G01*
X61675000Y-54000000D01*
G75*
G02*
X61725000Y-54050000I0J-50000D01*
G01*
G37*
%TD*%
%TO.C,R37*%
G36*
G01*
X64575611Y-65962500D02*
X63624389Y-65962500D01*
G75*
G02*
X63350000Y-65688111I0J274389D01*
G01*
X63350000Y-65111889D01*
G75*
G02*
X63624389Y-64837500I274389J0D01*
G01*
X64575611Y-64837500D01*
G75*
G02*
X64850000Y-65111889I0J-274389D01*
G01*
X64850000Y-65688111D01*
G75*
G02*
X64575611Y-65962500I-274389J0D01*
G01*
G37*
G36*
G01*
X64575611Y-67787500D02*
X63624389Y-67787500D01*
G75*
G02*
X63350000Y-67513111I0J274389D01*
G01*
X63350000Y-66936889D01*
G75*
G02*
X63624389Y-66662500I274389J0D01*
G01*
X64575611Y-66662500D01*
G75*
G02*
X64850000Y-66936889I0J-274389D01*
G01*
X64850000Y-67513111D01*
G75*
G02*
X64575611Y-67787500I-274389J0D01*
G01*
G37*
%TD*%
%TO.C,R36*%
G36*
G01*
X112075611Y-68050000D02*
X111124389Y-68050000D01*
G75*
G02*
X110850000Y-67775611I0J274389D01*
G01*
X110850000Y-67199389D01*
G75*
G02*
X111124389Y-66925000I274389J0D01*
G01*
X112075611Y-66925000D01*
G75*
G02*
X112350000Y-67199389I0J-274389D01*
G01*
X112350000Y-67775611D01*
G75*
G02*
X112075611Y-68050000I-274389J0D01*
G01*
G37*
G36*
G01*
X112075611Y-69875000D02*
X111124389Y-69875000D01*
G75*
G02*
X110850000Y-69600611I0J274389D01*
G01*
X110850000Y-69024389D01*
G75*
G02*
X111124389Y-68750000I274389J0D01*
G01*
X112075611Y-68750000D01*
G75*
G02*
X112350000Y-69024389I0J-274389D01*
G01*
X112350000Y-69600611D01*
G75*
G02*
X112075611Y-69875000I-274389J0D01*
G01*
G37*
%TD*%
%TO.C,R35*%
G36*
G01*
X53362500Y-44424389D02*
X53362500Y-45375611D01*
G75*
G02*
X53088111Y-45650000I-274389J0D01*
G01*
X52511889Y-45650000D01*
G75*
G02*
X52237500Y-45375611I0J274389D01*
G01*
X52237500Y-44424389D01*
G75*
G02*
X52511889Y-44150000I274389J0D01*
G01*
X53088111Y-44150000D01*
G75*
G02*
X53362500Y-44424389I0J-274389D01*
G01*
G37*
G36*
G01*
X55187500Y-44424389D02*
X55187500Y-45375611D01*
G75*
G02*
X54913111Y-45650000I-274389J0D01*
G01*
X54336889Y-45650000D01*
G75*
G02*
X54062500Y-45375611I0J274389D01*
G01*
X54062500Y-44424389D01*
G75*
G02*
X54336889Y-44150000I274389J0D01*
G01*
X54913111Y-44150000D01*
G75*
G02*
X55187500Y-44424389I0J-274389D01*
G01*
G37*
%TD*%
%TO.C,R34*%
G36*
G01*
X69275611Y-69662500D02*
X68324389Y-69662500D01*
G75*
G02*
X68050000Y-69388111I0J274389D01*
G01*
X68050000Y-68811889D01*
G75*
G02*
X68324389Y-68537500I274389J0D01*
G01*
X69275611Y-68537500D01*
G75*
G02*
X69550000Y-68811889I0J-274389D01*
G01*
X69550000Y-69388111D01*
G75*
G02*
X69275611Y-69662500I-274389J0D01*
G01*
G37*
G36*
G01*
X69275611Y-71487500D02*
X68324389Y-71487500D01*
G75*
G02*
X68050000Y-71213111I0J274389D01*
G01*
X68050000Y-70636889D01*
G75*
G02*
X68324389Y-70362500I274389J0D01*
G01*
X69275611Y-70362500D01*
G75*
G02*
X69550000Y-70636889I0J-274389D01*
G01*
X69550000Y-71213111D01*
G75*
G02*
X69275611Y-71487500I-274389J0D01*
G01*
G37*
%TD*%
%TO.C,R33*%
G36*
G01*
X117375611Y-71150000D02*
X116424389Y-71150000D01*
G75*
G02*
X116150000Y-70875611I0J274389D01*
G01*
X116150000Y-70299389D01*
G75*
G02*
X116424389Y-70025000I274389J0D01*
G01*
X117375611Y-70025000D01*
G75*
G02*
X117650000Y-70299389I0J-274389D01*
G01*
X117650000Y-70875611D01*
G75*
G02*
X117375611Y-71150000I-274389J0D01*
G01*
G37*
G36*
G01*
X117375611Y-72975000D02*
X116424389Y-72975000D01*
G75*
G02*
X116150000Y-72700611I0J274389D01*
G01*
X116150000Y-72124389D01*
G75*
G02*
X116424389Y-71850000I274389J0D01*
G01*
X117375611Y-71850000D01*
G75*
G02*
X117650000Y-72124389I0J-274389D01*
G01*
X117650000Y-72700611D01*
G75*
G02*
X117375611Y-72975000I-274389J0D01*
G01*
G37*
%TD*%
%TO.C,R32*%
G36*
G01*
X56762500Y-40024389D02*
X56762500Y-40975611D01*
G75*
G02*
X56488111Y-41250000I-274389J0D01*
G01*
X55911889Y-41250000D01*
G75*
G02*
X55637500Y-40975611I0J274389D01*
G01*
X55637500Y-40024389D01*
G75*
G02*
X55911889Y-39750000I274389J0D01*
G01*
X56488111Y-39750000D01*
G75*
G02*
X56762500Y-40024389I0J-274389D01*
G01*
G37*
G36*
G01*
X58587500Y-40024389D02*
X58587500Y-40975611D01*
G75*
G02*
X58313111Y-41250000I-274389J0D01*
G01*
X57736889Y-41250000D01*
G75*
G02*
X57462500Y-40975611I0J274389D01*
G01*
X57462500Y-40024389D01*
G75*
G02*
X57736889Y-39750000I274389J0D01*
G01*
X58313111Y-39750000D01*
G75*
G02*
X58587500Y-40024389I0J-274389D01*
G01*
G37*
%TD*%
%TO.C,R31*%
G36*
G01*
X64724389Y-70337500D02*
X65675611Y-70337500D01*
G75*
G02*
X65950000Y-70611889I0J-274389D01*
G01*
X65950000Y-71188111D01*
G75*
G02*
X65675611Y-71462500I-274389J0D01*
G01*
X64724389Y-71462500D01*
G75*
G02*
X64450000Y-71188111I0J274389D01*
G01*
X64450000Y-70611889D01*
G75*
G02*
X64724389Y-70337500I274389J0D01*
G01*
G37*
G36*
G01*
X64724389Y-68512500D02*
X65675611Y-68512500D01*
G75*
G02*
X65950000Y-68786889I0J-274389D01*
G01*
X65950000Y-69363111D01*
G75*
G02*
X65675611Y-69637500I-274389J0D01*
G01*
X64724389Y-69637500D01*
G75*
G02*
X64450000Y-69363111I0J274389D01*
G01*
X64450000Y-68786889D01*
G75*
G02*
X64724389Y-68512500I274389J0D01*
G01*
G37*
%TD*%
%TO.C,R30*%
G36*
G01*
X66524389Y-70337500D02*
X67475611Y-70337500D01*
G75*
G02*
X67750000Y-70611889I0J-274389D01*
G01*
X67750000Y-71188111D01*
G75*
G02*
X67475611Y-71462500I-274389J0D01*
G01*
X66524389Y-71462500D01*
G75*
G02*
X66250000Y-71188111I0J274389D01*
G01*
X66250000Y-70611889D01*
G75*
G02*
X66524389Y-70337500I274389J0D01*
G01*
G37*
G36*
G01*
X66524389Y-68512500D02*
X67475611Y-68512500D01*
G75*
G02*
X67750000Y-68786889I0J-274389D01*
G01*
X67750000Y-69363111D01*
G75*
G02*
X67475611Y-69637500I-274389J0D01*
G01*
X66524389Y-69637500D01*
G75*
G02*
X66250000Y-69363111I0J274389D01*
G01*
X66250000Y-68786889D01*
G75*
G02*
X66524389Y-68512500I274389J0D01*
G01*
G37*
%TD*%
%TO.C,R29*%
G36*
G01*
X112824389Y-71950000D02*
X113775611Y-71950000D01*
G75*
G02*
X114050000Y-72224389I0J-274389D01*
G01*
X114050000Y-72800611D01*
G75*
G02*
X113775611Y-73075000I-274389J0D01*
G01*
X112824389Y-73075000D01*
G75*
G02*
X112550000Y-72800611I0J274389D01*
G01*
X112550000Y-72224389D01*
G75*
G02*
X112824389Y-71950000I274389J0D01*
G01*
G37*
G36*
G01*
X112824389Y-70125000D02*
X113775611Y-70125000D01*
G75*
G02*
X114050000Y-70399389I0J-274389D01*
G01*
X114050000Y-70975611D01*
G75*
G02*
X113775611Y-71250000I-274389J0D01*
G01*
X112824389Y-71250000D01*
G75*
G02*
X112550000Y-70975611I0J274389D01*
G01*
X112550000Y-70399389D01*
G75*
G02*
X112824389Y-70125000I274389J0D01*
G01*
G37*
%TD*%
%TO.C,R28*%
G36*
G01*
X114624389Y-71850000D02*
X115575611Y-71850000D01*
G75*
G02*
X115850000Y-72124389I0J-274389D01*
G01*
X115850000Y-72700611D01*
G75*
G02*
X115575611Y-72975000I-274389J0D01*
G01*
X114624389Y-72975000D01*
G75*
G02*
X114350000Y-72700611I0J274389D01*
G01*
X114350000Y-72124389D01*
G75*
G02*
X114624389Y-71850000I274389J0D01*
G01*
G37*
G36*
G01*
X114624389Y-70025000D02*
X115575611Y-70025000D01*
G75*
G02*
X115850000Y-70299389I0J-274389D01*
G01*
X115850000Y-70875611D01*
G75*
G02*
X115575611Y-71150000I-274389J0D01*
G01*
X114624389Y-71150000D01*
G75*
G02*
X114350000Y-70875611I0J274389D01*
G01*
X114350000Y-70299389D01*
G75*
G02*
X114624389Y-70025000I274389J0D01*
G01*
G37*
%TD*%
%TO.C,R27*%
G36*
G01*
X57437500Y-44375611D02*
X57437500Y-43424389D01*
G75*
G02*
X57711889Y-43150000I274389J0D01*
G01*
X58288111Y-43150000D01*
G75*
G02*
X58562500Y-43424389I0J-274389D01*
G01*
X58562500Y-44375611D01*
G75*
G02*
X58288111Y-44650000I-274389J0D01*
G01*
X57711889Y-44650000D01*
G75*
G02*
X57437500Y-44375611I0J274389D01*
G01*
G37*
G36*
G01*
X55612500Y-44375611D02*
X55612500Y-43424389D01*
G75*
G02*
X55886889Y-43150000I274389J0D01*
G01*
X56463111Y-43150000D01*
G75*
G02*
X56737500Y-43424389I0J-274389D01*
G01*
X56737500Y-44375611D01*
G75*
G02*
X56463111Y-44650000I-274389J0D01*
G01*
X55886889Y-44650000D01*
G75*
G02*
X55612500Y-44375611I0J274389D01*
G01*
G37*
%TD*%
%TO.C,R26*%
G36*
G01*
X57462500Y-42575611D02*
X57462500Y-41624389D01*
G75*
G02*
X57736889Y-41350000I274389J0D01*
G01*
X58313111Y-41350000D01*
G75*
G02*
X58587500Y-41624389I0J-274389D01*
G01*
X58587500Y-42575611D01*
G75*
G02*
X58313111Y-42850000I-274389J0D01*
G01*
X57736889Y-42850000D01*
G75*
G02*
X57462500Y-42575611I0J274389D01*
G01*
G37*
G36*
G01*
X55637500Y-42575611D02*
X55637500Y-41624389D01*
G75*
G02*
X55911889Y-41350000I274389J0D01*
G01*
X56488111Y-41350000D01*
G75*
G02*
X56762500Y-41624389I0J-274389D01*
G01*
X56762500Y-42575611D01*
G75*
G02*
X56488111Y-42850000I-274389J0D01*
G01*
X55911889Y-42850000D01*
G75*
G02*
X55637500Y-42575611I0J274389D01*
G01*
G37*
%TD*%
%TO.C,R25*%
G36*
G01*
X92024389Y-74737500D02*
X92975611Y-74737500D01*
G75*
G02*
X93250000Y-75011889I0J-274389D01*
G01*
X93250000Y-75588111D01*
G75*
G02*
X92975611Y-75862500I-274389J0D01*
G01*
X92024389Y-75862500D01*
G75*
G02*
X91750000Y-75588111I0J274389D01*
G01*
X91750000Y-75011889D01*
G75*
G02*
X92024389Y-74737500I274389J0D01*
G01*
G37*
G36*
G01*
X92024389Y-72912500D02*
X92975611Y-72912500D01*
G75*
G02*
X93250000Y-73186889I0J-274389D01*
G01*
X93250000Y-73763111D01*
G75*
G02*
X92975611Y-74037500I-274389J0D01*
G01*
X92024389Y-74037500D01*
G75*
G02*
X91750000Y-73763111I0J274389D01*
G01*
X91750000Y-73186889D01*
G75*
G02*
X92024389Y-72912500I274389J0D01*
G01*
G37*
%TD*%
%TO.C,R24*%
G36*
G01*
X102524389Y-74137500D02*
X103475611Y-74137500D01*
G75*
G02*
X103750000Y-74411889I0J-274389D01*
G01*
X103750000Y-74988111D01*
G75*
G02*
X103475611Y-75262500I-274389J0D01*
G01*
X102524389Y-75262500D01*
G75*
G02*
X102250000Y-74988111I0J274389D01*
G01*
X102250000Y-74411889D01*
G75*
G02*
X102524389Y-74137500I274389J0D01*
G01*
G37*
G36*
G01*
X102524389Y-72312500D02*
X103475611Y-72312500D01*
G75*
G02*
X103750000Y-72586889I0J-274389D01*
G01*
X103750000Y-73163111D01*
G75*
G02*
X103475611Y-73437500I-274389J0D01*
G01*
X102524389Y-73437500D01*
G75*
G02*
X102250000Y-73163111I0J274389D01*
G01*
X102250000Y-72586889D01*
G75*
G02*
X102524389Y-72312500I274389J0D01*
G01*
G37*
%TD*%
%TO.C,R23*%
G36*
G01*
X60062500Y-56624389D02*
X60062500Y-57575611D01*
G75*
G02*
X59788111Y-57850000I-274389J0D01*
G01*
X59211889Y-57850000D01*
G75*
G02*
X58937500Y-57575611I0J274389D01*
G01*
X58937500Y-56624389D01*
G75*
G02*
X59211889Y-56350000I274389J0D01*
G01*
X59788111Y-56350000D01*
G75*
G02*
X60062500Y-56624389I0J-274389D01*
G01*
G37*
G36*
G01*
X61887500Y-56624389D02*
X61887500Y-57575611D01*
G75*
G02*
X61613111Y-57850000I-274389J0D01*
G01*
X61036889Y-57850000D01*
G75*
G02*
X60762500Y-57575611I0J274389D01*
G01*
X60762500Y-56624389D01*
G75*
G02*
X61036889Y-56350000I274389J0D01*
G01*
X61613111Y-56350000D01*
G75*
G02*
X61887500Y-56624389I0J-274389D01*
G01*
G37*
%TD*%
%TO.C,R22*%
G36*
G01*
X86924389Y-71037500D02*
X87875611Y-71037500D01*
G75*
G02*
X88150000Y-71311889I0J-274389D01*
G01*
X88150000Y-71888111D01*
G75*
G02*
X87875611Y-72162500I-274389J0D01*
G01*
X86924389Y-72162500D01*
G75*
G02*
X86650000Y-71888111I0J274389D01*
G01*
X86650000Y-71311889D01*
G75*
G02*
X86924389Y-71037500I274389J0D01*
G01*
G37*
G36*
G01*
X86924389Y-69212500D02*
X87875611Y-69212500D01*
G75*
G02*
X88150000Y-69486889I0J-274389D01*
G01*
X88150000Y-70063111D01*
G75*
G02*
X87875611Y-70337500I-274389J0D01*
G01*
X86924389Y-70337500D01*
G75*
G02*
X86650000Y-70063111I0J274389D01*
G01*
X86650000Y-69486889D01*
G75*
G02*
X86924389Y-69212500I274389J0D01*
G01*
G37*
%TD*%
%TO.C,R21*%
G36*
G01*
X97624389Y-70837500D02*
X98575611Y-70837500D01*
G75*
G02*
X98850000Y-71111889I0J-274389D01*
G01*
X98850000Y-71688111D01*
G75*
G02*
X98575611Y-71962500I-274389J0D01*
G01*
X97624389Y-71962500D01*
G75*
G02*
X97350000Y-71688111I0J274389D01*
G01*
X97350000Y-71111889D01*
G75*
G02*
X97624389Y-70837500I274389J0D01*
G01*
G37*
G36*
G01*
X97624389Y-69012500D02*
X98575611Y-69012500D01*
G75*
G02*
X98850000Y-69286889I0J-274389D01*
G01*
X98850000Y-69863111D01*
G75*
G02*
X98575611Y-70137500I-274389J0D01*
G01*
X97624389Y-70137500D01*
G75*
G02*
X97350000Y-69863111I0J274389D01*
G01*
X97350000Y-69286889D01*
G75*
G02*
X97624389Y-69012500I274389J0D01*
G01*
G37*
%TD*%
%TO.C,R20*%
G36*
G01*
X63862500Y-51924389D02*
X63862500Y-52875611D01*
G75*
G02*
X63588111Y-53150000I-274389J0D01*
G01*
X63011889Y-53150000D01*
G75*
G02*
X62737500Y-52875611I0J274389D01*
G01*
X62737500Y-51924389D01*
G75*
G02*
X63011889Y-51650000I274389J0D01*
G01*
X63588111Y-51650000D01*
G75*
G02*
X63862500Y-51924389I0J-274389D01*
G01*
G37*
G36*
G01*
X65687500Y-51924389D02*
X65687500Y-52875611D01*
G75*
G02*
X65413111Y-53150000I-274389J0D01*
G01*
X64836889Y-53150000D01*
G75*
G02*
X64562500Y-52875611I0J274389D01*
G01*
X64562500Y-51924389D01*
G75*
G02*
X64836889Y-51650000I274389J0D01*
G01*
X65413111Y-51650000D01*
G75*
G02*
X65687500Y-51924389I0J-274389D01*
G01*
G37*
%TD*%
%TO.C,R19*%
G36*
G01*
X91475611Y-70350000D02*
X90524389Y-70350000D01*
G75*
G02*
X90250000Y-70075611I0J274389D01*
G01*
X90250000Y-69499389D01*
G75*
G02*
X90524389Y-69225000I274389J0D01*
G01*
X91475611Y-69225000D01*
G75*
G02*
X91750000Y-69499389I0J-274389D01*
G01*
X91750000Y-70075611D01*
G75*
G02*
X91475611Y-70350000I-274389J0D01*
G01*
G37*
G36*
G01*
X91475611Y-72175000D02*
X90524389Y-72175000D01*
G75*
G02*
X90250000Y-71900611I0J274389D01*
G01*
X90250000Y-71324389D01*
G75*
G02*
X90524389Y-71050000I274389J0D01*
G01*
X91475611Y-71050000D01*
G75*
G02*
X91750000Y-71324389I0J-274389D01*
G01*
X91750000Y-71900611D01*
G75*
G02*
X91475611Y-72175000I-274389J0D01*
G01*
G37*
%TD*%
%TO.C,R18*%
G36*
G01*
X89675611Y-70350000D02*
X88724389Y-70350000D01*
G75*
G02*
X88450000Y-70075611I0J274389D01*
G01*
X88450000Y-69499389D01*
G75*
G02*
X88724389Y-69225000I274389J0D01*
G01*
X89675611Y-69225000D01*
G75*
G02*
X89950000Y-69499389I0J-274389D01*
G01*
X89950000Y-70075611D01*
G75*
G02*
X89675611Y-70350000I-274389J0D01*
G01*
G37*
G36*
G01*
X89675611Y-72175000D02*
X88724389Y-72175000D01*
G75*
G02*
X88450000Y-71900611I0J274389D01*
G01*
X88450000Y-71324389D01*
G75*
G02*
X88724389Y-71050000I274389J0D01*
G01*
X89675611Y-71050000D01*
G75*
G02*
X89950000Y-71324389I0J-274389D01*
G01*
X89950000Y-71900611D01*
G75*
G02*
X89675611Y-72175000I-274389J0D01*
G01*
G37*
%TD*%
%TO.C,R17*%
G36*
G01*
X102175611Y-70050000D02*
X101224389Y-70050000D01*
G75*
G02*
X100950000Y-69775611I0J274389D01*
G01*
X100950000Y-69199389D01*
G75*
G02*
X101224389Y-68925000I274389J0D01*
G01*
X102175611Y-68925000D01*
G75*
G02*
X102450000Y-69199389I0J-274389D01*
G01*
X102450000Y-69775611D01*
G75*
G02*
X102175611Y-70050000I-274389J0D01*
G01*
G37*
G36*
G01*
X102175611Y-71875000D02*
X101224389Y-71875000D01*
G75*
G02*
X100950000Y-71600611I0J274389D01*
G01*
X100950000Y-71024389D01*
G75*
G02*
X101224389Y-70750000I274389J0D01*
G01*
X102175611Y-70750000D01*
G75*
G02*
X102450000Y-71024389I0J-274389D01*
G01*
X102450000Y-71600611D01*
G75*
G02*
X102175611Y-71875000I-274389J0D01*
G01*
G37*
%TD*%
%TO.C,R16*%
G36*
G01*
X100375611Y-70062500D02*
X99424389Y-70062500D01*
G75*
G02*
X99150000Y-69788111I0J274389D01*
G01*
X99150000Y-69211889D01*
G75*
G02*
X99424389Y-68937500I274389J0D01*
G01*
X100375611Y-68937500D01*
G75*
G02*
X100650000Y-69211889I0J-274389D01*
G01*
X100650000Y-69788111D01*
G75*
G02*
X100375611Y-70062500I-274389J0D01*
G01*
G37*
G36*
G01*
X100375611Y-71887500D02*
X99424389Y-71887500D01*
G75*
G02*
X99150000Y-71613111I0J274389D01*
G01*
X99150000Y-71036889D01*
G75*
G02*
X99424389Y-70762500I274389J0D01*
G01*
X100375611Y-70762500D01*
G75*
G02*
X100650000Y-71036889I0J-274389D01*
G01*
X100650000Y-71613111D01*
G75*
G02*
X100375611Y-71887500I-274389J0D01*
G01*
G37*
%TD*%
%TO.C,R15*%
G36*
G01*
X64537500Y-56475611D02*
X64537500Y-55524389D01*
G75*
G02*
X64811889Y-55250000I274389J0D01*
G01*
X65388111Y-55250000D01*
G75*
G02*
X65662500Y-55524389I0J-274389D01*
G01*
X65662500Y-56475611D01*
G75*
G02*
X65388111Y-56750000I-274389J0D01*
G01*
X64811889Y-56750000D01*
G75*
G02*
X64537500Y-56475611I0J274389D01*
G01*
G37*
G36*
G01*
X62712500Y-56475611D02*
X62712500Y-55524389D01*
G75*
G02*
X62986889Y-55250000I274389J0D01*
G01*
X63563111Y-55250000D01*
G75*
G02*
X63837500Y-55524389I0J-274389D01*
G01*
X63837500Y-56475611D01*
G75*
G02*
X63563111Y-56750000I-274389J0D01*
G01*
X62986889Y-56750000D01*
G75*
G02*
X62712500Y-56475611I0J274389D01*
G01*
G37*
%TD*%
%TO.C,R14*%
G36*
G01*
X64562500Y-54675611D02*
X64562500Y-53724389D01*
G75*
G02*
X64836889Y-53450000I274389J0D01*
G01*
X65413111Y-53450000D01*
G75*
G02*
X65687500Y-53724389I0J-274389D01*
G01*
X65687500Y-54675611D01*
G75*
G02*
X65413111Y-54950000I-274389J0D01*
G01*
X64836889Y-54950000D01*
G75*
G02*
X64562500Y-54675611I0J274389D01*
G01*
G37*
G36*
G01*
X62737500Y-54675611D02*
X62737500Y-53724389D01*
G75*
G02*
X63011889Y-53450000I274389J0D01*
G01*
X63588111Y-53450000D01*
G75*
G02*
X63862500Y-53724389I0J-274389D01*
G01*
X63862500Y-54675611D01*
G75*
G02*
X63588111Y-54950000I-274389J0D01*
G01*
X63011889Y-54950000D01*
G75*
G02*
X62737500Y-54675611I0J274389D01*
G01*
G37*
%TD*%
%TO.C,JP23*%
G36*
G01*
X112750000Y-64050000D02*
X114250000Y-64050000D01*
G75*
G02*
X114300000Y-64100000I0J-50000D01*
G01*
X114300000Y-65100000D01*
G75*
G02*
X114250000Y-65150000I-50000J0D01*
G01*
X112750000Y-65150000D01*
G75*
G02*
X112700000Y-65100000I0J50000D01*
G01*
X112700000Y-64100000D01*
G75*
G02*
X112750000Y-64050000I50000J0D01*
G01*
G37*
G36*
G01*
X112750000Y-65350000D02*
X114250000Y-65350000D01*
G75*
G02*
X114300000Y-65400000I0J-50000D01*
G01*
X114300000Y-66400000D01*
G75*
G02*
X114250000Y-66450000I-50000J0D01*
G01*
X112750000Y-66450000D01*
G75*
G02*
X112700000Y-66400000I0J50000D01*
G01*
X112700000Y-65400000D01*
G75*
G02*
X112750000Y-65350000I50000J0D01*
G01*
G37*
%TD*%
%TO.C,JP22*%
G36*
G01*
X64950000Y-61900000D02*
X66450000Y-61900000D01*
G75*
G02*
X66500000Y-61950000I0J-50000D01*
G01*
X66500000Y-62950000D01*
G75*
G02*
X66450000Y-63000000I-50000J0D01*
G01*
X64950000Y-63000000D01*
G75*
G02*
X64900000Y-62950000I0J50000D01*
G01*
X64900000Y-61950000D01*
G75*
G02*
X64950000Y-61900000I50000J0D01*
G01*
G37*
G36*
G01*
X64950000Y-63200000D02*
X66450000Y-63200000D01*
G75*
G02*
X66500000Y-63250000I0J-50000D01*
G01*
X66500000Y-64250000D01*
G75*
G02*
X66450000Y-64300000I-50000J0D01*
G01*
X64950000Y-64300000D01*
G75*
G02*
X64900000Y-64250000I0J50000D01*
G01*
X64900000Y-63250000D01*
G75*
G02*
X64950000Y-63200000I50000J0D01*
G01*
G37*
%TD*%
%TO.C,JP21*%
G36*
G01*
X49500000Y-44150000D02*
X49500000Y-42650000D01*
G75*
G02*
X49550000Y-42600000I50000J0D01*
G01*
X50550000Y-42600000D01*
G75*
G02*
X50600000Y-42650000I0J-50000D01*
G01*
X50600000Y-44150000D01*
G75*
G02*
X50550000Y-44200000I-50000J0D01*
G01*
X49550000Y-44200000D01*
G75*
G02*
X49500000Y-44150000I0J50000D01*
G01*
G37*
G36*
G01*
X50800000Y-44150000D02*
X50800000Y-42650000D01*
G75*
G02*
X50850000Y-42600000I50000J0D01*
G01*
X51850000Y-42600000D01*
G75*
G02*
X51900000Y-42650000I0J-50000D01*
G01*
X51900000Y-44150000D01*
G75*
G02*
X51850000Y-44200000I-50000J0D01*
G01*
X50850000Y-44200000D01*
G75*
G02*
X50800000Y-44150000I0J50000D01*
G01*
G37*
%TD*%
%TO.C,JP20*%
G36*
G01*
X67750000Y-74450000D02*
X66250000Y-74450000D01*
G75*
G02*
X66200000Y-74400000I0J50000D01*
G01*
X66200000Y-73400000D01*
G75*
G02*
X66250000Y-73350000I50000J0D01*
G01*
X67750000Y-73350000D01*
G75*
G02*
X67800000Y-73400000I0J-50000D01*
G01*
X67800000Y-74400000D01*
G75*
G02*
X67750000Y-74450000I-50000J0D01*
G01*
G37*
G36*
G01*
X67750000Y-73150000D02*
X66250000Y-73150000D01*
G75*
G02*
X66200000Y-73100000I0J50000D01*
G01*
X66200000Y-72100000D01*
G75*
G02*
X66250000Y-72050000I50000J0D01*
G01*
X67750000Y-72050000D01*
G75*
G02*
X67800000Y-72100000I0J-50000D01*
G01*
X67800000Y-73100000D01*
G75*
G02*
X67750000Y-73150000I-50000J0D01*
G01*
G37*
%TD*%
%TO.C,JP19*%
G36*
G01*
X117000000Y-73750000D02*
X117000000Y-75250000D01*
G75*
G02*
X116950000Y-75300000I-50000J0D01*
G01*
X115950000Y-75300000D01*
G75*
G02*
X115900000Y-75250000I0J50000D01*
G01*
X115900000Y-73750000D01*
G75*
G02*
X115950000Y-73700000I50000J0D01*
G01*
X116950000Y-73700000D01*
G75*
G02*
X117000000Y-73750000I0J-50000D01*
G01*
G37*
G36*
G01*
X115700000Y-73750000D02*
X115700000Y-75250000D01*
G75*
G02*
X115650000Y-75300000I-50000J0D01*
G01*
X114650000Y-75300000D01*
G75*
G02*
X114600000Y-75250000I0J50000D01*
G01*
X114600000Y-73750000D01*
G75*
G02*
X114650000Y-73700000I50000J0D01*
G01*
X115650000Y-73700000D01*
G75*
G02*
X115700000Y-73750000I0J-50000D01*
G01*
G37*
%TD*%
%TO.C,JP18*%
G36*
G01*
X59350000Y-40400000D02*
X60850000Y-40400000D01*
G75*
G02*
X60900000Y-40450000I0J-50000D01*
G01*
X60900000Y-41450000D01*
G75*
G02*
X60850000Y-41500000I-50000J0D01*
G01*
X59350000Y-41500000D01*
G75*
G02*
X59300000Y-41450000I0J50000D01*
G01*
X59300000Y-40450000D01*
G75*
G02*
X59350000Y-40400000I50000J0D01*
G01*
G37*
G36*
G01*
X59350000Y-41700000D02*
X60850000Y-41700000D01*
G75*
G02*
X60900000Y-41750000I0J-50000D01*
G01*
X60900000Y-42750000D01*
G75*
G02*
X60850000Y-42800000I-50000J0D01*
G01*
X59350000Y-42800000D01*
G75*
G02*
X59300000Y-42750000I0J50000D01*
G01*
X59300000Y-41750000D01*
G75*
G02*
X59350000Y-41700000I50000J0D01*
G01*
G37*
%TD*%
%TO.C,JP17*%
G36*
G01*
X91450000Y-78850000D02*
X89950000Y-78850000D01*
G75*
G02*
X89900000Y-78800000I0J50000D01*
G01*
X89900000Y-77800000D01*
G75*
G02*
X89950000Y-77750000I50000J0D01*
G01*
X91450000Y-77750000D01*
G75*
G02*
X91500000Y-77800000I0J-50000D01*
G01*
X91500000Y-78800000D01*
G75*
G02*
X91450000Y-78850000I-50000J0D01*
G01*
G37*
G36*
G01*
X91450000Y-77550000D02*
X89950000Y-77550000D01*
G75*
G02*
X89900000Y-77500000I0J50000D01*
G01*
X89900000Y-76500000D01*
G75*
G02*
X89950000Y-76450000I50000J0D01*
G01*
X91450000Y-76450000D01*
G75*
G02*
X91500000Y-76500000I0J-50000D01*
G01*
X91500000Y-77500000D01*
G75*
G02*
X91450000Y-77550000I-50000J0D01*
G01*
G37*
%TD*%
%TO.C,JP16*%
G36*
G01*
X102350000Y-78200000D02*
X100850000Y-78200000D01*
G75*
G02*
X100800000Y-78150000I0J50000D01*
G01*
X100800000Y-77150000D01*
G75*
G02*
X100850000Y-77100000I50000J0D01*
G01*
X102350000Y-77100000D01*
G75*
G02*
X102400000Y-77150000I0J-50000D01*
G01*
X102400000Y-78150000D01*
G75*
G02*
X102350000Y-78200000I-50000J0D01*
G01*
G37*
G36*
G01*
X102350000Y-76900000D02*
X100850000Y-76900000D01*
G75*
G02*
X100800000Y-76850000I0J50000D01*
G01*
X100800000Y-75850000D01*
G75*
G02*
X100850000Y-75800000I50000J0D01*
G01*
X102350000Y-75800000D01*
G75*
G02*
X102400000Y-75850000I0J-50000D01*
G01*
X102400000Y-76850000D01*
G75*
G02*
X102350000Y-76900000I-50000J0D01*
G01*
G37*
%TD*%
%TO.C,JP15*%
G36*
G01*
X56050000Y-56350000D02*
X56050000Y-54850000D01*
G75*
G02*
X56100000Y-54800000I50000J0D01*
G01*
X57100000Y-54800000D01*
G75*
G02*
X57150000Y-54850000I0J-50000D01*
G01*
X57150000Y-56350000D01*
G75*
G02*
X57100000Y-56400000I-50000J0D01*
G01*
X56100000Y-56400000D01*
G75*
G02*
X56050000Y-56350000I0J50000D01*
G01*
G37*
G36*
G01*
X57350000Y-56350000D02*
X57350000Y-54850000D01*
G75*
G02*
X57400000Y-54800000I50000J0D01*
G01*
X58400000Y-54800000D01*
G75*
G02*
X58450000Y-54850000I0J-50000D01*
G01*
X58450000Y-56350000D01*
G75*
G02*
X58400000Y-56400000I-50000J0D01*
G01*
X57400000Y-56400000D01*
G75*
G02*
X57350000Y-56350000I0J50000D01*
G01*
G37*
%TD*%
%TO.C,JP14*%
G36*
G01*
X91850000Y-68500000D02*
X90350000Y-68500000D01*
G75*
G02*
X90300000Y-68450000I0J50000D01*
G01*
X90300000Y-67450000D01*
G75*
G02*
X90350000Y-67400000I50000J0D01*
G01*
X91850000Y-67400000D01*
G75*
G02*
X91900000Y-67450000I0J-50000D01*
G01*
X91900000Y-68450000D01*
G75*
G02*
X91850000Y-68500000I-50000J0D01*
G01*
G37*
G36*
G01*
X91850000Y-67200000D02*
X90350000Y-67200000D01*
G75*
G02*
X90300000Y-67150000I0J50000D01*
G01*
X90300000Y-66150000D01*
G75*
G02*
X90350000Y-66100000I50000J0D01*
G01*
X91850000Y-66100000D01*
G75*
G02*
X91900000Y-66150000I0J-50000D01*
G01*
X91900000Y-67150000D01*
G75*
G02*
X91850000Y-67200000I-50000J0D01*
G01*
G37*
%TD*%
%TO.C,JP13*%
G36*
G01*
X88250000Y-66100000D02*
X89750000Y-66100000D01*
G75*
G02*
X89800000Y-66150000I0J-50000D01*
G01*
X89800000Y-67150000D01*
G75*
G02*
X89750000Y-67200000I-50000J0D01*
G01*
X88250000Y-67200000D01*
G75*
G02*
X88200000Y-67150000I0J50000D01*
G01*
X88200000Y-66150000D01*
G75*
G02*
X88250000Y-66100000I50000J0D01*
G01*
G37*
G36*
G01*
X88250000Y-67400000D02*
X89750000Y-67400000D01*
G75*
G02*
X89800000Y-67450000I0J-50000D01*
G01*
X89800000Y-68450000D01*
G75*
G02*
X89750000Y-68500000I-50000J0D01*
G01*
X88250000Y-68500000D01*
G75*
G02*
X88200000Y-68450000I0J50000D01*
G01*
X88200000Y-67450000D01*
G75*
G02*
X88250000Y-67400000I50000J0D01*
G01*
G37*
%TD*%
%TO.C,JP12*%
G36*
G01*
X102850000Y-68250000D02*
X101350000Y-68250000D01*
G75*
G02*
X101300000Y-68200000I0J50000D01*
G01*
X101300000Y-67200000D01*
G75*
G02*
X101350000Y-67150000I50000J0D01*
G01*
X102850000Y-67150000D01*
G75*
G02*
X102900000Y-67200000I0J-50000D01*
G01*
X102900000Y-68200000D01*
G75*
G02*
X102850000Y-68250000I-50000J0D01*
G01*
G37*
G36*
G01*
X102850000Y-66950000D02*
X101350000Y-66950000D01*
G75*
G02*
X101300000Y-66900000I0J50000D01*
G01*
X101300000Y-65900000D01*
G75*
G02*
X101350000Y-65850000I50000J0D01*
G01*
X102850000Y-65850000D01*
G75*
G02*
X102900000Y-65900000I0J-50000D01*
G01*
X102900000Y-66900000D01*
G75*
G02*
X102850000Y-66950000I-50000J0D01*
G01*
G37*
%TD*%
%TO.C,JP11*%
G36*
G01*
X99250000Y-65850000D02*
X100750000Y-65850000D01*
G75*
G02*
X100800000Y-65900000I0J-50000D01*
G01*
X100800000Y-66900000D01*
G75*
G02*
X100750000Y-66950000I-50000J0D01*
G01*
X99250000Y-66950000D01*
G75*
G02*
X99200000Y-66900000I0J50000D01*
G01*
X99200000Y-65900000D01*
G75*
G02*
X99250000Y-65850000I50000J0D01*
G01*
G37*
G36*
G01*
X99250000Y-67150000D02*
X100750000Y-67150000D01*
G75*
G02*
X100800000Y-67200000I0J-50000D01*
G01*
X100800000Y-68200000D01*
G75*
G02*
X100750000Y-68250000I-50000J0D01*
G01*
X99250000Y-68250000D01*
G75*
G02*
X99200000Y-68200000I0J50000D01*
G01*
X99200000Y-67200000D01*
G75*
G02*
X99250000Y-67150000I50000J0D01*
G01*
G37*
%TD*%
%TO.C,JP10*%
G36*
G01*
X66250000Y-56850000D02*
X66250000Y-55350000D01*
G75*
G02*
X66300000Y-55300000I50000J0D01*
G01*
X67300000Y-55300000D01*
G75*
G02*
X67350000Y-55350000I0J-50000D01*
G01*
X67350000Y-56850000D01*
G75*
G02*
X67300000Y-56900000I-50000J0D01*
G01*
X66300000Y-56900000D01*
G75*
G02*
X66250000Y-56850000I0J50000D01*
G01*
G37*
G36*
G01*
X67550000Y-56850000D02*
X67550000Y-55350000D01*
G75*
G02*
X67600000Y-55300000I50000J0D01*
G01*
X68600000Y-55300000D01*
G75*
G02*
X68650000Y-55350000I0J-50000D01*
G01*
X68650000Y-56850000D01*
G75*
G02*
X68600000Y-56900000I-50000J0D01*
G01*
X67600000Y-56900000D01*
G75*
G02*
X67550000Y-56850000I0J50000D01*
G01*
G37*
%TD*%
%TO.C,JP9*%
G36*
G01*
X68650000Y-53250000D02*
X68650000Y-54750000D01*
G75*
G02*
X68600000Y-54800000I-50000J0D01*
G01*
X67600000Y-54800000D01*
G75*
G02*
X67550000Y-54750000I0J50000D01*
G01*
X67550000Y-53250000D01*
G75*
G02*
X67600000Y-53200000I50000J0D01*
G01*
X68600000Y-53200000D01*
G75*
G02*
X68650000Y-53250000I0J-50000D01*
G01*
G37*
G36*
G01*
X67350000Y-53250000D02*
X67350000Y-54750000D01*
G75*
G02*
X67300000Y-54800000I-50000J0D01*
G01*
X66300000Y-54800000D01*
G75*
G02*
X66250000Y-54750000I0J50000D01*
G01*
X66250000Y-53250000D01*
G75*
G02*
X66300000Y-53200000I50000J0D01*
G01*
X67300000Y-53200000D01*
G75*
G02*
X67350000Y-53250000I0J-50000D01*
G01*
G37*
%TD*%
%TO.C,C8*%
G36*
G01*
X68600000Y-66600000D02*
X69600000Y-66600000D01*
G75*
G02*
X69875000Y-66875000I0J-275000D01*
G01*
X69875000Y-67425000D01*
G75*
G02*
X69600000Y-67700000I-275000J0D01*
G01*
X68600000Y-67700000D01*
G75*
G02*
X68325000Y-67425000I0J275000D01*
G01*
X68325000Y-66875000D01*
G75*
G02*
X68600000Y-66600000I275000J0D01*
G01*
G37*
G36*
G01*
X68600000Y-64700000D02*
X69600000Y-64700000D01*
G75*
G02*
X69875000Y-64975000I0J-275000D01*
G01*
X69875000Y-65525000D01*
G75*
G02*
X69600000Y-65800000I-275000J0D01*
G01*
X68600000Y-65800000D01*
G75*
G02*
X68325000Y-65525000I0J275000D01*
G01*
X68325000Y-64975000D01*
G75*
G02*
X68600000Y-64700000I275000J0D01*
G01*
G37*
%TD*%
%TO.C,C7*%
G36*
G01*
X116000000Y-68650000D02*
X117000000Y-68650000D01*
G75*
G02*
X117275000Y-68925000I0J-275000D01*
G01*
X117275000Y-69475000D01*
G75*
G02*
X117000000Y-69750000I-275000J0D01*
G01*
X116000000Y-69750000D01*
G75*
G02*
X115725000Y-69475000I0J275000D01*
G01*
X115725000Y-68925000D01*
G75*
G02*
X116000000Y-68650000I275000J0D01*
G01*
G37*
G36*
G01*
X116000000Y-66750000D02*
X117000000Y-66750000D01*
G75*
G02*
X117275000Y-67025000I0J-275000D01*
G01*
X117275000Y-67575000D01*
G75*
G02*
X117000000Y-67850000I-275000J0D01*
G01*
X116000000Y-67850000D01*
G75*
G02*
X115725000Y-67575000I0J275000D01*
G01*
X115725000Y-67025000D01*
G75*
G02*
X116000000Y-66750000I275000J0D01*
G01*
G37*
%TD*%
%TO.C,C6*%
G36*
G01*
X54250000Y-40900000D02*
X54250000Y-39900000D01*
G75*
G02*
X54525000Y-39625000I275000J0D01*
G01*
X55075000Y-39625000D01*
G75*
G02*
X55350000Y-39900000I0J-275000D01*
G01*
X55350000Y-40900000D01*
G75*
G02*
X55075000Y-41175000I-275000J0D01*
G01*
X54525000Y-41175000D01*
G75*
G02*
X54250000Y-40900000I0J275000D01*
G01*
G37*
G36*
G01*
X52350000Y-40900000D02*
X52350000Y-39900000D01*
G75*
G02*
X52625000Y-39625000I275000J0D01*
G01*
X53175000Y-39625000D01*
G75*
G02*
X53450000Y-39900000I0J-275000D01*
G01*
X53450000Y-40900000D01*
G75*
G02*
X53175000Y-41175000I-275000J0D01*
G01*
X52625000Y-41175000D01*
G75*
G02*
X52350000Y-40900000I0J275000D01*
G01*
G37*
%TD*%
%TO.C,C5*%
G36*
G01*
X88400000Y-74000000D02*
X87400000Y-74000000D01*
G75*
G02*
X87125000Y-73725000I0J275000D01*
G01*
X87125000Y-73175000D01*
G75*
G02*
X87400000Y-72900000I275000J0D01*
G01*
X88400000Y-72900000D01*
G75*
G02*
X88675000Y-73175000I0J-275000D01*
G01*
X88675000Y-73725000D01*
G75*
G02*
X88400000Y-74000000I-275000J0D01*
G01*
G37*
G36*
G01*
X88400000Y-75900000D02*
X87400000Y-75900000D01*
G75*
G02*
X87125000Y-75625000I0J275000D01*
G01*
X87125000Y-75075000D01*
G75*
G02*
X87400000Y-74800000I275000J0D01*
G01*
X88400000Y-74800000D01*
G75*
G02*
X88675000Y-75075000I0J-275000D01*
G01*
X88675000Y-75625000D01*
G75*
G02*
X88400000Y-75900000I-275000J0D01*
G01*
G37*
%TD*%
%TO.C,C4*%
G36*
G01*
X99300000Y-73350000D02*
X98300000Y-73350000D01*
G75*
G02*
X98025000Y-73075000I0J275000D01*
G01*
X98025000Y-72525000D01*
G75*
G02*
X98300000Y-72250000I275000J0D01*
G01*
X99300000Y-72250000D01*
G75*
G02*
X99575000Y-72525000I0J-275000D01*
G01*
X99575000Y-73075000D01*
G75*
G02*
X99300000Y-73350000I-275000J0D01*
G01*
G37*
G36*
G01*
X99300000Y-75250000D02*
X98300000Y-75250000D01*
G75*
G02*
X98025000Y-74975000I0J275000D01*
G01*
X98025000Y-74425000D01*
G75*
G02*
X98300000Y-74150000I275000J0D01*
G01*
X99300000Y-74150000D01*
G75*
G02*
X99575000Y-74425000I0J-275000D01*
G01*
X99575000Y-74975000D01*
G75*
G02*
X99300000Y-75250000I-275000J0D01*
G01*
G37*
%TD*%
%TO.C,C3*%
G36*
G01*
X60850000Y-52800000D02*
X60850000Y-51800000D01*
G75*
G02*
X61125000Y-51525000I275000J0D01*
G01*
X61675000Y-51525000D01*
G75*
G02*
X61950000Y-51800000I0J-275000D01*
G01*
X61950000Y-52800000D01*
G75*
G02*
X61675000Y-53075000I-275000J0D01*
G01*
X61125000Y-53075000D01*
G75*
G02*
X60850000Y-52800000I0J275000D01*
G01*
G37*
G36*
G01*
X58950000Y-52800000D02*
X58950000Y-51800000D01*
G75*
G02*
X59225000Y-51525000I275000J0D01*
G01*
X59775000Y-51525000D01*
G75*
G02*
X60050000Y-51800000I0J-275000D01*
G01*
X60050000Y-52800000D01*
G75*
G02*
X59775000Y-53075000I-275000J0D01*
G01*
X59225000Y-53075000D01*
G75*
G02*
X58950000Y-52800000I0J275000D01*
G01*
G37*
%TD*%
D10*
%TO.C,TP33*%
X124460000Y-88900000D03*
%TD*%
%TO.C,TP32*%
X124460000Y-93980000D03*
%TD*%
%TO.C,TP30*%
X81280000Y-109220000D03*
%TD*%
%TO.C,TP29*%
X76200000Y-109220000D03*
%TD*%
%TO.C,TP28*%
X81280000Y-104140000D03*
%TD*%
%TO.C,TP27*%
X76200000Y-104140000D03*
%TD*%
%TO.C,TP26*%
X66040000Y-104140000D03*
%TD*%
%TO.C,TP25*%
X66040000Y-109220000D03*
%TD*%
%TO.C,TP24*%
X60960000Y-104140000D03*
%TD*%
%TO.C,TP23*%
X60960000Y-109220000D03*
%TD*%
%TO.C,TP22*%
X55880000Y-104140000D03*
%TD*%
%TO.C,TP21*%
X55880000Y-109220000D03*
%TD*%
%TO.C,TP20*%
X76200000Y-116840000D03*
%TD*%
%TO.C,TP19*%
X76080000Y-121920000D03*
%TD*%
%TO.C,TP18*%
X81080000Y-116840000D03*
%TD*%
%TO.C,TP17*%
X81080000Y-121920000D03*
%TD*%
%TO.C,TP15*%
X119126000Y-106172000D03*
%TD*%
%TO.C,TP14*%
X124206000Y-101092000D03*
%TD*%
%TO.C,TP13*%
X124206000Y-106172000D03*
%TD*%
%TO.C,TP12*%
X45720000Y-121920000D03*
%TD*%
%TO.C,TP11*%
X71120000Y-116840000D03*
%TD*%
%TO.C,TP10*%
X71120000Y-121920000D03*
%TD*%
%TO.C,TP9*%
X66040000Y-116840000D03*
%TD*%
%TO.C,TP8*%
X66040000Y-121920000D03*
%TD*%
%TO.C,TP7*%
X60960000Y-116840000D03*
%TD*%
%TO.C,TP6*%
X60960000Y-121920000D03*
%TD*%
%TO.C,TP5*%
X55880000Y-116840000D03*
%TD*%
%TO.C,TP4*%
X55880000Y-121920000D03*
%TD*%
%TO.C,TP3*%
X45720000Y-116840000D03*
%TD*%
%TO.C,TP2*%
X45720000Y-111760000D03*
%TD*%
%TO.C,TP1*%
X119126000Y-101092000D03*
%TD*%
%TO.C,F2*%
G36*
G01*
X113227779Y-92455000D02*
X110272221Y-92455000D01*
G75*
G02*
X110000000Y-92182779I0J272221D01*
G01*
X110000000Y-91502221D01*
G75*
G02*
X110272221Y-91230000I272221J0D01*
G01*
X113227779Y-91230000D01*
G75*
G02*
X113500000Y-91502221I0J-272221D01*
G01*
X113500000Y-92182779D01*
G75*
G02*
X113227779Y-92455000I-272221J0D01*
G01*
G37*
G36*
G01*
X113227779Y-96730000D02*
X110272221Y-96730000D01*
G75*
G02*
X110000000Y-96457779I0J272221D01*
G01*
X110000000Y-95777221D01*
G75*
G02*
X110272221Y-95505000I272221J0D01*
G01*
X113227779Y-95505000D01*
G75*
G02*
X113500000Y-95777221I0J-272221D01*
G01*
X113500000Y-96457779D01*
G75*
G02*
X113227779Y-96730000I-272221J0D01*
G01*
G37*
%TD*%
%TO.C,F1*%
G36*
G01*
X106218221Y-95505000D02*
X109173779Y-95505000D01*
G75*
G02*
X109446000Y-95777221I0J-272221D01*
G01*
X109446000Y-96457779D01*
G75*
G02*
X109173779Y-96730000I-272221J0D01*
G01*
X106218221Y-96730000D01*
G75*
G02*
X105946000Y-96457779I0J272221D01*
G01*
X105946000Y-95777221D01*
G75*
G02*
X106218221Y-95505000I272221J0D01*
G01*
G37*
G36*
G01*
X106218221Y-91230000D02*
X109173779Y-91230000D01*
G75*
G02*
X109446000Y-91502221I0J-272221D01*
G01*
X109446000Y-92182779D01*
G75*
G02*
X109173779Y-92455000I-272221J0D01*
G01*
X106218221Y-92455000D01*
G75*
G02*
X105946000Y-92182779I0J272221D01*
G01*
X105946000Y-91502221D01*
G75*
G02*
X106218221Y-91230000I272221J0D01*
G01*
G37*
%TD*%
%TO.C,JP1*%
G36*
G01*
X112250000Y-105600000D02*
X110750000Y-105600000D01*
G75*
G02*
X110700000Y-105550000I0J50000D01*
G01*
X110700000Y-104550000D01*
G75*
G02*
X110750000Y-104500000I50000J0D01*
G01*
X112250000Y-104500000D01*
G75*
G02*
X112300000Y-104550000I0J-50000D01*
G01*
X112300000Y-105550000D01*
G75*
G02*
X112250000Y-105600000I-50000J0D01*
G01*
G37*
G36*
G01*
X112250000Y-104300000D02*
X110750000Y-104300000D01*
G75*
G02*
X110700000Y-104250000I0J50000D01*
G01*
X110700000Y-103250000D01*
G75*
G02*
X110750000Y-103200000I50000J0D01*
G01*
X112250000Y-103200000D01*
G75*
G02*
X112300000Y-103250000I0J-50000D01*
G01*
X112300000Y-104250000D01*
G75*
G02*
X112250000Y-104300000I-50000J0D01*
G01*
G37*
%TD*%
D11*
%TO.C,J3*%
X124720000Y-110744000D03*
X122430000Y-110744000D03*
X113290000Y-110744000D03*
X111000000Y-110744000D03*
D12*
X109730000Y-116454000D03*
X125990000Y-116454000D03*
D13*
X124210000Y-119884000D03*
X111510000Y-119884000D03*
D11*
X121412000Y-115564000D03*
X119380000Y-115564000D03*
X117348000Y-115564000D03*
X115316000Y-115564000D03*
X120396000Y-117344000D03*
X118364000Y-117344000D03*
X116332000Y-117344000D03*
G36*
G01*
X113500000Y-118094000D02*
X113500000Y-116594000D01*
G75*
G02*
X113550000Y-116544000I50000J0D01*
G01*
X115050000Y-116544000D01*
G75*
G02*
X115100000Y-116594000I0J-50000D01*
G01*
X115100000Y-118094000D01*
G75*
G02*
X115050000Y-118144000I-50000J0D01*
G01*
X113550000Y-118144000D01*
G75*
G02*
X113500000Y-118094000I0J50000D01*
G01*
G37*
%TD*%
%TO.C,J2*%
X104650000Y-110748000D03*
X102360000Y-110748000D03*
X93220000Y-110748000D03*
X90930000Y-110748000D03*
D12*
X89660000Y-116458000D03*
X105920000Y-116458000D03*
D13*
X104140000Y-119888000D03*
X91440000Y-119888000D03*
D11*
X101342000Y-115568000D03*
X99310000Y-115568000D03*
X97278000Y-115568000D03*
X95246000Y-115568000D03*
X100326000Y-117348000D03*
X98294000Y-117348000D03*
X96262000Y-117348000D03*
G36*
G01*
X93430000Y-118098000D02*
X93430000Y-116598000D01*
G75*
G02*
X93480000Y-116548000I50000J0D01*
G01*
X94980000Y-116548000D01*
G75*
G02*
X95030000Y-116598000I0J-50000D01*
G01*
X95030000Y-118098000D01*
G75*
G02*
X94980000Y-118148000I-50000J0D01*
G01*
X93480000Y-118148000D01*
G75*
G02*
X93430000Y-118098000I0J50000D01*
G01*
G37*
%TD*%
D14*
%TO.C,U1*%
X115102000Y-93520000D03*
G36*
G01*
X116792000Y-92620000D02*
X118492000Y-92620000D01*
G75*
G02*
X118542000Y-92670000I0J-50000D01*
G01*
X118542000Y-94370000D01*
G75*
G02*
X118492000Y-94420000I-50000J0D01*
G01*
X116792000Y-94420000D01*
G75*
G02*
X116742000Y-94370000I0J50000D01*
G01*
X116742000Y-92670000D01*
G75*
G02*
X116792000Y-92620000I50000J0D01*
G01*
G37*
G36*
G01*
X116792000Y-28993000D02*
X118492000Y-28993000D01*
G75*
G02*
X118542000Y-29043000I0J-50000D01*
G01*
X118542000Y-30743000D01*
G75*
G02*
X118492000Y-30793000I-50000J0D01*
G01*
X116792000Y-30793000D01*
G75*
G02*
X116742000Y-30743000I0J50000D01*
G01*
X116742000Y-29043000D01*
G75*
G02*
X116792000Y-28993000I50000J0D01*
G01*
G37*
X115102000Y-29893000D03*
G36*
G01*
X78657500Y-36727500D02*
X80262500Y-36727500D01*
G75*
G02*
X80312500Y-36777500I0J-50000D01*
G01*
X80312500Y-38382500D01*
G75*
G02*
X80262500Y-38432500I-50000J0D01*
G01*
X78657500Y-38432500D01*
G75*
G02*
X78607500Y-38382500I0J50000D01*
G01*
X78607500Y-36777500D01*
G75*
G02*
X78657500Y-36727500I50000J0D01*
G01*
G37*
D15*
X66760000Y-37580000D03*
X64220000Y-37580000D03*
X61680000Y-37580000D03*
G36*
G01*
X43097500Y-84987500D02*
X44702500Y-84987500D01*
G75*
G02*
X44752500Y-85037500I0J-50000D01*
G01*
X44752500Y-86642500D01*
G75*
G02*
X44702500Y-86692500I-50000J0D01*
G01*
X43097500Y-86692500D01*
G75*
G02*
X43047500Y-86642500I0J50000D01*
G01*
X43047500Y-85037500D01*
G75*
G02*
X43097500Y-84987500I50000J0D01*
G01*
G37*
X46440000Y-85840000D03*
X48980000Y-85840000D03*
X51520000Y-85840000D03*
X54060000Y-85840000D03*
X56600000Y-85840000D03*
X59140000Y-85840000D03*
X76920000Y-37580000D03*
X74380000Y-37580000D03*
X71840000Y-37580000D03*
X69300000Y-37580000D03*
X61680000Y-85840000D03*
G36*
G01*
X55797500Y-36727500D02*
X57402500Y-36727500D01*
G75*
G02*
X57452500Y-36777500I0J-50000D01*
G01*
X57452500Y-38382500D01*
G75*
G02*
X57402500Y-38432500I-50000J0D01*
G01*
X55797500Y-38432500D01*
G75*
G02*
X55747500Y-38382500I0J50000D01*
G01*
X55747500Y-36777500D01*
G75*
G02*
X55797500Y-36727500I50000J0D01*
G01*
G37*
X54060000Y-37580000D03*
X51520000Y-37580000D03*
X48980000Y-37580000D03*
X75900000Y-85840000D03*
X78440000Y-85840000D03*
X80980000Y-85840000D03*
X83520000Y-85840000D03*
X86060000Y-85840000D03*
X88600000Y-85840000D03*
X46440000Y-37580000D03*
X43900000Y-37580000D03*
G36*
G01*
X64937500Y-84987500D02*
X66542500Y-84987500D01*
G75*
G02*
X66592500Y-85037500I0J-50000D01*
G01*
X66592500Y-86642500D01*
G75*
G02*
X66542500Y-86692500I-50000J0D01*
G01*
X64937500Y-86692500D01*
G75*
G02*
X64887500Y-86642500I0J50000D01*
G01*
X64887500Y-85037500D01*
G75*
G02*
X64937500Y-84987500I50000J0D01*
G01*
G37*
X68280000Y-85840000D03*
X70820000Y-85840000D03*
X73360000Y-85840000D03*
D16*
X92160000Y-85840000D03*
X41360000Y-70600000D03*
D17*
X43900000Y-93460000D03*
X46440000Y-93460000D03*
X46440000Y-90920000D03*
X48980000Y-93460000D03*
X48980000Y-90920000D03*
X51520000Y-93460000D03*
X51520000Y-90920000D03*
X54060000Y-93460000D03*
X54060000Y-90920000D03*
X56600000Y-93460000D03*
X56600000Y-90920000D03*
X59140000Y-93460000D03*
X59140000Y-90920000D03*
X61680000Y-93460000D03*
X61680000Y-90920000D03*
X64220000Y-93460000D03*
X64220000Y-90920000D03*
X66760000Y-93460000D03*
X66760000Y-90920000D03*
X69300000Y-93460000D03*
X69300000Y-90920000D03*
X71840000Y-93460000D03*
X71840000Y-90920000D03*
X74380000Y-93460000D03*
X74380000Y-90920000D03*
X76920000Y-93460000D03*
X76920000Y-90920000D03*
X79460000Y-93460000D03*
X79460000Y-90920000D03*
X82000000Y-93460000D03*
X82000000Y-90920000D03*
X84540000Y-93460000D03*
X84540000Y-90920000D03*
X87080000Y-93460000D03*
X87080000Y-90920000D03*
X89620000Y-93460000D03*
X43900000Y-90920000D03*
G36*
G01*
X88855000Y-90105000D02*
X90385000Y-90105000D01*
G75*
G02*
X90435000Y-90155000I0J-50000D01*
G01*
X90435000Y-91685000D01*
G75*
G02*
X90385000Y-91735000I-50000J0D01*
G01*
X88855000Y-91735000D01*
G75*
G02*
X88805000Y-91685000I0J50000D01*
G01*
X88805000Y-90155000D01*
G75*
G02*
X88855000Y-90105000I50000J0D01*
G01*
G37*
X43900000Y-32500000D03*
X46440000Y-32500000D03*
X46440000Y-29960000D03*
X48980000Y-32500000D03*
X48980000Y-29960000D03*
X51520000Y-32500000D03*
X51520000Y-29960000D03*
X54060000Y-32500000D03*
X54060000Y-29960000D03*
X56600000Y-32500000D03*
X56600000Y-29960000D03*
X59140000Y-32500000D03*
X59140000Y-29960000D03*
X61680000Y-32500000D03*
X61680000Y-29960000D03*
X64220000Y-32500000D03*
X64220000Y-29960000D03*
X66760000Y-32500000D03*
X66760000Y-29960000D03*
X69300000Y-32500000D03*
X69300000Y-29960000D03*
X71840000Y-32500000D03*
X71840000Y-29960000D03*
X74380000Y-32500000D03*
X74380000Y-29960000D03*
X76920000Y-32500000D03*
X76920000Y-29960000D03*
X79460000Y-32500000D03*
X79460000Y-29960000D03*
X82000000Y-32500000D03*
X82000000Y-29960000D03*
X84540000Y-32500000D03*
X84540000Y-29960000D03*
X87080000Y-32500000D03*
X87080000Y-29960000D03*
X89620000Y-32500000D03*
X43900000Y-29960000D03*
G36*
G01*
X88855000Y-29145000D02*
X90385000Y-29145000D01*
G75*
G02*
X90435000Y-29195000I0J-50000D01*
G01*
X90435000Y-30725000D01*
G75*
G02*
X90385000Y-30775000I-50000J0D01*
G01*
X88855000Y-30775000D01*
G75*
G02*
X88805000Y-30725000I0J50000D01*
G01*
X88805000Y-29195000D01*
G75*
G02*
X88855000Y-29145000I50000J0D01*
G01*
G37*
%TD*%
D14*
%TO.C,J5*%
X125000000Y-45870000D03*
X125000000Y-43330000D03*
X125000000Y-40790000D03*
G36*
G01*
X124100000Y-39100000D02*
X124100000Y-37400000D01*
G75*
G02*
X124150000Y-37350000I50000J0D01*
G01*
X125850000Y-37350000D01*
G75*
G02*
X125900000Y-37400000I0J-50000D01*
G01*
X125900000Y-39100000D01*
G75*
G02*
X125850000Y-39150000I-50000J0D01*
G01*
X124150000Y-39150000D01*
G75*
G02*
X124100000Y-39100000I0J50000D01*
G01*
G37*
%TD*%
%TO.C,J4*%
X125000000Y-32540000D03*
G36*
G01*
X124100000Y-30850000D02*
X124100000Y-29150000D01*
G75*
G02*
X124150000Y-29100000I50000J0D01*
G01*
X125850000Y-29100000D01*
G75*
G02*
X125900000Y-29150000I0J-50000D01*
G01*
X125900000Y-30850000D01*
G75*
G02*
X125850000Y-30900000I-50000J0D01*
G01*
X124150000Y-30900000D01*
G75*
G02*
X124100000Y-30850000I0J50000D01*
G01*
G37*
%TD*%
%TO.C,D2*%
G36*
G01*
X119526000Y-88238000D02*
X119526000Y-87038000D01*
G75*
G02*
X119576000Y-86988000I50000J0D01*
G01*
X120476000Y-86988000D01*
G75*
G02*
X120526000Y-87038000I0J-50000D01*
G01*
X120526000Y-88238000D01*
G75*
G02*
X120476000Y-88288000I-50000J0D01*
G01*
X119576000Y-88288000D01*
G75*
G02*
X119526000Y-88238000I0J50000D01*
G01*
G37*
G36*
G01*
X116226000Y-88238000D02*
X116226000Y-87038000D01*
G75*
G02*
X116276000Y-86988000I50000J0D01*
G01*
X117176000Y-86988000D01*
G75*
G02*
X117226000Y-87038000I0J-50000D01*
G01*
X117226000Y-88238000D01*
G75*
G02*
X117176000Y-88288000I-50000J0D01*
G01*
X116276000Y-88288000D01*
G75*
G02*
X116226000Y-88238000I0J50000D01*
G01*
G37*
%TD*%
%TO.C,D1*%
G36*
G01*
X119526000Y-90524000D02*
X119526000Y-89324000D01*
G75*
G02*
X119576000Y-89274000I50000J0D01*
G01*
X120476000Y-89274000D01*
G75*
G02*
X120526000Y-89324000I0J-50000D01*
G01*
X120526000Y-90524000D01*
G75*
G02*
X120476000Y-90574000I-50000J0D01*
G01*
X119576000Y-90574000D01*
G75*
G02*
X119526000Y-90524000I0J50000D01*
G01*
G37*
G36*
G01*
X116226000Y-90524000D02*
X116226000Y-89324000D01*
G75*
G02*
X116276000Y-89274000I50000J0D01*
G01*
X117176000Y-89274000D01*
G75*
G02*
X117226000Y-89324000I0J-50000D01*
G01*
X117226000Y-90524000D01*
G75*
G02*
X117176000Y-90574000I-50000J0D01*
G01*
X116276000Y-90574000D01*
G75*
G02*
X116226000Y-90524000I0J50000D01*
G01*
G37*
%TD*%
%TO.C,JP2*%
X124500000Y-57790000D03*
G36*
G01*
X123600000Y-56100000D02*
X123600000Y-54400000D01*
G75*
G02*
X123650000Y-54350000I50000J0D01*
G01*
X125350000Y-54350000D01*
G75*
G02*
X125400000Y-54400000I0J-50000D01*
G01*
X125400000Y-56100000D01*
G75*
G02*
X125350000Y-56150000I-50000J0D01*
G01*
X123650000Y-56150000D01*
G75*
G02*
X123600000Y-56100000I0J50000D01*
G01*
G37*
%TD*%
%TO.C,U3*%
G36*
G01*
X104700000Y-105080000D02*
X104700000Y-104730000D01*
G75*
G02*
X104875000Y-104555000I175000J0D01*
G01*
X106575000Y-104555000D01*
G75*
G02*
X106750000Y-104730000I0J-175000D01*
G01*
X106750000Y-105080000D01*
G75*
G02*
X106575000Y-105255000I-175000J0D01*
G01*
X104875000Y-105255000D01*
G75*
G02*
X104700000Y-105080000I0J175000D01*
G01*
G37*
G36*
G01*
X104700000Y-103810000D02*
X104700000Y-103460000D01*
G75*
G02*
X104875000Y-103285000I175000J0D01*
G01*
X106575000Y-103285000D01*
G75*
G02*
X106750000Y-103460000I0J-175000D01*
G01*
X106750000Y-103810000D01*
G75*
G02*
X106575000Y-103985000I-175000J0D01*
G01*
X104875000Y-103985000D01*
G75*
G02*
X104700000Y-103810000I0J175000D01*
G01*
G37*
G36*
G01*
X104700000Y-102540000D02*
X104700000Y-102190000D01*
G75*
G02*
X104875000Y-102015000I175000J0D01*
G01*
X106575000Y-102015000D01*
G75*
G02*
X106750000Y-102190000I0J-175000D01*
G01*
X106750000Y-102540000D01*
G75*
G02*
X106575000Y-102715000I-175000J0D01*
G01*
X104875000Y-102715000D01*
G75*
G02*
X104700000Y-102540000I0J175000D01*
G01*
G37*
G36*
G01*
X104700000Y-101270000D02*
X104700000Y-100920000D01*
G75*
G02*
X104875000Y-100745000I175000J0D01*
G01*
X106575000Y-100745000D01*
G75*
G02*
X106750000Y-100920000I0J-175000D01*
G01*
X106750000Y-101270000D01*
G75*
G02*
X106575000Y-101445000I-175000J0D01*
G01*
X104875000Y-101445000D01*
G75*
G02*
X104700000Y-101270000I0J175000D01*
G01*
G37*
G36*
G01*
X99750000Y-101270000D02*
X99750000Y-100920000D01*
G75*
G02*
X99925000Y-100745000I175000J0D01*
G01*
X101625000Y-100745000D01*
G75*
G02*
X101800000Y-100920000I0J-175000D01*
G01*
X101800000Y-101270000D01*
G75*
G02*
X101625000Y-101445000I-175000J0D01*
G01*
X99925000Y-101445000D01*
G75*
G02*
X99750000Y-101270000I0J175000D01*
G01*
G37*
G36*
G01*
X99750000Y-102540000D02*
X99750000Y-102190000D01*
G75*
G02*
X99925000Y-102015000I175000J0D01*
G01*
X101625000Y-102015000D01*
G75*
G02*
X101800000Y-102190000I0J-175000D01*
G01*
X101800000Y-102540000D01*
G75*
G02*
X101625000Y-102715000I-175000J0D01*
G01*
X99925000Y-102715000D01*
G75*
G02*
X99750000Y-102540000I0J175000D01*
G01*
G37*
G36*
G01*
X99750000Y-103810000D02*
X99750000Y-103460000D01*
G75*
G02*
X99925000Y-103285000I175000J0D01*
G01*
X101625000Y-103285000D01*
G75*
G02*
X101800000Y-103460000I0J-175000D01*
G01*
X101800000Y-103810000D01*
G75*
G02*
X101625000Y-103985000I-175000J0D01*
G01*
X99925000Y-103985000D01*
G75*
G02*
X99750000Y-103810000I0J175000D01*
G01*
G37*
G36*
G01*
X99750000Y-105080000D02*
X99750000Y-104730000D01*
G75*
G02*
X99925000Y-104555000I175000J0D01*
G01*
X101625000Y-104555000D01*
G75*
G02*
X101800000Y-104730000I0J-175000D01*
G01*
X101800000Y-105080000D01*
G75*
G02*
X101625000Y-105255000I-175000J0D01*
G01*
X99925000Y-105255000D01*
G75*
G02*
X99750000Y-105080000I0J175000D01*
G01*
G37*
%TD*%
%TO.C,U2*%
G36*
G01*
X43658000Y-48144000D02*
X44008000Y-48144000D01*
G75*
G02*
X44183000Y-48319000I0J-175000D01*
G01*
X44183000Y-50019000D01*
G75*
G02*
X44008000Y-50194000I-175000J0D01*
G01*
X43658000Y-50194000D01*
G75*
G02*
X43483000Y-50019000I0J175000D01*
G01*
X43483000Y-48319000D01*
G75*
G02*
X43658000Y-48144000I175000J0D01*
G01*
G37*
G36*
G01*
X44928000Y-48144000D02*
X45278000Y-48144000D01*
G75*
G02*
X45453000Y-48319000I0J-175000D01*
G01*
X45453000Y-50019000D01*
G75*
G02*
X45278000Y-50194000I-175000J0D01*
G01*
X44928000Y-50194000D01*
G75*
G02*
X44753000Y-50019000I0J175000D01*
G01*
X44753000Y-48319000D01*
G75*
G02*
X44928000Y-48144000I175000J0D01*
G01*
G37*
G36*
G01*
X46198000Y-48144000D02*
X46548000Y-48144000D01*
G75*
G02*
X46723000Y-48319000I0J-175000D01*
G01*
X46723000Y-50019000D01*
G75*
G02*
X46548000Y-50194000I-175000J0D01*
G01*
X46198000Y-50194000D01*
G75*
G02*
X46023000Y-50019000I0J175000D01*
G01*
X46023000Y-48319000D01*
G75*
G02*
X46198000Y-48144000I175000J0D01*
G01*
G37*
G36*
G01*
X47468000Y-48144000D02*
X47818000Y-48144000D01*
G75*
G02*
X47993000Y-48319000I0J-175000D01*
G01*
X47993000Y-50019000D01*
G75*
G02*
X47818000Y-50194000I-175000J0D01*
G01*
X47468000Y-50194000D01*
G75*
G02*
X47293000Y-50019000I0J175000D01*
G01*
X47293000Y-48319000D01*
G75*
G02*
X47468000Y-48144000I175000J0D01*
G01*
G37*
G36*
G01*
X47468000Y-43194000D02*
X47818000Y-43194000D01*
G75*
G02*
X47993000Y-43369000I0J-175000D01*
G01*
X47993000Y-45069000D01*
G75*
G02*
X47818000Y-45244000I-175000J0D01*
G01*
X47468000Y-45244000D01*
G75*
G02*
X47293000Y-45069000I0J175000D01*
G01*
X47293000Y-43369000D01*
G75*
G02*
X47468000Y-43194000I175000J0D01*
G01*
G37*
G36*
G01*
X46198000Y-43194000D02*
X46548000Y-43194000D01*
G75*
G02*
X46723000Y-43369000I0J-175000D01*
G01*
X46723000Y-45069000D01*
G75*
G02*
X46548000Y-45244000I-175000J0D01*
G01*
X46198000Y-45244000D01*
G75*
G02*
X46023000Y-45069000I0J175000D01*
G01*
X46023000Y-43369000D01*
G75*
G02*
X46198000Y-43194000I175000J0D01*
G01*
G37*
G36*
G01*
X44928000Y-43194000D02*
X45278000Y-43194000D01*
G75*
G02*
X45453000Y-43369000I0J-175000D01*
G01*
X45453000Y-45069000D01*
G75*
G02*
X45278000Y-45244000I-175000J0D01*
G01*
X44928000Y-45244000D01*
G75*
G02*
X44753000Y-45069000I0J175000D01*
G01*
X44753000Y-43369000D01*
G75*
G02*
X44928000Y-43194000I175000J0D01*
G01*
G37*
G36*
G01*
X43658000Y-43194000D02*
X44008000Y-43194000D01*
G75*
G02*
X44183000Y-43369000I0J-175000D01*
G01*
X44183000Y-45069000D01*
G75*
G02*
X44008000Y-45244000I-175000J0D01*
G01*
X43658000Y-45244000D01*
G75*
G02*
X43483000Y-45069000I0J175000D01*
G01*
X43483000Y-43369000D01*
G75*
G02*
X43658000Y-43194000I175000J0D01*
G01*
G37*
%TD*%
D18*
%TO.C,BT1*%
X112250000Y-35250000D03*
G36*
G01*
X109750000Y-52700000D02*
X114750000Y-52700000D01*
G75*
G02*
X114800000Y-52750000I0J-50000D01*
G01*
X114800000Y-57750000D01*
G75*
G02*
X114750000Y-57800000I-50000J0D01*
G01*
X109750000Y-57800000D01*
G75*
G02*
X109700000Y-57750000I0J50000D01*
G01*
X109700000Y-52750000D01*
G75*
G02*
X109750000Y-52700000I50000J0D01*
G01*
G37*
%TD*%
%TO.C,J1*%
G36*
G01*
X125600000Y-75350000D02*
X125600000Y-73650000D01*
G75*
G02*
X125650000Y-73600000I50000J0D01*
G01*
X127350000Y-73600000D01*
G75*
G02*
X127400000Y-73650000I0J-50000D01*
G01*
X127400000Y-75350000D01*
G75*
G02*
X127350000Y-75400000I-50000J0D01*
G01*
X125650000Y-75400000D01*
G75*
G02*
X125600000Y-75350000I0J50000D01*
G01*
G37*
D14*
X77500000Y-79120000D03*
G36*
G01*
X76600000Y-72350000D02*
X76600000Y-70650000D01*
G75*
G02*
X76650000Y-70600000I50000J0D01*
G01*
X78350000Y-70600000D01*
G75*
G02*
X78400000Y-70650000I0J-50000D01*
G01*
X78400000Y-72350000D01*
G75*
G02*
X78350000Y-72400000I-50000J0D01*
G01*
X76650000Y-72400000D01*
G75*
G02*
X76600000Y-72350000I0J50000D01*
G01*
G37*
X94960000Y-40500000D03*
X126500000Y-79580000D03*
X126500000Y-77040000D03*
X77500000Y-76580000D03*
X77500000Y-74040000D03*
X92420000Y-40500000D03*
G36*
G01*
X96650000Y-39600000D02*
X98350000Y-39600000D01*
G75*
G02*
X98400000Y-39650000I0J-50000D01*
G01*
X98400000Y-41350000D01*
G75*
G02*
X98350000Y-41400000I-50000J0D01*
G01*
X96650000Y-41400000D01*
G75*
G02*
X96600000Y-41350000I0J50000D01*
G01*
X96600000Y-39650000D01*
G75*
G02*
X96650000Y-39600000I50000J0D01*
G01*
G37*
X92580000Y-46000000D03*
G36*
G01*
X51850000Y-66900000D02*
X50150000Y-66900000D01*
G75*
G02*
X50100000Y-66850000I0J50000D01*
G01*
X50100000Y-65150000D01*
G75*
G02*
X50150000Y-65100000I50000J0D01*
G01*
X51850000Y-65100000D01*
G75*
G02*
X51900000Y-65150000I0J-50000D01*
G01*
X51900000Y-66850000D01*
G75*
G02*
X51850000Y-66900000I-50000J0D01*
G01*
G37*
X58620000Y-66000000D03*
X56080000Y-66000000D03*
X53540000Y-66000000D03*
X95120000Y-46000000D03*
G36*
G01*
X88350000Y-46900000D02*
X86650000Y-46900000D01*
G75*
G02*
X86600000Y-46850000I0J50000D01*
G01*
X86600000Y-45150000D01*
G75*
G02*
X86650000Y-45100000I50000J0D01*
G01*
X88350000Y-45100000D01*
G75*
G02*
X88400000Y-45150000I0J-50000D01*
G01*
X88400000Y-46850000D01*
G75*
G02*
X88350000Y-46900000I-50000J0D01*
G01*
G37*
X97660000Y-46000000D03*
X90040000Y-46000000D03*
X91540000Y-64500000D03*
G36*
G01*
X89850000Y-65400000D02*
X88150000Y-65400000D01*
G75*
G02*
X88100000Y-65350000I0J50000D01*
G01*
X88100000Y-63650000D01*
G75*
G02*
X88150000Y-63600000I50000J0D01*
G01*
X89850000Y-63600000D01*
G75*
G02*
X89900000Y-63650000I0J-50000D01*
G01*
X89900000Y-65350000D01*
G75*
G02*
X89850000Y-65400000I-50000J0D01*
G01*
G37*
X102540000Y-64500000D03*
G36*
G01*
X100850000Y-65400000D02*
X99150000Y-65400000D01*
G75*
G02*
X99100000Y-65350000I0J50000D01*
G01*
X99100000Y-63650000D01*
G75*
G02*
X99150000Y-63600000I50000J0D01*
G01*
X100850000Y-63600000D01*
G75*
G02*
X100900000Y-63650000I0J-50000D01*
G01*
X100900000Y-65350000D01*
G75*
G02*
X100850000Y-65400000I-50000J0D01*
G01*
G37*
G36*
G01*
X78350000Y-53900000D02*
X76650000Y-53900000D01*
G75*
G02*
X76600000Y-53850000I0J50000D01*
G01*
X76600000Y-52150000D01*
G75*
G02*
X76650000Y-52100000I50000J0D01*
G01*
X78350000Y-52100000D01*
G75*
G02*
X78400000Y-52150000I0J-50000D01*
G01*
X78400000Y-53850000D01*
G75*
G02*
X78350000Y-53900000I-50000J0D01*
G01*
G37*
X80040000Y-53000000D03*
X86540000Y-60500000D03*
G36*
G01*
X84850000Y-61400000D02*
X83150000Y-61400000D01*
G75*
G02*
X83100000Y-61350000I0J50000D01*
G01*
X83100000Y-59650000D01*
G75*
G02*
X83150000Y-59600000I50000J0D01*
G01*
X84850000Y-59600000D01*
G75*
G02*
X84900000Y-59650000I0J-50000D01*
G01*
X84900000Y-61350000D01*
G75*
G02*
X84850000Y-61400000I-50000J0D01*
G01*
G37*
X89080000Y-60500000D03*
X91620000Y-60500000D03*
X89080000Y-53000000D03*
X86540000Y-53000000D03*
X91620000Y-53000000D03*
G36*
G01*
X84850000Y-53900000D02*
X83150000Y-53900000D01*
G75*
G02*
X83100000Y-53850000I0J50000D01*
G01*
X83100000Y-52150000D01*
G75*
G02*
X83150000Y-52100000I50000J0D01*
G01*
X84850000Y-52100000D01*
G75*
G02*
X84900000Y-52150000I0J-50000D01*
G01*
X84900000Y-53850000D01*
G75*
G02*
X84850000Y-53900000I-50000J0D01*
G01*
G37*
X101080000Y-60500000D03*
X103620000Y-60500000D03*
G36*
G01*
X96850000Y-61400000D02*
X95150000Y-61400000D01*
G75*
G02*
X95100000Y-61350000I0J50000D01*
G01*
X95100000Y-59650000D01*
G75*
G02*
X95150000Y-59600000I50000J0D01*
G01*
X96850000Y-59600000D01*
G75*
G02*
X96900000Y-59650000I0J-50000D01*
G01*
X96900000Y-61350000D01*
G75*
G02*
X96850000Y-61400000I-50000J0D01*
G01*
G37*
X98540000Y-60500000D03*
%TD*%
%TO.C,R9*%
G36*
G01*
X82753500Y-78286389D02*
X82753500Y-79237611D01*
G75*
G02*
X82479111Y-79512000I-274389J0D01*
G01*
X81902889Y-79512000D01*
G75*
G02*
X81628500Y-79237611I0J274389D01*
G01*
X81628500Y-78286389D01*
G75*
G02*
X81902889Y-78012000I274389J0D01*
G01*
X82479111Y-78012000D01*
G75*
G02*
X82753500Y-78286389I0J-274389D01*
G01*
G37*
G36*
G01*
X84578500Y-78286389D02*
X84578500Y-79237611D01*
G75*
G02*
X84304111Y-79512000I-274389J0D01*
G01*
X83727889Y-79512000D01*
G75*
G02*
X83453500Y-79237611I0J274389D01*
G01*
X83453500Y-78286389D01*
G75*
G02*
X83727889Y-78012000I274389J0D01*
G01*
X84304111Y-78012000D01*
G75*
G02*
X84578500Y-78286389I0J-274389D01*
G01*
G37*
%TD*%
%TO.C,R8*%
G36*
G01*
X83453500Y-76987611D02*
X83453500Y-76036389D01*
G75*
G02*
X83727889Y-75762000I274389J0D01*
G01*
X84304111Y-75762000D01*
G75*
G02*
X84578500Y-76036389I0J-274389D01*
G01*
X84578500Y-76987611D01*
G75*
G02*
X84304111Y-77262000I-274389J0D01*
G01*
X83727889Y-77262000D01*
G75*
G02*
X83453500Y-76987611I0J274389D01*
G01*
G37*
G36*
G01*
X81628500Y-76987611D02*
X81628500Y-76036389D01*
G75*
G02*
X81902889Y-75762000I274389J0D01*
G01*
X82479111Y-75762000D01*
G75*
G02*
X82753500Y-76036389I0J-274389D01*
G01*
X82753500Y-76987611D01*
G75*
G02*
X82479111Y-77262000I-274389J0D01*
G01*
X81902889Y-77262000D01*
G75*
G02*
X81628500Y-76987611I0J274389D01*
G01*
G37*
%TD*%
%TO.C,R7*%
G36*
G01*
X92124389Y-36897500D02*
X93075611Y-36897500D01*
G75*
G02*
X93350000Y-37171889I0J-274389D01*
G01*
X93350000Y-37748111D01*
G75*
G02*
X93075611Y-38022500I-274389J0D01*
G01*
X92124389Y-38022500D01*
G75*
G02*
X91850000Y-37748111I0J274389D01*
G01*
X91850000Y-37171889D01*
G75*
G02*
X92124389Y-36897500I274389J0D01*
G01*
G37*
G36*
G01*
X92124389Y-35072500D02*
X93075611Y-35072500D01*
G75*
G02*
X93350000Y-35346889I0J-274389D01*
G01*
X93350000Y-35923111D01*
G75*
G02*
X93075611Y-36197500I-274389J0D01*
G01*
X92124389Y-36197500D01*
G75*
G02*
X91850000Y-35923111I0J274389D01*
G01*
X91850000Y-35346889D01*
G75*
G02*
X92124389Y-35072500I274389J0D01*
G01*
G37*
%TD*%
%TO.C,R6*%
G36*
G01*
X95075611Y-36197500D02*
X94124389Y-36197500D01*
G75*
G02*
X93850000Y-35923111I0J274389D01*
G01*
X93850000Y-35346889D01*
G75*
G02*
X94124389Y-35072500I274389J0D01*
G01*
X95075611Y-35072500D01*
G75*
G02*
X95350000Y-35346889I0J-274389D01*
G01*
X95350000Y-35923111D01*
G75*
G02*
X95075611Y-36197500I-274389J0D01*
G01*
G37*
G36*
G01*
X95075611Y-38022500D02*
X94124389Y-38022500D01*
G75*
G02*
X93850000Y-37748111I0J274389D01*
G01*
X93850000Y-37171889D01*
G75*
G02*
X94124389Y-36897500I274389J0D01*
G01*
X95075611Y-36897500D01*
G75*
G02*
X95350000Y-37171889I0J-274389D01*
G01*
X95350000Y-37748111D01*
G75*
G02*
X95075611Y-38022500I-274389J0D01*
G01*
G37*
%TD*%
%TO.C,R5*%
G36*
G01*
X121437500Y-79348611D02*
X121437500Y-78397389D01*
G75*
G02*
X121711889Y-78123000I274389J0D01*
G01*
X122288111Y-78123000D01*
G75*
G02*
X122562500Y-78397389I0J-274389D01*
G01*
X122562500Y-79348611D01*
G75*
G02*
X122288111Y-79623000I-274389J0D01*
G01*
X121711889Y-79623000D01*
G75*
G02*
X121437500Y-79348611I0J274389D01*
G01*
G37*
G36*
G01*
X119612500Y-79348611D02*
X119612500Y-78397389D01*
G75*
G02*
X119886889Y-78123000I274389J0D01*
G01*
X120463111Y-78123000D01*
G75*
G02*
X120737500Y-78397389I0J-274389D01*
G01*
X120737500Y-79348611D01*
G75*
G02*
X120463111Y-79623000I-274389J0D01*
G01*
X119886889Y-79623000D01*
G75*
G02*
X119612500Y-79348611I0J274389D01*
G01*
G37*
%TD*%
%TO.C,R4*%
G36*
G01*
X120737500Y-76397389D02*
X120737500Y-77348611D01*
G75*
G02*
X120463111Y-77623000I-274389J0D01*
G01*
X119886889Y-77623000D01*
G75*
G02*
X119612500Y-77348611I0J274389D01*
G01*
X119612500Y-76397389D01*
G75*
G02*
X119886889Y-76123000I274389J0D01*
G01*
X120463111Y-76123000D01*
G75*
G02*
X120737500Y-76397389I0J-274389D01*
G01*
G37*
G36*
G01*
X122562500Y-76397389D02*
X122562500Y-77348611D01*
G75*
G02*
X122288111Y-77623000I-274389J0D01*
G01*
X121711889Y-77623000D01*
G75*
G02*
X121437500Y-77348611I0J274389D01*
G01*
X121437500Y-76397389D01*
G75*
G02*
X121711889Y-76123000I274389J0D01*
G01*
X122288111Y-76123000D01*
G75*
G02*
X122562500Y-76397389I0J-274389D01*
G01*
G37*
%TD*%
%TO.C,R3*%
G36*
G01*
X73351500Y-79469611D02*
X73351500Y-78518389D01*
G75*
G02*
X73625889Y-78244000I274389J0D01*
G01*
X74202111Y-78244000D01*
G75*
G02*
X74476500Y-78518389I0J-274389D01*
G01*
X74476500Y-79469611D01*
G75*
G02*
X74202111Y-79744000I-274389J0D01*
G01*
X73625889Y-79744000D01*
G75*
G02*
X73351500Y-79469611I0J274389D01*
G01*
G37*
G36*
G01*
X71526500Y-79469611D02*
X71526500Y-78518389D01*
G75*
G02*
X71800889Y-78244000I274389J0D01*
G01*
X72377111Y-78244000D01*
G75*
G02*
X72651500Y-78518389I0J-274389D01*
G01*
X72651500Y-79469611D01*
G75*
G02*
X72377111Y-79744000I-274389J0D01*
G01*
X71800889Y-79744000D01*
G75*
G02*
X71526500Y-79469611I0J274389D01*
G01*
G37*
%TD*%
%TO.C,R2*%
G36*
G01*
X72590000Y-76102389D02*
X72590000Y-77053611D01*
G75*
G02*
X72315611Y-77328000I-274389J0D01*
G01*
X71739389Y-77328000D01*
G75*
G02*
X71465000Y-77053611I0J274389D01*
G01*
X71465000Y-76102389D01*
G75*
G02*
X71739389Y-75828000I274389J0D01*
G01*
X72315611Y-75828000D01*
G75*
G02*
X72590000Y-76102389I0J-274389D01*
G01*
G37*
G36*
G01*
X74415000Y-76102389D02*
X74415000Y-77053611D01*
G75*
G02*
X74140611Y-77328000I-274389J0D01*
G01*
X73564389Y-77328000D01*
G75*
G02*
X73290000Y-77053611I0J274389D01*
G01*
X73290000Y-76102389D01*
G75*
G02*
X73564389Y-75828000I274389J0D01*
G01*
X74140611Y-75828000D01*
G75*
G02*
X74415000Y-76102389I0J-274389D01*
G01*
G37*
%TD*%
%TO.C,R1*%
G36*
G01*
X111975611Y-101400000D02*
X111024389Y-101400000D01*
G75*
G02*
X110750000Y-101125611I0J274389D01*
G01*
X110750000Y-100549389D01*
G75*
G02*
X111024389Y-100275000I274389J0D01*
G01*
X111975611Y-100275000D01*
G75*
G02*
X112250000Y-100549389I0J-274389D01*
G01*
X112250000Y-101125611D01*
G75*
G02*
X111975611Y-101400000I-274389J0D01*
G01*
G37*
G36*
G01*
X111975611Y-103225000D02*
X111024389Y-103225000D01*
G75*
G02*
X110750000Y-102950611I0J274389D01*
G01*
X110750000Y-102374389D01*
G75*
G02*
X111024389Y-102100000I274389J0D01*
G01*
X111975611Y-102100000D01*
G75*
G02*
X112250000Y-102374389I0J-274389D01*
G01*
X112250000Y-102950611D01*
G75*
G02*
X111975611Y-103225000I-274389J0D01*
G01*
G37*
%TD*%
%TO.C,C2*%
G36*
G01*
X96500000Y-103700000D02*
X97500000Y-103700000D01*
G75*
G02*
X97775000Y-103975000I0J-275000D01*
G01*
X97775000Y-104525000D01*
G75*
G02*
X97500000Y-104800000I-275000J0D01*
G01*
X96500000Y-104800000D01*
G75*
G02*
X96225000Y-104525000I0J275000D01*
G01*
X96225000Y-103975000D01*
G75*
G02*
X96500000Y-103700000I275000J0D01*
G01*
G37*
G36*
G01*
X96500000Y-101800000D02*
X97500000Y-101800000D01*
G75*
G02*
X97775000Y-102075000I0J-275000D01*
G01*
X97775000Y-102625000D01*
G75*
G02*
X97500000Y-102900000I-275000J0D01*
G01*
X96500000Y-102900000D01*
G75*
G02*
X96225000Y-102625000I0J275000D01*
G01*
X96225000Y-102075000D01*
G75*
G02*
X96500000Y-101800000I275000J0D01*
G01*
G37*
%TD*%
%TO.C,C1*%
G36*
G01*
X45485000Y-52570000D02*
X45485000Y-51570000D01*
G75*
G02*
X45760000Y-51295000I275000J0D01*
G01*
X46310000Y-51295000D01*
G75*
G02*
X46585000Y-51570000I0J-275000D01*
G01*
X46585000Y-52570000D01*
G75*
G02*
X46310000Y-52845000I-275000J0D01*
G01*
X45760000Y-52845000D01*
G75*
G02*
X45485000Y-52570000I0J275000D01*
G01*
G37*
G36*
G01*
X43585000Y-52570000D02*
X43585000Y-51570000D01*
G75*
G02*
X43860000Y-51295000I275000J0D01*
G01*
X44410000Y-51295000D01*
G75*
G02*
X44685000Y-51570000I0J-275000D01*
G01*
X44685000Y-52570000D01*
G75*
G02*
X44410000Y-52845000I-275000J0D01*
G01*
X43860000Y-52845000D01*
G75*
G02*
X43585000Y-52570000I0J275000D01*
G01*
G37*
%TD*%
M02*
