M48
; DRILL file {KiCad 5.1.7-a382d34a8~88~ubuntu20.04.1} date Thu Apr  8 15:20:10 2021
; FORMAT={-:-/ absolute / inch / decimal}
; #@! TF.CreationDate,2021-04-08T15:20:10+02:00
; #@! TF.GenerationSoftware,Kicad,Pcbnew,5.1.7-a382d34a8~88~ubuntu20.04.1
FMAT,2
INCH
T1C0.0157
T2C0.0350
T3C0.0394
T4C0.0402
T5C0.0421
T6C0.0618
T7C0.1575
T8C0.1181
T9C0.1280
%
G90
G05
T1
X1.6732Y-2.1161
X1.6732Y-2.1555
X1.6831Y-3.9567
X1.71Y-2.48
X1.7224Y-1.6831
X1.7313Y-2.4213
X1.74Y-2.12
X1.7618Y-1.8701
X1.8209Y-2.1555
X1.8209Y-3.8386
X1.8215Y-2.12
X1.8701Y-3.061
X1.8799Y-1.6929
X1.91Y-2.0
X1.91Y-2.1
X2.0434Y-1.5989
X2.0709Y-1.5315
X2.248Y-2.3898
X2.252Y-2.2874
X2.2717Y-1.5433
X2.2721Y-3.7525
X2.31Y-1.93
X2.3346Y-1.7283
X2.3661Y-2.4961
X2.374Y-2.4055
X2.4Y-1.83
X2.4291Y-2.0039
X2.45Y-1.93
X2.4646Y-1.5866
X2.5Y-4.0846
X2.5453Y-3.061
X2.55Y-1.83
X2.5551Y-2.8346
X2.56Y-1.93
X2.5709Y-1.9882
X2.6102Y-2.0591
X2.63Y-1.83
X2.6378Y-2.9528
X2.72Y-1.93
X2.7244Y-2.5157
X2.7283Y-2.8346
X2.7362Y-4.4094
X2.7461Y-3.8878
X2.7461Y-4.065
X2.7717Y-2.6437
X2.7854Y-3.7884
X2.7854Y-3.8878
X2.7854Y-4.065
X2.8Y-1.83
X2.8167Y-3.06
X2.8248Y-3.8878
X2.8248Y-4.065
X2.9331Y-3.7608
X3.13Y-1.84
X3.14Y-3.17
X3.22Y-1.74
X3.28Y-1.5453
X3.3077Y-3.0477
X3.3228Y-2.4685
X3.3376Y-4.128
X3.35Y-1.62
X3.3661Y-2.6181
X3.37Y-1.46
X3.4134Y-2.8937
X3.42Y-1.55
X3.437Y-2.7126
X3.4685Y-3.0157
X3.4941Y-4.1437
X3.5433Y-3.9665
X3.6024Y-4.1437
X3.6122Y-3.9665
X3.62Y-4.5
X3.65Y-1.37
X3.68Y-4.02
X3.6929Y-2.7953
X3.6929Y-2.874
X3.6929Y-3.1693
X3.7087Y-3.0039
X3.7795Y-2.7638
X3.7913Y-3.1693
X3.8091Y-3.6319
X3.811Y-2.9409
X3.8189Y-4.0
X3.8189Y-4.1339
X3.8268Y-2.8661
X3.8287Y-2.0669
X3.8386Y-2.1457
X3.86Y-1.15
X3.89Y-4.09
X3.8937Y-3.1693
X3.8976Y-1.9783
X3.9Y-3.98
X3.9469Y-2.0768
X3.9634Y-1.984
X4.0Y-1.15
X4.0039Y-3.2795
X4.0299Y-4.0801
X4.1535Y-1.5256
X4.1831Y-2.0079
X4.1831Y-1.939
X4.22Y-4.44
X4.2323Y-4.1339
X4.2815Y-1.5748
X4.3012Y-3.3465
X4.311Y-2.0079
X4.3406Y-1.8209
X4.3602Y-1.6732
X4.4094Y-2.8583
X4.439Y-3.4646
X4.4783Y-1.5748
X4.48Y-1.78
X4.5374Y-1.6634
X4.5571Y-3.4252
X4.5571Y-3.4547
X4.5787Y-2.5945
X4.5866Y-4.3534
X4.6339Y-2.7244
X4.6496Y-2.8465
X4.65Y-1.78
X4.7091Y-3.0265
X4.813Y-3.189
X4.9213Y-3.2677
T2
X4.3701Y-4.36
X4.4602Y-4.36
X4.5Y-4.6198
X4.54Y-4.5498
X4.58Y-4.6198
X4.62Y-4.5498
X4.66Y-4.6198
X4.7Y-4.5498
X4.74Y-4.6198
X4.78Y-4.5498
X4.8201Y-4.36
X4.9102Y-4.36
X3.5799Y-4.3602
X3.6701Y-4.3602
X3.7098Y-4.62
X3.7498Y-4.5499
X3.7898Y-4.62
X3.8298Y-4.5499
X3.8698Y-4.62
X3.9098Y-4.5499
X3.9498Y-4.62
X3.9898Y-4.5499
X4.0299Y-4.3602
X4.1201Y-4.3602
T3
X3.0Y-4.1
X2.2Y-4.8
X2.8Y-4.8
X2.6Y-4.6
X3.1921Y-4.6
X2.2Y-4.3
X2.6Y-4.8
X4.9213Y-1.5059
X4.9213Y-1.6059
X4.9213Y-1.7059
X4.9213Y-1.8059
X4.9016Y-2.1752
X4.9016Y-2.2752
X2.4Y-4.8
X1.8Y-4.4
X2.4Y-4.3
X2.9953Y-4.8
X2.6Y-4.1
X1.8Y-4.6
X3.2Y-4.1
X2.2Y-4.1
X4.69Y-3.98
X2.8Y-4.6
X2.0079Y-2.5984
X2.1079Y-2.5984
X2.2079Y-2.5984
X2.3079Y-2.5984
X3.0512Y-2.0866
X3.0512Y-2.815
X3.0512Y-2.915
X3.0512Y-3.015
X3.0512Y-3.115
X3.1512Y-2.0866
X3.3071Y-2.0866
X3.3071Y-2.3819
X3.4071Y-2.0866
X3.4071Y-2.3819
X3.4449Y-1.811
X3.5039Y-2.5394
X3.5071Y-2.0866
X3.5071Y-2.3819
X3.5449Y-1.811
X3.6039Y-2.5394
X3.6071Y-2.0866
X3.6071Y-2.3819
X3.6386Y-1.5945
X3.6449Y-1.811
X3.7386Y-1.5945
X3.7449Y-1.811
X3.7795Y-2.3819
X3.8386Y-1.5945
X3.8449Y-1.811
X3.8795Y-2.3819
X3.937Y-2.5394
X3.9795Y-2.3819
X4.037Y-2.5394
X4.0795Y-2.3819
X4.9803Y-2.9331
X4.9803Y-3.0331
X4.9803Y-3.1331
X4.89Y-4.18
X2.2Y-4.6
X4.9Y-3.5
X4.69Y-4.18
X3.1921Y-4.8
X3.0Y-4.6
X4.9Y-3.7
X2.4Y-4.6
X1.8Y-4.8
X4.89Y-3.98
X4.9213Y-1.1811
X4.9213Y-1.2811
X2.4Y-4.1
X3.2Y-4.3
X2.6Y-4.3
X3.0Y-4.3
X4.5316Y-1.1769
X4.5316Y-3.6819
X4.6316Y-1.1769
X4.6316Y-3.6819
T4
X1.7283Y-1.1795
X1.7283Y-1.2795
X1.7283Y-3.5795
X1.7283Y-3.6795
X1.8283Y-1.1795
X1.8283Y-1.2795
X1.8283Y-3.5795
X1.8283Y-3.6795
X1.9283Y-1.1795
X1.9283Y-1.2795
X1.9283Y-3.5795
X1.9283Y-3.6795
X2.0283Y-1.1795
X2.0283Y-1.2795
X2.0283Y-3.5795
X2.0283Y-3.6795
X2.1283Y-1.1795
X2.1283Y-1.2795
X2.1283Y-3.5795
X2.1283Y-3.6795
X2.2283Y-1.1795
X2.2283Y-1.2795
X2.2283Y-3.5795
X2.2283Y-3.6795
X2.3283Y-1.1795
X2.3283Y-1.2795
X2.3283Y-3.5795
X2.3283Y-3.6795
X2.4283Y-1.1795
X2.4283Y-1.2795
X2.4283Y-3.5795
X2.4283Y-3.6795
X2.5283Y-1.1795
X2.5283Y-1.2795
X2.5283Y-3.5795
X2.5283Y-3.6795
X2.6283Y-1.1795
X2.6283Y-1.2795
X2.6283Y-3.5795
X2.6283Y-3.6795
X2.7283Y-1.1795
X2.7283Y-1.2795
X2.7283Y-3.5795
X2.7283Y-3.6795
X2.8283Y-1.1795
X2.8283Y-1.2795
X2.8283Y-3.5795
X2.8283Y-3.6795
X2.9283Y-1.1795
X2.9283Y-1.2795
X2.9283Y-3.5795
X2.9283Y-3.6795
X3.0283Y-1.1795
X3.0283Y-1.2795
X3.0283Y-3.5795
X3.0283Y-3.6795
X3.1283Y-1.1795
X3.1283Y-1.2795
X3.1283Y-3.5795
X3.1283Y-3.6795
X3.2283Y-1.1795
X3.2283Y-1.2795
X3.2283Y-3.5795
X3.2283Y-3.6795
X3.3283Y-1.1795
X3.3283Y-1.2795
X3.3283Y-3.5795
X3.3283Y-3.6795
X3.4283Y-1.1795
X3.4283Y-1.2795
X3.4283Y-3.5795
X3.4283Y-3.6795
X3.5283Y-1.1795
X3.5283Y-1.2795
X3.5283Y-3.5795
X3.5283Y-3.6795
T5
X1.7283Y-1.4795
X1.7283Y-3.3795
X1.8283Y-1.4795
X1.8283Y-3.3795
X1.9283Y-1.4795
X1.9283Y-3.3795
X2.0283Y-1.4795
X2.0283Y-3.3795
X2.1283Y-1.4795
X2.1283Y-3.3795
X2.2283Y-1.4795
X2.2283Y-3.3795
X2.3283Y-3.3795
X2.4283Y-1.4795
X2.4283Y-3.3795
X2.5283Y-1.4795
X2.5882Y-3.3795
X2.6283Y-1.4795
X2.6882Y-3.3795
X2.7283Y-1.4795
X2.7882Y-3.3795
X2.8283Y-1.4795
X2.8882Y-3.3795
X2.9283Y-1.4795
X2.9882Y-3.3795
X3.0283Y-1.4795
X3.0882Y-3.3795
X3.1283Y-1.4795
X3.1882Y-3.3795
X3.2882Y-3.3795
X3.3882Y-3.3795
X3.4882Y-3.3795
T6
X4.3201Y-4.5848
X4.9602Y-4.5848
X3.5299Y-4.585
X4.1701Y-4.585
T7
X4.4193Y-1.3878
X4.4193Y-2.1752
T8
X1.6283Y-2.7795
X3.6283Y-3.3795
T9
X4.3902Y-4.7198
X4.8902Y-4.7198
X3.6Y-4.72
X4.1Y-4.72
T0
M30
